<svg width="20" height="21" viewBox="0 0 20 21" fill="none" xmlns="http://www.w3.org/2000/svg">
<path d="M16.25 4.875H14.0844L13.0195 3.27813C12.9625 3.19262 12.8852 3.1225 12.7946 3.07399C12.704 3.02548 12.6028 3.00006 12.5 3H7.5C7.39721 3.00006 7.29602 3.02548 7.2054 3.07399C7.11478 3.1225 7.03752 3.19262 6.98047 3.27813L5.91484 4.875H3.75C3.25272 4.875 2.77581 5.07254 2.42417 5.42417C2.07254 5.77581 1.875 6.25272 1.875 6.75V15.5C1.875 15.9973 2.07254 16.4742 2.42417 16.8258C2.77581 17.1775 3.25272 17.375 3.75 17.375H16.25C16.7473 17.375 17.2242 17.1775 17.5758 16.8258C17.9275 16.4742 18.125 15.9973 18.125 15.5V6.75C18.125 6.25272 17.9275 5.77581 17.5758 5.42417C17.2242 5.07254 16.7473 4.875 16.25 4.875ZM16.875 15.5C16.875 15.6658 16.8092 15.8247 16.6919 15.9419C16.5747 16.0592 16.4158 16.125 16.25 16.125H3.75C3.58424 16.125 3.42527 16.0592 3.30806 15.9419C3.19085 15.8247 3.125 15.6658 3.125 15.5V6.75C3.125 6.58424 3.19085 6.42527 3.30806 6.30806C3.42527 6.19085 3.58424 6.125 3.75 6.125H6.25C6.35292 6.12507 6.45427 6.09971 6.54504 6.0512C6.63581 6.00268 6.71319 5.93249 6.77031 5.84688L7.83437 4.25H12.1648L13.2297 5.84688C13.2868 5.93249 13.3642 6.00268 13.455 6.0512C13.5457 6.09971 13.6471 6.12507 13.75 6.125H16.25C16.4158 6.125 16.5747 6.19085 16.6919 6.30806C16.8092 6.42527 16.875 6.58424 16.875 6.75V15.5ZM10 7.375C9.32013 7.375 8.65552 7.57661 8.09023 7.95432C7.52493 8.33204 7.08434 8.8689 6.82416 9.49703C6.56399 10.1251 6.49591 10.8163 6.62855 11.4831C6.76119 12.1499 7.08858 12.7624 7.56932 13.2432C8.05006 13.7239 8.66257 14.0513 9.32938 14.1839C9.99619 14.3166 10.6874 14.2485 11.3155 13.9883C11.9436 13.7282 12.4805 13.2876 12.8582 12.7223C13.2359 12.157 13.4375 11.4924 13.4375 10.8125C13.4365 9.90114 13.074 9.02739 12.4295 8.38296C11.7851 7.73853 10.9114 7.37603 10 7.375ZM10 13C9.56735 13 9.14442 12.8717 8.78469 12.6313C8.42496 12.391 8.14458 12.0493 7.97901 11.6496C7.81345 11.2499 7.77013 10.8101 7.85453 10.3857C7.93894 9.96141 8.14728 9.57163 8.4532 9.2657C8.75913 8.95978 9.14891 8.75144 9.57324 8.66703C9.99757 8.58263 10.4374 8.62595 10.8371 8.79151C11.2368 8.95708 11.5785 9.23746 11.8188 9.59719C12.0592 9.95692 12.1875 10.3799 12.1875 10.8125C12.1875 11.3927 11.957 11.9491 11.5468 12.3593C11.1366 12.7695 10.5802 13 10 13Z" fill="#3498DB"/>
</svg>
