<svg width="20" height="21" viewBox="0 0 20 21" fill="none" xmlns="http://www.w3.org/2000/svg">
<path d="M7.5 9.39766L8.36406 11.125H6.63594L7.5 9.39766ZM18.125 4.875V17.375C18.1251 17.4816 18.0979 17.5864 18.046 17.6796C17.9942 17.7727 17.9193 17.851 17.8287 17.907C17.738 17.9631 17.6345 17.995 17.5281 17.9998C17.4216 18.0046 17.3156 17.9821 17.2203 17.9344L15 16.8234L12.7797 17.9344C12.6929 17.9778 12.5971 18.0004 12.5 18.0004C12.4029 18.0004 12.3071 17.9778 12.2203 17.9344L10 16.8234L7.77969 17.9344C7.69286 17.9778 7.5971 18.0004 7.5 18.0004C7.4029 18.0004 7.30714 17.9778 7.22031 17.9344L5 16.8234L2.77969 17.9344C2.68437 17.9821 2.57843 18.0046 2.47195 17.9998C2.36546 17.995 2.26197 17.9631 2.17131 17.907C2.08065 17.851 2.00584 17.7727 1.95397 17.6796C1.90211 17.5864 1.87492 17.4816 1.875 17.375V4.875C1.875 4.54348 2.0067 4.22554 2.24112 3.99112C2.47554 3.7567 2.79348 3.625 3.125 3.625H16.875C17.2065 3.625 17.5245 3.7567 17.7589 3.99112C17.9933 4.22554 18.125 4.54348 18.125 4.875ZM10.5594 12.7203L8.05938 7.72031C8.00754 7.61631 7.92773 7.52881 7.82892 7.46766C7.73011 7.4065 7.61621 7.3741 7.5 7.3741C7.38379 7.3741 7.26989 7.4065 7.17108 7.46766C7.07227 7.52881 6.99246 7.61631 6.94062 7.72031L4.44063 12.7203C4.36645 12.8687 4.35424 13.0404 4.40669 13.1978C4.45915 13.3551 4.57196 13.4852 4.72031 13.5594C4.86867 13.6336 5.04041 13.6458 5.19777 13.5933C5.35512 13.5409 5.4852 13.428 5.55938 13.2797L6.01094 12.375H8.98906L9.44062 13.2797C9.47735 13.3531 9.52819 13.4186 9.59024 13.4725C9.65228 13.5263 9.72432 13.5673 9.80223 13.5933C9.88015 13.6193 9.96241 13.6296 10.0443 13.6238C10.1263 13.618 10.2062 13.5961 10.2797 13.5594C10.3531 13.5226 10.4186 13.4718 10.4725 13.4098C10.5263 13.3477 10.5673 13.2757 10.5933 13.1978C10.6193 13.1199 10.6296 13.0376 10.6238 12.9557C10.618 12.8737 10.5961 12.7938 10.5594 12.7203ZM16.25 10.5C16.25 10.3342 16.1842 10.1753 16.0669 10.0581C15.9497 9.94085 15.7908 9.875 15.625 9.875H14.375V8.625C14.375 8.45924 14.3092 8.30027 14.1919 8.18306C14.0747 8.06585 13.9158 8 13.75 8C13.5842 8 13.4253 8.06585 13.3081 8.18306C13.1908 8.30027 13.125 8.45924 13.125 8.625V9.875H11.875C11.7092 9.875 11.5503 9.94085 11.4331 10.0581C11.3158 10.1753 11.25 10.3342 11.25 10.5C11.25 10.6658 11.3158 10.8247 11.4331 10.9419C11.5503 11.0592 11.7092 11.125 11.875 11.125H13.125V12.375C13.125 12.5408 13.1908 12.6997 13.3081 12.8169C13.4253 12.9342 13.5842 13 13.75 13C13.9158 13 14.0747 12.9342 14.1919 12.8169C14.3092 12.6997 14.375 12.5408 14.375 12.375V11.125H15.625C15.7908 11.125 15.9497 11.0592 16.0669 10.9419C16.1842 10.8247 16.25 10.6658 16.25 10.5Z" fill="#F5876C"/>
</svg>
