<svg width="14" height="14" viewBox="0 0 14 14" fill="none" xmlns="http://www.w3.org/2000/svg">
<path d="M2.625 6.5625H11.375C11.491 6.5625 11.6023 6.51641 11.6844 6.43436C11.7664 6.35231 11.8125 6.24103 11.8125 6.125V4.8125C11.8125 4.75503 11.8013 4.69811 11.7793 4.645C11.7574 4.59189 11.7251 4.54363 11.6845 4.50297L8.62203 1.44047C8.58137 1.39985 8.53311 1.36765 8.48 1.34569C8.42689 1.32373 8.36997 1.31245 8.3125 1.3125H3.0625C2.83044 1.3125 2.60788 1.40469 2.44378 1.56878C2.27969 1.73288 2.1875 1.95544 2.1875 2.1875V6.125C2.1875 6.24103 2.23359 6.35231 2.31564 6.43436C2.39769 6.51641 2.50897 6.5625 2.625 6.5625ZM8.3125 2.40625L10.7188 4.8125H8.3125V2.40625ZM12.25 8.3125C12.25 8.42853 12.2039 8.53981 12.1219 8.62186C12.0398 8.70391 11.9285 8.75 11.8125 8.75H10.5V9.625H11.375C11.491 9.625 11.6023 9.67109 11.6844 9.75314C11.7664 9.83519 11.8125 9.94647 11.8125 10.0625C11.8125 10.1785 11.7664 10.2898 11.6844 10.3719C11.6023 10.4539 11.491 10.5 11.375 10.5H10.5V11.375C10.5 11.491 10.4539 11.6023 10.3719 11.6844C10.2898 11.7664 10.1785 11.8125 10.0625 11.8125C9.94647 11.8125 9.83519 11.7664 9.75314 11.6844C9.67109 11.6023 9.625 11.491 9.625 11.375V8.3125C9.625 8.19647 9.67109 8.08519 9.75314 8.00314C9.83519 7.92109 9.94647 7.875 10.0625 7.875H11.8125C11.9285 7.875 12.0398 7.92109 12.1219 8.00314C12.2039 8.08519 12.25 8.19647 12.25 8.3125ZM3.5 7.875H2.625C2.50897 7.875 2.39769 7.92109 2.31564 8.00314C2.23359 8.08519 2.1875 8.19647 2.1875 8.3125V11.375C2.1875 11.491 2.23359 11.6023 2.31564 11.6844C2.39769 11.7664 2.50897 11.8125 2.625 11.8125C2.74103 11.8125 2.85231 11.7664 2.93436 11.6844C3.01641 11.6023 3.0625 11.491 3.0625 11.375V10.9375H3.5C3.90611 10.9375 4.29559 10.7762 4.58276 10.489C4.86992 10.2018 5.03125 9.81236 5.03125 9.40625C5.03125 9.00014 4.86992 8.61066 4.58276 8.32349C4.29559 8.03633 3.90611 7.875 3.5 7.875ZM3.5 10.0625H3.0625V8.75H3.5C3.67405 8.75 3.84097 8.81914 3.96404 8.94221C4.08711 9.06528 4.15625 9.2322 4.15625 9.40625C4.15625 9.5803 4.08711 9.74722 3.96404 9.87029C3.84097 9.99336 3.67405 10.0625 3.5 10.0625ZM7 7.875H6.125C6.00897 7.875 5.89769 7.92109 5.81564 8.00314C5.73359 8.08519 5.6875 8.19647 5.6875 8.3125V11.375C5.6875 11.491 5.73359 11.6023 5.81564 11.6844C5.89769 11.7664 6.00897 11.8125 6.125 11.8125H7C7.52214 11.8125 8.0229 11.6051 8.39212 11.2359C8.76133 10.8667 8.96875 10.3659 8.96875 9.84375C8.96875 9.3216 8.76133 8.82085 8.39212 8.45163C8.0229 8.08242 7.52214 7.875 7 7.875ZM7 10.9375H6.5625V8.75H7C7.29008 8.75 7.56828 8.86523 7.7734 9.07035C7.97852 9.27547 8.09375 9.55367 8.09375 9.84375C8.09375 10.1338 7.97852 10.412 7.7734 10.6171C7.56828 10.8223 7.29008 10.9375 7 10.9375Z" fill="#DB342C"/>
</svg>
