<svg width="20" height="21" viewBox="0 0 20 21" fill="none" xmlns="http://www.w3.org/2000/svg">
<path d="M11.5805 12.4695C11.4904 12.4135 11.3876 12.3813 11.2817 12.376C11.1758 12.3706 11.0702 12.3924 10.975 12.4391L9.31719 13.2508C9.23754 12.9969 9.07897 12.7751 8.86455 12.6176C8.65014 12.4601 8.39105 12.3751 8.125 12.375H3.75C3.41848 12.375 3.10054 12.5067 2.86612 12.7411C2.6317 12.9755 2.5 13.2935 2.5 13.625V16.75C2.5 17.0815 2.6317 17.3995 2.86612 17.6339C3.10054 17.8683 3.41848 18 3.75 18H8.125C8.40008 17.9997 8.66738 17.9087 8.88547 17.741C9.10355 17.5733 9.26024 17.3384 9.33125 17.0727L10.9594 17.932C11.0549 17.9822 11.1618 18.0068 11.2697 18.0034C11.3775 18 11.4827 17.9688 11.5748 17.9127C11.667 17.8566 11.7431 17.7776 11.7957 17.6834C11.8483 17.5891 11.8756 17.4829 11.875 17.375V13C11.875 12.8938 11.848 12.7894 11.7964 12.6966C11.7449 12.6038 11.6706 12.5257 11.5805 12.4695ZM8.125 16.75H3.75V13.625H8.125V16.0469C8.125 16.057 8.125 16.0664 8.125 16.0766V16.75ZM10.625 16.3406L9.375 15.6828V14.6141L10.625 14.0023V16.3406ZM16.6922 6.93281L12.3172 2.55781C12.2591 2.49979 12.1902 2.45378 12.1143 2.42241C12.0384 2.39105 11.9571 2.37494 11.875 2.375H4.375C4.04348 2.375 3.72554 2.5067 3.49112 2.74112C3.2567 2.97554 3.125 3.29348 3.125 3.625V10.5C3.125 10.6658 3.19085 10.8247 3.30806 10.9419C3.42527 11.0592 3.58424 11.125 3.75 11.125C3.91576 11.125 4.07473 11.0592 4.19194 10.9419C4.30915 10.8247 4.375 10.6658 4.375 10.5V3.625H11.25V7.375C11.25 7.54076 11.3158 7.69973 11.4331 7.81694C11.5503 7.93415 11.7092 8 11.875 8H15.625V17.375H13.75C13.5842 17.375 13.4253 17.4408 13.3081 17.5581C13.1908 17.6753 13.125 17.8342 13.125 18C13.125 18.1658 13.1908 18.3247 13.3081 18.4419C13.4253 18.5592 13.5842 18.625 13.75 18.625H15.625C15.9565 18.625 16.2745 18.4933 16.5089 18.2589C16.7433 18.0245 16.875 17.7065 16.875 17.375V7.375C16.8751 7.2929 16.859 7.21159 16.8276 7.13572C16.7962 7.05985 16.7502 6.9909 16.6922 6.93281ZM12.5 4.50859L14.7414 6.75H12.5V4.50859Z" fill="#3498DB"/>
</svg>
