<svg width="20" height="21" viewBox="0 0 20 21" fill="none" xmlns="http://www.w3.org/2000/svg">
<path d="M16.6922 6.93281L12.3172 2.55781C12.2591 2.49979 12.1902 2.45378 12.1143 2.42241C12.0384 2.39105 11.9571 2.37494 11.875 2.375H4.375C4.04348 2.375 3.72554 2.5067 3.49112 2.74112C3.2567 2.97554 3.125 3.29348 3.125 3.625V17.375C3.125 17.7065 3.2567 18.0245 3.49112 18.2589C3.72554 18.4933 4.04348 18.625 4.375 18.625H15.625C15.9565 18.625 16.2745 18.4933 16.5089 18.2589C16.7433 18.0245 16.875 17.7065 16.875 17.375V7.375C16.8751 7.2929 16.859 7.21159 16.8276 7.13572C16.7962 7.05985 16.7502 6.9909 16.6922 6.93281ZM12.5 4.50859L14.7414 6.75H12.5V4.50859ZM15.625 17.375H4.375V3.625H11.25V7.375C11.25 7.54076 11.3158 7.69973 11.4331 7.81694C11.5503 7.93415 11.7092 8 11.875 8H15.625V17.375Z" fill="#3498DB"/>
</svg>
