<svg width="20" height="21" viewBox="0 0 20 21" fill="none" xmlns="http://www.w3.org/2000/svg">
<path d="M16.875 3.625H3.125C2.79348 3.625 2.47554 3.7567 2.24112 3.99112C2.0067 4.22554 1.875 4.54348 1.875 4.875V16.125C1.875 16.4565 2.0067 16.7745 2.24112 17.0089C2.47554 17.2433 2.79348 17.375 3.125 17.375H16.875C17.2065 17.375 17.5245 17.2433 17.7589 17.0089C17.9933 16.7745 18.125 16.4565 18.125 16.125V4.875C18.125 4.54348 17.9933 4.22554 17.7589 3.99112C17.5245 3.7567 17.2065 3.625 16.875 3.625ZM16.875 4.875V12.9023L14.8383 10.8664C14.7222 10.7503 14.5844 10.6582 14.4327 10.5954C14.281 10.5325 14.1185 10.5002 13.9543 10.5002C13.7901 10.5002 13.6276 10.5325 13.4759 10.5954C13.3242 10.6582 13.1864 10.7503 13.0703 10.8664L11.5078 12.4289L8.07031 8.99141C7.83592 8.75716 7.5181 8.62558 7.18672 8.62558C6.85534 8.62558 6.53752 8.75716 6.30312 8.99141L3.125 12.1695V4.875H16.875ZM3.125 13.9375L7.1875 9.875L13.4375 16.125H3.125V13.9375ZM16.875 16.125H15.2055L12.393 13.3125L13.9555 11.75L16.875 14.6703V16.125ZM11.25 8.3125C11.25 8.12708 11.305 7.94582 11.408 7.79165C11.511 7.63748 11.6574 7.51732 11.8287 7.44636C12 7.37541 12.1885 7.35684 12.3704 7.39301C12.5523 7.42919 12.7193 7.51848 12.8504 7.64959C12.9815 7.7807 13.0708 7.94775 13.107 8.1296C13.1432 8.31146 13.1246 8.49996 13.0536 8.67127C12.9827 8.84257 12.8625 8.98899 12.7083 9.092C12.5542 9.19502 12.3729 9.25 12.1875 9.25C11.9389 9.25 11.7004 9.15123 11.5246 8.97541C11.3488 8.7996 11.25 8.56114 11.25 8.3125Z" fill="#3498DB"/>
</svg>
