<svg width="20" height="21" viewBox="0 0 20 21" fill="none" xmlns="http://www.w3.org/2000/svg">
<path d="M17.25 13.75C17.1418 13.6689 17.0102 13.625 16.875 13.625H16.25V5.5C16.25 4.83696 15.9866 4.20107 15.5178 3.73223C15.0489 3.26339 14.413 3 13.75 3H3.125C2.46196 3 1.82607 3.26339 1.35723 3.73223C0.888392 4.20107 0.625 4.83696 0.625 5.5C0.625 6.56328 1.41016 7.18281 1.5 7.25C1.60789 7.3317 1.73967 7.37563 1.875 7.375C2.00526 7.37464 2.13215 7.3336 2.23794 7.2576C2.34373 7.1816 2.42314 7.07444 2.46505 6.95111C2.50696 6.82778 2.5093 6.69443 2.47172 6.56971C2.43414 6.44499 2.35854 6.33512 2.25547 6.25547C2.25234 6.25156 1.875 5.94844 1.875 5.5C1.875 5.16848 2.0067 4.85054 2.24112 4.61612C2.47554 4.3817 2.79348 4.25 3.125 4.25C3.45652 4.25 3.77446 4.3817 4.00888 4.61612C4.2433 4.85054 4.375 5.16848 4.375 5.5V15.5C4.375 16.163 4.63839 16.7989 5.10723 17.2678C5.57607 17.7366 6.21196 18 6.875 18H15.625C16.288 18 16.9239 17.7366 17.3928 17.2678C17.8616 16.7989 18.125 16.163 18.125 15.5C18.125 14.4367 17.3438 13.8172 17.25 13.75ZM8.125 8H13.125C13.2908 8 13.4497 8.06585 13.5669 8.18306C13.6842 8.30027 13.75 8.45924 13.75 8.625C13.75 8.79076 13.6842 8.94973 13.5669 9.06694C13.4497 9.18415 13.2908 9.25 13.125 9.25H8.125C7.95924 9.25 7.80027 9.18415 7.68306 9.06694C7.56585 8.94973 7.5 8.79076 7.5 8.625C7.5 8.45924 7.56585 8.30027 7.68306 8.18306C7.80027 8.06585 7.95924 8 8.125 8ZM7.5 11.125C7.5 10.9592 7.56585 10.8003 7.68306 10.6831C7.80027 10.5658 7.95924 10.5 8.125 10.5H13.125C13.2908 10.5 13.4497 10.5658 13.5669 10.6831C13.6842 10.8003 13.75 10.9592 13.75 11.125C13.75 11.2908 13.6842 11.4497 13.5669 11.5669C13.4497 11.6842 13.2908 11.75 13.125 11.75H8.125C7.95924 11.75 7.80027 11.6842 7.68306 11.5669C7.56585 11.4497 7.5 11.2908 7.5 11.125ZM15.625 16.75H8.41484C8.63496 16.3702 8.7506 15.9389 8.75 15.5C8.75016 15.2881 8.71829 15.0774 8.65547 14.875H16.6242C16.7794 15.0471 16.8687 15.2684 16.8766 15.5C16.8766 15.6643 16.8442 15.827 16.7813 15.9787C16.7183 16.1305 16.6261 16.2683 16.5099 16.3844C16.3937 16.5005 16.2557 16.5926 16.1038 16.6553C15.952 16.718 15.7893 16.7502 15.625 16.75Z" fill="#0CA678"/>
</svg>
