<svg width="14" height="14" viewBox="0 0 14 14" fill="none" xmlns="http://www.w3.org/2000/svg">
<path d="M12.6875 11.375C12.6875 11.491 12.6414 11.6023 12.5594 11.6844C12.4773 11.7664 12.366 11.8125 12.25 11.8125H1.75C1.63397 11.8125 1.52269 11.7664 1.44064 11.6844C1.35859 11.6023 1.3125 11.491 1.3125 11.375C1.3125 11.259 1.35859 11.1477 1.44064 11.0656C1.52269 10.9836 1.63397 10.9375 1.75 10.9375H12.25C12.366 10.9375 12.4773 10.9836 12.5594 11.0656C12.6414 11.1477 12.6875 11.259 12.6875 11.375ZM12.6875 3.0625V9.1875C12.6875 9.41956 12.5953 9.64212 12.4312 9.80622C12.2671 9.97031 12.0446 10.0625 11.8125 10.0625H2.1875C1.95544 10.0625 1.73288 9.97031 1.56878 9.80622C1.40469 9.64212 1.3125 9.41956 1.3125 9.1875V3.0625C1.3125 2.83044 1.40469 2.60788 1.56878 2.44378C1.73288 2.27969 1.95544 2.1875 2.1875 2.1875H11.8125C12.0446 2.1875 12.2671 2.27969 12.4312 2.44378C12.5953 2.60788 12.6875 2.83044 12.6875 3.0625ZM8.96875 6.125C8.96873 6.05137 8.95012 5.97893 8.91465 5.9144C8.87919 5.84988 8.82801 5.79534 8.76586 5.75586L6.35961 4.22461C6.29347 4.18259 6.21726 4.1591 6.13894 4.15661C6.06062 4.15411 5.98307 4.17269 5.91439 4.21042C5.84571 4.24814 5.78842 4.30361 5.7485 4.37105C5.70859 4.43848 5.68752 4.51539 5.6875 4.59375V7.65625C5.68752 7.73461 5.70859 7.81152 5.7485 7.87895C5.78842 7.94639 5.84571 8.00186 5.91439 8.03958C5.98307 8.07731 6.06062 8.09589 6.13894 8.09339C6.21726 8.0909 6.29347 8.06741 6.35961 8.02539L8.76586 6.49414C8.82801 6.45466 8.87919 6.40012 8.91465 6.3356C8.95012 6.27107 8.96873 6.19863 8.96875 6.125Z" fill="#228BE6"/>
</svg>
