<svg width="25" height="24" viewBox="0 0 25 24" fill="none" xmlns="http://www.w3.org/2000/svg">
<path d="M15.8333 10.5C15.8333 10.945 15.7014 11.38 15.4541 11.75C15.2069 12.12 14.8555 12.4084 14.4444 12.5787C14.0332 12.749 13.5808 12.7936 13.1444 12.7068C12.7079 12.62 12.307 12.4057 11.9923 12.091C11.6777 11.7763 11.4634 11.3754 11.3766 10.939C11.2897 10.5025 11.3343 10.0501 11.5046 9.63896C11.6749 9.22783 11.9633 8.87643 12.3333 8.62919C12.7033 8.38196 13.1383 8.25 13.5833 8.25C14.1801 8.25 14.7524 8.48705 15.1743 8.90901C15.5963 9.33097 15.8333 9.90326 15.8333 10.5ZM21.8333 3.75V20.25C21.8333 20.6478 21.6753 21.0294 21.394 21.3107C21.1127 21.592 20.7312 21.75 20.3333 21.75H6.83333C6.4355 21.75 6.05397 21.592 5.77267 21.3107C5.49136 21.0294 5.33333 20.6478 5.33333 20.25V18H3.83333C3.63442 18 3.44365 17.921 3.303 17.7803C3.16235 17.6397 3.08333 17.4489 3.08333 17.25C3.08333 17.0511 3.16235 16.8603 3.303 16.7197C3.44365 16.579 3.63442 16.5 3.83333 16.5H5.33333V12.75H3.83333C3.63442 12.75 3.44365 12.671 3.303 12.5303C3.16235 12.3897 3.08333 12.1989 3.08333 12C3.08333 11.8011 3.16235 11.6103 3.303 11.4697C3.44365 11.329 3.63442 11.25 3.83333 11.25H5.33333V7.5H3.83333C3.63442 7.5 3.44365 7.42098 3.303 7.28033C3.16235 7.13968 3.08333 6.94891 3.08333 6.75C3.08333 6.55109 3.16235 6.36032 3.303 6.21967C3.44365 6.07902 3.63442 6 3.83333 6H5.33333V3.75C5.33333 3.35218 5.49136 2.97064 5.77267 2.68934C6.05397 2.40804 6.4355 2.25 6.83333 2.25H20.3333C20.7312 2.25 21.1127 2.40804 21.394 2.68934C21.6753 2.97064 21.8333 3.35218 21.8333 3.75ZM18.6833 15.3C18.0192 14.4096 17.1336 13.7086 16.1146 13.2666C16.673 12.7567 17.0643 12.0899 17.237 11.3537C17.4097 10.6175 17.3558 9.84624 17.0824 9.14121C16.809 8.43617 16.3288 7.83028 15.7048 7.40304C15.0809 6.9758 14.3423 6.74718 13.5861 6.74718C12.8299 6.74718 12.0914 6.9758 11.4675 7.40304C10.8435 7.83028 10.3633 8.43617 10.0899 9.14121C9.81644 9.84624 9.76255 10.6175 9.93527 11.3537C10.108 12.0899 10.4992 12.7567 11.0577 13.2666C10.0366 13.7077 9.14899 14.4088 8.48333 15.3C8.42423 15.3788 8.38124 15.4685 8.35679 15.5639C8.33235 15.6593 8.32694 15.7586 8.34087 15.8561C8.35479 15.9536 8.38779 16.0474 8.43797 16.1321C8.48815 16.2169 8.55453 16.2909 8.63333 16.35C8.71212 16.4091 8.80178 16.4521 8.89719 16.4765C8.9926 16.501 9.09189 16.5064 9.18939 16.4925C9.2869 16.4785 9.3807 16.4455 9.46545 16.3954C9.5502 16.3452 9.62423 16.2788 9.68333 16.2C10.1374 15.5945 10.7262 15.1031 11.4032 14.7647C12.0801 14.4262 12.8265 14.25 13.5833 14.25C14.3401 14.25 15.0866 14.4262 15.7635 14.7647C16.4404 15.1031 17.0292 15.5945 17.4833 16.2C17.6027 16.3591 17.7803 16.4643 17.9773 16.4925C18.1742 16.5206 18.3742 16.4693 18.5333 16.35C18.6925 16.2307 18.7977 16.053 18.8258 15.8561C18.8539 15.6592 18.8027 15.4591 18.6833 15.3Z" fill="#CDD5DF"/>
</svg>
