<svg width="70" height="67" viewBox="0 0 70 67" fill="none" xmlns="http://www.w3.org/2000/svg">
<rect width="70" height="66" transform="translate(0 0.5)" fill="white"/>
<path d="M30.9873 15.1704L13.0083 55.3309L12.715 56.008L10.8867 56.0287L10.6364 56.0306L10.5879 56.0313L10.6262 56.0565C10.6508 56.2107 10.6809 56.3495 10.7192 56.4741C10.9687 57.279 11.4918 57.501 11.7981 57.5598C11.9328 57.5882 12.0265 57.583 12.0265 57.583L12.7369 57.574L41.8978 57.2712L59.9212 10.9619L30.9873 15.1704Z" fill="#D6E7FA"/>
<path d="M57.9755 9.41699L29.0436 13.6235L10.0801 56.0361L39.952 55.7282L57.9755 9.41699Z" fill="#EC5E0F"/>
<path d="M12.4789 58.25C9.90055 58.2694 9.65167 55.8689 9.62773 55.4371L9.625 55.3687L10.7183 56.4743C10.9679 57.2792 11.4909 57.5013 11.7972 57.56L12.4789 58.25Z" fill="#EC5E0F"/>
<path d="M60.376 11.6308L53.9604 28.1168L53.1577 30.1803L42.3525 57.9414L41.8965 57.274L52.7105 29.4871L53.3731 27.7856L59.9206 10.9634L60.376 11.6308Z" fill="#FFD6B8"/>
<path d="M57.523 8.75L39.4989 55.0606L33.2345 55.1264L26.6774 55.1936L18.3453 55.2807L9.62695 55.3698L13.566 46.5572L17.3313 38.1364L17.717 37.274L28.5891 12.9565L57.523 8.75Z" fill="url(#paint0_linear_1061_798)"/>
<path d="M57.9776 9.41791L57.6453 10.2861L39.9535 55.7272L39.4961 55.0604L56.6539 11.018L57.5202 8.75049L57.9776 9.41791Z" fill="#FFD6B8"/>
<path d="M42.3516 57.9413L41.8962 57.2739L12.0242 57.5811L12.0256 57.5824C12.0242 57.5824 11.9319 57.5876 11.7979 57.5592C11.4916 57.5004 10.9686 57.2784 10.719 56.4735C10.68 56.3489 10.6506 56.2101 10.626 56.0559L10.5877 56.0307L10.6363 56.03L10.8865 56.0281L12.7148 56.0075L39.9537 55.7273L39.4963 55.0605L13.0075 55.331L11.1265 55.3517L9.625 55.3678L9.62773 55.4362C9.65098 55.868 9.89986 58.2679 12.4783 58.2492L12.1699 57.798L12.0564 57.6295L12.4783 58.2485L42.3516 57.9413Z" fill="#B64100"/>
<path d="M59.0049 11.7029L41.4245 56.7943C40.8673 55.9571 39.9531 55.7273 39.9531 55.7273L57.6449 10.2861C57.7762 10.3597 57.9779 10.4727 58.1803 10.6192C58.207 10.636 58.2336 10.6573 58.261 10.6741C58.6507 10.9594 59.0329 11.3357 59.0049 11.7029Z" fill="#F5F5F8"/>
<path d="M58.2611 10.6743L40.6151 55.9896L40.5898 55.7902L58.1805 10.6201C58.2071 10.6369 58.2338 10.6576 58.2611 10.6743Z" fill="#C0C0D3"/>
<path d="M58.7572 11.0383L41.1112 56.3529L41.0859 56.1535L58.6765 10.9834C58.7039 11.0002 58.7306 11.0208 58.7572 11.0383Z" fill="#C0C0D3"/>
<path d="M41.4253 56.7945L11.9424 57.0901C11.9424 57.0901 10.5127 57.2709 10.6255 56.0567C10.6262 56.049 10.631 56.0419 10.6357 56.0309L39.9539 55.7275C39.9539 55.7275 40.868 55.9573 41.4253 56.7945Z" fill="#C0C0D3"/>
<defs>
<linearGradient id="paint0_linear_1061_798" x1="9.62709" y1="32.0592" x2="57.5231" y2="32.0592" gradientUnits="userSpaceOnUse">
<stop stop-color="#FFD6B8"/>
<stop offset="0.447917" stop-color="#F6AD77"/>
<stop offset="0.859375" stop-color="#EC5E0F"/>
</linearGradient>
</defs>
</svg>
