<svg width="20" height="21" viewBox="0 0 20 21" fill="none" xmlns="http://www.w3.org/2000/svg">
<path d="M16.875 3.625H3.125C2.79348 3.625 2.47554 3.7567 2.24112 3.99112C2.0067 4.22554 1.875 4.54348 1.875 4.875V16.125C1.875 16.4565 2.0067 16.7745 2.24112 17.0089C2.47554 17.2433 2.79348 17.375 3.125 17.375H4.17109C4.28938 17.375 4.40525 17.3415 4.50524 17.2783C4.60522 17.2151 4.68522 17.1248 4.73594 17.018C5.03986 16.3763 5.5197 15.8341 6.11965 15.4544C6.71959 15.0748 7.415 14.8732 8.125 14.8732C8.835 14.8732 9.53041 15.0748 10.1304 15.4544C10.7303 15.8341 11.2101 16.3763 11.5141 17.018C11.5648 17.1248 11.6448 17.2151 11.7448 17.2783C11.8448 17.3415 11.9606 17.375 12.0789 17.375H16.875C17.2065 17.375 17.5245 17.2433 17.7589 17.0089C17.9933 16.7745 18.125 16.4565 18.125 16.125V4.875C18.125 4.54348 17.9933 4.22554 17.7589 3.99112C17.5245 3.7567 17.2065 3.625 16.875 3.625ZM8.125 13.625C7.63055 13.625 7.1472 13.4784 6.73607 13.2037C6.32495 12.929 6.00452 12.5385 5.8153 12.0817C5.62608 11.6249 5.57657 11.1222 5.67304 10.6373C5.7695 10.1523 6.0076 9.70686 6.35723 9.35723C6.70686 9.0076 7.15232 8.7695 7.63727 8.67304C8.12223 8.57657 8.62489 8.62608 9.08171 8.8153C9.53852 9.00452 9.92897 9.32495 10.2037 9.73607C10.4784 10.1472 10.625 10.6305 10.625 11.125C10.625 11.788 10.3616 12.4239 9.89277 12.8928C9.42393 13.3616 8.78804 13.625 8.125 13.625ZM16.875 16.125H12.4555C12.183 15.6552 11.8357 15.233 11.4273 14.875H15C15.1658 14.875 15.3247 14.8092 15.4419 14.6919C15.5592 14.5747 15.625 14.4158 15.625 14.25V6.75C15.625 6.58424 15.5592 6.42527 15.4419 6.30806C15.3247 6.19085 15.1658 6.125 15 6.125H5C4.83424 6.125 4.67527 6.19085 4.55806 6.30806C4.44085 6.42527 4.375 6.58424 4.375 6.75V14.25C4.37493 14.3886 4.42094 14.5233 4.5058 14.6329C4.59065 14.7425 4.70954 14.8208 4.84375 14.8555C4.42595 15.2175 4.07136 15.6465 3.79453 16.125H3.125V4.875H16.875V16.125Z" fill="#E19E05"/>
</svg>
