<svg width="20" height="20" viewBox="0 0 20 20" fill="none" xmlns="http://www.w3.org/2000/svg">
<path d="M10.3125 1.875C8.24119 1.87727 6.25538 2.70111 4.79074 4.16574C3.32611 5.63038 2.50227 7.61619 2.5 9.6875V16.2758C2.50041 16.6003 2.62953 16.9115 2.85902 17.141C3.08852 17.3705 3.39966 17.4996 3.72422 17.5H10.3125C12.3845 17.5 14.3716 16.6769 15.8368 15.2118C17.3019 13.7466 18.125 11.7595 18.125 9.6875C18.125 7.6155 17.3019 5.62836 15.8368 4.16323C14.3716 2.6981 12.3845 1.875 10.3125 1.875ZM10.3125 16.25H3.75V9.6875C3.75 8.38956 4.13488 7.12077 4.85598 6.04157C5.57708 4.96237 6.602 4.12124 7.80114 3.62454C9.00028 3.12784 10.3198 2.99788 11.5928 3.2511C12.8658 3.50431 14.0351 4.12933 14.9529 5.04711C15.8707 5.96489 16.4957 7.13422 16.7489 8.40722C17.0021 9.68022 16.8722 10.9997 16.3755 12.1989C15.8788 13.398 15.0376 14.4229 13.9584 15.144C12.8792 15.8651 11.6104 16.25 10.3125 16.25Z" fill="#697586"/>
</svg>
