<svg width="20" height="21" viewBox="0 0 20 21" fill="none" xmlns="http://www.w3.org/2000/svg">
<path d="M18.125 8C18.125 7.66848 17.9933 7.35054 17.7589 7.11612C17.5245 6.8817 17.2065 6.75 16.875 6.75H14.375V4.25C14.375 3.91848 14.2433 3.60054 14.0089 3.36612C13.7745 3.1317 13.4565 3 13.125 3H3.125C2.79348 3 2.47554 3.1317 2.24112 3.36612C2.0067 3.60054 1.875 3.91848 1.875 4.25V14.25C1.87537 14.3676 1.9089 14.4827 1.97174 14.5821C2.03458 14.6814 2.12418 14.7611 2.23025 14.8118C2.33631 14.8626 2.45455 14.8824 2.57136 14.869C2.68818 14.8555 2.79884 14.8094 2.89062 14.7359L5.625 12.5312V14.875C5.625 15.2065 5.7567 15.5245 5.99112 15.7589C6.22554 15.9933 6.54348 16.125 6.875 16.125H14.1867L17.1094 18.4859C17.22 18.5754 17.3578 18.6244 17.5 18.625C17.6658 18.625 17.8247 18.5592 17.9419 18.4419C18.0592 18.3247 18.125 18.1658 18.125 18V8ZM14.8008 15.0141C14.6902 14.9246 14.5524 14.8756 14.4102 14.875H6.875V12.375H13.125C13.4565 12.375 13.7745 12.2433 14.0089 12.0089C14.2433 11.7745 14.375 11.4565 14.375 11.125V8H16.875V16.6914L14.8008 15.0141Z" fill="#E063DA"/>
</svg>
