<svg width="25" height="24" viewBox="0 0 25 24" fill="none" xmlns="http://www.w3.org/2000/svg">
<path d="M18.9167 2.99986H15.5173C15.0959 2.52804 14.5796 2.15054 14.0022 1.89207C13.4248 1.63361 12.7993 1.5 12.1667 1.5C11.534 1.5 10.9086 1.63361 10.3312 1.89207C9.75375 2.15054 9.23744 2.52804 8.81603 2.99986H5.41666C5.01883 2.99986 4.6373 3.1579 4.356 3.4392C4.07469 3.72051 3.91666 4.10204 3.91666 4.49986V20.2499C3.91666 20.6477 4.07469 21.0292 4.356 21.3105C4.6373 21.5918 5.01883 21.7499 5.41666 21.7499H18.9167C19.3145 21.7499 19.696 21.5918 19.9773 21.3105C20.2586 21.0292 20.4167 20.6477 20.4167 20.2499V4.49986C20.4167 4.10204 20.2586 3.72051 19.9773 3.4392C19.696 3.1579 19.3145 2.99986 18.9167 2.99986ZM12.1667 2.99986C12.9623 2.99986 13.7254 3.31593 14.288 3.87854C14.8506 4.44115 15.1667 5.20421 15.1667 5.99986H9.16666C9.16666 5.20421 9.48273 4.44115 10.0453 3.87854C10.6079 3.31593 11.371 2.99986 12.1667 2.99986ZM15.1667 14.9999H9.16666C8.96774 14.9999 8.77698 14.9208 8.63633 14.7802C8.49567 14.6395 8.41666 14.4488 8.41666 14.2499C8.41666 14.051 8.49567 13.8602 8.63633 13.7195C8.77698 13.5789 8.96774 13.4999 9.16666 13.4999H15.1667C15.3656 13.4999 15.5563 13.5789 15.697 13.7195C15.8376 13.8602 15.9167 14.051 15.9167 14.2499C15.9167 14.4488 15.8376 14.6395 15.697 14.7802C15.5563 14.9208 15.3656 14.9999 15.1667 14.9999ZM15.1667 11.9999H9.16666C8.96774 11.9999 8.77698 11.9208 8.63633 11.7802C8.49567 11.6395 8.41666 11.4488 8.41666 11.2499C8.41666 11.051 8.49567 10.8602 8.63633 10.7195C8.77698 10.5789 8.96774 10.4999 9.16666 10.4999H15.1667C15.3656 10.4999 15.5563 10.5789 15.697 10.7195C15.8376 10.8602 15.9167 11.051 15.9167 11.2499C15.9167 11.4488 15.8376 11.6395 15.697 11.7802C15.5563 11.9208 15.3656 11.9999 15.1667 11.9999Z" fill="#CDD5DF"/>
</svg>
