<svg width="16" height="16" viewBox="0 0 16 16" fill="none" xmlns="http://www.w3.org/2000/svg">
<path d="M13.5 2.5H2.5C2.23478 2.5 1.98043 2.60536 1.79289 2.79289C1.60536 2.98043 1.5 3.23478 1.5 3.5V13.5C1.49994 13.5853 1.52169 13.6691 1.56318 13.7436C1.60467 13.8181 1.66452 13.8808 1.73705 13.9256C1.80958 13.9705 1.89237 13.996 1.97756 13.9999C2.06274 14.0037 2.14749 13.9857 2.22375 13.9475L4 13.0588L5.77625 13.9475C5.84572 13.9823 5.92232 14.0004 6 14.0004C6.07768 14.0004 6.15428 13.9823 6.22375 13.9475L8 13.0588L9.77625 13.9475C9.84571 13.9823 9.92232 14.0004 10 14.0004C10.0777 14.0004 10.1543 13.9823 10.2238 13.9475L12 13.0588L13.7762 13.9475C13.8525 13.9857 13.9373 14.0037 14.0224 13.9999C14.1076 13.996 14.1904 13.9705 14.2629 13.9256C14.3355 13.8808 14.3953 13.8181 14.4368 13.7436C14.4783 13.6691 14.5001 13.5853 14.5 13.5V3.5C14.5 3.23478 14.3946 2.98043 14.2071 2.79289C14.0196 2.60536 13.7652 2.5 13.5 2.5ZM13.5 12.6912L12.2238 12.0525C12.1543 12.0177 12.0777 11.9996 12 11.9996C11.9223 11.9996 11.8457 12.0177 11.7762 12.0525L10 12.9412L8.22375 12.0525C8.15428 12.0177 8.07768 11.9996 8 11.9996C7.92232 11.9996 7.84572 12.0177 7.77625 12.0525L6 12.9412L4.22375 12.0525C4.15429 12.0177 4.07768 11.9996 4 11.9996C3.92232 11.9996 3.84572 12.0177 3.77625 12.0525L2.5 12.6912V3.5H13.5V12.6912ZM3.77625 10.4475C3.83501 10.4769 3.89899 10.4945 3.96454 10.4992C4.03009 10.5038 4.09591 10.4956 4.15826 10.4748C4.2206 10.454 4.27823 10.4211 4.32787 10.3781C4.3775 10.335 4.41815 10.2825 4.4475 10.2238L4.80875 9.5H7.19125L7.5525 10.2238C7.58188 10.2825 7.62255 10.3349 7.67219 10.378C7.72182 10.421 7.77945 10.4539 7.84178 10.4746C7.90412 10.4954 7.96993 10.5037 8.03547 10.4991C8.101 10.4944 8.16498 10.4769 8.22375 10.4475C8.28252 10.4181 8.33492 10.3774 8.37797 10.3278C8.42102 10.2782 8.45387 10.2205 8.47465 10.1582C8.49542 10.0959 8.50372 10.0301 8.49906 9.96453C8.4944 9.899 8.47688 9.83502 8.4475 9.77625L6.4475 5.77625C6.40603 5.69305 6.34219 5.62305 6.26314 5.57413C6.18409 5.5252 6.09297 5.49928 6 5.49928C5.90703 5.49928 5.81591 5.5252 5.73686 5.57413C5.65781 5.62305 5.59397 5.69305 5.5525 5.77625L3.5525 9.77625C3.52307 9.83501 3.50552 9.89899 3.50084 9.96454C3.49616 10.0301 3.50445 10.0959 3.52523 10.1583C3.54601 10.2206 3.57888 10.2782 3.62195 10.3279C3.66502 10.3775 3.71745 10.4181 3.77625 10.4475ZM6 7.11812L6.69125 8.5H5.30875L6 7.11812ZM8.5 8C8.5 7.86739 8.55268 7.74021 8.64645 7.64645C8.74021 7.55268 8.86739 7.5 9 7.5H10V6.5C10 6.36739 10.0527 6.24021 10.1464 6.14645C10.2402 6.05268 10.3674 6 10.5 6C10.6326 6 10.7598 6.05268 10.8536 6.14645C10.9473 6.24021 11 6.36739 11 6.5V7.5H12C12.1326 7.5 12.2598 7.55268 12.3536 7.64645C12.4473 7.74021 12.5 7.86739 12.5 8C12.5 8.13261 12.4473 8.25979 12.3536 8.35355C12.2598 8.44732 12.1326 8.5 12 8.5H11V9.5C11 9.63261 10.9473 9.75979 10.8536 9.85355C10.7598 9.94732 10.6326 10 10.5 10C10.3674 10 10.2402 9.94732 10.1464 9.85355C10.0527 9.75979 10 9.63261 10 9.5V8.5H9C8.86739 8.5 8.74021 8.44732 8.64645 8.35355C8.55268 8.25979 8.5 8.13261 8.5 8Z" fill="#3498DB"/>
</svg>
