<svg width="16" height="16" viewBox="0 0 16 16" fill="none" xmlns="http://www.w3.org/2000/svg">
<path d="M14 8.00036C14 8.13297 13.9473 8.26014 13.8536 8.35391C13.7598 8.44768 13.6326 8.50036 13.5 8.50036H6.5C6.36739 8.50036 6.24021 8.44768 6.14644 8.35391C6.05268 8.26014 6 8.13297 6 8.00036C6 7.86775 6.05268 7.74057 6.14644 7.6468C6.24021 7.55304 6.36739 7.50036 6.5 7.50036H13.5C13.6326 7.50036 13.7598 7.55304 13.8536 7.6468C13.9473 7.74057 14 7.86775 14 8.00036ZM6.5 4.50036H13.5C13.6326 4.50036 13.7598 4.44768 13.8536 4.35391C13.9473 4.26014 14 4.13297 14 4.00036C14 3.86775 13.9473 3.74057 13.8536 3.6468C13.7598 3.55304 13.6326 3.50036 13.5 3.50036H6.5C6.36739 3.50036 6.24021 3.55304 6.14644 3.6468C6.05268 3.74057 6 3.86775 6 4.00036C6 4.13297 6.05268 4.26014 6.14644 4.35391C6.24021 4.44768 6.36739 4.50036 6.5 4.50036ZM13.5 11.5004H6.5C6.36739 11.5004 6.24021 11.553 6.14644 11.6468C6.05268 11.7406 6 11.8678 6 12.0004C6 12.133 6.05268 12.2601 6.14644 12.3539C6.24021 12.4477 6.36739 12.5004 6.5 12.5004H13.5C13.6326 12.5004 13.7598 12.4477 13.8536 12.3539C13.9473 12.2601 14 12.133 14 12.0004C14 11.8678 13.9473 11.7406 13.8536 11.6468C13.7598 11.553 13.6326 11.5004 13.5 11.5004ZM2.72375 3.44786L3 3.30911V6.50036C3 6.63297 3.05268 6.76014 3.14644 6.85391C3.24021 6.94768 3.36739 7.00036 3.5 7.00036C3.63261 7.00036 3.75978 6.94768 3.85355 6.85391C3.94732 6.76014 4 6.63297 4 6.50036V2.50036C4.00006 2.41509 3.97831 2.33122 3.93682 2.25672C3.89533 2.18222 3.83548 2.11957 3.76295 2.07473C3.69042 2.02988 3.60763 2.00433 3.52244 2.0005C3.43725 1.99668 3.3525 2.0147 3.27625 2.05286L2.27625 2.55286C2.15756 2.6122 2.06731 2.71626 2.02535 2.84214C2.00457 2.90447 1.99628 2.97029 2.00094 3.03583C2.00559 3.10136 2.02311 3.16534 2.0525 3.22411C2.08188 3.28287 2.12255 3.33528 2.17219 3.37833C2.22182 3.42138 2.27945 3.45423 2.34178 3.475C2.46767 3.51696 2.60506 3.5072 2.72375 3.44786ZM4.98562 9.79536C4.95797 9.59733 4.89057 9.40694 4.78746 9.23563C4.68435 9.06431 4.54767 8.91562 4.38562 8.79848C4.06106 8.56281 3.65794 8.46178 3.2606 8.51653C2.86325 8.57128 2.50247 8.77757 2.25375 9.09223C2.15868 9.2143 2.08339 9.35054 2.03062 9.49598C2.00307 9.55858 1.98865 9.62617 1.98826 9.69456C1.98787 9.76296 2.00151 9.83071 2.02835 9.89362C2.05519 9.95653 2.09465 10.0133 2.14429 10.0603C2.19393 10.1074 2.2527 10.1437 2.31695 10.1672C2.38121 10.1906 2.44959 10.2006 2.51786 10.1965C2.58614 10.1925 2.65286 10.1745 2.71389 10.1436C2.77493 10.1127 2.82898 10.0697 2.87271 10.0171C2.91644 9.9645 2.94891 9.9035 2.96812 9.83786C2.98562 9.78991 3.01051 9.745 3.04187 9.70473C3.13007 9.59483 3.25725 9.52318 3.39695 9.50467C3.53664 9.48616 3.67809 9.52222 3.79187 9.60536C3.8466 9.64407 3.89289 9.69351 3.92792 9.75067C3.96294 9.80783 3.98598 9.87152 3.99562 9.93786C4.00444 10.0016 4.0003 10.0664 3.98344 10.1285C3.96657 10.1906 3.93734 10.2486 3.8975 10.2991C3.89568 10.3013 3.89401 10.3036 3.8925 10.306L2.09937 12.701C2.04381 12.7753 2.01002 12.8636 2.0018 12.9561C1.99359 13.0485 2.01126 13.1414 2.05284 13.2244C2.09442 13.3074 2.15827 13.3771 2.23724 13.4258C2.31621 13.4746 2.40719 13.5004 2.5 13.5004H4.5C4.63261 13.5004 4.75978 13.4477 4.85355 13.3539C4.94732 13.2601 5 13.133 5 13.0004C5 12.8678 4.94732 12.7406 4.85355 12.6468C4.75978 12.553 4.63261 12.5004 4.5 12.5004H3.5L4.6925 10.9047C4.8134 10.749 4.90167 10.5705 4.95203 10.3799C5.0024 10.1893 5.01382 9.99048 4.98562 9.79536Z" fill="#3498DB"/>
</svg>
