<svg width="20" height="21" viewBox="0 0 20 21" fill="none" xmlns="http://www.w3.org/2000/svg">
<path d="M16.25 3H3.75C3.41848 3 3.10054 3.1317 2.86612 3.36612C2.6317 3.60054 2.5 3.91848 2.5 4.25V16.75C2.5 17.0815 2.6317 17.3995 2.86612 17.6339C3.10054 17.8683 3.41848 18 3.75 18H16.25C16.5815 18 16.8995 17.8683 17.1339 17.6339C17.3683 17.3995 17.5 17.0815 17.5 16.75V4.25C17.5 3.91848 17.3683 3.60054 17.1339 3.36612C16.8995 3.1317 16.5815 3 16.25 3ZM6.25 16.75H3.75V4.25H6.25V16.75ZM13.75 12.375H8.75C8.58424 12.375 8.42527 12.3092 8.30806 12.1919C8.19085 12.0747 8.125 11.9158 8.125 11.75C8.125 11.5842 8.19085 11.4253 8.30806 11.3081C8.42527 11.1908 8.58424 11.125 8.75 11.125H13.75C13.9158 11.125 14.0747 11.1908 14.1919 11.3081C14.3092 11.4253 14.375 11.5842 14.375 11.75C14.375 11.9158 14.3092 12.0747 14.1919 12.1919C14.0747 12.3092 13.9158 12.375 13.75 12.375ZM13.75 9.875H8.75C8.58424 9.875 8.42527 9.80915 8.30806 9.69194C8.19085 9.57473 8.125 9.41576 8.125 9.25C8.125 9.08424 8.19085 8.92527 8.30806 8.80806C8.42527 8.69085 8.58424 8.625 8.75 8.625H13.75C13.9158 8.625 14.0747 8.69085 14.1919 8.80806C14.3092 8.92527 14.375 9.08424 14.375 9.25C14.375 9.41576 14.3092 9.57473 14.1919 9.69194C14.0747 9.80915 13.9158 9.875 13.75 9.875Z" fill="#3498DB"/>
</svg>
