<svg width="14" height="14" viewBox="0 0 14 14" fill="none" xmlns="http://www.w3.org/2000/svg">
<path d="M7 1.3125C5.87512 1.3125 4.7755 1.64607 3.8402 2.27102C2.90489 2.89597 2.17591 3.78423 1.74544 4.82349C1.31496 5.86274 1.20233 7.00631 1.42179 8.10958C1.64124 9.21284 2.18292 10.2263 2.97833 11.0217C3.77374 11.8171 4.78716 12.3588 5.89043 12.5782C6.99369 12.7977 8.13726 12.685 9.17651 12.2546C10.2158 11.8241 11.104 11.0951 11.729 10.1598C12.3539 9.2245 12.6875 8.12488 12.6875 7C12.6856 5.49216 12.0858 4.04661 11.0196 2.98041C9.95339 1.9142 8.50784 1.31438 7 1.3125ZM8.99282 7.36422L6.36782 9.11422C6.29582 9.16194 6.21138 9.18742 6.125 9.1875C6.00897 9.1875 5.89769 9.14141 5.81564 9.05936C5.7336 8.97731 5.6875 8.86603 5.6875 8.75V5.25C5.68745 5.17078 5.70891 5.09302 5.7496 5.02504C5.79028 4.95706 5.84866 4.90141 5.91851 4.86401C5.98835 4.82662 6.06704 4.80889 6.14617 4.81273C6.22531 4.81656 6.30191 4.84181 6.36782 4.88578L8.99282 6.63578C9.05283 6.67572 9.10204 6.72986 9.13608 6.79341C9.17012 6.85695 9.18793 6.92792 9.18793 7C9.18793 7.07208 9.17012 7.14305 9.13608 7.20659C9.10204 7.27014 9.05283 7.32428 8.99282 7.36422Z" fill="#0CA678"/>
</svg>
