<svg width="20" height="21" viewBox="0 0 20 21" fill="none" xmlns="http://www.w3.org/2000/svg">
<path d="M8.71801 14.6773C8.74934 14.7713 8.75788 14.8714 8.74294 14.9693C8.72801 15.0672 8.69002 15.1601 8.63211 15.2405C8.5742 15.3208 8.49803 15.3862 8.40987 15.4314C8.32171 15.4765 8.22408 15.5 8.12505 15.5H1.87505C1.77601 15.5 1.67839 15.4765 1.59023 15.4314C1.50207 15.3862 1.42589 15.3208 1.36798 15.2405C1.31007 15.1601 1.27208 15.0672 1.25715 14.9693C1.24221 14.8714 1.25076 14.7713 1.28208 14.6773L4.40708 5.30235C4.44854 5.17787 4.52812 5.0696 4.63455 4.99288C4.74098 4.91615 4.86885 4.87486 5.00005 4.87486C5.13125 4.87486 5.25912 4.91615 5.36554 4.99288C5.47197 5.0696 5.55155 5.17787 5.59301 5.30235L8.71801 14.6773ZM16.25 6.4375C16.25 5.63402 16.0118 4.84857 15.5654 4.1805C15.119 3.51242 14.4845 2.99172 13.7422 2.68424C12.9999 2.37676 12.183 2.29631 11.395 2.45306C10.6069 2.60981 9.88308 2.99673 9.31493 3.56488C8.74677 4.13303 8.35986 4.8569 8.20311 5.64495C8.04635 6.43299 8.12681 7.24983 8.43429 7.99215C8.74177 8.73448 9.26247 9.36895 9.93054 9.81535C10.5986 10.2617 11.3841 10.5 12.1875 10.5C13.2646 10.4988 14.2972 10.0704 15.0588 9.30875C15.8204 8.54716 16.2488 7.51456 16.25 6.4375ZM17.5 11.75H10.625C10.4593 11.75 10.3003 11.8158 10.1831 11.9331C10.0659 12.0503 10 12.2092 10 12.375V16.75C10 16.9158 10.0659 17.0747 10.1831 17.1919C10.3003 17.3092 10.4593 17.375 10.625 17.375H17.5C17.6658 17.375 17.8248 17.3092 17.942 17.1919C18.0592 17.0747 18.125 16.9158 18.125 16.75V12.375C18.125 12.2092 18.0592 12.0503 17.942 11.9331C17.8248 11.8158 17.6658 11.75 17.5 11.75Z" fill="#DB342C"/>
</svg>
