<svg width="20" height="21" viewBox="0 0 20 21" fill="none" xmlns="http://www.w3.org/2000/svg">
<path d="M16.875 3.625H3.125C2.79348 3.625 2.47554 3.7567 2.24112 3.99112C2.0067 4.22554 1.875 4.54348 1.875 4.875V16.125C1.875 16.4565 2.0067 16.7745 2.24112 17.0089C2.47554 17.2433 2.79348 17.375 3.125 17.375H16.875C17.2065 17.375 17.5245 17.2433 17.7589 17.0089C17.9933 16.7745 18.125 16.4565 18.125 16.125V4.875C18.125 4.54348 17.9933 4.22554 17.7589 3.99112C17.5245 3.7567 17.2065 3.625 16.875 3.625ZM5 12.375H3.75C3.58424 12.375 3.42527 12.3092 3.30806 12.1919C3.19085 12.0747 3.125 11.9158 3.125 11.75C3.125 11.5842 3.19085 11.4253 3.30806 11.3081C3.42527 11.1908 3.58424 11.125 3.75 11.125H5C5.16576 11.125 5.32473 11.1908 5.44194 11.3081C5.55915 11.4253 5.625 11.5842 5.625 11.75C5.625 11.9158 5.55915 12.0747 5.44194 12.1919C5.32473 12.3092 5.16576 12.375 5 12.375ZM5 9.875H3.75C3.58424 9.875 3.42527 9.80915 3.30806 9.69194C3.19085 9.57473 3.125 9.41576 3.125 9.25C3.125 9.08424 3.19085 8.92527 3.30806 8.80806C3.42527 8.69085 3.58424 8.625 3.75 8.625H5C5.16576 8.625 5.32473 8.69085 5.44194 8.80806C5.55915 8.92527 5.625 9.08424 5.625 9.25C5.625 9.41576 5.55915 9.57473 5.44194 9.69194C5.32473 9.80915 5.16576 9.875 5 9.875ZM5 7.375H3.75C3.58424 7.375 3.42527 7.30915 3.30806 7.19194C3.19085 7.07473 3.125 6.91576 3.125 6.75C3.125 6.58424 3.19085 6.42527 3.30806 6.30806C3.42527 6.19085 3.58424 6.125 3.75 6.125H5C5.16576 6.125 5.32473 6.19085 5.44194 6.30806C5.55915 6.42527 5.625 6.58424 5.625 6.75C5.625 6.91576 5.55915 7.07473 5.44194 7.19194C5.32473 7.30915 5.16576 7.375 5 7.375ZM16.875 16.125H6.875V4.875H16.875V16.125Z" fill="#74961D"/>
</svg>
