<svg width="16" height="16" viewBox="0 0 16 16" fill="none" xmlns="http://www.w3.org/2000/svg">
<path d="M14 3V9.5C14 9.76522 13.8946 10.0196 13.7071 10.2071C13.5196 10.3946 13.2652 10.5 13 10.5H6.20687L6.85375 11.1462C6.90021 11.1927 6.93706 11.2479 6.9622 11.3086C6.98734 11.3692 7.00028 11.4343 7.00028 11.5C7.00028 11.5657 6.98734 11.6308 6.9622 11.6914C6.93706 11.7521 6.90021 11.8073 6.85375 11.8538C6.8073 11.9002 6.75214 11.9371 6.69145 11.9622C6.63075 11.9873 6.5657 12.0003 6.5 12.0003C6.4343 12.0003 6.36925 11.9873 6.30855 11.9622C6.24786 11.9371 6.1927 11.9002 6.14625 11.8538L4.64625 10.3538C4.59976 10.3073 4.56288 10.2522 4.53772 10.1915C4.51256 10.1308 4.49961 10.0657 4.49961 10C4.49961 9.93429 4.51256 9.86923 4.53772 9.80853C4.56288 9.74783 4.59976 9.69269 4.64625 9.64625L6.14625 8.14625C6.24007 8.05243 6.36732 7.99972 6.5 7.99972C6.63268 7.99972 6.75993 8.05243 6.85375 8.14625C6.94757 8.24007 7.00028 8.36732 7.00028 8.5C7.00028 8.63268 6.94757 8.75993 6.85375 8.85375L6.20687 9.5H13V3H6V3.5C6 3.63261 5.94732 3.75979 5.85355 3.85355C5.75979 3.94732 5.63261 4 5.5 4C5.36739 4 5.24021 3.94732 5.14645 3.85355C5.05268 3.75979 5 3.63261 5 3.5V3C5 2.73478 5.10536 2.48043 5.29289 2.29289C5.48043 2.10536 5.73478 2 6 2H13C13.2652 2 13.5196 2.10536 13.7071 2.29289C13.8946 2.48043 14 2.73478 14 3ZM10.5 12C10.3674 12 10.2402 12.0527 10.1464 12.1464C10.0527 12.2402 10 12.3674 10 12.5V13H3V6.5H9.79313L9.14625 7.14625C9.05243 7.24007 8.99972 7.36732 8.99972 7.5C8.99972 7.63268 9.05243 7.75993 9.14625 7.85375C9.24007 7.94757 9.36732 8.00028 9.5 8.00028C9.63268 8.00028 9.75993 7.94757 9.85375 7.85375L11.3538 6.35375C11.4002 6.30731 11.4371 6.25217 11.4623 6.19147C11.4874 6.13077 11.5004 6.06571 11.5004 6C11.5004 5.93429 11.4874 5.86923 11.4623 5.80853C11.4371 5.74783 11.4002 5.69269 11.3538 5.64625L9.85375 4.14625C9.75993 4.05243 9.63268 3.99972 9.5 3.99972C9.36732 3.99972 9.24007 4.05243 9.14625 4.14625C9.05243 4.24007 8.99972 4.36732 8.99972 4.5C8.99972 4.63268 9.05243 4.75993 9.14625 4.85375L9.79313 5.5H3C2.73478 5.5 2.48043 5.60536 2.29289 5.79289C2.10536 5.98043 2 6.23478 2 6.5V13C2 13.2652 2.10536 13.5196 2.29289 13.7071C2.48043 13.8946 2.73478 14 3 14H10C10.2652 14 10.5196 13.8946 10.7071 13.7071C10.8946 13.5196 11 13.2652 11 13V12.5C11 12.3674 10.9473 12.2402 10.8536 12.1464C10.7598 12.0527 10.6326 12 10.5 12Z" fill="#202939"/>
</svg>
