<svg width="14" height="14" viewBox="0 0 14 14" fill="none" xmlns="http://www.w3.org/2000/svg">
<path d="M3.50657 8.08253C3.50805 8.11216 3.50349 8.14179 3.49316 8.16961C3.48284 8.19742 3.46696 8.22284 3.4465 8.24433C3.42603 8.26582 3.40142 8.28291 3.37414 8.29458C3.34686 8.30626 3.31749 8.31225 3.28782 8.31222H0.875006C0.77626 8.31237 0.680367 8.27911 0.602921 8.21785C0.525475 8.15658 0.471032 8.07092 0.448444 7.9748C0.434378 7.909 0.435027 7.84091 0.450342 7.77539C0.465658 7.70988 0.495262 7.64855 0.537037 7.59581C0.923026 7.08392 1.43516 6.68088 2.02344 6.42605C1.76517 6.19056 1.56708 5.89662 1.44577 5.56884C1.32445 5.24106 1.28345 4.88898 1.32619 4.54209C1.36892 4.1952 1.49416 3.8636 1.6914 3.57507C1.88865 3.28653 2.15216 3.04946 2.45987 2.88371C2.76757 2.71795 3.11052 2.62835 3.45998 2.62239C3.80944 2.61643 4.15524 2.69429 4.46842 2.84946C4.7816 3.00463 5.05304 3.23258 5.26 3.51422C5.46697 3.79587 5.60344 4.123 5.65797 4.46823C5.66502 4.51466 5.6567 4.56211 5.63429 4.60338C5.61188 4.64464 5.57661 4.67746 5.53383 4.69683C4.92702 4.97736 4.4131 5.42562 4.05274 5.9887C3.69237 6.55178 3.50058 7.20619 3.50001 7.87472C3.50001 7.94472 3.50001 8.01362 3.50657 8.08253ZM13.4597 7.59526C13.0746 7.08397 12.5636 6.68115 11.9766 6.42605C12.2348 6.19056 12.4329 5.89662 12.5542 5.56884C12.6756 5.24106 12.7166 4.88898 12.6738 4.54209C12.6311 4.1952 12.5059 3.8636 12.3086 3.57507C12.1114 3.28653 11.8479 3.04946 11.5401 2.88371C11.2324 2.71795 10.8895 2.62835 10.54 2.62239C10.1906 2.61643 9.84477 2.69429 9.53159 2.84946C9.21841 3.00463 8.94697 3.23258 8.74001 3.51422C8.53304 3.79587 8.39657 4.123 8.34204 4.46823C8.33499 4.51466 8.34331 4.56211 8.36572 4.60338C8.38813 4.64464 8.4234 4.67746 8.46618 4.69683C9.073 4.97736 9.58691 5.42562 9.94728 5.9887C10.3076 6.55178 10.4994 7.20619 10.5 7.87472C10.5 7.94472 10.5 8.01362 10.4934 8.08253C10.492 8.11216 10.4965 8.14179 10.5068 8.16961C10.5172 8.19742 10.5331 8.22284 10.5535 8.24433C10.574 8.26582 10.5986 8.28291 10.6259 8.29458C10.6532 8.30626 10.6825 8.31225 10.7122 8.31222H13.125C13.2238 8.31237 13.3196 8.27911 13.3971 8.21785C13.4745 8.15658 13.529 8.07092 13.5516 7.9748C13.5657 7.90888 13.5651 7.84064 13.5496 7.77501C13.5342 7.70938 13.5044 7.64799 13.4624 7.59526H13.4597ZM8.59251 9.95667C9.02812 9.62306 9.34824 9.16133 9.50788 8.63638C9.66753 8.11144 9.65866 7.54966 9.48254 7.03001C9.30641 6.51036 8.97188 6.05896 8.52595 5.73926C8.08003 5.41956 7.54514 5.24763 6.99645 5.24763C6.44777 5.24763 5.91287 5.41956 5.46695 5.73926C5.02103 6.05896 4.68649 6.51036 4.51037 7.03001C4.33424 7.54966 4.32537 8.11144 4.48502 8.63638C4.64466 9.16133 4.96478 9.62306 5.4004 9.95667C4.62741 10.2916 3.98195 10.8652 3.55852 11.5935C3.52012 11.66 3.4999 11.7354 3.49991 11.8122C3.49991 11.889 3.52014 11.9645 3.55855 12.031C3.59696 12.0975 3.6522 12.1527 3.71872 12.1911C3.78524 12.2295 3.8607 12.2497 3.93751 12.2497H10.0625C10.1393 12.2497 10.2148 12.2295 10.2813 12.1911C10.3478 12.1527 10.4031 12.0975 10.4415 12.031C10.4799 11.9645 10.5001 11.889 10.5001 11.8122C10.5001 11.7354 10.4799 11.66 10.4415 11.5935C10.0172 10.8647 9.3705 10.2911 8.59633 9.95667H8.59251Z" fill="#806EC0"/>
</svg>
