<svg width="291" height="190" viewBox="0 0 291 190" fill="none" xmlns="http://www.w3.org/2000/svg">
<path d="M222.559 3.66594L221.874 4.12723C216.089 8.01282 212.798 14.7077 213.562 21.5812C213.656 22.4663 213.817 23.3429 214.044 24.2035C214.904 27.3178 216.52 30.1713 218.749 32.5103C220.978 34.8492 223.75 36.601 226.819 37.6098C230.443 38.7776 234.565 38.9605 237.512 41.35C241.343 44.4585 241.713 50.023 241.788 54.9226C241.863 59.8222 242.241 65.3908 246.089 68.4868C248.499 70.4234 251.82 70.9221 254.916 70.6146C263.107 69.7834 270.188 63.7452 273.504 56.3023C276.821 48.8594 276.754 40.2778 274.784 32.3861C272.025 21.3361 265.363 11.0091 255.535 5.06642C245.707 -0.876257 232.62 -1.90687 222.559 3.66594Z" fill="#F5F5F5"/>
<path d="M53.5838 17.7997L54.2695 18.261C60.0584 22.1424 63.3456 28.8373 62.581 35.715C62.4827 36.598 62.3216 37.473 62.0989 38.3331C61.2378 41.4472 59.6213 44.3005 57.3928 46.6399C55.1644 48.9793 52.3928 50.7324 49.3242 51.7436C45.6963 52.9072 41.5738 53.0901 38.6274 55.4838C34.7958 58.5964 34.426 64.1567 34.3553 69.0605C34.2847 73.9642 33.9148 79.5121 30.0874 82.604C27.6771 84.5447 24.3567 85.0434 21.2607 84.7359C13.049 83.9213 5.98425 77.8665 2.65967 70.4236C-0.664899 62.9807 -0.594252 54.3991 1.37556 46.5074C4.13495 35.4532 10.7966 25.1262 20.6248 19.1877C30.4531 13.2492 43.5228 12.2269 53.5838 17.7997Z" fill="#F5F5F5"/>
<path d="M281.538 94.2391C282.797 89.2876 279.803 84.2534 274.851 82.9949C269.9 81.7365 264.866 84.7303 263.607 89.6819C262.349 94.6334 265.343 99.6676 270.294 100.926C275.246 102.185 280.28 99.1907 281.538 94.2391Z" fill="#F5F5F5"/>
<path d="M7.15615 111.948C11.1084 111.948 14.3123 108.744 14.3123 104.791C14.3123 100.839 11.1084 97.6353 7.15615 97.6353C3.20392 97.6353 0 100.839 0 104.791C0 108.744 3.20392 111.948 7.15615 111.948Z" fill="#F5F5F5"/>
<path d="M180.445 25.2134H98.0458V52.799H180.445V25.2134Z" fill="#263238"/>
<path d="M136.64 39.6671C136.64 39.6671 62.5643 29.3152 60.7939 28.9952C59.0236 28.6752 141.598 12.1895 141.598 12.1895L222.447 30.3209L136.64 39.6671Z" fill="#263238"/>
<path d="M180.45 34.3562L180.254 34.2523C180.125 34.1858 179.938 34.0777 179.685 33.9489C179.186 33.6871 178.438 33.3048 177.462 32.8643C174.688 31.6303 171.837 30.5794 168.926 29.7184C164.607 28.4406 160.207 27.4562 155.756 26.772C150.308 25.9257 144.811 25.437 139.3 25.3092C133.787 25.1809 128.274 25.5173 122.818 26.3149C118.361 26.9655 113.957 27.9377 109.64 29.2239C106.73 30.0866 103.872 31.1147 101.079 32.3033L99.7704 32.8809L98.8229 33.3297L98.2453 33.6123C98.1164 33.6788 98.0458 33.7079 98.0458 33.7079L98.2411 33.5666L98.8104 33.2632L99.7496 32.7978L101.05 32.1994C103.834 30.9776 106.691 29.927 109.603 29.0535C113.921 27.7454 118.33 26.7578 122.793 26.0988C128.259 25.289 133.784 24.947 139.308 25.0765C144.83 25.2052 150.337 25.6994 155.794 26.5559C160.25 27.2496 164.654 28.2522 168.971 29.5563C171.885 30.4293 174.735 31.5041 177.499 32.7729C178.48 33.2217 179.215 33.604 179.71 33.8907C179.959 34.0279 180.125 34.1442 180.271 34.2149L180.45 34.3562Z" fill="#455A64"/>
<path d="M189.783 27.2957C189.459 25.1472 189.197 23.7716 188.329 22.421C187.783 21.6598 186.96 21.1434 186.038 20.9833C185.115 20.8231 184.166 21.032 183.396 21.5649L185.474 22.0595C187.061 22.9239 187.473 24.9685 187.622 26.7928C187.942 30.7467 187.83 34.7235 187.29 38.6532C187.992 38.7197 189.002 38.5161 189.7 38.5826C190.082 34.8134 190.357 31.1106 189.783 27.2957Z" fill="#106FA4"/>
<path d="M188.678 40.2779C190.06 40.2779 191.18 39.1578 191.18 37.7762C191.18 36.3945 190.06 35.2744 188.678 35.2744C187.296 35.2744 186.176 36.3945 186.176 37.7762C186.176 39.1578 187.296 40.2779 188.678 40.2779Z" fill="#106FA4"/>
<path d="M194.072 49.1963C194.026 47.16 193.976 45.0988 193.449 43.1289C192.921 41.1591 191.853 39.26 190.157 38.1421L187.764 38.2252C186.359 38.5493 185.407 39.9124 185.054 41.3087C184.701 42.7051 184.813 44.1679 184.771 45.6099C184.73 47.0519 184.493 48.5688 183.579 49.6784C184.372 49.8903 185.1 50.2976 185.877 50.5635C186.258 50.7216 186.667 50.8006 187.079 50.7956C187.491 50.7906 187.898 50.7017 188.275 50.5344C189.164 50.0524 189.521 48.9802 189.816 48.0078C190.17 48.9179 190.252 49.911 190.053 50.8669C190.718 50.7838 191.383 51.0082 192.052 51.083C192.721 51.1578 193.507 51.029 193.86 50.4555C194.05 50.0648 194.124 49.6277 194.072 49.1963Z" fill="#106FA4"/>
<path d="M202.865 52.5166H80.3466V63.6498H202.865V52.5166Z" fill="#F5F5F5"/>
<path opacity="0.3" d="M202.865 52.5166H168.676V63.6498H202.865V52.5166Z" fill="black"/>
<path d="M202.865 54.4533C202.865 54.5156 175.438 54.5613 141.61 54.5613C107.783 54.5613 80.3466 54.5156 80.3466 54.4533C80.3466 54.3909 107.774 54.3452 141.61 54.3452C175.446 54.3452 202.865 54.3951 202.865 54.4533Z" fill="#263238"/>
<path d="M202.865 56.3483C202.865 56.4106 175.438 56.4563 141.61 56.4563C107.783 56.4563 80.3466 56.4106 80.3466 56.3483C80.3466 56.286 107.774 56.2402 141.61 56.2402C175.446 56.2402 202.865 56.2901 202.865 56.3483Z" fill="#263238"/>
<path d="M202.865 58.2472C202.865 58.3054 175.438 58.3553 141.61 58.3553C107.783 58.3553 80.3466 58.3054 80.3466 58.2472C80.3466 58.189 107.774 58.1392 141.61 58.1392C175.446 58.1392 202.865 58.1849 202.865 58.2472Z" fill="#263238"/>
<path d="M202.865 60.1632C202.865 60.2214 175.438 60.2713 141.61 60.2713C107.783 60.2713 80.3466 60.2214 80.3466 60.1632C80.3466 60.105 107.774 60.0552 141.61 60.0552C175.446 60.0552 202.865 60.0801 202.865 60.1632Z" fill="#263238"/>
<path d="M202.865 61.9957C202.865 62.0539 175.438 62.1038 141.61 62.1038C107.783 62.1038 80.3466 62.0539 80.3466 61.9957C80.3466 61.9376 107.774 61.8877 141.61 61.8877C175.446 61.8877 202.865 61.9334 202.865 61.9957Z" fill="#263238"/>
<path d="M218.578 81.2988H59.7467V101.134H218.578V81.2988Z" fill="#455A64"/>
<path d="M183.508 97.224C183.502 97.1479 183.502 97.0715 183.508 96.9954C183.508 96.825 183.508 96.6173 183.508 96.3596C183.508 95.782 183.487 94.9924 183.475 94.0116C183.475 91.9878 183.433 89.1785 183.408 85.8789L183.541 86.0119H176.02C175.986 86.0409 176.294 85.7376 176.165 85.8706V87.4539C176.165 87.9775 176.165 88.4928 176.165 89.004C176.165 90.0263 176.165 91.0153 176.165 91.9712C176.165 93.8786 176.165 95.6448 176.144 97.2115L176.028 97.0952L181.472 97.1575L182.997 97.1866C183.182 97.185 183.366 97.1933 183.55 97.2115C183.381 97.2315 183.212 97.2398 183.043 97.2364L181.547 97.2655L176.028 97.3237H175.916V97.2074C175.916 95.6407 175.916 93.8828 175.891 91.967C175.891 91.0112 175.891 90.0221 175.891 88.9998V87.4664C175.891 87.2045 175.891 86.9427 175.891 86.6768V85.883C175.766 86.0077 176.069 85.7043 176.036 85.7334H183.558H183.691V85.8664C183.662 89.191 183.641 92.0418 183.624 94.0864C183.624 95.0547 183.6 95.836 183.587 96.4053C183.587 96.6505 183.587 96.85 183.587 97.012C183.567 97.0849 183.541 97.1558 183.508 97.224Z" fill="#263238"/>
<path d="M218.574 84.4033H194.076V97.818H218.574V84.4033Z" fill="white"/>
<path opacity="0.3" d="M218.574 81.2988H190.851V101.134H218.574V81.2988Z" fill="black"/>
<path d="M190.731 101.018C190.652 101.018 190.585 96.6376 190.585 91.2393C190.585 85.8411 190.652 81.4609 190.731 81.4609C190.81 81.4609 190.876 85.8369 190.876 91.2393C190.876 96.6418 190.81 101.018 190.731 101.018Z" fill="#263238"/>
<path d="M218.757 87.5908C218.757 87.6697 213.188 87.7321 206.323 87.7321C199.458 87.7321 193.889 87.6697 193.889 87.5908C193.889 87.5118 199.454 87.4453 206.323 87.4453C213.192 87.4453 218.757 87.4993 218.757 87.5908Z" fill="#263238"/>
<path d="M218.757 91.1108C218.757 91.1897 213.188 91.2521 206.323 91.2521C199.458 91.2521 193.889 91.1897 193.889 91.1108C193.889 91.0318 199.454 90.9653 206.323 90.9653C213.192 90.9653 218.757 91.0277 218.757 91.1108Z" fill="#263238"/>
<path d="M218.757 94.6887C218.757 94.7676 213.188 94.8341 206.323 94.8341C199.458 94.8341 193.889 94.7676 193.889 94.6887C193.889 94.6097 199.454 94.5474 206.323 94.5474C213.192 94.5474 218.757 94.6097 218.757 94.6887Z" fill="#263238"/>
<path d="M220.328 101.292H61.4962V111.079H220.328V101.292Z" fill="#FF9A6C"/>
<path d="M220.328 102.518H184.821V109.928H220.328V102.518Z" fill="#E0E0E0"/>
<path opacity="0.3" d="M220.328 101.292H182.814V111.079H220.328V101.292Z" fill="black"/>
<path d="M182.814 111.079C182.731 111.079 182.673 108.972 182.681 106.37C182.69 103.769 182.76 101.658 182.839 101.658C182.918 101.658 182.976 103.769 182.968 106.37C182.96 108.972 182.893 111.079 182.814 111.079Z" fill="#263238"/>
<path d="M168.572 105.065H72.9161V107.405H168.572V105.065Z" fill="#E0E0E0"/>
<path d="M178.949 111.004C178.949 111.083 152.627 111.146 120.167 111.146C87.7064 111.146 61.3799 111.083 61.3799 111.004C61.3799 110.925 87.6939 110.859 120.167 110.859C152.639 110.859 178.949 110.921 178.949 111.004Z" fill="#263238"/>
<path d="M183.205 111.05C183.205 111.129 156.882 111.191 124.422 111.191C91.9618 111.191 65.6354 111.129 65.6354 111.05C65.6354 110.971 91.9494 110.904 124.422 110.904C156.895 110.904 183.205 110.971 183.205 111.05Z" fill="#263238"/>
<path d="M220.328 101.222C220.328 101.301 185.694 101.363 142.986 101.363C100.277 101.363 65.6354 101.301 65.6354 101.222C65.6354 101.143 100.257 101.076 142.986 101.076C185.715 101.076 220.328 101.138 220.328 101.222Z" fill="#263238"/>
<path d="M208.01 163.403H49.1787V173.19H208.01V163.403Z" fill="#E0E0E0"/>
<path d="M208.006 164.629H172.5V172.039H208.006V164.629Z" fill="#E0E0E0"/>
<path opacity="0.3" d="M208.006 163.403H170.492V173.19H208.006V163.403Z" fill="black"/>
<path d="M170.492 173.198C170.413 173.198 170.355 171.087 170.364 168.49C170.372 165.893 170.438 163.777 170.522 163.777C170.605 163.777 170.659 165.888 170.65 168.49C170.642 171.091 170.576 173.198 170.492 173.198Z" fill="#263238"/>
<path d="M156.255 167.173H60.5986V169.513H156.255V167.173Z" fill="white"/>
<path d="M166.632 173.112C166.632 173.195 140.309 173.257 107.849 173.257C75.3888 173.257 49.0624 173.195 49.0624 173.112C49.0624 173.028 75.3764 172.97 107.849 172.97C140.322 172.97 166.632 173.033 166.632 173.112Z" fill="#263238"/>
<path d="M170.887 173.157C170.887 173.24 144.565 173.302 112.105 173.302C79.6442 173.302 53.3136 173.24 53.3136 173.157C53.3136 173.074 79.6318 173.016 112.105 173.016C144.577 173.016 170.887 173.078 170.887 173.157Z" fill="#263238"/>
<path d="M208.006 163.329C208.006 163.412 173.376 163.474 130.664 163.474C87.9515 163.474 53.3136 163.412 53.3136 163.329C53.3136 163.246 87.939 163.188 130.664 163.188C173.389 163.188 208.006 163.25 208.006 163.329Z" fill="#263238"/>
<path d="M258.319 173.232H33.3953V183.019H258.319V173.232Z" fill="#136832"/>
<path d="M258.319 174.458H210.271V181.868H258.319V174.458Z" fill="#E0E0E0"/>
<path opacity="0.3" d="M258.319 173.232H207.553V183.019H258.319V173.232Z" fill="black"/>
<path d="M207.537 183.019C207.428 183.019 207.35 180.908 207.362 178.31C207.374 175.713 207.466 173.598 207.574 173.598C207.682 173.598 207.761 175.709 207.748 178.31C207.736 180.912 207.661 183.019 207.537 183.019Z" fill="#263238"/>
<path d="M188.287 177.001H58.8407V179.341H188.287V177.001Z" fill="#E0E0E0"/>
<path d="M208.085 182.985C208.085 183.068 172.466 183.13 128.54 183.13C84.6145 183.13 48.9834 183.068 48.9834 182.985C48.9834 182.902 84.5937 182.844 128.54 182.844C172.487 182.844 208.085 182.906 208.085 182.985Z" fill="#263238"/>
<path d="M258.319 173.157C258.319 173.24 211.455 173.302 153.658 173.302C95.8599 173.302 48.9834 173.24 48.9834 173.157C48.9834 173.074 95.8391 173.016 153.658 173.016C211.476 173.016 258.319 173.078 258.319 173.157Z" fill="#263238"/>
<path d="M162.422 133.096H214.875V113.859H162.422V133.096Z" fill="#EBEBEB"/>
<path d="M47.6827 114.582L214.88 114.582V110.551L47.6827 110.551V114.582Z" fill="#455A64"/>
<path d="M47.6827 136.263L214.88 136.263V132.232L47.6827 132.232V136.263Z" fill="#455A64"/>
<path d="M164.101 111.511L163.839 135.498H47.6786V111.511H164.101Z" fill="#455A64"/>
<path d="M135.223 130.536C138.275 130.536 140.75 127.864 140.75 124.568C140.75 121.272 138.275 118.601 135.223 118.601C132.17 118.601 129.696 121.272 129.696 124.568C129.696 127.864 132.17 130.536 135.223 130.536Z" fill="#263238"/>
<path d="M128.836 124.577C128.836 120.812 131.703 117.753 135.223 117.753C138.743 117.753 141.606 120.812 141.606 124.577C141.606 128.342 138.743 131.392 135.227 131.392C131.711 131.392 128.836 128.317 128.836 124.577ZM130.552 124.577C130.552 127.394 132.63 129.688 135.223 129.688C137.816 129.688 139.89 127.394 139.89 124.577C139.89 121.759 137.812 119.465 135.223 119.465C132.634 119.465 130.552 121.751 130.552 124.577Z" fill="#E0E0E0"/>
<path d="M65.5896 130.52H111.668V117.683H65.5896V130.52Z" fill="white"/>
<path d="M104.475 129.215C104.724 129.215 104.924 126.925 104.924 124.099C104.924 121.273 104.724 118.987 104.475 118.987C104.225 118.987 104.03 121.277 104.03 124.099C104.03 126.921 104.242 129.215 104.475 129.215Z" fill="#E0E0E0"/>
<path d="M98.3949 129.215C98.6442 129.215 98.8437 126.925 98.8437 124.099C98.8437 121.273 98.6442 118.987 98.3949 118.987C98.1455 118.987 97.9502 121.277 97.9502 124.099C97.9502 126.921 98.1497 129.215 98.3949 129.215Z" fill="#E0E0E0"/>
<path d="M92.3026 129.215C92.5478 129.215 92.7514 126.925 92.7514 124.099C92.7514 121.273 92.5478 118.987 92.3026 118.987C92.0574 118.987 91.8579 121.277 91.8579 124.099C91.8579 126.921 92.0574 129.215 92.3026 129.215Z" fill="#E0E0E0"/>
<path d="M86.2103 129.215C86.4555 129.215 86.655 126.925 86.655 124.099C86.655 121.273 86.4555 118.987 86.2103 118.987C85.9651 118.987 85.7615 121.277 85.7615 124.099C85.7615 126.921 85.9651 129.215 86.2103 129.215Z" fill="#E0E0E0"/>
<path d="M80.118 129.215C80.3632 129.215 80.5627 126.925 80.5627 124.099C80.5627 121.273 80.3632 118.987 80.118 118.987C79.8728 118.987 79.6692 121.277 79.6692 124.099C79.6692 126.921 79.8687 129.215 80.118 129.215Z" fill="#E0E0E0"/>
<path d="M74.0257 129.215C74.2709 129.215 74.4704 126.925 74.4704 124.099C74.4704 121.273 74.2709 118.987 74.0257 118.987C73.7805 118.987 73.5769 121.277 73.5769 124.099C73.5769 126.921 73.7764 129.215 74.0257 129.215Z" fill="#E0E0E0"/>
<path d="M163.818 132.63C163.756 132.63 163.71 128.591 163.71 123.608C163.71 118.626 163.756 114.582 163.818 114.582C163.881 114.582 163.926 118.621 163.926 123.608C163.926 128.595 163.877 132.63 163.818 132.63Z" fill="#263238"/>
<path d="M213.891 117.62C213.891 117.682 202.741 117.728 188.981 117.728C175.222 117.728 164.072 117.682 164.072 117.62C164.072 117.557 175.222 117.512 188.981 117.512C202.741 117.512 213.891 117.562 213.891 117.62Z" fill="#263238"/>
<path d="M213.891 120.537C213.891 120.595 202.741 120.645 188.981 120.645C175.222 120.645 164.072 120.595 164.072 120.537C164.072 120.479 175.222 120.429 188.981 120.429C202.741 120.429 213.891 120.475 213.891 120.537Z" fill="#263238"/>
<path d="M213.891 123.45C213.891 123.509 202.741 123.558 188.981 123.558C175.222 123.558 164.072 123.509 164.072 123.45C164.072 123.392 175.222 123.342 188.981 123.342C202.741 123.342 213.891 123.392 213.891 123.45Z" fill="#263238"/>
<path d="M213.891 126.363C213.891 126.426 202.741 126.471 188.981 126.471C175.222 126.471 164.072 126.426 164.072 126.363C164.072 126.301 175.222 126.255 188.981 126.255C202.741 126.255 213.891 126.305 213.891 126.363Z" fill="#263238"/>
<path d="M213.891 129.277C213.891 129.339 202.741 129.385 188.981 129.385C175.222 129.385 164.072 129.339 164.072 129.277C164.072 129.215 175.222 129.169 188.981 129.169C202.741 129.169 213.891 129.219 213.891 129.277Z" fill="#263238"/>
<path opacity="0.3" d="M214.875 110.484H160.747V136.262H214.875V110.484Z" fill="black"/>
<path d="M211.252 63.6289H75.8875V81.3614H211.252V63.6289Z" fill="#FAB317"/>
<path d="M211.248 66.1309H181.347V78.7227H211.248V66.1309Z" fill="#F5F5F5"/>
<path opacity="0.3" d="M211.252 63.6289H178.064V81.3614H211.252V63.6289Z" fill="black"/>
<path d="M168.959 77.4718C168.959 77.4718 168.959 77.3014 168.959 76.9814C168.959 76.6614 168.959 76.1794 168.959 75.556C168.959 74.3093 168.959 72.4517 168.93 70.0538L168.98 70.0954L83.613 70.1577L83.7294 70.0538V77.4718L83.613 77.3679L144.228 77.4136L162.356 77.4427H167.263H168.543H168.984H168.568H167.322H162.435L144.336 77.4718L83.638 77.5175H83.5258V69.9541H83.6421L169.009 70.0123H169.055V70.0538C169.055 72.4642 169.055 74.3218 169.025 75.5809C169.025 76.2001 169.025 76.6739 169.025 76.9939C169.025 77.3139 168.959 77.4718 168.959 77.4718Z" fill="#263238"/>
<path d="M178.18 81.2452C178.114 81.2452 178.064 77.2681 178.064 72.3685C178.064 67.469 178.114 63.4961 178.18 63.4961C178.247 63.4961 178.293 67.469 178.293 72.3685C178.293 77.2681 178.243 81.2452 178.18 81.2452Z" fill="#263238"/>
<path d="M239.024 135.855H42.6792V163.25H239.024V135.855Z" fill="#106FA4"/>
<path d="M235.82 139.28H42.6792V159.722H235.82V139.28Z" fill="#F5F5F5"/>
<path d="M235.825 143.747C235.825 143.747 235.654 143.747 235.326 143.747H233.859L228.224 143.776L207.507 143.822L139.154 143.863L70.7885 143.822L50.0722 143.776L44.4371 143.747H42.9743C42.6418 143.747 42.4756 143.747 42.4756 143.747H42.9743H44.4371L50.0722 143.722L70.7885 143.676L139.154 143.635L207.507 143.676L228.224 143.722L233.859 143.747H235.326H235.825Z" fill="#263238"/>
<path d="M235.825 149.212C235.825 149.212 235.654 149.212 235.326 149.212H233.859L228.224 149.241L207.507 149.286L139.154 149.328L70.7885 149.286L50.0722 149.241L44.4371 149.212H42.9743C42.6418 149.212 42.4756 149.212 42.4756 149.212H42.9743H44.4371L50.0722 149.182L70.7885 149.137L139.154 149.095L207.507 149.137L228.224 149.182L233.859 149.212H235.326H235.825Z" fill="#263238"/>
<path d="M235.825 154.681H235.326H233.859L228.224 154.706L207.507 154.751L139.154 154.793L70.7885 154.751L50.0722 154.706L44.4371 154.681H42.9743H42.4756C42.4756 154.681 42.6418 154.681 42.9743 154.681H44.4371L50.0722 154.652L70.7885 154.606L139.154 154.564L207.507 154.606L228.224 154.652L233.859 154.681H235.326C235.654 154.668 235.825 154.681 235.825 154.681Z" fill="#263238"/>
<path opacity="0.3" d="M239.024 135.855H184.859V163.25H239.024V135.855Z" fill="black"/>
<path d="M218.52 88.1436C218.52 88.1436 218.819 88.2308 219.093 88.6506C219.274 88.9423 219.367 89.2795 219.363 89.6225C219.359 89.9655 219.256 90.3001 219.069 90.5871L219.023 90.4375C219.275 90.5594 219.485 90.7559 219.622 91.0004C219.759 91.2448 219.819 91.5256 219.792 91.8047C219.773 92.0979 219.682 92.3819 219.528 92.6319C219.373 92.8819 219.16 93.0901 218.906 93.2385C218.506 93.4805 218.045 93.6057 217.577 93.6C217.269 93.6035 216.961 93.5784 216.658 93.5252C216.446 93.492 216.33 93.4629 216.334 93.4462C216.338 93.4296 216.816 93.4795 217.581 93.4462C218.023 93.4317 218.453 93.2997 218.828 93.0639C219.049 92.9296 219.236 92.744 219.371 92.5227C219.506 92.3014 219.586 92.0509 219.605 91.7923C219.628 91.5572 219.581 91.3205 219.47 91.112C219.359 90.9034 219.189 90.7324 218.981 90.6204L218.861 90.5746L218.931 90.4708C219.102 90.2118 219.201 89.9116 219.216 89.6017C219.231 89.2917 219.163 88.9833 219.019 88.7087C218.88 88.4977 218.712 88.3074 218.52 88.1436Z" fill="#455A64"/>
<path d="M238.555 97.9799L241.123 97.8054C243.091 99.2719 245.537 99.9492 247.98 99.7041C250.422 99.459 252.684 98.3091 254.322 96.4806C255.96 94.6521 256.854 92.2772 256.83 89.8227C256.805 87.3682 255.863 85.0116 254.19 83.2161C252.516 81.4207 250.231 80.3162 247.784 80.1199C245.337 79.9236 242.906 80.6495 240.967 82.1551C239.028 83.6607 237.723 85.837 237.307 88.2562C236.892 90.6754 237.396 93.1626 238.721 95.2288L238.555 97.9799Z" fill="white"/>
<path d="M238.555 97.9801C238.549 97.9235 238.549 97.8664 238.555 97.8098C238.555 97.6809 238.555 97.5064 238.576 97.2861C238.576 96.8041 238.63 96.1142 238.671 95.2083C238.672 95.2023 238.673 95.1964 238.676 95.1911C238.679 95.1857 238.683 95.181 238.687 95.1771C238.692 95.1732 238.697 95.1703 238.703 95.1686C238.709 95.1668 238.715 95.1661 238.721 95.1667C238.73 95.1636 238.741 95.1636 238.75 95.1667L238.679 95.2249C237.798 93.88 237.263 92.3383 237.121 90.7367C237.032 89.6869 237.108 88.6297 237.345 87.6033C237.622 86.4342 238.111 85.3257 238.787 84.3328C239.54 83.2365 240.501 82.3 241.618 81.5775C242.822 80.7858 244.188 80.2732 245.615 80.0773C247.136 79.8709 248.683 80.013 250.141 80.4929C251.673 81.0145 253.055 81.9012 254.168 83.0762C255.281 84.2513 256.091 85.6795 256.528 87.2376C256.934 88.7283 256.992 90.2921 256.699 91.8089C256.418 93.2368 255.817 94.5824 254.941 95.7444C253.417 97.8178 251.145 99.216 248.607 99.6424L247.776 99.738C247.502 99.7629 247.232 99.738 246.97 99.7629C246.462 99.7695 245.954 99.7306 245.453 99.6466C243.87 99.3956 242.373 98.759 241.094 97.7931H241.123L239.199 97.897L238.704 97.9801H238.546L238.721 97.9594L239.22 97.9178L241.111 97.7599C241.121 97.7557 241.133 97.7557 241.144 97.7599C242.421 98.6945 243.905 99.3062 245.47 99.5427C245.965 99.6182 246.465 99.653 246.966 99.6466C247.224 99.6466 247.49 99.6466 247.76 99.6133L248.591 99.5136C251.076 99.0786 253.297 97.698 254.787 95.6613C255.639 94.5219 256.223 93.2051 256.495 91.8089C256.779 90.3204 256.719 88.7868 256.32 87.3249C255.895 85.803 255.105 84.4077 254.019 83.2599C252.933 82.1122 251.583 81.2466 250.087 80.7381C248.663 80.2664 247.152 80.1243 245.665 80.3225C244.268 80.5107 242.931 81.0075 241.751 81.777C240.656 82.4835 239.71 83.3968 238.966 84.4657C238.299 85.4368 237.813 86.521 237.532 87.6656C237.294 88.675 237.213 89.7151 237.291 90.7492C237.418 92.3318 237.928 93.8596 238.779 95.2C238.787 95.2091 238.792 95.2209 238.792 95.2332C238.792 95.2455 238.787 95.2573 238.779 95.2665C238.771 95.2725 238.76 95.2758 238.75 95.2758C238.74 95.2758 238.729 95.2725 238.721 95.2665L238.8 95.2332C238.733 96.1115 238.684 96.7888 238.65 97.2654C238.65 97.4898 238.617 97.6809 238.605 97.7973C238.592 97.9136 238.555 97.9801 238.555 97.9801Z" fill="#263238"/>
<path d="M244.797 90.3378C244.798 90.551 244.735 90.7597 244.617 90.9373C244.499 91.115 244.331 91.2536 244.134 91.3356C243.937 91.4175 243.721 91.4392 243.511 91.3978C243.302 91.3564 243.11 91.2538 242.959 91.103C242.809 90.9523 242.706 90.7601 242.665 90.5509C242.623 90.3417 242.645 90.125 242.727 89.9281C242.809 89.7313 242.947 89.5632 243.125 89.4453C243.303 89.3273 243.511 89.2648 243.725 89.2656C243.865 89.2656 244.005 89.2934 244.135 89.3472C244.265 89.4011 244.383 89.4801 244.483 89.5797C244.582 89.6792 244.661 89.7974 244.715 89.9275C244.769 90.0576 244.797 90.197 244.797 90.3378Z" fill="#263238"/>
<path d="M248.412 90.3378C248.413 90.551 248.35 90.7597 248.233 90.9373C248.115 91.115 247.947 91.2536 247.75 91.3356C247.553 91.4175 247.336 91.4392 247.127 91.3978C246.918 91.3564 246.726 91.2538 246.575 91.103C246.424 90.9523 246.321 90.7601 246.28 90.5509C246.239 90.3417 246.26 90.125 246.342 89.9281C246.424 89.7313 246.563 89.5632 246.74 89.4453C246.918 89.3273 247.127 89.2648 247.34 89.2656C247.481 89.2656 247.62 89.2934 247.75 89.3472C247.88 89.4011 247.999 89.4801 248.098 89.5797C248.198 89.6792 248.277 89.7974 248.331 89.9275C248.384 90.0576 248.412 90.197 248.412 90.3378Z" fill="#263238"/>
<path d="M251.932 90.3378C251.933 90.551 251.87 90.7597 251.752 90.9373C251.634 91.115 251.466 91.2536 251.27 91.3356C251.073 91.4175 250.856 91.4392 250.647 91.3978C250.438 91.3564 250.245 91.2538 250.095 91.103C249.944 90.9523 249.841 90.7601 249.8 90.5509C249.759 90.3417 249.78 90.125 249.862 89.9281C249.944 89.7313 250.083 89.5632 250.26 89.4453C250.438 89.3273 250.647 89.2648 250.86 89.2656C251.001 89.2656 251.14 89.2934 251.27 89.3472C251.4 89.4011 251.518 89.4801 251.618 89.5797C251.718 89.6792 251.797 89.7974 251.85 89.9275C251.904 90.0576 251.932 90.197 251.932 90.3378Z" fill="#263238"/>
<path d="M47.608 67.8595L45.0356 67.6809C43.0673 69.1474 40.6215 69.8247 38.1791 69.5796C35.7368 69.3345 33.4744 68.1846 31.8367 66.3561C30.1991 64.5276 29.3046 62.1527 29.3291 59.6982C29.3536 57.2436 30.2953 54.8871 31.9691 53.0916C33.643 51.2962 35.9278 50.1917 38.3746 49.9954C40.8214 49.7991 43.2531 50.525 45.1918 52.0306C47.1305 53.5362 48.436 55.7125 48.8515 58.1317C49.2671 60.5509 48.7628 63.0381 47.4376 65.1043L47.608 67.8595Z" fill="white"/>
<path d="M47.6079 67.8594C47.6079 67.8594 47.6079 67.8054 47.6079 67.689C47.6079 67.5727 47.6079 67.3857 47.5872 67.1654C47.5872 66.6792 47.5331 65.9893 47.4916 65.0875C47.4916 65.0815 47.4904 65.0756 47.4881 65.0701C47.4858 65.0645 47.4824 65.0595 47.4782 65.0552C47.4739 65.051 47.4689 65.0476 47.4634 65.0453C47.4578 65.043 47.4519 65.0418 47.4459 65.0418C47.4352 65.0377 47.4233 65.0377 47.4126 65.0418L47.4874 65.1042C48.367 63.7573 48.9008 62.2143 49.0417 60.6118C49.2429 58.3493 48.6556 56.0868 47.3794 54.2079C46.6246 53.1124 45.6616 52.1761 44.5452 51.4526C43.3405 50.6619 41.9748 50.1494 40.5474 49.9524C39.0268 49.7482 37.4797 49.8903 36.0218 50.368C34.4884 50.8871 33.105 51.7729 31.9918 52.9484C30.8787 54.1238 30.0694 55.5534 29.6345 57.1127C29.2286 58.6034 29.1703 60.1673 29.4641 61.684C29.7465 63.1114 30.3474 64.4566 31.222 65.6195C32.0204 66.6958 33.0247 67.6026 34.1767 68.2874C35.2179 68.9046 36.3627 69.327 37.5553 69.5342L38.3864 69.6339C38.6607 69.6588 38.9308 69.6339 39.1926 69.6588C39.7021 69.662 40.211 69.6217 40.7136 69.5383C42.285 69.2934 43.7729 68.6686 45.048 67.7181H45.0148L46.9389 67.8262H47.4292H47.5913C47.5325 67.8137 47.4727 67.8067 47.4126 67.8054L46.9139 67.7597L45.048 67.6433H45.0148C43.7377 68.5779 42.2534 69.1896 40.6887 69.4261C40.1937 69.5017 39.6933 69.5364 39.1926 69.53C38.935 69.53 38.669 69.53 38.403 69.5009L37.5719 69.397C36.3977 69.1964 35.2706 68.7808 34.2473 68.1711C33.1135 67.4966 32.1247 66.6039 31.3383 65.5447C30.4874 64.4048 29.9037 63.0882 29.6303 61.6923C29.3471 60.2038 29.4068 58.6703 29.8048 57.2083C30.2302 55.6864 31.0202 54.2911 32.1064 53.1434C33.1926 51.9956 34.5422 51.13 36.0384 50.6215C37.4618 50.1499 38.9738 50.0078 40.4601 50.2059C41.8571 50.3955 43.1944 50.8938 44.3748 51.6646C45.4707 52.3673 46.4169 53.2796 47.1591 54.3492C47.8269 55.3217 48.3126 56.4073 48.5928 57.5532C48.8334 58.5608 48.9148 59.5999 48.8339 60.6326C48.7078 62.2152 48.197 63.7431 47.3461 65.0834C47.3387 65.0929 47.3347 65.1046 47.3347 65.1166C47.3347 65.1287 47.3387 65.1404 47.3461 65.1499C47.3546 65.156 47.3648 65.1592 47.3752 65.1592C47.3857 65.1592 47.3958 65.156 47.4043 65.1499L47.3254 65.1166C47.3877 65.9935 47.4376 66.675 47.475 67.1488C47.475 67.3732 47.5041 67.5644 47.5165 67.6849C47.5415 67.7457 47.5722 67.8042 47.6079 67.8594Z" fill="#263238"/>
<path d="M41.3619 60.2089C41.3611 60.4219 41.4236 60.6304 41.5413 60.808C41.6591 60.9855 41.8269 61.1241 42.0235 61.2063C42.2201 61.2884 42.4366 61.3103 42.6457 61.2692C42.8548 61.2281 43.0469 61.126 43.1979 60.9756C43.3488 60.8252 43.4517 60.6335 43.4936 60.4246C43.5355 60.2157 43.5144 59.999 43.4331 59.8021C43.3517 59.6052 43.2138 59.4369 43.0367 59.3184C42.8596 59.2 42.6513 59.1367 42.4383 59.1367C42.1535 59.1367 41.8804 59.2495 41.6787 59.4505C41.4769 59.6514 41.363 59.9242 41.3619 60.2089Z" fill="#263238"/>
<path d="M37.7465 60.2089C37.7456 60.4219 37.8081 60.6304 37.9258 60.808C38.0436 60.9855 38.2114 61.1241 38.408 61.2063C38.6046 61.2884 38.8212 61.3103 39.0302 61.2692C39.2393 61.2281 39.4315 61.126 39.5824 60.9756C39.7333 60.8252 39.8363 60.6335 39.8781 60.4246C39.92 60.2157 39.8989 59.999 39.8176 59.8021C39.7362 59.6052 39.5983 59.4369 39.4212 59.3184C39.2441 59.2 39.0359 59.1367 38.8228 59.1367C38.5381 59.1367 38.2649 59.2495 38.0632 59.4505C37.8615 59.6514 37.7476 59.9242 37.7465 60.2089Z" fill="#263238"/>
<path d="M34.2432 60.2089C34.2423 60.4219 34.3048 60.6304 34.4225 60.808C34.5403 60.9855 34.7081 61.1241 34.9047 61.2063C35.1013 61.2884 35.3179 61.3103 35.5269 61.2692C35.736 61.2281 35.9282 61.126 36.0791 60.9756C36.23 60.8252 36.333 60.6335 36.3748 60.4246C36.4167 60.2157 36.3956 59.999 36.3143 59.8021C36.233 59.6052 36.095 59.4369 35.9179 59.3184C35.7408 59.2 35.5326 59.1367 35.3195 59.1367C35.0348 59.1367 34.7616 59.2495 34.5599 59.4505C34.3582 59.6514 34.2443 59.9242 34.2432 60.2089Z" fill="#263238"/>
<path d="M230.09 96.1928C230.448 95.7796 230.645 95.2517 230.647 94.7051C230.593 93.9654 230.231 93.6661 229.653 93.2049C229.928 92.5857 230.335 91.6382 229.998 91.048C229.802 90.7138 229.525 90.4346 229.192 90.2362C228.86 90.0379 228.482 89.9269 228.095 89.9135C228.299 88.6917 226.794 87.6113 225.535 87.5572C224.567 87.5157 223.623 87.2289 222.626 88.5463C222.626 88.5463 222.335 87.5074 220.49 87.7567C219.596 87.8814 218.574 88.7291 218.491 89.6143C218.001 88.6876 216.829 88.5546 215.836 88.9245C214.842 89.2943 214.173 90.113 214.414 91.127C214.01 91.1164 213.609 91.2116 213.253 91.4033C212.897 91.595 212.596 91.8765 212.382 92.22C212.178 92.5655 212.071 92.9594 212.071 93.3607C212.071 93.762 212.178 94.1559 212.382 94.5014C212.069 94.6144 211.798 94.8226 211.609 95.097C211.42 95.3714 211.321 95.6982 211.327 96.0314C211.333 96.3646 211.443 96.6876 211.642 96.9551C211.841 97.2225 212.119 97.421 212.436 97.5226L227.746 98.5325L228.481 99.0561C228.871 99.1751 229.291 99.1363 229.652 98.9482C230.012 98.76 230.285 98.4376 230.41 98.0504C230.809 97.1736 230.327 96.6333 230.09 96.1928Z" fill="#263238"/>
<path d="M228.764 99.347C228.744 97.2846 227.946 95.3056 226.531 93.8051C225.116 92.3045 223.188 91.3927 221.13 91.2516L220.714 91.2184C216.085 91.127 213.421 94.9585 213.458 99.4966L212.922 115.525L213.4 116.581L220.332 127.103L223.212 118.513L223.665 114.441C223.665 114.441 228.149 114.104 228.548 109.753C228.731 107.654 228.772 103.295 228.764 99.347Z" fill="#AE7461"/>
<path d="M223.644 114.445C221.606 114.28 219.656 113.544 218.017 112.321C218.017 112.321 219.123 115.567 223.532 115.525L223.644 114.445Z" fill="#6F4439"/>
<path d="M227.068 103.428C227.056 103.592 226.979 103.744 226.856 103.852C226.732 103.96 226.571 104.015 226.408 104.006C226.327 104.007 226.248 103.992 226.173 103.961C226.099 103.931 226.031 103.886 225.975 103.829C225.918 103.772 225.873 103.704 225.844 103.63C225.814 103.555 225.799 103.475 225.801 103.395C225.815 103.232 225.891 103.08 226.015 102.973C226.138 102.865 226.298 102.809 226.462 102.817C226.542 102.816 226.622 102.831 226.696 102.861C226.771 102.892 226.838 102.937 226.895 102.994C226.951 103.051 226.996 103.119 227.026 103.193C227.056 103.268 227.07 103.348 227.068 103.428Z" fill="#263238"/>
<path d="M227.675 101.628C227.588 101.707 227.139 101.321 226.458 101.271C225.776 101.221 225.248 101.516 225.182 101.429C225.115 101.341 225.24 101.246 225.469 101.109C225.781 100.931 226.14 100.852 226.499 100.88C226.852 100.906 227.188 101.043 227.459 101.271C227.654 101.445 227.717 101.595 227.675 101.628Z" fill="#263238"/>
<path d="M221.3 103.12C221.288 103.284 221.211 103.436 221.088 103.544C220.964 103.652 220.803 103.707 220.64 103.698C220.559 103.699 220.479 103.684 220.405 103.654C220.331 103.623 220.263 103.578 220.207 103.521C220.15 103.464 220.105 103.397 220.076 103.322C220.046 103.247 220.031 103.168 220.033 103.087C220.047 102.924 220.123 102.773 220.247 102.665C220.37 102.557 220.53 102.501 220.694 102.51C220.774 102.508 220.854 102.523 220.928 102.554C221.002 102.584 221.07 102.629 221.127 102.686C221.183 102.743 221.228 102.811 221.258 102.886C221.288 102.96 221.302 103.04 221.3 103.12Z" fill="#263238"/>
<path d="M221.167 101.034C221.084 101.109 220.631 100.727 219.95 100.673C219.268 100.619 218.744 100.922 218.678 100.831C218.611 100.739 218.736 100.652 218.965 100.515C219.275 100.335 219.634 100.256 219.991 100.286C220.345 100.313 220.682 100.45 220.955 100.677C221.151 100.851 221.209 101.001 221.167 101.034Z" fill="#263238"/>
<path d="M223.017 106.166C223.384 106.086 223.759 106.05 224.134 106.058C224.313 106.058 224.479 106.033 224.517 105.917C224.545 105.742 224.519 105.562 224.442 105.402C224.313 104.986 224.176 104.529 224.026 104.059C223.461 102.152 223.066 100.589 223.145 100.569C223.224 100.548 223.744 102.073 224.309 103.985L224.7 105.331C224.792 105.545 224.805 105.785 224.737 106.008C224.708 106.068 224.665 106.12 224.611 106.16C224.558 106.2 224.495 106.226 224.43 106.237C224.33 106.249 224.23 106.249 224.13 106.237C223.758 106.263 223.383 106.239 223.017 106.166Z" fill="#263238"/>
<path d="M221.329 99.1226C221.234 99.293 220.66 99.0894 219.945 99.0478C219.231 99.0063 218.628 99.106 218.57 98.9273C218.545 98.84 218.674 98.6904 218.936 98.5616C219.274 98.4072 219.646 98.3414 220.016 98.3704C220.381 98.3934 220.734 98.5124 221.038 98.7154C221.271 98.8774 221.371 99.0437 221.329 99.1226Z" fill="#263238"/>
<path d="M227.667 99.7833C227.546 99.9371 227.077 99.7833 226.507 99.7833C225.938 99.7833 225.464 99.8872 225.352 99.7293C225.306 99.6545 225.381 99.5007 225.589 99.3553C225.87 99.181 226.197 99.0928 226.527 99.1017C226.858 99.1105 227.179 99.216 227.451 99.4051C227.65 99.5506 227.717 99.7085 227.667 99.7833Z" fill="#263238"/>
<path d="M213.82 103.798C213.827 103.635 213.8 103.473 213.742 103.321C213.685 103.169 213.596 103.031 213.483 102.914C213.37 102.798 213.234 102.705 213.084 102.643C212.934 102.58 212.773 102.549 212.611 102.551C211.779 102.551 210.824 102.966 210.741 104.629C210.603 107.613 213.679 107.122 213.687 107.051C213.695 106.981 213.77 105.044 213.82 103.798Z" fill="#AE7461"/>
<path d="M213.08 105.909C213.08 105.909 213.026 105.942 212.935 105.975C212.869 106.004 212.799 106.019 212.727 106.019C212.655 106.019 212.585 106.004 212.519 105.975C212.33 105.846 212.179 105.668 212.082 105.46C211.985 105.253 211.945 105.023 211.967 104.795C211.97 104.538 212.033 104.285 212.149 104.055C212.183 103.963 212.238 103.88 212.311 103.814C212.383 103.747 212.47 103.699 212.565 103.673C212.627 103.659 212.691 103.667 212.747 103.696C212.803 103.725 212.848 103.773 212.872 103.831C212.91 103.918 212.872 103.976 212.902 103.98C212.931 103.985 212.972 103.935 212.951 103.81C212.939 103.735 212.899 103.667 212.839 103.619C212.8 103.585 212.754 103.56 212.705 103.544C212.656 103.528 212.604 103.523 212.552 103.527C212.427 103.545 212.309 103.594 212.209 103.671C212.108 103.747 212.029 103.848 211.979 103.964C211.837 104.218 211.76 104.504 211.755 104.795C211.729 105.061 211.782 105.329 211.909 105.564C212.035 105.799 212.229 105.992 212.465 106.116C212.546 106.145 212.632 106.154 212.717 106.145C212.801 106.136 212.883 106.107 212.956 106.062C213.072 105.979 213.093 105.913 213.08 105.909Z" fill="#6F4439"/>
<path d="M221.25 107.123C221.223 107.1 221.191 107.084 221.156 107.074C221.122 107.065 221.086 107.063 221.051 107.068C220.993 107.093 220.947 107.139 220.922 107.197C220.802 107.421 220.741 107.672 220.746 107.926C220.75 108.18 220.819 108.428 220.947 108.648C221.044 108.791 221.175 108.908 221.329 108.986C221.483 109.065 221.654 109.104 221.827 109.099C222 109.094 222.169 109.046 222.318 108.958C222.467 108.87 222.592 108.746 222.68 108.598L222.967 108.12L221.25 107.123Z" fill="#6F4439"/>
<path d="M222.497 108.822C222.522 108.822 222.264 109.109 221.712 109.121C221.558 109.122 221.408 109.082 221.275 109.005C221.117 108.93 220.982 108.814 220.885 108.668C220.7 108.327 220.631 107.934 220.689 107.55C220.701 107.451 220.721 107.352 220.747 107.255C220.759 107.196 220.784 107.14 220.82 107.091C220.856 107.042 220.902 107.002 220.955 106.973C221.013 106.952 221.075 106.946 221.136 106.954C221.197 106.963 221.255 106.987 221.304 107.023L221.525 107.164L222.281 107.65C222.524 107.785 222.749 107.95 222.95 108.14C222.689 108.044 222.439 107.918 222.206 107.766L221.429 107.318C221.288 107.239 221.105 107.097 221.038 107.147C220.972 107.197 220.91 107.397 220.889 107.563C220.833 107.903 220.887 108.252 221.043 108.56C221.118 108.683 221.226 108.784 221.354 108.851C221.463 108.921 221.587 108.962 221.716 108.972C221.984 108.982 222.251 108.931 222.497 108.822Z" fill="#263238"/>
<path d="M222.63 102.136C222.605 102.136 222.605 101.886 222.472 101.471C222.28 100.881 221.895 100.373 221.379 100.029C221.002 99.7774 220.569 99.6216 220.118 99.5746C219.667 99.5275 219.211 99.5906 218.79 99.7585C218.287 99.9537 217.853 100.294 217.544 100.735C217.214 101.204 217.048 101.768 217.07 102.341C217.092 102.913 217.3 103.463 217.664 103.906C217.999 104.323 218.45 104.631 218.961 104.791C219.323 104.908 219.706 104.948 220.085 104.911C220.463 104.873 220.83 104.758 221.163 104.572C221.495 104.387 221.786 104.135 222.017 103.832C222.248 103.53 222.414 103.183 222.505 102.813C222.605 102.397 222.584 102.136 222.609 102.136C222.618 102.195 222.618 102.255 222.609 102.314C222.615 102.488 222.601 102.663 222.568 102.834C222.443 103.47 222.099 104.042 221.595 104.45C220.994 104.941 220.222 105.172 219.45 105.094C218.678 105.016 217.968 104.635 217.477 104.035C217.192 103.684 216.995 103.272 216.901 102.83C216.806 102.389 216.818 101.931 216.935 101.496C217.052 101.06 217.27 100.658 217.573 100.322C217.875 99.9872 218.252 99.7284 218.674 99.5674C219.124 99.392 219.611 99.3302 220.09 99.3874C220.57 99.4447 221.029 99.6192 221.425 99.8957C221.957 100.267 222.342 100.812 222.514 101.437C222.562 101.604 222.588 101.776 222.593 101.949C222.616 102.008 222.629 102.072 222.63 102.136Z" fill="#263238"/>
<path d="M229.728 102.746C229.728 102.746 229.728 102.497 229.574 102.077C229.454 101.716 229.261 101.384 229.007 101.1C228.754 100.817 228.445 100.588 228.1 100.428C227.754 100.268 227.38 100.18 227 100.17C226.62 100.16 226.241 100.228 225.888 100.369C225.393 100.568 224.967 100.907 224.662 101.346C224.336 101.816 224.171 102.379 224.193 102.951C224.214 103.523 224.422 104.073 224.783 104.517C225.119 104.932 225.57 105.24 226.079 105.402C226.442 105.518 226.824 105.558 227.203 105.52C227.582 105.482 227.948 105.367 228.281 105.181C228.613 104.996 228.904 104.744 229.135 104.442C229.366 104.139 229.532 103.793 229.624 103.424C229.724 103.008 229.707 102.746 229.728 102.746C229.746 102.804 229.753 102.865 229.749 102.925C229.757 103.098 229.743 103.271 229.707 103.44C229.581 104.073 229.235 104.641 228.731 105.044C228.129 105.535 227.358 105.766 226.586 105.688C225.814 105.61 225.104 105.229 224.612 104.629C224.332 104.278 224.139 103.867 224.048 103.427C223.957 102.988 223.971 102.533 224.089 102.1C224.207 101.667 224.425 101.269 224.726 100.936C225.027 100.603 225.403 100.346 225.822 100.186C226.271 100.009 226.757 99.9457 227.237 100.003C227.716 100.06 228.174 100.236 228.569 100.515C229.102 100.884 229.487 101.43 229.657 102.056C229.704 102.223 229.732 102.395 229.741 102.567C229.748 102.627 229.744 102.688 229.728 102.746Z" fill="#263238"/>
<path d="M224.159 102.613C224.114 102.646 223.885 102.289 223.432 102.198C222.979 102.106 222.634 102.339 222.601 102.289C222.568 102.239 222.647 102.173 222.8 102.085C223.008 101.974 223.247 101.939 223.478 101.986C223.709 102.033 223.915 102.161 224.06 102.347C224.159 102.488 224.159 102.601 224.159 102.613Z" fill="#263238"/>
<path d="M216.97 101.978C216.325 102.207 215.658 102.37 214.979 102.464C214.313 102.627 213.632 102.72 212.947 102.742C214.257 102.344 215.606 102.088 216.97 101.978Z" fill="#263238"/>
<path d="M227.023 93.2586C227.106 93.1932 227.168 93.1052 227.201 93.0051C227.251 92.786 227.217 92.5563 227.106 92.361C226.897 91.9298 226.541 91.5877 226.102 91.3971C225.663 91.2064 225.169 91.1798 224.712 91.3221C224.61 90.7533 224.343 90.227 223.945 89.8082C223.547 89.3894 223.035 89.0965 222.472 88.9658C221.906 88.8791 221.327 88.9633 220.808 89.2076C220.29 89.4519 219.857 89.8452 219.563 90.3372C219.258 89.9872 218.87 89.7196 218.434 89.5592C217.998 89.3987 217.529 89.3504 217.07 89.4187C216.598 89.5103 216.155 89.713 215.777 90.01C215.399 90.307 215.097 90.6898 214.896 91.1267C214.503 90.9965 214.079 90.987 213.68 91.0996C213.28 91.2121 212.924 91.4416 212.656 91.7584C212.383 92.1003 212.205 92.5079 212.139 92.9405C212.074 93.3731 212.123 93.8153 212.282 94.2228C212.008 94.329 211.773 94.5148 211.605 94.7562C211.438 94.9977 211.347 95.2837 211.343 95.5775C211.273 96.2965 211.58 97.3312 212.237 97.1899C211.962 97.672 212.303 98.5405 212.652 98.927C212.652 99.8496 212.715 100.423 212.731 101.258C212.764 102.979 213.596 102.85 213.596 102.85C213.708 106.312 215.054 105.759 216.089 99.2636C216.277 99.143 216.412 98.956 216.467 98.74C216.525 98.5031 216.492 98.2164 216.654 98.0377C216.722 97.9678 216.811 97.9237 216.908 97.913C217.436 98.1409 218.033 98.1528 218.57 97.9463C218.854 97.8299 219.111 97.6539 219.321 97.4303C219.532 97.2067 219.692 96.9405 219.792 96.6497C219.933 96.7859 220.116 96.8697 220.311 96.8871C220.506 96.9045 220.701 96.8544 220.864 96.7453C220.905 96.7203 220.943 96.6871 220.984 96.658C221.574 96.4325 222.051 95.9849 222.314 95.4113C222.383 95.3705 222.455 95.3371 222.53 95.3116C222.754 95.4892 223.026 95.5941 223.31 95.6119C223.595 95.6298 223.878 95.5597 224.122 95.4113C224.381 95.2324 224.597 94.9984 224.755 94.7261C224.913 94.4538 225.009 94.15 225.036 93.8363C225.042 93.7325 225.042 93.6284 225.036 93.5246C225.454 93.4554 225.883 93.5411 226.241 93.7656C227.53 94.5053 228.481 97.3229 228.481 97.3229C228.731 95.7438 228.02 94.3433 227.023 93.2586Z" fill="#263238"/>
<path d="M229.076 149.34C229.076 149.34 248.337 147.196 251.483 146.668C257.505 145.666 263.535 146.626 266.082 151.713C267.25 154.028 265.775 158.495 262.242 161.811C259.612 164.305 246.538 177.287 246.538 177.287L235.317 168.087L249.189 157.489L222.302 161.2L229.076 149.34Z" fill="#263238"/>
<path d="M249.052 170.942L241.846 178.422C241.846 178.422 247.294 188.25 246.097 189.763L230.576 176.319L241.314 164.201L249.052 170.942Z" fill="#263238"/>
<path d="M237.624 173.614C237.439 173.526 237.228 173.51 237.032 173.568C236.835 173.626 236.667 173.755 236.56 173.93C236.47 174.113 236.454 174.325 236.516 174.52C236.578 174.715 236.713 174.879 236.893 174.977C237.09 175.067 237.314 175.082 237.521 175.019C237.729 174.955 237.906 174.818 238.019 174.632C238.091 174.43 238.083 174.208 237.996 174.012C237.908 173.816 237.748 173.661 237.549 173.58" fill="#E0E0E0"/>
<path d="M230.576 176.319L231.66 175.097L246.226 188.524C246.351 188.939 246.31 189.386 246.11 189.771L230.576 176.319Z" fill="#E0E0E0"/>
<path d="M242.166 178.563C242.095 178.634 241.688 178.339 241.102 178.252C240.516 178.165 240.043 178.302 240.001 178.21C239.959 178.119 240.45 177.795 241.156 177.915C241.863 178.036 242.241 178.509 242.166 178.563Z" fill="white"/>
<path d="M243.209 180.625C243.163 180.712 242.723 180.55 242.191 180.625C241.659 180.699 241.285 180.978 241.214 180.907C241.144 180.837 241.464 180.384 242.133 180.288C242.802 180.192 243.276 180.554 243.209 180.625Z" fill="white"/>
<path d="M242.445 183.309C242.361 183.268 242.586 182.811 243.139 182.578C243.691 182.345 244.19 182.491 244.169 182.578C244.148 182.665 243.754 182.69 243.28 182.889C242.806 183.089 242.532 183.367 242.445 183.309Z" fill="white"/>
<path d="M243.612 176.677C243.521 176.714 243.263 176.315 242.81 175.97C242.357 175.625 241.904 175.467 241.921 175.372C241.938 175.276 242.494 175.293 243.022 175.704C243.55 176.116 243.691 176.652 243.612 176.677Z" fill="white"/>
<path d="M254.251 169.637C254.212 169.698 254.166 169.753 254.114 169.803L253.698 170.252L252.094 171.885L246.6 177.354L246.534 177.42L246.463 177.358L245.067 176.215L238.148 170.497L236.07 168.747L235.513 168.265C235.444 168.212 235.381 168.151 235.326 168.083C235.401 168.125 235.472 168.175 235.538 168.232L236.124 168.685L238.247 170.389L245.2 176.057L246.596 177.204H246.459L252.003 171.794L253.665 170.198L254.114 169.782C254.156 169.73 254.202 169.682 254.251 169.637Z" fill="#455A64"/>
<path d="M270.645 169.042L280.104 177.246L289.487 181.614C289.648 181.684 289.793 181.788 289.911 181.918C290.029 182.048 290.119 182.202 290.173 182.369C290.228 182.536 290.246 182.713 290.228 182.888C290.209 183.063 290.153 183.232 290.065 183.384C289.963 183.562 289.82 183.713 289.648 183.825C289.476 183.937 289.28 184.007 289.076 184.028C286.424 184.306 276.663 185.275 276.006 184.639C275.246 183.899 265.446 176.639 265.446 176.639L270.645 169.042Z" fill="#263238"/>
<path d="M290.065 183.375L275.354 184.094L276.006 184.631C276.149 184.74 276.314 184.82 276.489 184.863C276.664 184.907 276.846 184.914 277.024 184.884C278.271 184.884 281.674 184.788 289.055 184.053C289.265 184.031 289.467 183.958 289.643 183.84C289.819 183.723 289.963 183.565 290.065 183.38V183.375Z" fill="#E0E0E0"/>
<g opacity="0.6">
<path d="M275.35 180.554C275.536 180.509 275.732 180.534 275.901 180.624C276.07 180.713 276.2 180.861 276.268 181.04C276.319 181.224 276.298 181.42 276.208 181.588C276.118 181.756 275.967 181.883 275.786 181.942C275.589 181.988 275.382 181.961 275.204 181.865C275.025 181.769 274.888 181.612 274.818 181.423C274.783 181.226 274.828 181.023 274.941 180.858C275.055 180.694 275.228 180.58 275.424 180.542" fill="white"/>
</g>
<path d="M284.002 182.054C284.072 182.021 283.752 181.389 283.96 180.599C284.168 179.81 284.733 179.394 284.683 179.332C284.633 179.27 284.492 179.361 284.268 179.556C283.985 179.819 283.786 180.158 283.694 180.533C283.597 180.906 283.613 181.299 283.74 181.663C283.835 181.925 283.964 182.071 284.002 182.054Z" fill="white"/>
<path d="M285.863 182.449C285.942 182.449 285.888 181.871 286.167 181.264C286.445 180.658 286.886 180.3 286.84 180.238C286.794 180.176 286.217 180.454 285.913 181.156C285.61 181.859 285.793 182.474 285.863 182.449Z" fill="white"/>
<path d="M281.259 181.925C281.342 181.925 281.259 181.053 281.604 180.068C281.949 179.083 282.539 178.443 282.477 178.385C282.414 178.327 281.699 178.921 281.342 179.981C280.985 181.04 281.192 181.963 281.259 181.925Z" fill="white"/>
<path d="M278.184 179.681C278.263 179.681 278.487 178.995 279.048 178.293C279.609 177.591 280.237 177.188 280.195 177.117C280.154 177.046 279.422 177.366 278.828 178.127C278.234 178.887 278.101 179.673 278.184 179.681Z" fill="white"/>
<path d="M276.06 178.227C276.143 178.227 276.272 177.45 276.924 176.756C277.577 176.062 278.346 175.841 278.321 175.767C278.296 175.692 278.105 175.738 277.789 175.85C277.381 176.002 277.015 176.248 276.72 176.569C276.425 176.89 276.211 177.275 276.093 177.695C276.01 178.015 276.027 178.223 276.06 178.227Z" fill="white"/>
<path d="M198.348 157.755C198.539 158.229 197.688 173.452 212.378 173.547C225.564 173.63 243.305 161.749 245.324 162.51C246.65 163.008 269.428 182.457 269.428 182.457L277.639 172.974C277.639 172.974 256.574 153.205 254.496 151.779C250.062 148.733 246.941 148.754 239.644 150.055C233.115 151.214 217.12 156.438 217.12 156.438L215.582 155.154L198.348 157.755Z" fill="#263238"/>
<path d="M234.906 151.589L235.155 151.489C235.317 151.426 235.571 151.331 235.887 151.215C236.539 150.986 237.503 150.658 238.767 150.309C240.306 149.883 241.872 149.56 243.454 149.34C244.443 149.194 245.442 149.124 246.442 149.132C247.562 149.152 248.677 149.291 249.767 149.548C252.279 150.143 254.613 151.33 256.574 153.01C258.61 154.876 260.73 156.908 262.986 159.027L277.685 172.895L277.751 172.961L277.689 173.032L276.555 174.341C275.341 175.75 274.061 177.179 272.814 178.497C271.568 179.814 270.433 181.144 269.286 182.453L269.32 182.524L256.437 171.557L250.91 166.852L248.416 164.737L247.253 163.744C247.062 163.582 246.875 163.416 246.683 163.274C246.491 163.135 246.283 163.02 246.064 162.929C245.652 162.757 245.208 162.671 244.761 162.678C244.314 162.685 243.873 162.785 243.467 162.971L241.293 164.022L237.823 165.685L235.646 166.724L235.081 166.99L234.885 167.077L235.072 166.973L235.629 166.695L237.794 165.622L241.248 163.923L243.417 162.859C243.838 162.662 244.296 162.555 244.761 162.545C245.227 162.535 245.689 162.622 246.118 162.801C246.345 162.899 246.56 163.02 246.762 163.162C246.966 163.308 247.149 163.474 247.34 163.632L248.512 164.621L251.005 166.728L256.574 171.424L269.494 182.374L269.527 182.441C270.666 181.111 271.846 179.748 272.981 178.339C274.115 176.93 275.233 175.588 276.447 174.183L277.564 172.895V173.032L262.882 159.152C260.63 157.033 258.506 154.996 256.491 153.126C254.552 151.458 252.242 150.277 249.754 149.681C248.665 149.422 247.55 149.283 246.43 149.265C245.436 149.251 244.443 149.314 243.459 149.452C241.88 149.664 240.317 149.976 238.779 150.388C237.532 150.724 236.548 151.04 235.895 151.256L235.151 151.51L234.906 151.589Z" fill="#455A64"/>
<path d="M226.852 117.811C226.852 117.811 231.723 119.71 232.301 123.758C232.783 127.136 231.715 136.125 231.731 136.736C231.71 137.269 231.894 137.79 232.247 138.191C232.84 138.813 233.169 139.641 233.165 140.501C233.203 141.078 233.1 141.656 232.866 142.184C232.309 143.107 226.919 149.249 226.919 149.249L222.127 139.458C222.127 139.458 225.269 130.282 225.294 130.045C225.319 129.809 226.852 117.811 226.852 117.811Z" fill="#106FA4"/>
<path d="M232.367 141.785C232.575 141.814 239.602 146.722 239.602 146.722C239.602 146.722 241.318 143.464 242.095 143.369C242.873 143.273 245.233 144.166 245.441 144.412C245.649 144.657 246.114 144.698 246.579 144.74C247.045 144.781 247.864 145.924 247.864 145.924L249.447 147.084C249.447 147.084 248.952 147.99 248.819 148.148C248.686 148.305 247.618 147.865 247.635 147.699C247.652 147.533 247.768 148.721 246.949 148.754C246.293 148.727 245.649 148.56 245.063 148.264L244.784 146.893L242.968 146.336L242.507 146.905C242.507 146.905 244.585 147.321 244.506 147.99C244.485 148.181 244.412 148.363 244.294 148.515C244.175 148.667 244.017 148.783 243.837 148.85L242.129 148.812L238.388 149.698C238.388 149.698 228.548 147.557 228.186 146.46C227.825 145.363 229.483 141.403 232.367 141.785Z" fill="#AE7461"/>
<path d="M232.442 139.496C233.299 140.209 233.967 141.122 234.387 142.155C234.802 143.136 239.511 146.506 239.511 146.506L235.708 149.536C235.708 149.536 227.771 149.86 227.397 148.705C227.023 147.549 228.265 142.371 228.265 142.371L232.442 139.496Z" fill="#106FA4"/>
<path d="M227.721 150.167C227.721 150.167 226.574 145.409 226.802 144.536C227.463 142.043 230.26 129.509 229.973 125.719C229.686 121.929 226.852 117.823 226.852 117.823L223.553 116.68C222.219 119.54 217.132 118.63 212.91 115.284L207.034 116.606L201.353 142.67L198.768 153.155C197.397 158.483 198.352 157.793 198.352 157.793C198.352 157.793 204.74 159.771 209.793 158.886C213.571 158.225 219.077 155.603 220.315 154.651C223.27 152.374 227.954 152.532 227.954 152.532L227.721 150.167Z" fill="#106FA4"/>
<path d="M218.458 150.4L221.915 151.788C221.915 151.788 223.835 150.662 224.118 150.541C225.724 150.251 227.346 150.056 228.976 149.955C229.511 149.966 230.046 149.931 230.576 149.852L226.005 152.619L223.096 156.405C222.3 156.66 221.471 156.8 220.635 156.821C219.364 156.821 216.367 156.11 216.367 156.11L218.458 150.4Z" fill="#AE7461"/>
<path d="M203.468 144.249L206.664 130.228L207.536 116.605C207.536 116.605 200.268 117.557 198.278 124.127C197.272 127.452 193.922 141.286 193.486 143.842C193.05 146.398 193.486 149.515 195.564 151.127C197.642 152.739 217.427 156.841 217.427 156.841L220.004 150.342L203.468 144.249Z" fill="#106FA4"/>
<path d="M231.482 150.757C231.455 150.904 231.377 151.037 231.261 151.132C231.145 151.226 230.999 151.276 230.85 151.273C230.476 151.273 230.297 150.575 230.297 150.575L228.585 150.803C228.585 150.803 226.137 153.853 225.261 154.722C221.861 158.13 220.976 155.669 220.976 155.669L222.032 151.668L224.201 148.089C224.201 148.089 224.068 148.306 224.118 147.745C224.168 147.184 225.173 147.088 225.173 147.088C225.244 146.797 225.83 146.523 225.83 146.523L228.56 146.028C228.837 145.977 229.122 145.988 229.394 146.06C229.667 146.132 229.92 146.263 230.135 146.444L231.798 147.844C231.798 147.844 232.774 148.916 232.77 149.232C232.764 149.367 232.71 149.495 232.616 149.592C232.523 149.689 232.397 149.749 232.263 149.76C232.263 149.76 232.388 150.62 232.176 150.712C231.948 150.77 231.711 150.785 231.478 150.757H231.482Z" fill="#AE7461"/>
<path d="M225.107 150.001C225.107 150.026 225.46 149.889 226.029 149.743C226.777 149.562 227.546 149.484 228.315 149.511C228.734 149.52 229.15 149.563 229.562 149.64C229.936 149.723 230.314 149.764 230.484 149.964C230.523 150.005 230.549 150.057 230.561 150.112C230.573 150.168 230.569 150.226 230.551 150.279C230.526 150.367 230.476 150.446 230.405 150.504C230.285 150.604 230.181 150.591 230.185 150.608C230.189 150.624 230.289 150.653 230.447 150.562C230.537 150.501 230.607 150.414 230.646 150.313C230.673 150.244 230.681 150.169 230.67 150.096C230.658 150.023 230.627 149.954 230.58 149.897C230.463 149.768 230.309 149.677 230.14 149.635C229.969 149.585 229.79 149.536 229.595 149.498C229.172 149.409 228.743 149.359 228.311 149.349C227.529 149.327 226.749 149.43 226 149.656C225.687 149.727 225.386 149.843 225.107 150.001Z" fill="#6F4439"/>
<path d="M225.439 151.709C225.439 151.755 226.516 151.389 227.858 151.069C229.2 150.749 230.306 150.587 230.302 150.537C230.054 150.517 229.805 150.531 229.562 150.579C228.974 150.653 228.392 150.759 227.816 150.899C227.24 151.038 226.671 151.209 226.113 151.41C225.875 151.477 225.648 151.578 225.439 151.709Z" fill="#6F4439"/>
<path d="M231.444 150.708C231.439 150.61 231.421 150.514 231.39 150.421C231.331 150.162 231.253 149.908 231.158 149.66C231.092 149.487 231.013 149.319 230.921 149.158C230.814 148.971 230.673 148.806 230.505 148.671C230.124 148.355 229.683 148.119 229.209 147.977C228.738 147.827 228.248 147.743 227.754 147.728C227.352 147.738 226.953 147.796 226.566 147.903C226.233 147.99 225.975 148.073 225.797 148.135C225.7 148.159 225.608 148.197 225.522 148.247C225.883 148.196 226.24 148.12 226.59 148.019C226.972 147.933 227.363 147.89 227.754 147.89C228.231 147.911 228.704 147.995 229.159 148.139C229.611 148.279 230.034 148.502 230.405 148.796C230.705 149.033 230.932 149.348 231.062 149.706C231.303 150.317 231.411 150.72 231.444 150.708Z" fill="#6F4439"/>
<path d="M226.175 147.154C226.175 147.179 226.591 147.071 227.235 146.951C227.879 146.83 228.851 146.614 229.662 147.267C230.387 147.719 231.046 148.269 231.623 148.9C231.836 149.178 232.02 149.478 232.172 149.793C232.172 149.793 232.172 149.689 232.105 149.515C232.011 149.268 231.882 149.036 231.723 148.825C231.163 148.157 230.499 147.583 229.757 147.125C229.55 146.98 229.325 146.862 229.088 146.772C228.859 146.695 228.618 146.661 228.377 146.672C227.984 146.685 227.592 146.739 227.21 146.835C226.853 146.897 226.505 147.004 226.175 147.154Z" fill="#6F4439"/>
<path d="M226.807 153.197C226.851 153.145 226.892 153.089 226.927 153.03L227.26 152.548C227.683 151.959 228.14 151.395 228.627 150.857H228.589L230.306 150.641L230.231 150.587C230.267 150.719 230.317 150.848 230.38 150.969C230.447 151.109 230.554 151.225 230.688 151.302C230.764 151.337 230.85 151.349 230.933 151.335C231.014 151.332 231.093 151.312 231.166 151.277C231.316 151.207 231.437 151.086 231.507 150.936C231.523 150.898 231.535 150.859 231.544 150.82V150.786V150.766L231.461 150.828H231.523H231.756C231.836 150.832 231.917 150.832 231.997 150.828L232.126 150.803C232.179 150.792 232.228 150.766 232.267 150.728C232.321 150.652 232.353 150.563 232.359 150.47C232.367 150.389 232.367 150.307 232.359 150.225C232.359 150.062 232.346 149.9 232.321 149.739L232.246 149.83C232.364 149.823 232.477 149.783 232.573 149.714C232.67 149.646 232.745 149.553 232.791 149.444C232.835 149.329 232.835 149.202 232.791 149.087C232.75 148.985 232.698 148.887 232.637 148.796C232.386 148.436 232.108 148.096 231.806 147.778L230.925 147.034C230.739 146.873 230.552 146.715 230.364 146.56C230.184 146.391 229.986 146.241 229.774 146.115C229.553 145.999 229.311 145.929 229.063 145.907C228.823 145.895 228.582 145.918 228.348 145.974L225.822 146.46C225.675 146.527 225.536 146.609 225.406 146.705C225.269 146.795 225.165 146.926 225.107 147.079L225.19 147.021C225.037 147.003 224.883 147.021 224.738 147.073C224.594 147.126 224.464 147.212 224.359 147.325C224.189 147.547 224.113 147.828 224.147 148.106V148.064C223.519 149.087 223.012 149.922 222.647 150.52L222.231 151.194C222.178 151.268 222.135 151.349 222.102 151.435C222.16 151.364 222.213 151.289 222.26 151.21L222.676 150.558C223.05 149.968 223.578 149.145 224.226 148.135V148.11C224.199 147.867 224.268 147.622 224.417 147.428C224.507 147.336 224.617 147.265 224.739 147.223C224.861 147.18 224.991 147.167 225.119 147.183H225.186V147.121C225.237 147.002 225.323 146.901 225.431 146.83C225.55 146.746 225.675 146.671 225.805 146.606L228.377 146.144C228.596 146.092 228.822 146.072 229.047 146.086C229.27 146.105 229.488 146.168 229.686 146.273C229.887 146.393 230.075 146.532 230.248 146.689L230.804 147.163L231.69 147.906C231.978 148.218 232.243 148.55 232.483 148.9C232.539 148.98 232.585 149.066 232.62 149.157C232.651 149.235 232.651 149.321 232.62 149.398C232.584 149.479 232.526 149.549 232.453 149.599C232.379 149.649 232.294 149.677 232.205 149.681H232.118V149.764C232.138 149.917 232.151 150.071 232.155 150.225C232.17 150.367 232.149 150.51 232.093 150.641C232.073 150.655 232.05 150.664 232.026 150.666C231.992 150.671 231.957 150.671 231.922 150.666C231.85 150.67 231.778 150.67 231.706 150.666C231.631 150.67 231.556 150.67 231.482 150.666H231.424C231.498 150.608 231.32 150.745 231.336 150.728V150.766C231.329 150.797 231.318 150.828 231.303 150.857C231.252 150.975 231.16 151.07 231.045 151.127C230.988 151.153 230.926 151.167 230.863 151.169C230.807 151.188 230.747 151.188 230.692 151.169C230.494 151.017 230.356 150.798 230.306 150.554V150.495H230.248L228.535 150.736H228.51C228.028 151.285 227.584 151.865 227.181 152.474C227.039 152.685 226.935 152.856 226.869 152.972C226.841 153.045 226.82 153.12 226.807 153.197Z" fill="#6F4439"/>
<path d="M230.285 125.15C230.291 125.223 230.291 125.297 230.285 125.37C230.285 125.536 230.252 125.74 230.231 125.989C230.181 126.53 230.098 127.307 229.986 128.267C229.761 130.187 229.408 132.838 228.918 135.747C228.427 138.656 227.858 141.274 227.388 143.152C227.156 144.092 226.973 144.848 226.802 145.367C226.728 145.608 226.669 145.804 226.624 145.966C226.605 146.037 226.579 146.105 226.545 146.17C226.548 146.096 226.561 146.024 226.582 145.953C226.62 145.791 226.665 145.592 226.719 145.347C226.848 144.79 227.027 144.033 227.239 143.119C227.654 141.233 228.207 138.619 228.702 135.714C229.196 132.809 229.57 130.162 229.832 128.233C229.961 127.303 230.069 126.534 230.148 125.969L230.239 125.349C230.246 125.281 230.262 125.214 230.285 125.15Z" fill="#263238"/>
<path d="M217.419 156.841C217.425 156.799 217.437 156.757 217.452 156.717L217.577 156.359L218.075 155C218.52 153.808 219.156 152.116 219.929 150.055L219.979 150.163L208.725 146.219L203.435 144.345L203.348 144.316L203.368 144.225L205.7 134.783L206.39 132.053C206.473 131.749 206.535 131.508 206.585 131.325C206.601 131.241 206.628 131.158 206.664 131.08C206.656 131.166 206.641 131.251 206.618 131.334C206.581 131.516 206.527 131.749 206.46 132.069C206.306 132.726 206.09 133.657 205.824 134.812L203.568 144.274L203.505 144.15L208.783 146.016L220.004 150.005L220.087 150.034L220.058 150.113L218.134 155.034L217.593 156.38C217.535 156.521 217.485 156.634 217.448 156.729C217.41 156.825 217.423 156.846 217.419 156.841Z" fill="#263238"/>
<path d="M214.83 156.48C214.586 156.457 214.345 156.416 214.107 156.359L212.149 155.944C210.487 155.595 208.218 155.113 205.716 154.498C203.215 153.883 200.971 153.226 199.371 152.69C198.573 152.42 197.929 152.191 197.488 152.021C197.256 151.942 197.03 151.848 196.811 151.738C197.052 151.786 197.288 151.854 197.517 151.942L199.42 152.544C201.029 153.043 203.269 153.675 205.77 154.286C208.272 154.897 210.541 155.408 212.183 155.794L214.128 156.26C214.368 156.312 214.603 156.386 214.83 156.48Z" fill="#263238"/>
<path d="M227.484 152.665C227.531 152.83 227.639 152.972 227.787 153.06C227.934 153.148 228.11 153.176 228.278 153.139L242.083 150.172L253.943 148.048L254.043 147.013L242.71 148.613L227.987 151.846C227.899 151.865 227.815 151.901 227.742 151.953C227.668 152.004 227.606 152.071 227.559 152.147C227.512 152.224 227.481 152.309 227.468 152.398C227.455 152.487 227.461 152.578 227.484 152.665Z" fill="#E0E0E0"/>
<path d="M249.056 132.655L242.677 148.717C242.62 148.864 242.603 149.024 242.628 149.179C242.654 149.335 242.72 149.481 242.82 149.603C242.92 149.725 243.051 149.818 243.199 149.872C243.347 149.927 243.507 149.941 243.662 149.914L257.75 147.358C257.903 147.334 258.047 147.27 258.168 147.173C258.289 147.076 258.383 146.949 258.44 146.805L264.844 130.872C264.872 130.796 264.881 130.715 264.869 130.635C264.858 130.555 264.826 130.479 264.777 130.414C264.728 130.35 264.663 130.299 264.589 130.267C264.515 130.234 264.434 130.221 264.353 130.228L249.808 132.098C249.644 132.113 249.487 132.172 249.354 132.271C249.221 132.369 249.118 132.502 249.056 132.655Z" fill="#E0E0E0"/>
<path d="M250.498 132.098C250.552 132.098 249.023 136.117 247.082 141.029C245.142 145.941 243.529 149.905 243.479 149.885C243.429 149.864 244.955 145.87 246.891 140.954C248.828 136.038 250.444 132.077 250.498 132.098Z" fill="#263238"/>
<path d="M254.027 139.691C253.611 140.468 253.653 141.266 254.081 141.478C254.509 141.689 255.178 141.237 255.577 140.459C255.976 139.682 255.951 138.889 255.523 138.672C255.095 138.456 254.421 138.918 254.027 139.691Z" fill="white"/>
<path d="M82.6861 68.1915C83.1981 67.8999 83.6026 67.4511 83.8397 66.9116C84.0768 66.3721 84.1338 65.7706 84.0023 65.1962C83.8708 64.6218 83.5579 64.105 83.1097 63.7223C82.6616 63.3397 82.1021 63.1115 81.5142 63.0717C81.9485 62.6417 82.2421 62.0899 82.3559 61.4894C82.4697 60.8889 82.3985 60.2679 82.1516 59.7088C81.9047 59.1497 81.4938 58.6787 80.9733 58.3583C80.4528 58.0379 79.8472 57.8831 79.2368 57.9144C79.6016 57.5445 79.8503 57.0759 79.9522 56.5664C80.0541 56.057 80.0048 55.5288 79.8103 55.047C79.3969 54.0838 78.6249 53.3192 77.6577 52.9151C76.3486 52.3766 74.8856 52.3466 73.5556 52.831C72.2256 53.3153 71.1245 54.2791 70.4683 55.5332L71.8147 79.1377C72.3127 79.6099 72.9225 79.9479 73.5869 80.1199C74.2512 80.292 74.9484 80.2924 75.613 80.1213C76.2776 79.9502 76.8879 79.613 77.3865 79.1415C77.8851 78.67 78.2559 78.0795 78.4639 77.4255C79.3104 77.3655 80.1421 77.172 80.9282 76.8521C81.3196 76.6881 81.6672 76.4347 81.9429 76.112C82.2186 75.7894 82.4148 75.4066 82.5157 74.9944C82.6653 74.1633 82.1417 73.2033 81.3064 73.0662C82.2165 72.4844 83.1723 71.8527 83.6211 70.872C84.0699 69.8912 83.725 68.4741 82.6861 68.1915Z" fill="#263238"/>
<path d="M76.5315 56.1776C76.253 54.9683 75.3429 53.9959 74.3414 53.2686C73.9376 52.935 73.4582 52.7053 72.9451 52.5996C72.6879 52.5518 72.4224 52.5807 72.1815 52.6827C71.9406 52.7846 71.7351 52.9552 71.5903 53.1731L71.6776 54.0416C71.5862 55.4255 72.6708 56.5683 73.1986 57.8524C73.4272 58.4093 73.6142 59.0991 74.1752 59.3111C74.4766 59.4172 74.8066 59.4084 75.1019 59.2861C76.2697 58.8498 76.8141 57.3911 76.5315 56.1776Z" fill="#455A64"/>
<path d="M76.7518 62.5645C77.1186 62.0265 77.2846 61.3767 77.2208 60.7288C77.157 60.0808 76.8674 59.4758 76.4027 59.0197C76.8889 58.3631 76.677 57.3865 76.1451 56.7715C75.5576 56.1949 74.8472 55.7588 74.0672 55.4957C73.8007 54.5766 73.192 53.7946 72.3664 53.3106C71.5408 52.8267 70.5611 52.6777 69.6289 52.8942C68.6191 51.502 66.5495 51.3399 64.9163 51.8677C64.5259 52.0283 64.1144 52.1319 63.6945 52.1752C63.3868 52.1584 63.0803 52.1251 62.7761 52.0755C61.0889 51.8968 59.4516 53.1311 58.849 54.7144C58.7716 54.9733 58.6597 55.2207 58.5165 55.4499C58.2759 55.7125 58.0037 55.9442 57.7062 56.1398C57.4086 56.3849 57.168 56.6917 57.0008 57.039C56.8336 57.3863 56.7439 57.7658 56.7379 58.1512C56.7379 58.8078 56.9581 59.4935 56.7005 60.0919C56.5716 60.3953 56.3306 60.6404 56.2309 60.9521C55.9483 61.8581 56.9664 62.7474 56.8127 63.6824C56.7794 63.8736 56.7005 64.0523 56.6506 64.2393C56.5557 64.6283 56.6044 65.0386 56.7877 65.3946C56.9712 65.6428 57.1026 65.9255 57.1742 66.2257C57.1653 66.4567 57.1276 66.6856 57.062 66.9073C56.9623 67.4641 58.2256 69.5711 58.7243 69.8578L73.0698 69.5628C73.6092 69.4243 74.0921 69.1215 74.4517 68.6963C74.8114 68.2712 75.0299 67.7447 75.077 67.1899C75.0635 67.0063 75.104 66.8229 75.1934 66.6621C75.2999 66.5466 75.4304 66.4558 75.5757 66.3961C76.4858 65.8725 76.5606 64.6008 76.4318 63.5578C76.4069 63.4134 76.4069 63.2658 76.4318 63.1214C76.4997 62.9161 76.6086 62.7266 76.7518 62.5645Z" fill="#263238"/>
<path d="M72.6667 62.7061C72.6104 61.3277 72.184 59.9899 71.4323 58.8331C70.6806 57.6763 69.6313 56.7432 68.3946 56.1318C67.2286 55.6293 65.9739 55.3651 64.7043 55.3547C63.5274 55.2778 62.355 55.5604 61.3424 56.165C60.5569 56.377 57.7394 59.1156 57.6729 61.983C57.6022 65.1829 57.6396 69.0976 58.1175 71.4664C59.0692 76.2288 62.7678 76.6901 62.7678 76.6901V80.4968L62.4561 83.4972L72.1555 81.0993L72.6667 62.7061Z" fill="#FFBF9D"/>
<path d="M59.4225 66.1428C59.4268 66.3038 59.4941 66.4566 59.6099 66.5685C59.7257 66.6804 59.8807 66.7424 60.0417 66.7413C60.1201 66.7435 60.1981 66.7301 60.2713 66.702C60.3446 66.6739 60.4115 66.6316 60.4683 66.5775C60.5251 66.5235 60.5706 66.4587 60.6022 66.3869C60.6339 66.3152 60.651 66.2378 60.6526 66.1594C60.6472 65.9992 60.5794 65.8475 60.4638 65.7365C60.3481 65.6255 60.1937 65.564 60.0334 65.5652C59.9549 65.5613 59.8765 65.5733 59.8028 65.6005C59.7291 65.6277 59.6616 65.6695 59.6045 65.7235C59.5475 65.7775 59.5019 65.8425 59.4706 65.9145C59.4393 65.9866 59.4229 66.0643 59.4225 66.1428Z" fill="#263238"/>
<path d="M58.8282 63.7907C58.9071 63.8696 59.3601 63.5081 60.0209 63.4831C60.6816 63.4582 61.1803 63.7657 61.2468 63.6826C61.3133 63.5995 61.1969 63.5039 60.9808 63.3585C60.6875 63.1715 60.3434 63.08 59.9959 63.0966C59.6515 63.1119 59.3204 63.2339 59.0484 63.4457C58.8531 63.612 58.7908 63.7574 58.8282 63.7907Z" fill="#263238"/>
<path d="M62.9174 68.8606C62.5648 68.7663 62.2018 68.7161 61.8369 68.711C61.6665 68.711 61.5044 68.6736 61.4712 68.5572C61.4507 68.3829 61.4825 68.2064 61.5626 68.0502C61.7081 67.6346 61.8535 67.2191 62.0114 66.7453C62.6306 64.8877 63.0711 63.3584 62.9963 63.3376C62.9215 63.3168 62.3605 64.8004 61.7496 66.6622L61.334 67.9754C61.2351 68.1826 61.213 68.4183 61.2717 68.6403C61.2982 68.6998 61.3384 68.7523 61.3889 68.7934C61.4394 68.8346 61.4989 68.8633 61.5626 68.8772C61.6564 68.9001 61.7529 68.9098 61.8493 68.9063C62.2059 68.9347 62.5646 68.9193 62.9174 68.8606Z" fill="#263238"/>
<path d="M62.7677 76.7069C65.0261 76.6482 67.224 75.9649 69.1177 74.7329C69.1177 74.7329 67.5634 78.2445 62.7469 77.991L62.7677 76.7069Z" fill="#FF9A6C"/>
<path d="M58.9944 61.3013C59.1108 61.4592 59.6136 61.3304 60.2079 61.3553C60.8021 61.3802 61.3008 61.5174 61.4214 61.3553C61.4795 61.2805 61.4214 61.1267 61.1969 60.973C60.9065 60.7866 60.5707 60.6831 60.2258 60.6736C59.8808 60.6641 59.5399 60.7489 59.2396 60.919C59.0193 61.0769 58.9445 61.2265 58.9944 61.3013Z" fill="#263238"/>
<path d="M66.2129 66.1179C66.2152 66.2778 66.1547 66.4322 66.0443 66.548C65.934 66.6638 65.7827 66.7317 65.6228 66.7371C65.5444 66.7445 65.4653 66.7359 65.3903 66.7118C65.3153 66.6877 65.246 66.6486 65.1865 66.597C65.1271 66.5453 65.0787 66.4821 65.0444 66.4111C65.0101 66.3402 64.9906 66.2631 64.987 66.1844C64.9847 66.0245 65.0453 65.87 65.1556 65.7543C65.2659 65.6385 65.4173 65.5706 65.5771 65.5652C65.6554 65.5584 65.7343 65.5674 65.8091 65.5917C65.8838 65.616 65.9529 65.6551 66.0122 65.7067C66.0716 65.7583 66.1199 65.8213 66.1544 65.8919C66.1889 65.9625 66.2088 66.0394 66.2129 66.1179Z" fill="#263238"/>
<path d="M67.9042 63.6866C67.8294 63.7656 67.364 63.4248 66.6991 63.4248C66.0342 63.4248 65.5521 63.7615 65.4814 63.6825C65.4108 63.6035 65.523 63.4996 65.7349 63.3459C66.0214 63.1464 66.3625 63.0404 66.7115 63.0425C67.0548 63.0404 67.3897 63.1482 67.6673 63.35C67.8585 63.4872 67.925 63.6492 67.9042 63.6866Z" fill="#263238"/>
<path d="M67.9874 61.4592C67.8586 61.613 67.3433 61.4592 66.7407 61.4592C66.1381 61.4592 65.6062 61.5631 65.494 61.4052C65.4399 61.3304 65.523 61.1808 65.7475 61.0353C66.0585 60.8591 66.4125 60.7727 66.7698 60.786C67.1251 60.7899 67.4721 60.8936 67.7713 61.0852C67.9708 61.2307 68.0456 61.4094 67.9874 61.4592Z" fill="#263238"/>
<path d="M72.0599 67.2817C72.0599 66.9243 72.4256 66.0682 72.7747 65.9976C73.7098 65.8106 75.4094 65.8189 75.5258 68.2084C75.6796 71.4748 72.3675 70.9554 72.355 70.8639C72.3425 70.7725 72.1015 68.516 72.0599 67.2817Z" fill="#FFBF9D"/>
<path d="M73.1945 69.6255C73.1945 69.6255 73.2569 69.6629 73.3525 69.7045C73.486 69.7572 73.6345 69.7572 73.768 69.7045C74.1047 69.5632 74.3706 69.0022 74.3581 68.412C74.3546 68.1307 74.2878 67.8538 74.1628 67.6017C74.1264 67.5017 74.0667 67.4119 73.9887 67.3396C73.9106 67.2673 73.8165 67.2147 73.714 67.1861C73.6475 67.1723 73.5783 67.1822 73.5183 67.2141C73.4584 67.246 73.4115 67.2978 73.3857 67.3606C73.3442 67.4521 73.3857 67.5186 73.3525 67.5227C73.3192 67.5269 73.2777 67.4728 73.2984 67.3357C73.3138 67.2536 73.3562 67.179 73.419 67.1238C73.4618 67.0877 73.5115 67.0606 73.565 67.0441C73.6186 67.0277 73.6749 67.0223 73.7306 67.0282C73.8657 67.0479 73.9934 67.1023 74.1012 67.186C74.209 67.2698 74.2932 67.3801 74.3457 67.5061C74.4998 67.782 74.5826 68.0919 74.5867 68.4079C74.5867 69.0645 74.2875 69.6962 73.8221 69.8582C73.7356 69.8873 73.6438 69.8968 73.5532 69.886C73.4627 69.8752 73.3756 69.8445 73.2984 69.7959C73.207 69.7211 73.1862 69.6338 73.1945 69.6255Z" fill="#FF9A6C"/>
<path d="M56.9291 62.0701C57.2446 61.8948 57.5037 61.6333 57.6759 61.3161C57.8481 60.9988 57.9264 60.6391 57.9015 60.279C58.342 60.3912 58.7659 59.8094 59.0069 59.4229C59.248 59.0365 59.5513 58.8287 59.5139 58.3715C59.4978 58.2826 59.5049 58.1909 59.5347 58.1056C59.597 57.9767 59.7508 57.931 59.8838 57.8853C60.2281 57.7587 60.5351 57.5479 60.7769 57.272C61.0186 56.9961 61.1874 56.6641 61.2676 56.3061C61.9836 56.5847 62.7578 56.6804 63.52 56.5846C63.7004 56.8241 63.9386 57.014 64.2122 57.1366C64.4859 57.2591 64.7861 57.3103 65.0849 57.2854C65.3837 57.2605 65.6713 57.1603 65.9209 56.9942C66.1705 56.828 66.3739 56.6013 66.5122 56.3352C66.6296 56.5306 66.7882 56.698 66.977 56.8258C67.1657 56.9536 67.3801 57.0386 67.6051 57.075C68.0546 57.1484 68.5125 57.1554 68.964 57.0957C68.8952 57.5428 68.9907 57.9997 69.2329 58.3818C69.4751 58.7639 69.8476 59.0452 70.2814 59.1736C70.3978 59.2068 70.5349 59.2359 70.5931 59.344C70.6113 59.4044 70.6174 59.4678 70.6109 59.5306C70.6045 59.5933 70.5857 59.6542 70.5557 59.7097C70.5013 59.9002 70.4859 60.0997 70.5103 60.2962C70.5347 60.4928 70.5984 60.6825 70.6977 60.8539C70.797 61.0253 70.9298 61.175 71.0882 61.294C71.2465 61.413 71.4273 61.4989 71.6195 61.5465C71.4995 61.6617 71.4072 61.8025 71.3494 61.9585C71.2916 62.1144 71.2699 62.2815 71.2859 62.447C71.3019 62.6126 71.3552 62.7723 71.4417 62.9143C71.5283 63.0564 71.6459 63.1769 71.7858 63.267C71.9063 63.3335 72.0684 63.4124 72.0517 63.5537C72.0425 63.6051 72.0211 63.6535 71.9894 63.695C71.7284 64.0086 71.5638 64.3911 71.5156 64.7963C71.5033 64.9953 71.5667 65.1915 71.6932 65.3457C71.8196 65.4999 71.9996 65.6005 72.1972 65.6274C72.0863 65.7165 71.9948 65.8274 71.9283 65.9532C71.8619 66.079 71.8218 66.217 71.8107 66.3588C71.8107 66.6414 72.1141 66.9198 72.3759 66.8076C72.983 66.6609 73.5822 66.4834 74.1712 66.2757C75.0439 64.9833 73.8262 63.641 73.6725 62.0909C73.4869 60.5347 72.9435 59.0427 72.085 57.7316C71.7465 57.1705 71.3357 56.6563 70.8632 56.2023C70.2943 55.7202 69.6741 55.3021 69.0139 54.9555C68.1909 54.4316 67.2885 54.0442 66.3418 53.8086C64.559 53.4636 62.7554 54.1784 61.1388 55.0012C60.5138 55.2948 59.931 55.6707 59.4059 56.1191C58.8174 56.7013 58.3375 57.3839 57.9888 58.1347C57.4053 59.1792 57.0472 60.3343 56.9374 61.5257" fill="#263238"/>
<path d="M56.2433 60.9523C56.2799 60.8261 56.3345 60.7057 56.4054 60.5949C56.4719 60.4869 56.5633 60.3539 56.6505 60.1794C56.7468 59.9881 56.8007 59.7783 56.8085 59.5643C56.818 59.2865 56.8027 59.0083 56.7628 58.7332C56.7187 58.4119 56.7187 58.0862 56.7628 57.7649C56.8202 57.3928 56.9531 57.0364 57.1534 56.7177C57.2631 56.5438 57.3928 56.3834 57.5399 56.2398C57.6934 56.0867 57.8603 55.9476 58.0386 55.8242C58.2221 55.7012 58.3848 55.5496 58.5206 55.3754C58.6426 55.1793 58.739 54.9684 58.8074 54.7479C58.9754 54.2757 59.2274 53.8379 59.5512 53.4554C59.8973 53.0367 60.3206 52.6882 60.7979 52.429C61.0435 52.2941 61.3026 52.1854 61.5709 52.1048C61.8498 52.0263 62.1374 51.983 62.427 51.976C62.5737 51.9677 62.7208 51.9677 62.8675 51.976C63.0171 51.976 63.1626 52.0175 63.308 52.0383C63.5981 52.0876 63.8952 52.0763 64.1807 52.0051C64.4716 51.9344 64.7542 51.8181 65.0534 51.735C65.3529 51.6411 65.6603 51.5743 65.9718 51.5355C66.2899 51.4931 66.6111 51.4778 66.9318 51.4898C67.257 51.5028 67.58 51.5487 67.8959 51.6269C68.5514 51.7828 69.1415 52.1403 69.5831 52.6492L69.7078 52.8071L69.6579 52.7864C70.6081 52.5756 71.6029 52.7379 72.4367 53.2399C73.2705 53.7419 73.8795 54.5451 74.1378 55.4834L74.1129 55.4502C74.5122 55.6153 74.9021 55.8026 75.2806 56.0112C75.6485 56.2189 75.9764 56.4905 76.2489 56.8132C76.5038 57.1345 76.6649 57.5199 76.7143 57.927C76.7727 58.3205 76.6759 58.7214 76.4442 59.0449V58.9867C76.9077 59.4261 77.2019 60.0145 77.2754 60.649C77.3508 61.2104 77.2537 61.7814 76.9969 62.2863C76.9349 62.4006 76.8669 62.5116 76.7933 62.6188C76.7143 62.7227 76.6395 62.8183 76.5772 62.918C76.5174 63.0163 76.4818 63.1274 76.4733 63.2421C76.4629 63.3555 76.4629 63.4696 76.4733 63.5829C76.5232 63.997 76.5232 64.4155 76.4733 64.8296C76.4425 65.1636 76.3465 65.4884 76.1907 65.7854C76.073 66.0045 75.9049 66.1925 75.7004 66.334C75.5383 66.4545 75.3887 66.5002 75.3097 66.5667C75.2671 66.5968 75.2281 66.6317 75.1934 66.6706C75.2216 66.6252 75.2582 66.5857 75.3014 66.5542C75.3804 66.4878 75.53 66.4337 75.6879 66.3132C75.8847 66.1708 76.0455 65.9844 76.1575 65.7688C76.306 65.4741 76.3976 65.1541 76.4276 64.8255C76.4692 64.4105 76.4623 63.9921 76.4068 63.5788C76.3879 63.4634 76.3796 63.3465 76.3819 63.2297C76.3885 63.1049 76.4256 62.9836 76.4899 62.8764C76.5558 62.7697 76.6279 62.667 76.706 62.5689C76.7798 62.4655 76.8464 62.3572 76.9055 62.2448C77.154 61.7521 77.2453 61.1952 77.1673 60.649C77.096 60.039 76.8137 59.473 76.3694 59.049L76.3403 59.0241L76.3653 58.995C76.5812 58.6868 76.6705 58.3074 76.6146 57.9353C76.5647 57.5457 76.4079 57.1774 76.1616 56.8714C75.8983 56.5548 75.5784 56.2899 75.2183 56.0901C74.8433 55.8828 74.4561 55.6982 74.0588 55.5374C73.8156 54.6467 73.2341 53.8861 72.4381 53.418C72.0319 53.1616 71.5782 52.9897 71.1041 52.9126C70.63 52.8355 70.1452 52.8547 69.6787 52.9692H69.6496L69.6247 52.9443L69.5042 52.7947C69.0762 52.3 68.5033 51.9525 67.8668 51.8014C67.5572 51.7271 67.2415 51.6812 66.9235 51.6643C66.6083 51.6524 66.2927 51.6677 65.9801 51.71C65.6729 51.7479 65.3697 51.8133 65.0742 51.9053C64.7833 51.9885 64.4965 52.1048 64.1973 52.1755C64.0478 52.2141 63.8945 52.2364 63.7402 52.242C63.5899 52.2436 63.4398 52.2325 63.2914 52.2087L62.855 52.1464C62.4367 52.0998 62.0132 52.1351 61.6083 52.2503C61.3457 52.3303 61.0922 52.4375 60.852 52.5703C60.3895 52.8234 59.9792 53.1618 59.6427 53.5676C59.3275 53.9377 59.0786 54.3595 58.9071 54.8143C58.8356 55.0411 58.735 55.2576 58.6079 55.4585C58.4681 55.6386 58.2996 55.7944 58.1092 55.9198C57.9333 56.0446 57.7679 56.1836 57.6147 56.3353C57.4704 56.4747 57.3434 56.631 57.2365 56.8008C57.0362 57.11 56.9044 57.4586 56.85 57.8231C56.8063 58.1402 56.8063 58.4618 56.85 58.7789C56.8894 59.0541 56.9019 59.3324 56.8874 59.61C56.8762 59.8303 56.8181 60.0457 56.717 60.2417C56.6256 60.4079 56.53 60.5368 56.4635 60.6573C56.4111 60.7387 56.3639 60.8234 56.3222 60.9108C56.2682 60.9232 56.2682 60.9565 56.2433 60.9523Z" fill="#455A64"/>
<path d="M68.0788 52.2339C68.0788 52.2339 67.9915 52.1882 67.8294 52.1175C67.6017 52.017 67.3587 51.9551 67.1105 51.9347C66.7431 51.9052 66.3745 51.9741 66.0425 52.1341C65.638 52.3331 65.3064 52.6544 65.095 53.0525C65.0322 53.1726 64.9834 53.2995 64.9495 53.4307C64.9299 53.4872 64.9227 53.5473 64.9285 53.6068C64.9342 53.6663 64.9527 53.7239 64.9828 53.7756L65.07 53.8837L64.9371 53.8504C64.5928 53.7674 64.2297 53.8242 63.9272 54.0084C63.6866 54.1533 63.501 54.374 63.3994 54.6359C63.3275 54.8069 63.2907 54.9906 63.2914 55.1761C63.2951 55.2439 63.2951 55.3119 63.2914 55.3798C63.2914 55.3798 63.2914 55.3797 63.2914 55.3299C63.2801 55.2807 63.2731 55.2307 63.2706 55.1803C63.2553 54.9867 63.2837 54.7921 63.3537 54.6109C63.4545 54.3318 63.6462 54.0946 63.8981 53.9377C64.2176 53.7383 64.6028 53.6726 64.9703 53.7549L64.9204 53.8338C64.8821 53.7725 64.8574 53.7037 64.8481 53.6319C64.8387 53.5602 64.845 53.4873 64.8664 53.4183C64.9 53.2738 64.9517 53.1342 65.0202 53.0027C65.2388 52.5837 65.5873 52.2469 66.0134 52.0427C66.303 51.9072 66.6196 51.8395 66.9393 51.8445C67.259 51.8495 67.5733 51.9273 67.8585 52.0718C67.9209 52.103 67.9806 52.1391 68.0372 52.1798C68.0622 52.2172 68.0829 52.2297 68.0788 52.2339Z" fill="#455A64"/>
<path d="M73.5228 55.7868C73.5228 55.7868 73.4895 55.8367 73.4147 55.9073C73.3033 56.009 73.1822 56.0994 73.0532 56.1774C72.8581 56.299 72.6377 56.3743 72.409 56.3977C72.1151 56.435 71.818 56.3593 71.5779 56.1857H71.6485L71.5571 56.3229C71.5234 56.369 71.4873 56.4134 71.4491 56.4559C71.2325 56.6999 70.9582 56.8856 70.6512 56.9961C70.4044 57.0891 70.1418 57.1329 69.8782 57.1249C69.7012 57.1164 69.5263 57.0828 69.3587 57.0252C69.2973 57.0049 69.2387 56.977 69.1842 56.9421C69.4103 57.0065 69.6433 57.0442 69.8782 57.0543C70.1325 57.0513 70.3844 57.0035 70.6221 56.913C70.9103 56.7994 71.1689 56.6217 71.3784 56.3935L71.4782 56.2647L71.5654 56.1359L71.5945 56.0902L71.6361 56.1234C71.8529 56.2821 72.121 56.3547 72.3883 56.327C72.6052 56.3075 72.8159 56.2439 73.0075 56.14C73.3482 55.9406 73.5145 55.7743 73.5228 55.7868Z" fill="#455A64"/>
<path d="M75.3846 58.7542C75.3846 58.7542 75.3846 58.7542 75.3846 58.8124C75.372 58.8698 75.3495 58.9247 75.3181 58.9744C75.1985 59.1577 75.0147 59.2896 74.8028 59.3443C74.4912 59.4123 74.1666 59.3892 73.8677 59.2778C73.6974 59.2238 73.5228 59.1698 73.3441 59.095C73.1437 59.0158 72.9775 58.8687 72.8745 58.6794L72.8537 58.6254L72.9327 58.6461C72.6497 58.8989 72.3303 59.1076 71.9852 59.2653C71.6987 59.3938 71.3817 59.4384 71.0709 59.3942C70.8614 59.3682 70.6623 59.288 70.4933 59.1614C70.448 59.1268 70.4075 59.0862 70.3728 59.0409C70.3478 59.0118 70.3354 58.9952 70.3395 58.9952C70.3437 58.9952 70.3977 59.0492 70.5182 59.1282C70.6864 59.239 70.8789 59.3075 71.0792 59.3277C71.3765 59.3569 71.6763 59.3067 71.9478 59.1822C72.2837 59.025 72.5945 58.8192 72.8704 58.5713L72.9202 58.5298L72.9452 58.5921L72.9659 58.6378C73.0615 58.7974 73.2078 58.9203 73.3815 58.9869C73.5519 59.0617 73.7306 59.1157 73.8927 59.1698C74.1766 59.2815 74.486 59.3118 74.7861 59.257C74.9855 59.2114 75.1622 59.0965 75.2848 58.9329C75.3222 58.8757 75.3555 58.816 75.3846 58.7542Z" fill="#455A64"/>
<path d="M65.1282 70.3402C65.0991 70.1932 65.0442 70.0525 64.9661 69.9246C64.9273 69.8622 64.8735 69.8105 64.8097 69.7742C64.7458 69.7379 64.6739 69.7182 64.6004 69.7168C64.4939 69.7306 64.3926 69.7705 64.3054 69.8332L63.121 70.5521L63.0212 70.843C63.2586 71.2104 63.5683 71.5257 63.9313 71.7697C64.0367 71.8518 64.1639 71.901 64.297 71.911C64.4639 71.8902 64.619 71.8142 64.7376 71.6949C64.9665 71.5647 65.1355 71.3501 65.2084 71.097C65.2814 70.8439 65.2526 70.5723 65.1282 70.3402Z" fill="#FF9A6C"/>
<path d="M64.2472 72.0024C64.457 71.9038 64.6505 71.7734 64.8207 71.6159C65.0155 71.4226 65.141 71.1703 65.1779 70.8983C65.2147 70.6263 65.1607 70.3498 65.0243 70.1116C64.9887 70.0419 64.9455 69.9764 64.8955 69.9163C64.854 69.8595 64.8017 69.8115 64.7417 69.775C64.7175 69.7619 64.6903 69.755 64.6628 69.755C64.6352 69.755 64.6081 69.7619 64.5838 69.775C64.5218 69.8036 64.462 69.8369 64.4051 69.8747L63.7402 70.2903C63.5425 70.4265 63.329 70.5381 63.1044 70.6227C63.2775 70.4628 63.4686 70.3233 63.6737 70.2072C63.8566 70.0783 64.0893 69.9329 64.3178 69.7708C64.3853 69.7253 64.4562 69.685 64.5298 69.6503C64.5769 69.6317 64.6277 69.6243 64.6782 69.6286C64.7286 69.633 64.7774 69.6489 64.8207 69.6752C64.9002 69.72 64.9696 69.7808 65.0243 69.8539C65.0826 69.9213 65.1328 69.9952 65.1739 70.0742C65.3354 70.3727 65.3841 70.7193 65.3111 71.0508C65.249 71.3201 65.1036 71.5629 64.8955 71.7448C64.764 71.8694 64.6064 71.9631 64.4342 72.019C64.3178 72.0107 64.2472 72.0107 64.2472 72.0024Z" fill="#263238"/>
<path d="M33.8273 112.159L35.4605 109.69L38.0786 108.377L38.1784 108.307C38.601 107.999 39.0872 107.789 39.6014 107.693C40.1155 107.598 40.6446 107.618 41.1497 107.754C42.2136 108.036 43.6431 108.39 44.8899 108.585L47.7074 107.812V113.314L33.4907 112.417L33.8273 112.159Z" fill="#FFBF9D"/>
<path d="M33.9396 112.009C34.1174 111.804 34.3182 111.62 34.538 111.461C34.9245 111.137 35.4647 110.705 36.0673 110.214L36.6283 109.778C37.2101 109.67 37.7171 109.583 38.0787 109.524C38.2694 109.48 38.4649 109.461 38.6605 109.466C38.4813 109.545 38.2928 109.601 38.0994 109.632C37.7462 109.716 37.2434 109.828 36.6616 109.944H36.699L36.138 110.389C35.5354 110.858 34.9827 111.278 34.5796 111.573C34.3807 111.739 34.1664 111.885 33.9396 112.009Z" fill="#FF9A6C"/>
<path d="M35.0492 112.487C35.699 112.022 36.3824 111.605 37.0938 111.241L37.5925 110.966C38.1973 110.906 38.8062 110.896 39.4127 110.937C38.8163 111.051 38.2118 111.118 37.605 111.137H37.6424L37.1437 111.411C36.4732 111.821 35.7731 112.181 35.0492 112.487Z" fill="#FF9A6C"/>
<path d="M17.2918 96.5959C17.5213 96.4653 17.7908 96.4237 18.049 96.4788C18.3072 96.534 18.5362 96.6822 18.6923 96.8952L30.1454 112.404L48.2644 112.649C48.9875 112.691 49.8643 114.154 49.216 114.864L28.7533 114.603L16.9427 98.1876C16.8507 98.0636 16.7864 97.9213 16.754 97.7703C16.7216 97.6193 16.722 97.4632 16.7551 97.3123C16.7881 97.1615 16.8532 97.0195 16.9458 96.8959C17.0383 96.7724 17.1563 96.6701 17.2918 96.5959Z" fill="#455A64"/>
<path d="M17.2917 96.5957C17.2917 96.5957 17.2585 96.5957 17.2003 96.6456C17.1142 96.6997 17.037 96.767 16.9717 96.845C16.8385 96.9983 16.7508 97.1857 16.7185 97.3862C16.6862 97.5867 16.7105 97.7922 16.7889 97.9795C16.931 98.2338 17.0922 98.4769 17.271 98.7068L17.8735 99.5379L19.3738 101.641L28.6701 114.615L28.695 114.652H28.7366L48.8253 114.939H49.2409L49.27 114.906C49.358 114.807 49.4254 114.692 49.4682 114.567C49.511 114.442 49.5284 114.31 49.5193 114.179C49.507 113.925 49.4419 113.678 49.3282 113.451C49.2162 113.228 49.0673 113.026 48.8877 112.853C48.7072 112.664 48.4625 112.55 48.202 112.533L45.401 112.495L39.9986 112.425L30.1329 112.3L30.1994 112.333L21.2023 100.215L18.6673 96.8243C18.5441 96.6798 18.3855 96.5697 18.207 96.5049C18.0286 96.4401 17.8363 96.4227 17.6491 96.4544C17.5204 96.472 17.3977 96.5205 17.2917 96.5957C17.4058 96.5401 17.5278 96.5023 17.6533 96.4835C17.8345 96.4573 18.0193 96.4779 18.1903 96.5434C18.3612 96.6088 18.5126 96.717 18.6299 96.8575L21.1233 100.273L30.0872 112.454L30.1121 112.487H30.1537L40.0194 112.628L45.4218 112.707L48.2186 112.745C48.4343 112.76 48.6363 112.857 48.7838 113.015C48.9466 113.172 49.0803 113.356 49.1786 113.559C49.2993 113.746 49.3614 113.964 49.3569 114.186C49.3525 114.409 49.2817 114.624 49.1536 114.806L49.2243 114.777H48.8544L28.7657 114.515L28.8322 114.553L19.4693 101.599L17.9525 99.5213L17.3416 98.6902C17.1631 98.4641 16.9993 98.2267 16.8512 97.9795C16.7724 97.8012 16.7439 97.6047 16.7688 97.4113C16.7937 97.2179 16.8711 97.035 16.9925 96.8824C17.0756 96.7708 17.1767 96.6739 17.2917 96.5957Z" fill="#263238"/>
<path d="M73.5353 78.7178C74.3408 79.1436 75.0998 79.6519 75.8001 80.2347C76.8877 81.3059 77.6301 82.6779 77.932 84.1743C78.3144 86.0485 78.0068 93.0218 78.0068 95.0955C78.0068 97.1692 77.4791 104.961 77.2214 106.258C76.9637 107.554 77.3876 109.478 77.9902 110.733C79.0665 112.982 77.3876 114.137 77.3876 114.137L55.1504 113.971L55.2418 113.14C55.3956 111.693 54.8553 110.231 55.408 108.876C55.9607 107.521 56.8044 104.496 56.3805 101.923C56.3805 101.923 53.6045 98.4783 55.8776 92.9137C57.1784 89.7346 60.5653 85.5207 63.7527 80.8829C63.7527 80.8829 69.0596 79.1542 68.324 79.391C68.1162 79.4492 72.2262 78.5682 73.5353 78.7178Z" fill="#ED3768"/>
<path d="M46.0369 107.193L65.0326 103.224L65.523 86.7343C65.523 86.7343 66.1879 80.0145 69.5541 79.3911L77.6619 89.4853C77.2089 94.5719 77.6203 104.192 75.2848 107.908C72.9493 111.623 70.672 114.594 64.9163 114.328C59.1606 114.062 46.4774 113.942 46.4774 113.942L46.0369 107.193Z" fill="#ED3768"/>
<path d="M64.9952 103.291C64.9495 103.328 65.4108 103.923 65.789 104.75C66.1671 105.577 66.3417 106.308 66.3998 106.296C66.3867 105.728 66.2446 105.171 65.9843 104.667C65.7669 104.137 65.4281 103.666 64.9952 103.291Z" fill="#263238"/>
<g opacity="0.3">
<path d="M65.6561 86.0278C63.7569 91.8458 64.1683 100.847 60.5529 104.163L65.0327 103.224C64.9472 102.171 64.9347 101.113 64.9953 100.058C65.361 95.4488 65.4109 90.7612 65.6561 86.0278Z" fill="black"/>
</g>
<path d="M66.0757 83.9502C65.9365 84.3831 65.8254 84.8245 65.7433 85.2717C65.6368 85.8116 65.5591 86.3568 65.5106 86.9049C65.4482 87.5532 65.4399 88.3012 65.4067 89.1407C65.2986 92.5068 65.1449 97.3358 64.9579 103.224L65.016 103.15L46.0202 107.122H45.9371V107.201C46.0743 109.362 46.2239 111.636 46.3735 113.954V114.042H46.4608L48.7713 114.071C52.0751 114.112 55.2958 114.162 58.4084 114.229C59.9668 114.262 61.492 114.299 62.9797 114.349C64.4675 114.399 65.9511 114.528 67.3848 114.304C68.0955 114.206 68.7927 114.028 69.4627 113.772C70.1067 113.514 70.7178 113.181 71.2829 112.778C72.3433 111.981 73.2693 111.018 74.0256 109.928C74.3941 109.41 74.7432 108.89 75.0729 108.369L75.3222 107.983C75.397 107.85 75.4677 107.713 75.5383 107.567L75.7503 107.152L75.9165 106.736C76.3085 105.67 76.5871 104.565 76.7476 103.441C77.041 101.513 77.2269 99.5707 77.3045 97.6225C77.3876 95.9062 77.425 94.4268 77.4707 93.2174C77.5164 92.0081 77.5497 91.0689 77.5829 90.4331C77.6037 90.1214 77.6162 89.8804 77.6286 89.71C77.6411 89.5396 77.6286 89.4648 77.6286 89.4648C77.6286 89.4648 77.6286 89.5479 77.5995 89.71C77.5705 89.8721 77.5663 90.1256 77.5372 90.429C77.4915 91.0648 77.4375 92.004 77.3876 93.2133C77.3377 94.4226 77.2837 95.902 77.1881 97.6184C77.1016 99.56 76.9074 101.495 76.6063 103.416C76.4547 104.538 76.1845 105.641 75.8001 106.707C75.7503 106.84 75.6962 106.977 75.638 107.122C75.5799 107.268 75.5009 107.384 75.4303 107.517C75.3596 107.65 75.2931 107.779 75.2142 107.912L74.969 108.294C74.6407 108.814 74.2874 109.329 73.9217 109.844C73.1726 110.916 72.258 111.861 71.2122 112.645C70.6555 113.039 70.0543 113.365 69.4211 113.618C68.7665 113.866 68.0863 114.04 67.3931 114.137C65.9885 114.358 64.5215 114.216 63.0254 114.175C61.5294 114.133 60.0001 114.083 58.4542 114.05C55.3415 113.979 52.1167 113.925 48.817 113.884L46.5065 113.859L46.6021 113.95C46.4483 111.631 46.3028 109.379 46.1615 107.197L46.0867 107.297L65.0784 103.316H65.1365V103.254C65.2986 97.3649 65.4274 92.5359 65.5189 89.1698C65.5438 88.3386 65.548 87.5823 65.602 86.934C65.656 86.2857 65.735 85.7455 65.8139 85.305C65.8929 84.8645 65.9677 84.5361 66.0217 84.3117C66.0467 84.2037 66.0674 84.1247 66.0841 84.0624C66.1007 84.0001 66.0757 83.9502 66.0757 83.9502Z" fill="#263238"/>
<path d="M34.0892 143.734L36.8112 164.513L29.6924 165.722L24.6266 147.288L34.0892 143.734Z" fill="#FFBF9D"/>
<path d="M56.6007 115.741C56.6007 115.741 30.5734 113.971 25.171 114.86C21.9046 115.4 19.0912 120.678 20.8698 123.866C21.7009 125.37 23.0391 130.054 23.0391 130.054L37.0272 126.75L56.6007 115.741Z" fill="#263238"/>
<path d="M37.0272 130.054L42.6624 138.964L36.0299 143.414L28.8363 131.99L37.0272 130.054Z" fill="#FFBF9D"/>
<path d="M74.8277 114.112C74.8277 114.112 77.4541 126.554 73.1363 131.612C68.8185 136.669 62.4437 136.665 55.8735 135.693C49.3033 134.72 33.7152 134.384 33.7152 134.384C33.7152 134.384 34.4134 138.801 34.9204 143.826C35.4273 148.85 35.5354 152.033 35.5354 152.033L25.7736 152.864C25.7736 152.864 20.3379 135.714 19.4985 132.318C18.659 128.923 18.9458 124.36 21.8382 122.665C24.29 121.231 43.6224 115.679 52.8772 114.852L53.8829 113.958L74.8277 114.112Z" fill="#263238"/>
<path d="M28.9403 130.253C28.9403 130.286 29.3185 130.345 29.9003 130.556C30.2368 130.686 30.562 130.843 30.8727 131.026C31.2516 131.26 31.6077 131.528 31.9366 131.828C32.2624 132.137 32.5575 132.476 32.8176 132.842C33.0277 133.146 33.2113 133.467 33.3661 133.802C33.6321 134.376 33.7277 134.766 33.7817 134.754C33.7829 134.659 33.7688 134.565 33.7402 134.475C33.6848 134.225 33.6069 133.98 33.5074 133.744C33.3666 133.392 33.1883 133.056 32.9755 132.742C32.7178 132.358 32.4181 132.004 32.082 131.687C31.7465 131.37 31.3772 131.092 30.9808 130.856C30.6573 130.673 30.3161 130.525 29.9626 130.411C29.7257 130.335 29.4823 130.28 29.2354 130.249C29.1376 130.231 29.0375 130.233 28.9403 130.253Z" fill="#455A64"/>
<path d="M30.0873 119.897C29.9911 119.516 29.817 119.16 29.5761 118.85C29.3919 118.51 29.1418 118.211 28.8406 117.969C28.9983 118.322 29.1993 118.654 29.439 118.958C29.6179 119.295 29.8355 119.61 30.0873 119.897Z" fill="#455A64"/>
<path d="M19.087 127.556C19.1029 127.526 19.1128 127.494 19.1161 127.46C19.1369 127.381 19.1577 127.29 19.1826 127.169C19.2408 126.92 19.3322 126.546 19.4777 126.076C19.6517 125.509 19.8843 124.962 20.1717 124.443C20.5274 123.756 21.0744 123.186 21.7467 122.802C23.569 121.976 25.448 121.282 27.3694 120.724C29.5304 120.055 31.9074 119.344 34.4341 118.646C39.4625 117.266 44.0754 116.273 47.4332 115.695C49.0955 115.405 50.4793 115.201 51.4227 115.068L52.5115 114.914L52.7941 114.868L52.8896 114.848H52.7899L52.5073 114.873L51.4144 114.993C50.4669 115.105 49.0996 115.284 47.4124 115.562C43.0236 116.306 38.6763 117.277 34.3884 118.471C31.87 119.161 29.4888 119.872 27.3237 120.549C25.3961 121.113 23.5138 121.822 21.6927 122.669C21.001 123.068 20.4418 123.662 20.0844 124.377C19.8018 124.905 19.5761 125.463 19.4112 126.039C19.2782 126.513 19.1992 126.891 19.1535 127.144C19.1328 127.265 19.1161 127.361 19.1037 127.439L19.087 127.556Z" fill="#455A64"/>
<path d="M29.1356 165.186L28.8987 164.284C31.835 164.017 34.5994 162.782 36.7572 160.772L39.1716 166.175L23.0807 173.614C22.474 171.997 29.1356 165.186 29.1356 165.186Z" fill="#455A64"/>
<path d="M39.1716 166.179L38.5815 164.858L23.3425 172.475C23.3425 172.475 22.769 173.119 23.0807 173.593L39.1716 166.179Z" fill="#E0E0E0"/>
<path d="M29.3517 165.082C29.3891 165.157 29.8005 165.011 30.3033 165.082C30.8062 165.153 31.1594 165.398 31.2176 165.331C31.2758 165.265 30.9516 164.862 30.3449 164.783C29.7381 164.704 29.3018 165.015 29.3517 165.082Z" fill="#263238"/>
<path d="M35.6144 164.501C35.6402 164.556 35.6768 164.606 35.722 164.647C35.7673 164.688 35.8203 164.72 35.8779 164.74C35.9355 164.761 35.9966 164.77 36.0577 164.766C36.1187 164.763 36.1785 164.747 36.2336 164.721C36.3443 164.666 36.4291 164.57 36.4695 164.453C36.51 164.337 36.5028 164.209 36.4497 164.097C36.4238 164.042 36.3872 163.992 36.342 163.951C36.2968 163.91 36.2438 163.878 36.1862 163.858C36.1285 163.837 36.0674 163.828 36.0064 163.832C35.9453 163.835 35.8855 163.851 35.8305 163.877C35.7197 163.932 35.635 164.028 35.5945 164.145C35.5541 164.261 35.5612 164.389 35.6144 164.501Z" fill="#E0E0E0"/>
<path d="M29.4473 164.97C29.5725 164.969 29.6965 164.945 29.813 164.899C30.1533 164.818 30.465 164.646 30.7148 164.401C30.7978 164.315 30.8691 164.218 30.9267 164.114C31.0013 163.999 31.0483 163.868 31.0639 163.731C31.0707 163.644 31.0498 163.557 31.0043 163.483C30.9588 163.408 30.891 163.35 30.8104 163.316C30.7341 163.281 30.6512 163.263 30.5673 163.263C30.4833 163.263 30.4004 163.281 30.3242 163.316C30.0266 163.472 29.7768 163.706 29.6012 163.993C29.4257 164.28 29.3308 164.609 29.3268 164.945L29.5637 164.908C29.5243 164.778 29.4713 164.652 29.4057 164.534C29.2344 164.221 28.9816 163.961 28.6743 163.781C28.3669 163.601 28.0165 163.508 27.6603 163.511C27.5675 163.511 27.4756 163.529 27.3902 163.565C27.3436 163.591 27.303 163.627 27.2715 163.67C27.2399 163.713 27.218 163.762 27.2074 163.815C27.1847 163.984 27.2262 164.156 27.3237 164.297C27.4795 164.52 27.6937 164.697 27.9429 164.808C28.2916 164.95 28.6688 165.009 29.0442 164.978C29.1836 164.988 29.3236 164.977 29.4598 164.945C29.3262 164.899 29.1854 164.878 29.0442 164.883C28.6885 164.875 28.3379 164.796 28.0136 164.65C27.7989 164.547 27.6175 164.386 27.49 164.184C27.4244 164.09 27.3976 163.974 27.4152 163.86C27.4152 163.769 27.5107 163.736 27.6603 163.74C27.9735 163.743 28.2803 163.829 28.5491 163.989C28.8179 164.15 29.039 164.38 29.1896 164.654C29.2454 164.76 29.2927 164.869 29.3309 164.982C29.3352 164.998 29.3425 165.012 29.3524 165.024C29.3624 165.037 29.3747 165.047 29.3887 165.054C29.4027 165.061 29.4181 165.066 29.4339 165.067C29.4497 165.068 29.4656 165.066 29.4805 165.061C29.5045 165.052 29.5254 165.036 29.5409 165.016C29.5563 164.995 29.5656 164.971 29.5678 164.945C29.5696 164.655 29.6472 164.37 29.793 164.119C29.9388 163.869 30.1477 163.66 30.399 163.515C30.6151 163.395 30.8686 163.515 30.8519 163.698C30.8149 163.909 30.7199 164.104 30.5777 164.263C30.3475 164.503 30.0621 164.683 29.7465 164.787C29.6395 164.835 29.539 164.897 29.4473 164.97Z" fill="#263238"/>
<path d="M28.1174 166.238C28.4738 166.229 28.8301 166.256 29.1813 166.317C29.519 166.436 29.8457 166.585 30.1579 166.761C30.056 166.597 29.9203 166.456 29.7598 166.348C29.5994 166.239 29.4177 166.166 29.227 166.134C29.0456 166.069 28.8524 166.045 28.6608 166.063C28.4692 166.081 28.2838 166.141 28.1174 166.238Z" fill="#263238"/>
<path d="M27.2198 167.297C27.2198 167.351 27.6604 167.339 28.1632 167.497C28.666 167.655 29.0276 167.912 29.0608 167.858C28.8587 167.582 28.5637 167.387 28.2297 167.31C27.9071 167.177 27.5456 167.172 27.2198 167.297Z" fill="#263238"/>
<path d="M34.7665 142.413L34.3883 141.581C37.2454 140.802 39.7671 139.105 41.5653 136.752L44.8192 141.656L30.1661 151.755C29.3059 150.292 34.7665 142.413 34.7665 142.413Z" fill="#455A64"/>
<path d="M44.8192 141.64L44.0255 140.443L30.241 150.608C30.241 150.608 29.7797 151.343 30.1662 151.755L44.8192 141.64Z" fill="#E0E0E0"/>
<path d="M34.962 142.271C35.0119 142.342 35.3776 142.126 35.9012 142.118C36.4248 142.109 36.7988 142.276 36.8445 142.201C36.8902 142.126 36.5079 141.785 35.8929 141.814C35.2778 141.843 34.9038 142.217 34.962 142.271Z" fill="#263238"/>
<path d="M41.0416 140.609C41.0764 140.659 41.1208 140.702 41.1722 140.734C41.2236 140.767 41.281 140.789 41.341 140.799C41.401 140.809 41.4624 140.807 41.5216 140.793C41.5808 140.779 41.6366 140.753 41.6858 140.717C41.7875 140.646 41.8569 140.537 41.8787 140.415C41.9005 140.293 41.873 140.167 41.8021 140.065C41.7673 140.014 41.7227 139.971 41.671 139.939C41.6192 139.906 41.5614 139.883 41.5009 139.873C41.4404 139.863 41.3785 139.866 41.3189 139.88C41.2593 139.894 41.2031 139.92 41.1538 139.957C41.0528 140.029 40.9842 140.138 40.9632 140.26C40.9422 140.382 40.9704 140.508 41.0416 140.609Z" fill="#E0E0E0"/>
<path d="M35.0408 142.147C35.1638 142.122 35.2818 142.077 35.3899 142.014C35.7116 141.873 35.9899 141.65 36.1961 141.365C36.264 141.266 36.3185 141.159 36.3581 141.045C36.4132 140.914 36.4373 140.772 36.4288 140.63C36.42 140.544 36.3849 140.464 36.3284 140.399C36.2718 140.334 36.1965 140.289 36.113 140.268C36.0302 140.252 35.9449 140.254 35.8627 140.272C35.7805 140.291 35.7029 140.326 35.6351 140.376C35.3689 140.583 35.1624 140.856 35.0368 141.169C34.9112 141.481 34.871 141.822 34.9203 142.155L35.1488 142.076C35.0877 141.956 35.0154 141.842 34.9327 141.735C34.712 141.458 34.4196 141.245 34.0871 141.122C33.7546 140.998 33.3947 140.967 33.046 141.033C32.954 141.047 32.8661 141.081 32.7884 141.133C32.7457 141.166 32.711 141.208 32.6865 141.256C32.6621 141.304 32.6486 141.357 32.6471 141.411C32.6509 141.582 32.7209 141.744 32.8424 141.864C33.0276 142.066 33.2671 142.21 33.5323 142.28C33.902 142.356 34.2842 142.348 34.6502 142.255C34.7845 142.238 34.916 142.203 35.0408 142.151C34.9033 142.127 34.7627 142.127 34.6252 142.151C34.275 142.206 33.9172 142.189 33.5738 142.101C33.3474 142.035 33.1434 141.909 32.9837 141.735C32.9029 141.653 32.8567 141.543 32.8549 141.428C32.8549 141.332 32.9297 141.287 33.0751 141.266C33.3834 141.212 33.7003 141.243 33.9928 141.354C34.2852 141.465 34.5424 141.653 34.7374 141.897C34.8094 141.992 34.8733 142.092 34.9286 142.197C34.9356 142.211 34.9455 142.223 34.9574 142.234C34.9694 142.244 34.9833 142.252 34.9984 142.257C35.0135 142.262 35.0294 142.264 35.0452 142.263C35.061 142.262 35.0765 142.258 35.0907 142.251C35.1127 142.238 35.1306 142.218 35.1423 142.196C35.1541 142.173 35.1592 142.147 35.1571 142.122C35.1135 141.833 35.1457 141.538 35.2506 141.265C35.3556 140.993 35.5296 140.752 35.7556 140.568C35.9509 140.41 36.2169 140.468 36.2293 140.663C36.229 140.878 36.1686 141.088 36.0548 141.27C35.8722 141.544 35.6272 141.77 35.34 141.931C35.1447 142.059 35.0325 142.13 35.0408 142.147Z" fill="#263238"/>
<path d="M33.9354 143.626C34.2848 143.559 34.6394 143.522 34.9951 143.518C35.3477 143.576 35.6941 143.666 36.0299 143.788C35.902 143.643 35.7447 143.527 35.5684 143.447C35.3921 143.368 35.201 143.327 35.0076 143.327C34.8179 143.296 34.6237 143.307 34.4386 143.358C34.2535 143.41 34.0818 143.501 33.9354 143.626Z" fill="#263238"/>
<path d="M33.2207 144.827C33.2207 144.881 33.6612 144.794 34.1848 144.861C34.7084 144.927 35.0991 145.114 35.124 145.064C34.8794 144.82 34.5509 144.679 34.2056 144.669C33.8691 144.597 33.5177 144.653 33.2207 144.827Z" fill="#263238"/>
</svg>
