<svg width="200" height="200" viewBox="0 0 200 200" fill="none" xmlns="http://www.w3.org/2000/svg">
<path d="M161.473 105.944C127.145 86.1241 71.6766 86.1241 37.5766 105.944C3.47664 125.764 3.65264 157.892 37.9766 177.712C72.3006 197.532 127.773 197.528 161.877 177.712C195.981 157.896 195.797 125.76 161.473 105.944Z" fill="#F5F5F5"/>
<path opacity="0.1" d="M93.5686 135.932L83.5686 130.136L77.6406 133.556L70.9046 129.652L21.5766 158.132C21.5059 158.172 21.4471 158.23 21.4062 158.3C21.3653 158.371 21.3438 158.451 21.3438 158.532C21.3438 158.613 21.3653 158.693 21.4062 158.763C21.4471 158.834 21.5059 158.892 21.5766 158.932L30.6526 164.192C30.935 164.354 31.255 164.439 31.5806 164.439C31.9062 164.439 32.2262 164.354 32.5086 164.192L37.5046 161.304L43.3126 164.672C43.5946 164.835 43.9147 164.921 44.2406 164.921C44.5665 164.921 44.8866 164.835 45.1686 164.672L93.5686 136.728C93.6374 136.687 93.6943 136.628 93.7338 136.559C93.7733 136.489 93.7941 136.41 93.7941 136.33C93.7941 136.25 93.7733 136.171 93.7338 136.101C93.6943 136.031 93.6374 135.973 93.5686 135.932Z" fill="black"/>
<path opacity="0.1" d="M84.7852 129.684L88.2612 131.692L117.433 114.848L113.957 112.84L84.7852 129.684Z" fill="black"/>
<path opacity="0.1" d="M163.065 136.756L145.341 126.524C145.226 126.452 145.13 126.352 145.064 126.233C144.998 126.114 144.963 125.98 144.963 125.844C144.963 125.707 144.998 125.574 145.064 125.455C145.13 125.336 145.226 125.235 145.341 125.164L160.965 116.088C161.087 116.017 161.225 115.98 161.365 115.98C161.506 115.98 161.644 116.017 161.765 116.088L179.885 126.548C180 126.62 180.095 126.72 180.161 126.838C180.226 126.957 180.261 127.09 180.261 127.226C180.261 127.361 180.226 127.495 180.161 127.613C180.095 127.732 180 127.832 179.885 127.904L164.641 136.756C164.402 136.894 164.13 136.967 163.853 136.967C163.577 136.967 163.305 136.894 163.065 136.756Z" fill="black"/>
<path opacity="0.1" d="M144.8 145.6C136.652 140.896 123.484 140.896 115.392 145.6C107.3 150.304 107.336 157.932 115.484 162.636C123.632 167.34 136.8 167.34 144.896 162.636C152.992 157.932 152.96 150.3 144.8 145.6Z" fill="black"/>
<path d="M150.341 35.5801L150.225 76.9441L152.525 78.2721L152.645 36.9081L150.341 35.5801Z" fill="#E0E0E0"/>
<path d="M152.645 36.9082L152.525 78.2722L154.529 77.1082L154.637 38.0602L152.645 36.9082Z" fill="#F0F0F0"/>
<path opacity="0.2" d="M152.64 38.7681L152.644 36.9081L150.34 35.5801L150.336 37.4361L152.64 38.7681Z" fill="black"/>
<path opacity="0.2" d="M152.641 38.7682L154.253 37.8362L152.645 36.9082L152.641 38.7682Z" fill="black"/>
<path d="M122.645 19.5883L124.645 18.4243L124.529 59.7883L122.529 60.9523L122.645 19.5883Z" fill="#F0F0F0"/>
<path d="M122.529 60.9521L124.529 59.7881L182.229 93.1001L180.229 94.2641L122.529 60.9521Z" fill="#F5F5F5"/>
<path d="M120.353 15.6001L182.653 51.6001L182.521 98.2521L120.217 62.2681L120.353 15.6001ZM180.229 94.2641L180.345 52.9001L122.645 19.6001L122.529 60.9641L180.229 94.2761" fill="#E0E0E0"/>
<path d="M120.354 15.6161L122.354 14.4521L184.654 50.4241L182.654 51.5841L120.354 15.6161Z" fill="#F5F5F5"/>
<path d="M182.653 51.5843L184.653 50.4243L184.521 97.0763L182.521 98.2363L182.653 51.5843Z" fill="#F0F0F0"/>
<path d="M148.532 124.804L146.98 125.704L146.984 123.912L148.532 124.804Z" fill="#E6E6E6"/>
<path d="M147.047 106.508L162.131 115.216L147.047 106.508Z" fill="#CFCFCF"/>
<path d="M148.532 124.8L162.096 132.632V134.424L163.696 135.356L163.756 114.284L145.412 103.692L145.352 124.768L146.952 125.7V123.908L148.532 124.8ZM162.112 122.048L147.028 113.34L147.048 106.504L162.132 115.2L162.112 122.048ZM162.088 130.752L147.004 122.044L147.024 115.244V115.2L162.108 123.912L162.088 130.752Z" fill="#EBEBEB"/>
<path d="M147.004 122.048L147.024 115.232V115.212L162.108 123.924L162.088 130.756L147.004 122.048Z" fill="#F5F5F5"/>
<path d="M147.027 113.344L147.047 106.508L162.131 115.216L162.111 122.052L147.027 113.344Z" fill="#F5F5F5"/>
<path d="M163.767 114.288L179.779 104.98L179.719 126.056L163.707 135.36L163.767 114.288Z" fill="#E6E6E6"/>
<path d="M163.768 114.288L145.424 103.696L161.436 94.3921L179.78 104.98L163.768 114.288Z" fill="#F5F5F5"/>
<path d="M167.524 96.6997L162.416 96.8517L157.304 96.6997C157.084 100.152 157.76 103.668 158.688 105.388C158.905 105.831 159.26 106.193 159.7 106.42C160.542 106.848 161.474 107.072 162.42 107.072C163.365 107.072 164.297 106.848 165.14 106.42C165.584 106.188 165.939 105.817 166.152 105.364C167.076 103.632 167.744 100.136 167.524 96.6997Z" fill="#37474F"/>
<path d="M166 94.6077C168 95.7637 168 97.6397 166.024 98.7957C164.048 99.9517 160.8 99.9477 158.8 98.7997C156.8 97.6517 156.8 95.7677 158.776 94.6117C160.752 93.4557 164 93.4517 166 94.6077Z" fill="#455A64"/>
<path d="M165.225 95.0679C166.789 95.9719 166.797 97.4319 165.245 98.3319C164.371 98.7775 163.405 99.0098 162.425 99.0098C161.444 99.0098 160.478 98.7775 159.605 98.3319C158.045 97.4319 158.037 95.9719 159.605 95.0679C160.476 94.6268 161.438 94.397 162.415 94.397C163.391 94.397 164.354 94.6268 165.225 95.0679Z" fill="#263238"/>
<path d="M162 96.8439C162.41 97.1874 162.895 97.4285 163.416 97.5475C163.937 97.6664 164.478 97.6597 164.996 97.5279C165.495 97.3757 165.948 97.1019 166.315 96.7312C166.681 96.3604 166.95 95.9043 167.096 95.4039C166.491 95.1159 165.937 94.7308 165.456 94.2639C166.224 94.0739 167.029 94.103 167.78 94.3479C167.988 94.021 168.113 93.6481 168.144 93.2618C168.175 92.8754 168.11 92.4875 167.956 92.1319C167.084 91.7435 166.102 91.6755 165.184 91.9399C165.565 91.6082 166.011 91.3586 166.492 91.2065C166.974 91.0544 167.482 91.0031 167.984 91.0559C168.057 89.5916 167.828 88.128 167.312 86.7559C165.408 86.8519 163.56 87.6759 162.936 88.2639C162.908 88.9452 162.979 89.6271 163.148 90.2879C162.903 90.1621 162.693 89.9762 162.538 89.7475C162.383 89.5188 162.289 89.2548 162.264 88.9799C161.064 89.2799 160.56 89.8719 160.376 90.3279C160.549 91.175 160.937 91.9631 161.504 92.6159C160.384 92.2759 159.932 91.0159 159.932 91.0159C158.8 93.6359 159.028 96.5919 162 96.8439Z" fill="#0CA678"/>
<path opacity="0.2" d="M162 96.8439C162.41 97.1874 162.895 97.4285 163.416 97.5475C163.937 97.6664 164.478 97.6597 164.996 97.5279C165.495 97.3757 165.948 97.1019 166.315 96.7312C166.681 96.3604 166.95 95.9043 167.096 95.4039C166.491 95.1159 165.937 94.7308 165.456 94.2639C166.224 94.0739 167.029 94.103 167.78 94.3479C167.988 94.021 168.113 93.6481 168.144 93.2618C168.175 92.8754 168.11 92.4875 167.956 92.1319C167.084 91.7435 166.102 91.6755 165.184 91.9399C165.565 91.6082 166.011 91.3586 166.492 91.2065C166.974 91.0544 167.482 91.0031 167.984 91.0559C168.057 89.5916 167.828 88.128 167.312 86.7559C165.408 86.8519 163.56 87.6759 162.936 88.2639C162.908 88.9452 162.979 89.6271 163.148 90.2879C162.903 90.1621 162.693 89.9762 162.538 89.7475C162.383 89.5188 162.289 89.2548 162.264 88.9799C161.064 89.2799 160.56 89.8719 160.376 90.3279C160.549 91.175 160.937 91.9631 161.504 92.6159C160.384 92.2759 159.932 91.0159 159.932 91.0159C158.8 93.6359 159.028 96.5919 162 96.8439Z" fill="black"/>
<path d="M161.921 97.1278C161.906 97.1268 161.892 97.1229 161.879 97.1163C161.866 97.1096 161.855 97.1004 161.845 97.0892C161.836 97.078 161.829 97.065 161.825 97.051C161.821 97.037 161.819 97.0223 161.821 97.0078C162.001 94.6078 163.377 90.6318 166.661 87.3558C166.67 87.3424 166.683 87.3313 166.697 87.3231C166.711 87.3149 166.727 87.3099 166.743 87.3085C166.759 87.3071 166.776 87.3093 166.791 87.3149C166.806 87.3205 166.82 87.3294 166.832 87.3409C166.843 87.3525 166.852 87.3664 166.858 87.3818C166.864 87.3972 166.866 87.4136 166.864 87.4298C166.863 87.4461 166.858 87.4619 166.85 87.4761C166.842 87.4902 166.83 87.5024 166.817 87.5118C163.577 90.7438 162.217 94.6598 162.041 97.0278C162.04 97.0424 162.036 97.0566 162.029 97.0696C162.023 97.0826 162.014 97.0941 162.002 97.1035C161.991 97.1128 161.978 97.1198 161.964 97.124C161.95 97.1282 161.936 97.1295 161.921 97.1278Z" fill="#F5F5F5"/>
<path d="M162.82 98.1318C162.438 98.4438 161.988 98.661 161.506 98.7657C161.024 98.8705 160.525 98.8599 160.048 98.7347C159.571 98.6095 159.13 98.3733 158.762 98.0454C158.393 97.7175 158.108 97.3071 157.928 96.8478C158.476 96.5982 158.978 96.2574 159.412 95.8398C158.688 95.6648 157.929 95.6869 157.216 95.9038C157 95.6286 156.858 95.3022 156.804 94.9562C156.75 94.6101 156.786 94.2559 156.908 93.9278C157.739 93.5872 158.659 93.5323 159.524 93.7718C158.752 93.1726 157.782 92.8869 156.808 92.9718C156.644 91.6804 156.77 90.3686 157.176 89.1318C158.992 89.2398 160.776 89.9918 161.412 90.5238C161.483 91.1239 161.459 91.7314 161.34 92.3238C161.56 92.2192 161.747 92.0559 161.879 91.8518C162.012 91.6478 162.086 91.4111 162.092 91.1678C163.228 91.4438 163.744 91.9678 163.944 92.3678C163.834 93.1077 163.517 93.8012 163.028 94.3678C163.348 94.2541 163.638 94.0695 163.876 93.8277C164.115 93.5859 164.295 93.2933 164.404 92.9718C165.6 95.3078 165.568 97.9118 162.82 98.1318Z" fill="#0CA678"/>
<path d="M162.896 98.4C162.87 98.4002 162.844 98.3905 162.824 98.3727C162.804 98.355 162.791 98.3305 162.788 98.304C162.472 96.212 160.952 92.732 157.688 89.828C157.675 89.8193 157.663 89.8076 157.654 89.7939C157.646 89.7802 157.64 89.7647 157.638 89.7486C157.636 89.7325 157.637 89.716 157.642 89.7005C157.647 89.6849 157.655 89.6706 157.666 89.6585C157.676 89.6465 157.69 89.6369 157.705 89.6305C157.72 89.6242 157.736 89.6211 157.752 89.6216C157.769 89.6222 157.785 89.6262 157.799 89.6335C157.814 89.6409 157.826 89.6513 157.836 89.664C161.14 92.608 162.684 96.14 163.004 98.272C163.008 98.301 163.001 98.3303 162.984 98.354C162.967 98.3778 162.941 98.3942 162.912 98.4H162.896Z" fill="white"/>
<path d="M46.2168 41.5242L46.2528 53.6162L47.7168 54.4682L47.6768 40.6802L46.2168 41.5242Z" fill="#F0F0F0"/>
<path d="M30.4277 62.7522L30.4317 64.4442L47.7157 54.4682L46.2517 53.6162L30.4277 62.7522Z" fill="#F5F5F5"/>
<path d="M49.4452 37.624L28.6172 49.648L28.6692 67.504L49.4932 55.48L49.4452 37.624ZM30.4332 64.444V62.752L30.4012 50.656L46.2212 41.52L47.6812 40.68L47.7212 54.468L30.4332 64.444Z" fill="#E0E0E0"/>
<path d="M49.4443 37.624L47.9763 36.772L27.1523 48.796L28.6163 49.648L49.4443 37.624Z" fill="#F5F5F5"/>
<path d="M27.1523 48.7959L27.2043 66.6519L28.6683 67.5039L28.6163 49.6479L27.1523 48.7959Z" fill="#F0F0F0"/>
<path d="M72.7129 26.5842L72.7489 38.6762L74.2129 39.5282L74.1769 25.7402L72.7129 26.5842Z" fill="#F0F0F0"/>
<path d="M56.9238 47.8123L56.9318 49.5043L74.2118 39.5283L72.7478 38.6763L56.9238 47.8123Z" fill="#F5F5F5"/>
<path d="M75.9412 22.6841L55.1172 34.7081L55.1652 52.5641L76.0012 40.5401L75.9412 22.6841ZM56.9332 49.5041V47.8121L56.9012 35.7161L72.7212 26.5841L74.1852 25.7401L74.2212 39.5281L56.9332 49.5041Z" fill="#E0E0E0"/>
<path d="M75.9404 22.684L74.4764 21.832L53.6484 33.856L55.1164 34.708L75.9404 22.684Z" fill="#F5F5F5"/>
<path d="M53.6484 33.856L53.7004 51.712L55.1644 52.564L55.1164 34.708L53.6484 33.856Z" fill="#F0F0F0"/>
<path d="M41.1883 46.1118L45.5043 49.5118L45.5163 52.8318L31.1643 61.1158L31.1523 57.7958L33.8883 52.3638L36.3443 54.2718L35.4763 56.9678L36.7363 54.5718L41.1883 46.1118Z" fill="#E0E0E0"/>
<path d="M36.4759 47.788C37.1519 47.388 37.6999 47.708 37.7039 48.484C37.6818 48.9074 37.5597 49.3195 37.3476 49.6866C37.1356 50.0537 36.8396 50.3654 36.4839 50.596C35.8079 50.996 35.2599 50.676 35.2559 49.9C35.2786 49.4768 35.4009 49.0649 35.6129 48.6979C35.8249 48.3309 36.1206 48.0192 36.4759 47.788Z" fill="#E0E0E0"/>
<path d="M67.6884 31.1763L72.0004 34.5723L72.0124 37.8923L57.6604 46.1763L57.6484 42.8563L60.3844 37.4243L62.8404 39.3323L61.9724 42.0323L63.2324 39.6363L67.6884 31.1763Z" fill="#E0E0E0"/>
<path d="M62.9719 32.8482C63.6479 32.4482 64.196 32.7722 64.2 33.5482C64.1769 33.9714 64.0544 34.3831 63.8424 34.7501C63.6305 35.1171 63.335 35.4289 62.9799 35.6602C62.3039 36.0602 61.756 35.7362 61.752 34.9602C61.7747 34.537 61.897 34.1252 62.109 33.7582C62.321 33.3911 62.6167 33.0794 62.9719 32.8482Z" fill="#E0E0E0"/>
<path d="M113.955 51.376L84.7832 68.216L84.9032 109.852L114.075 93.008L113.955 51.376Z" fill="#3498DB"/>
<path d="M115.596 52.3359L86.4238 69.1759L86.5438 110.812L115.716 93.9679L115.596 52.3359Z" fill="#3498DB"/>
<path opacity="0.4" d="M115.596 52.3359L86.4238 69.1759L86.5438 110.812L115.716 93.9679L115.596 52.3359Z" fill="white"/>
<path d="M117.432 53.3838L88.2598 70.2278L88.3758 111.86L117.548 95.0198L117.432 53.3838Z" fill="#3498DB"/>
<path opacity="0.6" d="M117.432 53.3838L88.2598 70.2278L88.3758 111.86L117.548 95.0198L117.432 53.3838Z" fill="white"/>
<path d="M102.399 56.2641C105.227 54.6321 107.531 55.9441 107.539 59.1961C107.547 62.4481 105.259 66.3961 102.431 68.0441C99.6031 69.6921 97.2951 68.3681 97.2871 65.1161C97.2791 61.8641 99.5991 57.9001 102.399 56.2641Z" fill="#EBEBEB"/>
<path d="M102.635 60.144C102.847 60.02 103.035 60.12 103.035 60.368V61.66L104.163 61.012C104.379 60.888 104.563 60.984 104.563 61.232C104.554 61.3682 104.513 61.5002 104.443 61.6176C104.374 61.735 104.278 61.8345 104.163 61.908L103.039 62.556V63.848C103.031 63.9844 102.99 64.1168 102.921 64.2344C102.851 64.3519 102.754 64.4512 102.639 64.524C102.423 64.648 102.239 64.548 102.239 64.3V63.008L101.115 63.656C100.895 63.78 100.715 63.68 100.715 63.432C100.724 63.2964 100.765 63.1648 100.834 63.0479C100.904 62.9311 101 62.8325 101.115 62.76L102.239 62.112V60.8C102.248 60.6672 102.289 60.5385 102.358 60.4245C102.427 60.3105 102.522 60.2144 102.635 60.144Z" fill="#3498DB"/>
<path d="M79.6268 66.584L31.3828 94.436L31.5788 163.292L79.8228 135.436L79.6268 66.584Z" fill="#3498DB"/>
<path d="M21.9434 88.9521L22.1394 157.804L31.5794 163.292L31.3834 94.4361L21.9434 88.9521Z" fill="#3498DB"/>
<path d="M79.6274 66.5842L70.1874 61.0962L21.9434 88.9522L31.3834 94.4362L79.6274 66.5842Z" fill="#3498DB"/>
<path opacity="0.2" d="M79.6268 66.584L31.3828 94.436L31.5788 163.292L79.8228 135.436L79.6268 66.584Z" fill="white"/>
<path opacity="0.5" d="M79.6274 66.5842L70.1874 61.0962L21.9434 88.9522L31.3834 94.4362L79.6274 66.5842Z" fill="white"/>
<path opacity="0.2" d="M31.3828 94.4358C31.3828 125.94 34.9068 149.764 37.5828 159.824L79.8228 135.424L79.6268 66.5718L31.3828 94.4358Z" fill="black"/>
<path d="M93.2908 132.4L45.0468 160.236C41.3308 155.768 31.3828 133.988 31.3828 94.436L79.6268 66.584C79.6268 104 88.3228 125.484 93.2908 132.4Z" fill="#3498DB"/>
<path opacity="0.6" d="M93.2908 132.4L45.0468 160.236C41.3308 155.768 31.3828 133.988 31.3828 94.436L79.6268 66.584C79.6268 104 88.3228 125.484 93.2908 132.4Z" fill="white"/>
<path d="M72.9186 99.5317L41.8906 117.448C41.9546 117.981 42.0186 118.514 42.0826 119.048L73.1706 101.1C73.0866 100.584 72.9986 100.06 72.9186 99.5317Z" fill="#3498DB"/>
<path d="M74.4276 107.868L43.0996 125.956C43.1903 126.489 43.2823 127.009 43.3756 127.516L74.7556 109.4C74.6436 108.892 74.5356 108.4 74.4276 107.868Z" fill="#3498DB"/>
<path d="M73.6234 103.728L42.4434 121.728C42.5194 122.264 42.5954 122.792 42.6754 123.328L73.9114 105.296L73.6234 103.728Z" fill="#3498DB"/>
<path d="M72.3034 95.2842L41.4434 113.104C41.4914 113.652 41.5434 114.196 41.5994 114.732L72.5234 96.8802C72.4474 96.3482 72.3754 95.8162 72.3034 95.2842Z" fill="#3498DB"/>
<path d="M71.3318 86.6401L40.8398 104.24C40.8638 104.804 40.8918 105.36 40.9198 105.916L71.4878 88.2681C71.4318 87.7268 71.3798 87.1841 71.3318 86.6401Z" fill="#3498DB"/>
<path d="M71.7758 90.9878L41.0918 108.7C41.1265 109.254 41.1665 109.806 41.2118 110.356L71.9638 92.5998C71.8998 92.0598 71.8358 91.5238 71.7758 90.9878Z" fill="#3498DB"/>
<path d="M78.8 123.76L46.916 142.16C47.072 142.66 47.224 143.144 47.38 143.612L79.32 125.2C79.14 124.712 78.968 124.236 78.8 123.76Z" fill="#3498DB"/>
<path d="M75.3351 111.948L43.8711 130.112C43.9751 130.636 44.0791 131.148 44.1871 131.652L75.7031 113.456C75.5991 112.956 75.4551 112.452 75.3351 111.948Z" fill="#3498DB"/>
<path d="M77.5037 119.9L45.7637 138.228C45.8997 138.732 46.0397 139.228 46.1637 139.712L77.9557 121.356C77.8117 120.872 77.6557 120.4 77.5037 119.9Z" fill="#3498DB"/>
<path d="M76.3559 115.96L44.7559 134.204C44.8759 134.72 44.9959 135.224 45.1199 135.716L76.7719 117.444C76.6319 116.952 76.4919 116.46 76.3559 115.96Z" fill="#3498DB"/>
<g opacity="0.1">
<path d="M72.9206 99.5322L41.8926 117.448C41.9566 117.982 42.0206 118.515 42.0846 119.048L73.1726 101.1C73.0886 100.584 73.0006 100.06 72.9206 99.5322Z" fill="black"/>
<path d="M74.4276 107.868L43.0996 125.956C43.1903 126.489 43.2823 127.009 43.3756 127.516L74.7556 109.4C74.6436 108.892 74.5356 108.4 74.4276 107.868Z" fill="black"/>
<path d="M73.6234 103.728L42.4434 121.728C42.5194 122.264 42.5954 122.792 42.6754 123.328L73.9114 105.296L73.6234 103.728Z" fill="black"/>
<path d="M72.3034 95.2842L41.4434 113.104C41.4914 113.652 41.5434 114.196 41.5994 114.732L72.5234 96.8802C72.4474 96.3482 72.3754 95.8162 72.3034 95.2842Z" fill="black"/>
<path d="M71.3318 86.6401L40.8398 104.24C40.8638 104.804 40.8918 105.36 40.9198 105.916L71.4878 88.2681C71.4318 87.7268 71.3798 87.1841 71.3318 86.6401Z" fill="black"/>
<path d="M71.7758 90.9883L41.0918 108.7C41.1265 109.255 41.1665 109.807 41.2118 110.356L71.9638 92.6003C71.8998 92.0603 71.8358 91.5243 71.7758 90.9883Z" fill="black"/>
<path d="M78.8 123.76L46.916 142.16C47.072 142.66 47.224 143.144 47.38 143.612L79.32 125.2C79.14 124.712 78.968 124.236 78.8 123.76Z" fill="black"/>
<path d="M75.3351 111.948L43.8711 130.112C43.9751 130.636 44.0791 131.148 44.1871 131.652L75.7031 113.456C75.5991 112.956 75.4551 112.452 75.3351 111.948Z" fill="black"/>
<path d="M77.5037 119.9L45.7637 138.228C45.8997 138.732 46.0397 139.228 46.1637 139.712L77.9557 121.356C77.8117 120.872 77.6557 120.4 77.5037 119.9Z" fill="black"/>
<path d="M76.3559 115.96L44.7559 134.204C44.8759 134.72 44.9959 135.224 45.1199 135.716L76.7719 117.444C76.6319 116.952 76.4919 116.46 76.3559 115.96Z" fill="black"/>
</g>
<g opacity="0.3">
<path d="M72.9206 99.5322L41.8926 117.448C41.9566 117.982 42.0206 118.515 42.0846 119.048L73.1726 101.1C73.0886 100.584 73.0006 100.06 72.9206 99.5322Z" fill="white"/>
<path d="M74.4276 107.868L43.0996 125.956C43.1903 126.489 43.2823 127.009 43.3756 127.516L74.7556 109.4C74.6436 108.892 74.5356 108.4 74.4276 107.868Z" fill="white"/>
<path d="M73.6234 103.728L42.4434 121.728C42.5194 122.264 42.5954 122.792 42.6754 123.328L73.9114 105.296L73.6234 103.728Z" fill="white"/>
<path d="M72.3034 95.2842L41.4434 113.104C41.4914 113.652 41.5434 114.196 41.5994 114.732L72.5234 96.8802C72.4474 96.3482 72.3754 95.8162 72.3034 95.2842Z" fill="white"/>
<path d="M71.3318 86.6401L40.8398 104.24C40.8638 104.804 40.8918 105.36 40.9198 105.916L71.4878 88.2681C71.4318 87.7268 71.3798 87.1841 71.3318 86.6401Z" fill="white"/>
<path d="M71.7758 90.9883L41.0918 108.7C41.1265 109.255 41.1665 109.807 41.2118 110.356L71.9638 92.6003C71.8998 92.0603 71.8358 91.5243 71.7758 90.9883Z" fill="white"/>
<path d="M78.8 123.76L46.916 142.16C47.072 142.66 47.224 143.144 47.38 143.612L79.32 125.2C79.14 124.712 78.968 124.236 78.8 123.76Z" fill="white"/>
<path d="M75.3351 111.948L43.8711 130.112C43.9751 130.636 44.0791 131.148 44.1871 131.652L75.7031 113.456C75.5991 112.956 75.4551 112.452 75.3351 111.948Z" fill="white"/>
<path d="M77.5037 119.9L45.7637 138.228C45.8997 138.732 46.0397 139.228 46.1637 139.712L77.9557 121.356C77.8117 120.872 77.6557 120.4 77.5037 119.9Z" fill="white"/>
<path d="M76.3559 115.96L44.7559 134.204C44.8759 134.72 44.9959 135.224 45.1199 135.716L76.7719 117.444C76.6319 116.952 76.4919 116.46 76.3559 115.96Z" fill="white"/>
</g>
<path d="M131.356 159.104C131.08 159.68 130.212 160.212 129.26 160.368C128.308 160.524 127.34 160.32 126.384 160.184C124.962 159.986 123.522 159.95 122.092 160.076C121.207 160.191 120.316 160.254 119.424 160.264C118.522 160.272 117.642 159.992 116.912 159.464C116.409 159.067 116.074 158.496 115.972 157.864C115.929 158.275 115.994 158.689 116.158 159.068C116.323 159.446 116.582 159.775 116.912 160.024C117.643 160.551 118.522 160.832 119.424 160.824C120.316 160.814 121.207 160.75 122.092 160.632C123.522 160.507 124.962 160.545 126.384 160.744C127.34 160.876 128.384 161.144 129.328 160.992C130.272 160.84 131.148 160.304 131.424 159.732L131.356 159.104Z" fill="#263238"/>
<path d="M120.941 157.408C121.741 157.408 121.445 156.208 122.209 155.428C121.897 155.428 121.589 155.452 121.277 155.448C120.593 156.436 120.401 157.408 120.941 157.408Z" fill="white"/>
<path d="M122.604 157.344C123.404 157.344 123.196 155.932 123.988 155.108C123.808 155.171 123.625 155.224 123.44 155.268C123.284 155.3 123.124 155.328 122.964 155.352C122.26 156.352 122.056 157.344 122.604 157.344Z" fill="white"/>
<path d="M130.528 154.636C130.476 154.378 130.334 154.147 130.128 153.984L125.8 153.876C125.338 154.458 124.712 154.887 124.004 155.108C123.204 155.932 123.424 157.344 122.62 157.344C122.072 157.344 122.276 156.352 122.98 155.344C122.728 155.38 122.476 155.404 122.224 155.42C121.46 156.22 121.756 157.4 120.956 157.4C120.416 157.4 120.608 156.428 121.292 155.44H120.684C120.5 155.44 120.316 155.44 120.132 155.408C118.532 156.668 118.404 158.032 118.612 160.176C118.885 160.224 119.162 160.252 119.44 160.26C120.332 160.249 121.223 160.186 122.108 160.072C123.538 159.946 124.978 159.982 126.4 160.18C127.356 160.316 128.324 160.52 129.276 160.364C130.228 160.208 131.096 159.676 131.372 159.1L130.528 154.636Z" fill="#455A64"/>
<path d="M120.116 155.412C119.399 155.3 118.669 155.3 117.952 155.412C117.508 155.499 117.094 155.702 116.752 156C116.41 156.297 116.152 156.68 116.004 157.108C115.944 157.357 115.933 157.615 115.972 157.868C116.075 158.5 116.41 159.071 116.912 159.468C117.407 159.839 117.985 160.082 118.596 160.176C118.4 158.036 118.524 156.672 120.116 155.412Z" fill="white"/>
<path d="M125.66 152.644V154.728C125.66 154.955 125.75 155.173 125.911 155.333C126.071 155.494 126.289 155.584 126.516 155.584H128.7C129.065 155.584 129.416 155.442 129.678 155.189C129.94 154.935 130.093 154.589 130.104 154.224L130.156 152.644H125.66Z" fill="#FFA8A7"/>
<path d="M140.081 151.716C139.962 151.971 139.778 152.191 139.548 152.352C139.318 152.514 139.049 152.611 138.769 152.636C138.186 152.68 137.604 152.54 137.105 152.236C136.357 151.76 136.065 151.008 135.553 150.332C135.017 149.678 134.409 149.086 133.741 148.568C133.023 148.038 132.433 147.355 132.013 146.568C131.908 146.335 131.84 146.089 131.809 145.836C131.744 146.315 131.814 146.803 132.013 147.244C132.432 148.031 133.022 148.715 133.741 149.244C134.408 149.765 135.016 150.358 135.553 151.012C136.065 151.688 136.353 152.44 137.105 152.916C137.604 153.22 138.186 153.36 138.769 153.316C139.049 153.291 139.318 153.194 139.548 153.032C139.778 152.87 139.962 152.651 140.081 152.396C140.168 152.016 140.195 151.624 140.161 151.236C140.16 151.399 140.133 151.561 140.081 151.716Z" fill="#263238"/>
<path d="M135.164 147.14C135.087 147.242 135.05 147.369 135.06 147.496C135.073 147.558 135.102 147.616 135.143 147.663C135.184 147.711 135.237 147.747 135.296 147.768C135.381 147.789 135.47 147.789 135.555 147.766C135.639 147.744 135.717 147.701 135.78 147.64C135.907 147.519 136.021 147.385 136.12 147.24C136.409 146.875 136.794 146.598 137.232 146.44C137.446 146.361 137.669 146.312 137.896 146.292L137.356 145.8C137.016 145.817 136.682 145.899 136.372 146.04C135.868 146.276 135.446 146.66 135.164 147.14Z" fill="white"/>
<path d="M135.28 145.42C134.776 145.661 134.358 146.048 134.08 146.532C134.004 146.636 133.967 146.764 133.976 146.892C133.989 146.953 134.017 147.01 134.059 147.057C134.1 147.104 134.153 147.139 134.212 147.16C134.297 147.182 134.386 147.182 134.471 147.159C134.555 147.137 134.633 147.093 134.696 147.032C134.824 146.912 134.938 146.778 135.036 146.632C135.294 146.3 135.632 146.039 136.018 145.872C136.404 145.705 136.825 145.638 137.244 145.676L136.7 145.2C136.215 145.146 135.725 145.222 135.28 145.42Z" fill="white"/>
<path d="M136.357 144.88C135.866 144.401 135.291 144.016 134.661 143.744C134.279 143.578 133.859 143.521 133.447 143.578C133.035 143.635 132.647 143.805 132.325 144.068C132.106 144.298 131.945 144.577 131.855 144.882C131.765 145.187 131.749 145.508 131.809 145.82C131.84 146.073 131.908 146.32 132.013 146.552C132.154 146.858 132.334 147.145 132.549 147.404C132.757 145.54 134.377 144.668 136.357 144.88Z" fill="white"/>
<path d="M140.125 149.888C140.134 149.256 139.989 148.631 139.701 148.068L138.649 146.964L137.897 146.28C137.67 146.299 137.447 146.349 137.233 146.428C136.795 146.586 136.41 146.863 136.121 147.228C136.022 147.373 135.908 147.507 135.781 147.628C135.718 147.688 135.64 147.732 135.555 147.754C135.471 147.777 135.382 147.777 135.297 147.756C135.238 147.735 135.185 147.699 135.143 147.651C135.102 147.603 135.074 147.546 135.061 147.484C135.05 147.357 135.087 147.23 135.165 147.128C135.443 146.644 135.862 146.257 136.365 146.016C136.675 145.875 137.009 145.793 137.349 145.776L137.229 145.664C136.81 145.626 136.389 145.693 136.003 145.86C135.617 146.027 135.279 146.288 135.021 146.62C134.923 146.766 134.809 146.9 134.681 147.02C134.618 147.081 134.54 147.125 134.456 147.147C134.371 147.17 134.282 147.17 134.197 147.148C134.138 147.127 134.085 147.092 134.044 147.045C134.003 146.998 133.974 146.941 133.961 146.88C133.952 146.752 133.989 146.624 134.065 146.52C134.324 146.064 134.711 145.693 135.178 145.454C135.645 145.216 136.172 145.119 136.693 145.176L136.673 145.156L136.349 144.868C134.369 144.656 132.749 145.528 132.541 147.392C132.906 147.813 133.307 148.199 133.741 148.548C134.409 149.066 135.017 149.658 135.553 150.312C136.065 150.988 136.353 151.74 137.105 152.216C137.604 152.52 138.186 152.66 138.769 152.616C139.049 152.592 139.318 152.494 139.548 152.332C139.779 152.171 139.963 151.951 140.081 151.696C140.134 151.54 140.161 151.377 140.161 151.212C140.181 150.744 140.137 150.08 140.125 149.888Z" fill="#455A64"/>
<path d="M136.328 146.596L136.452 148.832C137.864 149.632 139.348 149.204 139.84 148.688L139.936 146.596H136.328Z" fill="#FFA8A7"/>
<path d="M139.109 98.2359C138.987 97.9967 138.915 97.7355 138.897 97.4679L138.773 95.5479L125.093 96.4279C124.913 97.3839 124.729 98.5599 124.549 99.8919C129.439 101.169 134.63 100.579 139.109 98.2359Z" fill="#FFA8A7"/>
<path d="M138.84 90.492L141.756 96.1201L139.108 100.552L142.036 105.2L146.456 98.336C146.753 97.871 146.948 97.3476 147.026 96.8011C147.104 96.2546 147.063 95.6977 146.908 95.168C146.152 92.4931 145.192 89.8801 144.036 87.3521L138.84 90.492Z" fill="#FFA8A7"/>
<path d="M136.525 79.6C139.881 78.976 141.797 80.092 144.629 87.68C143.473 90.276 138.561 91.232 138.561 91.232L136.525 79.6Z" fill="#455A64"/>
<path opacity="0.2" d="M136.525 79.6C139.881 78.976 141.797 80.092 144.629 87.68C143.473 90.276 138.561 91.232 138.561 91.232L136.525 79.6Z" fill="white"/>
<path d="M125.204 71.7319L124.076 73.6999L125.312 74.1559L125.204 71.7319Z" fill="#FF9192"/>
<path d="M125.081 70.8561C125.261 69.1321 125.765 67.5081 126.889 66.6841C126.588 68.8278 127.045 71.0095 128.181 72.8521C128.292 72.2825 128.586 71.7646 129.017 71.3761C129.225 71.1746 129.485 71.0355 129.768 70.9747C130.05 70.9138 130.345 70.9337 130.617 71.0321C130.988 71.2097 131.275 71.5255 131.417 71.9121C131.567 72.2838 131.608 72.6909 131.533 73.085C131.459 73.479 131.273 73.8433 130.997 74.1346C130.721 74.4258 130.368 74.6317 129.978 74.7277C129.589 74.8237 129.18 74.8058 128.801 74.6761C128.956 75.4422 129.331 76.1465 129.88 76.7028C130.429 77.2591 131.129 77.6432 131.893 77.8081C132.898 78.0108 133.94 77.912 134.889 77.5241L135.357 79.8441C133.465 81.8441 130.233 80.5081 130.233 80.5081L129.809 78.2201C126.089 78.4441 125.741 78.3801 125.333 76.3321C124.996 74.5272 124.911 72.6843 125.081 70.8561Z" fill="#FFA8A7"/>
<path d="M124.636 66.7281C124.971 65.9712 125.459 65.292 126.07 64.7336C126.68 64.1752 127.4 63.7497 128.184 63.4841C129.757 62.9611 131.434 62.8333 133.068 63.1121C134.083 63.2274 135.07 63.5184 135.984 63.9721C136.91 64.4423 137.665 65.1925 138.14 66.1161L138.332 64.5161C138.53 64.5579 138.713 64.6509 138.863 64.7856C139.013 64.9204 139.125 65.0923 139.188 65.2841C139.241 65.487 139.242 65.7001 139.191 65.9035C139.14 66.1069 139.039 66.2942 138.896 66.4481H139.044C139.7 66.4476 140.349 66.5762 140.954 66.8266C141.56 67.0771 142.11 67.4444 142.574 67.9076C143.037 68.3709 143.405 68.9209 143.656 69.5264C143.907 70.1318 144.036 70.7807 144.036 71.4361V79.9081C143.393 79.9086 142.755 79.7822 142.16 79.5362C141.566 79.2901 141.025 78.9292 140.57 78.4741C140.115 78.019 139.754 77.4786 139.508 76.8839C139.262 76.2891 139.136 75.6517 139.136 75.0081V73.0801C138.53 74.5208 137.566 75.7832 136.336 76.7481C135.9 77.067 135.424 77.3279 134.92 77.5241C133.971 77.912 132.929 78.0108 131.924 77.8081C131.16 77.6432 130.461 77.2591 129.912 76.7028C129.362 76.1466 128.987 75.4422 128.832 74.6761C129.212 74.8058 129.62 74.8237 130.01 74.7277C130.399 74.6317 130.753 74.4258 131.028 74.1346C131.304 73.8433 131.49 73.479 131.565 73.085C131.639 72.691 131.599 72.2838 131.448 71.9121C131.307 71.5255 131.02 71.2097 130.648 71.0321C130.376 70.9338 130.082 70.9138 129.799 70.9747C129.516 71.0355 129.256 71.1746 129.048 71.3761C128.617 71.7646 128.324 72.2826 128.212 72.8521C127.076 71.0095 126.619 68.8278 126.92 66.6841C125.796 67.5081 125.292 69.1321 125.112 70.8561C124.697 70.2614 124.436 69.5728 124.353 68.8522C124.27 68.1316 124.367 67.4017 124.636 66.7281Z" fill="#174463"/>
<path opacity="0.4" d="M124.636 66.7281C124.971 65.9712 125.459 65.292 126.07 64.7336C126.68 64.1752 127.4 63.7497 128.184 63.4841C129.757 62.9611 131.434 62.8333 133.068 63.1121C134.083 63.2274 135.07 63.5184 135.984 63.9721C136.91 64.4423 137.665 65.1925 138.14 66.1161L138.332 64.5161C138.53 64.5579 138.713 64.6509 138.863 64.7856C139.013 64.9204 139.125 65.0923 139.188 65.2841C139.241 65.487 139.242 65.7001 139.191 65.9035C139.14 66.1069 139.039 66.2942 138.896 66.4481H139.044C139.7 66.4476 140.349 66.5762 140.954 66.8266C141.56 67.0771 142.11 67.4444 142.574 67.9076C143.037 68.3709 143.405 68.9209 143.656 69.5264C143.907 70.1318 144.036 70.7807 144.036 71.4361V79.9081C143.393 79.9086 142.755 79.7822 142.16 79.5362C141.566 79.2901 141.025 78.9292 140.57 78.4741C140.115 78.019 139.754 77.4786 139.508 76.8839C139.262 76.2891 139.136 75.6517 139.136 75.0081V73.0801C138.53 74.5208 137.566 75.7832 136.336 76.7481C135.9 77.067 135.424 77.3279 134.92 77.5241C133.971 77.912 132.929 78.0108 131.924 77.8081C131.16 77.6432 130.461 77.2591 129.912 76.7028C129.362 76.1466 128.987 75.4422 128.832 74.6761C129.212 74.8058 129.62 74.8237 130.01 74.7277C130.399 74.6317 130.753 74.4258 131.028 74.1346C131.304 73.8433 131.49 73.479 131.565 73.085C131.639 72.691 131.599 72.2838 131.448 71.9121C131.307 71.5255 131.02 71.2097 130.648 71.0321C130.376 70.9338 130.082 70.9138 129.799 70.9747C129.516 71.0355 129.256 71.1746 129.048 71.3761C128.617 71.7646 128.324 72.2826 128.212 72.8521C127.076 71.0095 126.619 68.8278 126.92 66.6841C125.796 67.5081 125.292 69.1321 125.112 70.8561C124.697 70.2614 124.436 69.5728 124.353 68.8522C124.27 68.1316 124.367 67.4017 124.636 66.7281Z" fill="black"/>
<path d="M130.245 80.5083L126.585 81.2283C125.785 82.7083 124.949 84.1003 124.141 85.5803C123.533 86.6963 122.905 87.8803 122.941 89.1523C122.976 89.8304 123.201 90.485 123.589 91.042C123.977 91.5991 124.513 92.0364 125.137 92.3043L124.713 97.3043C130.461 99.0603 137.489 97.5163 139.033 96.1883C139.489 94.0923 139.889 91.8643 140.341 89.7683C140.68 88.417 140.888 87.0358 140.961 85.6443C141.031 84.2461 140.696 82.8573 139.997 81.6443L140.001 81.6003C139.52 80.8773 138.84 80.3098 138.042 79.9667C137.244 79.6237 136.364 79.52 135.509 79.6683L130.245 80.5083Z" fill="#455A64"/>
<path opacity="0.3" d="M130.245 80.5083L126.585 81.2283C125.785 82.7083 124.949 84.1003 124.141 85.5803C123.533 86.6963 122.905 87.8803 122.941 89.1523C122.976 89.8304 123.201 90.485 123.589 91.042C123.977 91.5991 124.513 92.0364 125.137 92.3043L124.713 97.3043C130.461 99.0603 137.489 97.5163 139.033 96.1883C139.489 94.0923 139.889 91.8643 140.341 89.7683C140.68 88.417 140.888 87.0358 140.961 85.6443C141.031 84.2461 140.696 82.8573 139.997 81.6443L140.001 81.6003C139.52 80.8773 138.84 80.3098 138.042 79.9667C137.244 79.6237 136.364 79.52 135.509 79.6683L130.245 80.5083Z" fill="white"/>
<path d="M139.321 98.5883C139.239 98.4787 139.168 98.3608 139.109 98.2363C134.631 100.579 129.44 101.17 124.549 99.8923C123.517 107.568 122.633 120.564 123.177 129.14C123.629 139.12 125.465 153.256 125.465 153.256C127.865 153.972 129.657 153.536 130.337 153.016C131.137 143.112 132.893 136.328 131.537 129.78C132.445 125.2 133.029 119.452 133.029 119.452L133.721 129.564L136.065 147.344C136.723 147.682 137.458 147.841 138.196 147.804C138.934 147.766 139.649 147.535 140.269 147.132C141.973 136.964 142.613 130.076 141.121 125.028C143.393 108.344 143.509 104.076 139.321 98.5883Z" fill="#455A64"/>
<path opacity="0.3" d="M134.033 117.452L135.289 112.184C136.753 111.944 139.041 110.984 140.245 108.984C138.51 110.345 136.375 111.098 134.169 111.128L133.025 119.46L133.269 123.02L133.369 121.724C133.476 120.284 133.698 118.856 134.033 117.452Z" fill="black"/>
<path d="M117.004 81.5761C115.098 81.5492 113.199 81.3403 111.332 80.9521C111.332 80.9521 107.668 76.7281 106.004 74.2281C105.802 73.9236 105.681 73.5725 105.652 73.2081C105.63 73.0328 105.63 72.8554 105.652 72.6801L106.204 69.2041C106.254 68.9007 106.231 68.5899 106.137 68.2971C106.043 68.0044 105.881 67.7381 105.664 67.5201L103.84 65.6761C103.753 65.5954 103.638 65.5505 103.519 65.5503C103.4 65.5501 103.285 65.5946 103.197 65.675C103.109 65.7554 103.054 65.8659 103.044 65.9846C103.033 66.1032 103.068 66.2215 103.14 66.3161L104.484 67.9161L101.904 68.5401C101.756 68.5761 101.619 68.651 101.509 68.7571C101.398 68.8632 101.318 68.9968 101.276 69.1441L100.98 70.2081C100.918 70.4284 100.939 70.664 101.04 70.8698C101.14 71.0757 101.312 71.2374 101.524 71.3241L101.872 71.4721V71.7161C101.857 72.3227 102.08 72.9113 102.492 73.3561C102.596 73.6681 102.98 74.4761 102.98 74.4761L106.696 84.0001C106.93 84.6178 107.321 85.164 107.83 85.5848C108.34 86.0057 108.95 86.2866 109.6 86.4001L115.9 87.5001C116.634 86.7258 117.13 85.7566 117.328 84.7082C117.526 83.6598 117.418 82.5766 117.016 81.5881L117.004 81.5761Z" fill="#FFA8A7"/>
<path d="M126.001 81.16C123.733 81.268 120.333 81.64 116.993 81.56C117.394 82.5485 117.502 83.6317 117.304 84.6801C117.107 85.7285 116.611 86.6977 115.877 87.472L123.741 88.848C124.571 88.9791 125.42 88.7966 126.122 88.3359C126.825 87.8751 127.331 87.1693 127.541 86.356C127.785 85.36 128.049 84.524 128.201 83.556C128.243 83.2482 128.217 82.9349 128.124 82.6384C128.031 82.342 127.874 82.0696 127.664 81.8408C127.454 81.612 127.196 81.4323 126.909 81.3146C126.621 81.197 126.311 81.1441 126.001 81.16Z" fill="#455A64"/>
<path opacity="0.2" d="M126.001 81.16C123.733 81.268 120.333 81.64 116.993 81.56C117.394 82.5485 117.502 83.6317 117.304 84.6801C117.107 85.7285 116.611 86.6977 115.877 87.472L123.741 88.848C124.571 88.9791 125.42 88.7966 126.122 88.3359C126.825 87.8751 127.331 87.1693 127.541 86.356C127.785 85.36 128.049 84.524 128.201 83.556C128.243 83.2482 128.217 82.9349 128.124 82.6384C128.031 82.342 127.874 82.0696 127.664 81.8408C127.454 81.612 127.196 81.4323 126.909 81.3146C126.621 81.197 126.311 81.1441 126.001 81.16Z" fill="white"/>
</svg>
