<svg width="200" height="200" viewBox="0 0 200 200" fill="none" xmlns="http://www.w3.org/2000/svg">
<path d="M192.22 74.6756C191.52 65.9956 191.444 58.3076 187.916 50.0876C185.084 43.4876 181.916 36.8076 177.616 31.0276C164.416 13.3836 143.78 5.51959 122.28 4.71559C87.032 3.40359 52.72 25.9156 40.936 59.3476C39.032 64.7436 35.9 69.2956 32.36 73.5996C31.988 73.3756 31.78 72.7756 31.78 71.7396C31.78 62.5156 21.352 72.8316 19.72 75.3396C-1.41998 107.836 3.13203 161.296 38.36 182.084C52.824 190.62 68.856 194.72 85.496 196.052C100.628 197.252 117.02 194.98 128.436 184.1C138.324 174.68 141.696 160.692 149.96 150.34C148.483 153.298 147.695 156.553 147.656 159.86C147.684 165.4 161.656 163.176 175.948 138.724C189.356 115.784 193.816 94.5236 192.22 74.6756Z" fill="#3498DB"/>
<path opacity="0.7" d="M192.22 74.6756C191.52 65.9956 191.444 58.3076 187.916 50.0876C185.084 43.4876 181.916 36.8076 177.616 31.0276C164.416 13.3836 143.78 5.51959 122.28 4.71559C87.032 3.40359 52.72 25.9156 40.936 59.3476C39.032 64.7436 35.9 69.2956 32.36 73.5996C31.988 73.3756 31.78 72.7756 31.78 71.7396C31.78 62.5156 21.352 72.8316 19.72 75.3396C-1.41998 107.836 3.13203 161.296 38.36 182.084C52.824 190.62 68.856 194.72 85.496 196.052C100.628 197.252 117.02 194.98 128.436 184.1C138.324 174.68 141.696 160.692 149.96 150.34C148.483 153.298 147.695 156.553 147.656 159.86C147.684 165.4 161.656 163.176 175.948 138.724C189.356 115.784 193.816 94.5236 192.22 74.6756Z" fill="white"/>
<path d="M179.371 152C179.399 152 179.683 149.928 179.683 149.796C179.715 148.248 178.883 145.244 177.227 144.68C176.953 144.593 176.664 144.566 176.378 144.599C176.092 144.632 175.817 144.725 175.569 144.872C175.322 145.019 175.109 145.216 174.943 145.451C174.777 145.686 174.663 145.954 174.607 146.236C174.327 147.436 175.007 148.764 175.755 149.652C176.623 150.7 179.367 152 179.371 152Z" fill="#263238"/>
<path d="M148.763 154.968C150.059 155.368 153.071 154.936 153.071 154.936C153.071 154.936 152.191 153.036 152.119 152.936C151.291 151.628 148.919 149.592 147.247 150.024C146.971 150.104 146.715 150.241 146.495 150.426C146.275 150.611 146.096 150.841 145.971 151.1C145.846 151.358 145.777 151.641 145.768 151.928C145.759 152.216 145.81 152.502 145.919 152.768C146.343 153.904 147.655 154.636 148.763 154.968Z" fill="#263238"/>
<path d="M164.356 178.32C164.644 178.856 164.936 179.396 165.192 179.92C165.36 180.288 165.544 180.632 165.692 181.012L166.148 182.116C166.412 182.832 166.688 183.568 166.928 184.268C167.096 184.756 167.252 185.224 167.408 185.696C167.096 185.18 166.46 184.188 166.4 184.096C165.428 182.896 162.844 181.14 161.228 181.764C160.962 181.875 160.723 182.04 160.526 182.249C160.329 182.458 160.177 182.706 160.082 182.977C159.987 183.249 159.95 183.537 159.974 183.823C159.998 184.11 160.081 184.388 160.22 184.64C160.772 185.732 162.164 186.308 163.3 186.516C164.552 186.74 167.188 186.084 167.516 186C167.768 186.78 168.012 187.54 168.228 188.264C168.628 189.544 168.94 190.72 169.216 191.76H170.364C170.048 190.644 169.664 189.36 169.204 187.956C168.948 187.156 168.66 186.32 168.356 185.46C169.122 185.042 169.863 184.58 170.576 184.076C171.568 184.924 173.956 185.768 174.264 185.876C174.048 186.676 173.828 187.436 173.612 188.156C173.212 189.496 172.812 190.708 172.456 191.756H173.62C173.928 190.764 174.26 189.66 174.596 188.436C174.82 187.636 175.044 186.772 175.264 185.884C175.596 185.916 178.308 186.136 179.508 185.712C180.596 185.312 181.876 184.512 182.244 183.368C182.34 183.097 182.379 182.809 182.356 182.522C182.334 182.235 182.251 181.956 182.114 181.703C181.977 181.45 181.788 181.229 181.559 181.054C181.331 180.879 181.068 180.755 180.788 180.688C179.092 180.336 176.824 182.48 176.06 183.824C176.016 183.904 175.62 184.82 175.384 185.4C175.472 185.04 175.56 184.688 175.648 184.312C175.824 183.572 175.976 182.828 176.144 182.028L176.348 180.852C176.428 180.452 176.46 180.052 176.516 179.624C176.624 178.664 176.692 177.692 176.736 176.708C177.384 176.86 179.696 177.368 180.836 177.148C181.976 176.928 183.356 176.348 183.896 175.244C184.031 174.991 184.112 174.711 184.133 174.425C184.153 174.138 184.114 173.85 184.016 173.58C183.918 173.309 183.765 173.062 183.566 172.855C183.367 172.648 183.126 172.485 182.86 172.376C181.26 171.772 178.672 173.548 177.712 174.776C177.652 174.852 177.06 175.8 176.748 176.328C176.768 175.736 176.796 175.128 176.796 174.544C176.796 172.816 176.76 171.064 176.724 169.316C176.724 168.78 176.724 168.248 176.7 167.716C176.932 167.776 179.664 168.436 180.94 168.196C182.076 167.976 183.46 167.396 184 166.292C184.136 166.039 184.218 165.759 184.239 165.472C184.26 165.185 184.221 164.897 184.124 164.626C184.026 164.355 183.873 164.108 183.674 163.9C183.475 163.692 183.234 163.529 182.968 163.42C181.344 162.816 178.776 164.596 177.82 165.82C177.744 165.912 176.896 167.276 176.7 167.632C176.7 166.456 176.68 165.284 176.72 164.128C176.773 162.567 176.924 161.01 177.172 159.468C177.28 159.496 180.128 160.2 181.436 159.952C182.572 159.736 183.956 159.152 184.5 158.048C184.635 157.795 184.716 157.515 184.737 157.229C184.757 156.942 184.718 156.654 184.62 156.384C184.522 156.113 184.369 155.866 184.17 155.659C183.971 155.452 183.73 155.289 183.464 155.18C181.84 154.572 179.276 156.352 178.316 157.58C178.252 157.66 177.604 158.7 177.308 159.2L177.216 159.164C177.511 157.621 177.944 156.107 178.508 154.64C178.808 153.84 179.14 153.068 179.48 152.336C179.996 152.52 182.368 153.344 183.572 153.252C184.776 153.16 186.164 152.724 186.824 151.696C186.987 151.459 187.098 151.19 187.151 150.907C187.203 150.623 187.195 150.332 187.127 150.052C187.06 149.773 186.934 149.51 186.759 149.282C186.583 149.054 186.361 148.865 186.108 148.728C184.564 147.948 181.816 149.436 180.732 150.536C180.672 150.596 180.136 151.268 179.756 151.764C179.916 151.436 180.072 151.096 180.228 150.784C180.82 149.616 181.428 148.584 181.984 147.672C182.3 147.156 182.596 146.696 182.88 146.268C183.48 146.188 185.908 145.824 186.912 145.196C187.916 144.568 188.968 143.536 189.08 142.316C189.116 142.031 189.091 141.741 189.008 141.466C188.924 141.19 188.783 140.936 188.594 140.719C188.405 140.502 188.173 140.327 187.912 140.206C187.651 140.085 187.367 140.02 187.08 140.016C185.348 140.036 183.596 142.62 183.136 144.096C183.1 144.224 182.708 146.292 182.736 146.288H182.772C182.492 146.688 182.196 147.132 181.884 147.616C181.312 148.516 180.684 149.54 180.056 150.7C179.377 151.944 178.771 153.226 178.24 154.54C177.64 156.009 177.17 157.529 176.836 159.08C176.836 159.08 176.836 159.116 176.836 159.136C176.784 158.632 176.596 157.224 176.568 157.136C176.192 155.64 174.568 152.964 172.848 152.852C172.561 152.842 172.274 152.892 172.008 153C171.741 153.107 171.501 153.27 171.301 153.476C171.101 153.683 170.948 153.93 170.85 154.2C170.751 154.47 170.711 154.757 170.732 155.044C170.776 156.268 171.796 157.372 172.732 158.036C173.796 158.784 176.576 159.3 176.796 159.34C176.496 160.925 176.304 162.529 176.22 164.14C176.164 165.08 176.14 166.028 176.124 166.98C176.068 166.544 176.012 166.156 175.996 166.104C175.62 164.604 173.996 161.928 172.28 161.816C171.992 161.805 171.705 161.855 171.438 161.963C171.17 162.07 170.929 162.233 170.729 162.44C170.529 162.647 170.375 162.895 170.277 163.165C170.179 163.436 170.139 163.725 170.16 164.012C170.204 165.232 171.224 166.34 172.16 167C173.096 167.66 175.48 168.16 176.104 168.28C176.104 168.644 176.104 169.012 176.104 169.376C176.104 171.124 176.104 172.872 176.064 174.576C176.064 175.18 176.012 175.776 175.976 176.368C175.924 175.968 175.876 175.66 175.864 175.608C175.484 174.108 173.864 171.436 172.144 171.324C171.856 171.313 171.57 171.363 171.303 171.47C171.036 171.578 170.794 171.74 170.594 171.947C170.394 172.154 170.24 172.4 170.142 172.671C170.044 172.941 170.003 173.229 170.024 173.516C170.068 174.74 171.092 175.844 172.024 176.508C172.956 177.172 175.112 177.62 175.856 177.764C175.8 178.372 175.748 178.964 175.668 179.568C175.604 179.968 175.568 180.368 175.484 180.768C175.4 181.168 175.328 181.568 175.252 181.944C175.076 182.684 174.904 183.448 174.716 184.168C174.588 184.668 174.46 185.144 174.316 185.62C174.34 185.02 174.36 183.844 174.352 183.744C174.169 182.396 173.646 181.117 172.832 180.028C172.819 179.877 172.792 179.727 172.752 179.58C172.682 179.301 172.555 179.04 172.378 178.813C172.201 178.587 171.978 178.4 171.724 178.265C171.471 178.13 171.191 178.05 170.904 178.03C170.618 178.01 170.33 178.05 170.06 178.148C168.46 178.788 167.744 181.832 167.844 183.376C167.844 183.464 168.028 184.444 168.152 185.064C168.024 184.712 167.904 184.368 167.752 184.008C167.492 183.292 167.212 182.588 166.908 181.828L166.432 180.732C166.28 180.364 166.072 179.992 165.892 179.62C165.456 178.76 164.972 177.908 164.468 177.064C165.092 176.832 167.3 175.98 168.128 175.172C168.956 174.364 169.784 173.108 169.632 171.896C169.606 171.61 169.52 171.332 169.38 171.08C169.239 170.829 169.047 170.611 168.817 170.439C168.586 170.266 168.322 170.145 168.041 170.082C167.761 170.019 167.47 170.015 167.188 170.072C165.5 170.472 164.34 173.364 164.208 174.904C164.208 175 164.228 176.104 164.256 176.728C163.948 176.224 163.644 175.716 163.316 175.216C162.368 173.768 161.368 172.332 160.372 170.892C160.068 170.452 159.768 170.012 159.468 169.568C159.692 169.488 162.336 168.536 163.268 167.628C164.092 166.828 164.924 165.564 164.768 164.352C164.742 164.066 164.656 163.788 164.516 163.536C164.375 163.285 164.183 163.067 163.953 162.895C163.722 162.722 163.458 162.601 163.177 162.538C162.897 162.475 162.606 162.471 162.324 162.528C160.636 162.928 159.476 165.82 159.344 167.36C159.344 167.476 159.38 169.08 159.412 169.488C158.752 168.516 158.1 167.54 157.5 166.552C156.678 165.225 155.944 163.844 155.304 162.42C155.408 162.38 158.172 161.396 159.128 160.468C159.952 159.668 160.784 158.404 160.628 157.192C160.602 156.906 160.516 156.628 160.376 156.377C160.235 156.126 160.043 155.907 159.813 155.736C159.582 155.564 159.318 155.443 159.037 155.38C158.756 155.317 158.466 155.315 158.184 155.372C156.496 155.772 155.336 158.66 155.204 160.2C155.204 160.3 155.232 161.524 155.26 162.108L155.164 162.128C154.571 160.663 154.113 159.148 153.796 157.6C153.596 156.756 153.456 155.94 153.336 155.144C153.868 155.012 156.304 154.392 157.252 153.648C158.2 152.904 159.124 151.78 159.108 150.556C159.113 150.269 159.057 149.983 158.945 149.719C158.832 149.454 158.665 149.216 158.455 149.02C158.244 148.824 157.995 148.675 157.723 148.582C157.451 148.489 157.162 148.454 156.876 148.48C155.156 148.68 153.676 151.436 153.384 152.952C153.384 153.032 153.296 153.892 153.252 154.516C153.204 154.156 153.148 153.784 153.108 153.436C152.956 152.136 152.896 150.936 152.852 149.872C152.832 149.268 152.824 148.72 152.824 148.208C153.28 147.808 155.104 146.164 155.596 145.088C156.088 144.012 156.396 142.568 155.816 141.488C155.686 141.232 155.505 141.006 155.283 140.824C155.06 140.643 154.803 140.51 154.526 140.435C154.249 140.359 153.959 140.343 153.676 140.387C153.392 140.43 153.121 140.533 152.88 140.688C151.444 141.656 151.408 144.78 151.84 146.264C151.88 146.392 152.696 148.332 152.72 148.312L152.748 148.288C152.748 148.78 152.748 149.308 152.748 149.888C152.748 150.952 152.8 152.16 152.924 153.468C153.045 154.88 153.246 156.283 153.528 157.672C153.836 159.228 154.282 160.754 154.86 162.232L154.884 162.284C154.564 161.884 153.628 160.824 153.548 160.748C152.404 159.708 149.584 158.348 148.084 159.228C147.838 159.378 147.627 159.577 147.463 159.814C147.3 160.05 147.188 160.319 147.135 160.601C147.083 160.884 147.09 161.174 147.157 161.454C147.224 161.734 147.349 161.996 147.524 162.224C148.236 163.22 149.696 163.58 150.852 163.608C152.156 163.644 154.756 162.54 154.964 162.452C155.589 163.942 156.313 165.388 157.132 166.78C157.604 167.58 158.108 168.4 158.62 169.2C158.332 168.868 158.072 168.576 158.032 168.536C156.888 167.496 154.068 166.136 152.564 167.016C152.319 167.165 152.109 167.363 151.946 167.599C151.783 167.834 151.671 168.101 151.618 168.383C151.565 168.664 151.571 168.953 151.637 169.232C151.703 169.511 151.826 169.772 152 170C152.708 170.996 154.172 171.356 155.328 171.384C156.484 171.412 158.732 170.524 159.328 170.276L159.92 171.2C160.884 172.664 161.852 174.116 162.76 175.568C163.08 176.084 163.376 176.6 163.676 177.116C163.416 176.82 163.2 176.576 163.16 176.54C162.02 175.5 159.2 174.16 157.696 175.02C157.45 175.17 157.239 175.369 157.075 175.606C156.912 175.842 156.8 176.111 156.747 176.393C156.695 176.676 156.702 176.966 156.769 177.246C156.836 177.526 156.961 177.788 157.136 178.016C157.848 179.012 159.312 179.372 160.468 179.4C161.624 179.428 163.656 178.608 164.356 178.32Z" fill="#263238"/>
<path opacity="0.3" d="M148.763 154.968C150.059 155.368 153.071 154.936 153.071 154.936C153.071 154.936 152.191 153.036 152.119 152.936C151.291 151.628 148.919 149.592 147.247 150.024C146.971 150.104 146.715 150.241 146.495 150.426C146.275 150.611 146.096 150.841 145.971 151.1C145.846 151.358 145.777 151.641 145.768 151.928C145.759 152.216 145.81 152.502 145.919 152.768C146.343 153.904 147.655 154.636 148.763 154.968Z" fill="#263238"/>
<path opacity="0.3" d="M179.371 152C179.399 152 179.683 149.928 179.683 149.796C179.715 148.248 178.883 145.244 177.227 144.68C176.953 144.593 176.664 144.566 176.378 144.599C176.092 144.632 175.817 144.725 175.569 144.872C175.322 145.019 175.109 145.216 174.943 145.451C174.777 145.686 174.663 145.954 174.607 146.236C174.327 147.436 175.007 148.764 175.755 149.652C176.623 150.7 179.367 152 179.371 152Z" fill="#263238"/>
<path opacity="0.3" d="M164.356 178.32C164.644 178.856 164.936 179.396 165.192 179.92C165.36 180.288 165.544 180.632 165.692 181.012L166.148 182.116C166.412 182.832 166.688 183.568 166.928 184.268C167.096 184.756 167.252 185.224 167.408 185.696C167.096 185.18 166.46 184.188 166.4 184.096C165.428 182.896 162.844 181.14 161.228 181.764C160.962 181.875 160.723 182.04 160.526 182.249C160.329 182.458 160.177 182.706 160.082 182.977C159.987 183.249 159.95 183.537 159.974 183.823C159.998 184.11 160.081 184.388 160.22 184.64C160.772 185.732 162.164 186.308 163.3 186.516C164.552 186.74 167.188 186.084 167.516 186C167.768 186.78 168.012 187.54 168.228 188.264C168.628 189.544 168.94 190.72 169.216 191.76H170.364C170.048 190.644 169.664 189.36 169.204 187.956C168.948 187.156 168.66 186.32 168.356 185.46C169.122 185.042 169.863 184.58 170.576 184.076C171.568 184.924 173.956 185.768 174.264 185.876C174.048 186.676 173.828 187.436 173.612 188.156C173.212 189.496 172.812 190.708 172.456 191.756H173.62C173.928 190.764 174.26 189.66 174.596 188.436C174.82 187.636 175.044 186.772 175.264 185.884C175.596 185.916 178.308 186.136 179.508 185.712C180.596 185.312 181.876 184.512 182.244 183.368C182.34 183.097 182.379 182.809 182.356 182.522C182.334 182.235 182.251 181.956 182.114 181.703C181.977 181.45 181.788 181.229 181.559 181.054C181.331 180.879 181.068 180.755 180.788 180.688C179.092 180.336 176.824 182.48 176.06 183.824C176.016 183.904 175.62 184.82 175.384 185.4C175.472 185.04 175.56 184.688 175.648 184.312C175.824 183.572 175.976 182.828 176.144 182.028L176.348 180.852C176.428 180.452 176.46 180.052 176.516 179.624C176.624 178.664 176.692 177.692 176.736 176.708C177.384 176.86 179.696 177.368 180.836 177.148C181.976 176.928 183.356 176.348 183.896 175.244C184.031 174.991 184.112 174.711 184.133 174.425C184.153 174.138 184.114 173.85 184.016 173.58C183.918 173.309 183.765 173.062 183.566 172.855C183.367 172.648 183.126 172.485 182.86 172.376C181.26 171.772 178.672 173.548 177.712 174.776C177.652 174.852 177.06 175.8 176.748 176.328C176.768 175.736 176.796 175.128 176.796 174.544C176.796 172.816 176.76 171.064 176.724 169.316C176.724 168.78 176.724 168.248 176.7 167.716C176.932 167.776 179.664 168.436 180.94 168.196C182.076 167.976 183.46 167.396 184 166.292C184.136 166.039 184.218 165.759 184.239 165.472C184.26 165.185 184.221 164.897 184.124 164.626C184.026 164.355 183.873 164.108 183.674 163.9C183.475 163.692 183.234 163.529 182.968 163.42C181.344 162.816 178.776 164.596 177.82 165.82C177.744 165.912 176.896 167.276 176.7 167.632C176.7 166.456 176.68 165.284 176.72 164.128C176.773 162.567 176.924 161.01 177.172 159.468C177.28 159.496 180.128 160.2 181.436 159.952C182.572 159.736 183.956 159.152 184.5 158.048C184.635 157.795 184.716 157.515 184.737 157.229C184.757 156.942 184.718 156.654 184.62 156.384C184.522 156.113 184.369 155.866 184.17 155.659C183.971 155.452 183.73 155.289 183.464 155.18C181.84 154.572 179.276 156.352 178.316 157.58C178.252 157.66 177.604 158.7 177.308 159.2L177.216 159.164C177.511 157.621 177.944 156.107 178.508 154.64C178.808 153.84 179.14 153.068 179.48 152.336C179.996 152.52 182.368 153.344 183.572 153.252C184.776 153.16 186.164 152.724 186.824 151.696C186.987 151.459 187.098 151.19 187.151 150.907C187.203 150.623 187.195 150.332 187.127 150.052C187.06 149.773 186.934 149.51 186.759 149.282C186.583 149.054 186.361 148.865 186.108 148.728C184.564 147.948 181.816 149.436 180.732 150.536C180.672 150.596 180.136 151.268 179.756 151.764C179.916 151.436 180.072 151.096 180.228 150.784C180.82 149.616 181.428 148.584 181.984 147.672C182.3 147.156 182.596 146.696 182.88 146.268C183.48 146.188 185.908 145.824 186.912 145.196C187.916 144.568 188.968 143.536 189.08 142.316C189.116 142.031 189.091 141.741 189.008 141.466C188.924 141.19 188.783 140.936 188.594 140.719C188.405 140.502 188.173 140.327 187.912 140.206C187.651 140.085 187.367 140.02 187.08 140.016C185.348 140.036 183.596 142.62 183.136 144.096C183.1 144.224 182.708 146.292 182.736 146.288H182.772C182.492 146.688 182.196 147.132 181.884 147.616C181.312 148.516 180.684 149.54 180.056 150.7C179.377 151.944 178.771 153.226 178.24 154.54C177.64 156.009 177.17 157.529 176.836 159.08C176.836 159.08 176.836 159.116 176.836 159.136C176.784 158.632 176.596 157.224 176.568 157.136C176.192 155.64 174.568 152.964 172.848 152.852C172.561 152.842 172.274 152.892 172.008 153C171.741 153.107 171.501 153.27 171.301 153.476C171.101 153.683 170.948 153.93 170.85 154.2C170.751 154.47 170.711 154.757 170.732 155.044C170.776 156.268 171.796 157.372 172.732 158.036C173.796 158.784 176.576 159.3 176.796 159.34C176.496 160.925 176.304 162.529 176.22 164.14C176.164 165.08 176.14 166.028 176.124 166.98C176.068 166.544 176.012 166.156 175.996 166.104C175.62 164.604 173.996 161.928 172.28 161.816C171.992 161.805 171.705 161.855 171.438 161.963C171.17 162.07 170.929 162.233 170.729 162.44C170.529 162.647 170.375 162.895 170.277 163.165C170.179 163.436 170.139 163.725 170.16 164.012C170.204 165.232 171.224 166.34 172.16 167C173.096 167.66 175.48 168.16 176.104 168.28C176.104 168.644 176.104 169.012 176.104 169.376C176.104 171.124 176.104 172.872 176.064 174.576C176.064 175.18 176.012 175.776 175.976 176.368C175.924 175.968 175.876 175.66 175.864 175.608C175.484 174.108 173.864 171.436 172.144 171.324C171.856 171.313 171.57 171.363 171.303 171.47C171.036 171.578 170.794 171.74 170.594 171.947C170.394 172.154 170.24 172.4 170.142 172.671C170.044 172.941 170.003 173.229 170.024 173.516C170.068 174.74 171.092 175.844 172.024 176.508C172.956 177.172 175.112 177.62 175.856 177.764C175.8 178.372 175.748 178.964 175.668 179.568C175.604 179.968 175.568 180.368 175.484 180.768C175.4 181.168 175.328 181.568 175.252 181.944C175.076 182.684 174.904 183.448 174.716 184.168C174.588 184.668 174.46 185.144 174.316 185.62C174.34 185.02 174.36 183.844 174.352 183.744C174.169 182.396 173.646 181.117 172.832 180.028C172.819 179.877 172.792 179.727 172.752 179.58C172.682 179.301 172.555 179.04 172.378 178.813C172.201 178.587 171.978 178.4 171.724 178.265C171.471 178.13 171.191 178.05 170.904 178.03C170.618 178.01 170.33 178.05 170.06 178.148C168.46 178.788 167.744 181.832 167.844 183.376C167.844 183.464 168.028 184.444 168.152 185.064C168.024 184.712 167.904 184.368 167.752 184.008C167.492 183.292 167.212 182.588 166.908 181.828L166.432 180.732C166.28 180.364 166.072 179.992 165.892 179.62C165.456 178.76 164.972 177.908 164.468 177.064C165.092 176.832 167.3 175.98 168.128 175.172C168.956 174.364 169.784 173.108 169.632 171.896C169.606 171.61 169.52 171.332 169.38 171.08C169.239 170.829 169.047 170.611 168.817 170.439C168.586 170.266 168.322 170.145 168.041 170.082C167.761 170.019 167.47 170.015 167.188 170.072C165.5 170.472 164.34 173.364 164.208 174.904C164.208 175 164.228 176.104 164.256 176.728C163.948 176.224 163.644 175.716 163.316 175.216C162.368 173.768 161.368 172.332 160.372 170.892C160.068 170.452 159.768 170.012 159.468 169.568C159.692 169.488 162.336 168.536 163.268 167.628C164.092 166.828 164.924 165.564 164.768 164.352C164.742 164.066 164.656 163.788 164.516 163.536C164.375 163.285 164.183 163.067 163.953 162.895C163.722 162.722 163.458 162.601 163.177 162.538C162.897 162.475 162.606 162.471 162.324 162.528C160.636 162.928 159.476 165.82 159.344 167.36C159.344 167.476 159.38 169.08 159.412 169.488C158.752 168.516 158.1 167.54 157.5 166.552C156.678 165.225 155.944 163.844 155.304 162.42C155.408 162.38 158.172 161.396 159.128 160.468C159.952 159.668 160.784 158.404 160.628 157.192C160.602 156.906 160.516 156.628 160.376 156.377C160.235 156.126 160.043 155.907 159.813 155.736C159.582 155.564 159.318 155.443 159.037 155.38C158.756 155.317 158.466 155.315 158.184 155.372C156.496 155.772 155.336 158.66 155.204 160.2C155.204 160.3 155.232 161.524 155.26 162.108L155.164 162.128C154.571 160.663 154.113 159.148 153.796 157.6C153.596 156.756 153.456 155.94 153.336 155.144C153.868 155.012 156.304 154.392 157.252 153.648C158.2 152.904 159.124 151.78 159.108 150.556C159.113 150.269 159.057 149.983 158.945 149.719C158.832 149.454 158.665 149.216 158.455 149.02C158.244 148.824 157.995 148.675 157.723 148.582C157.451 148.489 157.162 148.454 156.876 148.48C155.156 148.68 153.676 151.436 153.384 152.952C153.384 153.032 153.296 153.892 153.252 154.516C153.204 154.156 153.148 153.784 153.108 153.436C152.956 152.136 152.896 150.936 152.852 149.872C152.832 149.268 152.824 148.72 152.824 148.208C153.28 147.808 155.104 146.164 155.596 145.088C156.088 144.012 156.396 142.568 155.816 141.488C155.686 141.232 155.505 141.006 155.283 140.824C155.06 140.643 154.803 140.51 154.526 140.435C154.249 140.359 153.959 140.343 153.676 140.387C153.392 140.43 153.121 140.533 152.88 140.688C151.444 141.656 151.408 144.78 151.84 146.264C151.88 146.392 152.696 148.332 152.72 148.312L152.748 148.288C152.748 148.78 152.748 149.308 152.748 149.888C152.748 150.952 152.8 152.16 152.924 153.468C153.045 154.88 153.246 156.283 153.528 157.672C153.836 159.228 154.282 160.754 154.86 162.232L154.884 162.284C154.564 161.884 153.628 160.824 153.548 160.748C152.404 159.708 149.584 158.348 148.084 159.228C147.838 159.378 147.627 159.577 147.463 159.814C147.3 160.05 147.188 160.319 147.135 160.601C147.083 160.884 147.09 161.174 147.157 161.454C147.224 161.734 147.349 161.996 147.524 162.224C148.236 163.22 149.696 163.58 150.852 163.608C152.156 163.644 154.756 162.54 154.964 162.452C155.589 163.942 156.313 165.388 157.132 166.78C157.604 167.58 158.108 168.4 158.62 169.2C158.332 168.868 158.072 168.576 158.032 168.536C156.888 167.496 154.068 166.136 152.564 167.016C152.319 167.165 152.109 167.363 151.946 167.599C151.783 167.834 151.671 168.101 151.618 168.383C151.565 168.664 151.571 168.953 151.637 169.232C151.703 169.511 151.826 169.772 152 170C152.708 170.996 154.172 171.356 155.328 171.384C156.484 171.412 158.732 170.524 159.328 170.276L159.92 171.2C160.884 172.664 161.852 174.116 162.76 175.568C163.08 176.084 163.376 176.6 163.676 177.116C163.416 176.82 163.2 176.576 163.16 176.54C162.02 175.5 159.2 174.16 157.696 175.02C157.45 175.17 157.239 175.369 157.075 175.606C156.912 175.842 156.8 176.111 156.747 176.393C156.695 176.676 156.702 176.966 156.769 177.246C156.836 177.526 156.961 177.788 157.136 178.016C157.848 179.012 159.312 179.372 160.468 179.4C161.624 179.428 163.656 178.608 164.356 178.32Z" fill="#263238"/>
<path d="M41.9998 168.168C41.9998 168.168 42.1838 166.94 42.1878 166.86C42.1878 165.944 41.6998 164.16 40.7278 163.824C40.5649 163.77 40.3925 163.752 40.222 163.771C40.0515 163.789 39.887 163.844 39.7396 163.932C39.5921 164.019 39.4651 164.138 39.3672 164.278C39.2693 164.419 39.2026 164.579 39.1718 164.748C39.0078 165.456 39.4158 166.248 39.8558 166.776C40.3718 167.396 41.9998 168.168 41.9998 168.168Z" fill="#263238"/>
<path d="M23.8358 169.932C24.6038 170.164 26.3918 169.912 26.3918 169.908C26.3918 169.904 25.8678 168.784 25.8278 168.708C25.3358 167.932 23.9318 166.708 22.9358 166.98C22.7694 167.024 22.6144 167.103 22.4812 167.212C22.3481 167.321 22.2399 167.457 22.164 167.611C22.0882 167.766 22.0464 167.935 22.0415 168.107C22.0366 168.279 22.0688 168.45 22.1358 168.608C22.3998 169.296 23.1998 169.732 23.8358 169.932Z" fill="#263238"/>
<path d="M33.0919 183.792C33.2639 184.112 33.4359 184.432 33.5879 184.748C33.6879 184.964 33.7959 185.168 33.8839 185.396C33.9719 185.624 34.0639 185.836 34.1559 186.052C34.3119 186.476 34.4759 186.912 34.6159 187.328C34.7199 187.616 34.8119 187.896 34.9039 188.176C34.7159 187.868 34.3399 187.28 34.3039 187.236C33.7279 186.52 32.1919 185.48 31.2359 185.848C31.078 185.914 30.9357 186.012 30.8184 186.137C30.701 186.261 30.6111 186.409 30.5545 186.57C30.4979 186.732 30.4759 186.903 30.4899 187.074C30.5039 187.244 30.5537 187.41 30.6359 187.56C30.9639 188.208 31.7919 188.548 32.4639 188.672C33.2079 188.804 34.7719 188.416 34.9679 188.364C35.1199 188.828 35.2599 189.28 35.3679 189.708C35.5999 190.468 35.7919 191.168 35.9559 191.784H36.6399C36.4479 191.12 36.2399 190.364 35.9519 189.528C35.7999 189.056 35.6279 188.556 35.4439 188.044C35.9006 187.797 36.3415 187.522 36.7639 187.22C37.3519 187.724 38.7639 188.228 38.9559 188.292C38.8239 188.76 38.6959 189.216 38.5559 189.644C38.3199 190.444 38.0839 191.16 37.8719 191.784H38.5599C38.7439 191.196 38.9599 190.54 39.1439 189.816C39.2759 189.34 39.4079 188.828 39.5439 188.3C39.7399 188.3 41.3479 188.448 42.0599 188.196C42.7079 187.968 43.4679 187.496 43.6879 186.804C43.7494 186.642 43.7753 186.469 43.7638 186.297C43.7523 186.124 43.7036 185.957 43.6212 185.805C43.5388 185.653 43.4245 185.52 43.2862 185.417C43.1479 185.313 42.9888 185.24 42.8199 185.204C41.8159 184.992 40.4679 186.268 40.0199 187.064C39.9919 187.112 39.7599 187.656 39.6199 188C39.6719 187.784 39.7279 187.576 39.7799 187.352C39.8839 186.916 39.9719 186.472 40.0719 185.996C40.1119 185.768 40.1559 185.532 40.1959 185.3C40.2359 185.068 40.2599 184.816 40.2919 184.568C40.3599 184 40.3999 183.424 40.4239 182.84C40.8239 182.928 42.1799 183.24 42.8559 183.1C43.5319 182.96 44.3519 182.624 44.6759 181.972C44.7595 181.822 44.81 181.656 44.8239 181.484C44.8378 181.313 44.8147 181.141 44.7563 180.979C44.6979 180.818 44.6055 180.671 44.4854 180.548C44.3652 180.425 44.2201 180.33 44.0599 180.268C43.0959 179.908 41.5719 180.964 41.0039 181.684C40.9679 181.728 40.6039 182.292 40.4319 182.604C40.4319 182.252 40.4599 181.904 40.4599 181.548C40.4599 180.52 40.4599 179.48 40.4159 178.444V177.492C40.5519 177.524 42.1759 177.92 42.9319 177.772C43.6039 177.644 44.4279 177.296 44.7479 176.644C44.8316 176.494 44.8823 176.328 44.8964 176.157C44.9106 175.986 44.8879 175.814 44.8299 175.653C44.7719 175.491 44.6799 175.344 44.5602 175.221C44.4405 175.098 44.2958 175.002 44.1359 174.94C43.1719 174.58 41.6479 175.636 41.0799 176.356C41.0359 176.412 40.5319 177.22 40.4159 177.432C40.4159 176.736 40.4159 176.04 40.4159 175.352C40.4449 174.426 40.5345 173.502 40.6839 172.588C40.7479 172.588 42.4399 173.02 43.2159 172.872C43.8879 172.744 44.7119 172.396 45.0319 171.744C45.1156 171.594 45.1663 171.428 45.1804 171.257C45.1946 171.086 45.1719 170.914 45.1139 170.753C45.0559 170.591 44.9639 170.444 44.8442 170.321C44.7245 170.198 44.5798 170.102 44.4199 170.04C43.4559 169.68 41.9319 170.736 41.3599 171.456C41.3239 171.504 40.9599 172.12 40.7639 172.416L40.7079 172.396C40.8846 171.479 41.1416 170.58 41.4759 169.708C41.6559 169.228 41.8519 168.776 42.0519 168.344C42.3599 168.452 43.7679 168.94 44.4839 168.884C45.1999 168.828 46.0199 168.572 46.4119 167.964C46.5113 167.824 46.5796 167.665 46.6122 167.496C46.6447 167.328 46.6408 167.154 46.6006 166.987C46.5604 166.821 46.4849 166.664 46.3792 166.529C46.2735 166.394 46.1401 166.283 45.9879 166.204C45.0719 165.74 43.4399 166.604 42.7879 167.272C42.7519 167.308 42.4359 167.708 42.2079 168.004C42.3039 167.808 42.3959 167.604 42.4919 167.424C42.8399 166.728 43.2039 166.116 43.5319 165.576C43.7199 165.268 43.8959 164.996 44.0639 164.74C44.4199 164.692 45.8599 164.476 46.4639 164.104C47.0679 163.732 47.6879 163.12 47.7519 162.396C47.7761 162.225 47.763 162.051 47.7136 161.885C47.6643 161.719 47.5797 161.566 47.4658 161.437C47.3519 161.307 47.2112 161.203 47.0535 161.132C46.8957 161.062 46.7246 161.026 46.5519 161.028C45.5239 161.028 44.4839 162.576 44.2119 163.452C44.1879 163.528 43.9599 164.756 43.9759 164.752H43.9999C43.8319 164.996 43.6559 165.256 43.4719 165.552C43.1319 166.084 42.7519 166.692 42.3879 167.384C41.9831 168.121 41.6225 168.881 41.3079 169.66C40.9509 170.532 40.6725 171.434 40.4759 172.356C40.4759 172.356 40.4759 172.38 40.4759 172.388C40.4479 172.088 40.3359 171.256 40.3199 171.188C40.0959 170.296 39.1199 168.708 38.1119 168.644C37.9405 168.635 37.7692 168.662 37.6095 168.725C37.4497 168.788 37.3053 168.884 37.1859 169.007C37.0664 169.13 36.9748 169.278 36.9172 169.439C36.8596 169.601 36.8373 169.773 36.8519 169.944C36.8799 170.672 37.4839 171.328 38.0519 171.72C38.6839 172.164 40.3319 172.472 40.4519 172.496C40.276 173.438 40.1624 174.391 40.1119 175.348C40.0799 175.904 40.0639 176.468 40.0559 177.032C40.0199 176.772 39.9879 176.544 39.9799 176.512C39.7559 175.62 38.7799 174.032 37.7719 173.968C37.6005 173.959 37.4292 173.986 37.2695 174.049C37.1097 174.112 36.9653 174.208 36.8459 174.331C36.7264 174.454 36.6348 174.602 36.5772 174.763C36.5196 174.925 36.4973 175.097 36.5119 175.268C36.5399 175.996 37.1439 176.652 37.7119 177.044C38.2799 177.436 39.6799 177.732 40.0519 177.804C40.0519 178.02 40.0519 178.236 40.0519 178.452C40.0519 179.492 40.0519 180.528 40.0279 181.548C40.0279 181.904 39.9959 182.26 39.9759 182.612C39.9439 182.38 39.9159 182.188 39.9079 182.16C39.6839 181.268 38.7279 179.68 37.6999 179.616C37.5288 179.607 37.358 179.635 37.1987 179.698C37.0395 179.761 36.8955 179.857 36.7765 179.981C36.6576 180.104 36.5663 180.251 36.5089 180.412C36.4516 180.574 36.4294 180.745 36.4439 180.916C36.4719 181.644 37.0759 182.3 37.6439 182.692C38.2119 183.084 39.4759 183.352 39.9159 183.44C39.8839 183.8 39.8519 184.16 39.8039 184.508C39.7679 184.748 39.7479 184.976 39.6959 185.212C39.6439 185.448 39.6039 185.68 39.5559 185.912C39.4559 186.348 39.3519 186.804 39.2399 187.232C39.1639 187.528 39.0879 187.808 39.0079 188.092C39.0079 187.736 39.0359 187.04 39.0079 186.98C38.9035 186.179 38.5935 185.418 38.1079 184.772C38.0996 184.683 38.0836 184.594 38.0599 184.508C38.021 184.341 37.9467 184.184 37.842 184.048C37.7373 183.912 37.6047 183.8 37.453 183.719C37.3014 183.639 37.1342 183.592 36.9629 183.582C36.7916 183.572 36.62 183.598 36.4599 183.66C35.5079 184.04 35.0879 185.844 35.1479 186.76C35.1479 186.816 35.2559 187.396 35.3279 187.76C35.2519 187.552 35.1839 187.36 35.1039 187.136C34.9479 186.712 34.7799 186.292 34.6039 185.844L34.3519 185.2C34.2639 184.98 34.1399 184.76 34.0319 184.536C33.7759 184.028 33.4879 183.524 33.1879 183.02C33.5599 182.884 34.8679 182.38 35.3599 181.9C35.8519 181.42 36.3439 180.672 36.2559 179.952C36.2426 179.781 36.1929 179.615 36.1101 179.465C36.0273 179.314 35.9132 179.184 35.7756 179.082C35.638 178.979 35.4801 178.907 35.3125 178.871C35.1448 178.835 34.9714 178.835 34.8039 178.872C33.7999 179.104 33.1119 180.824 33.0359 181.74C33.0359 181.796 33.0359 182.46 33.0639 182.824C32.8799 182.524 32.6999 182.22 32.5039 181.924C31.9439 181.064 31.3479 180.212 30.7559 179.36L30.2199 178.56C30.3519 178.512 31.9239 177.948 32.4759 177.408C33.0279 176.868 33.4599 176.184 33.3679 175.464C33.3495 175.296 33.2963 175.133 33.2116 174.986C33.127 174.84 33.0127 174.712 32.8762 174.612C32.7396 174.512 32.5837 174.441 32.4183 174.405C32.253 174.368 32.0819 174.367 31.9159 174.4C30.9159 174.632 30.2239 176.356 30.1479 177.268C30.1479 177.336 30.1479 178.292 30.1879 178.532C29.7879 177.956 29.3879 177.376 29.0519 176.792C28.5636 176.003 28.128 175.182 27.7479 174.336C27.8119 174.312 29.4519 173.728 30.0199 173.18C30.5079 172.7 30.9999 171.952 30.9119 171.232C30.8986 171.061 30.8489 170.895 30.7661 170.745C30.6833 170.594 30.5692 170.464 30.4316 170.361C30.294 170.259 30.1361 170.187 29.9685 170.151C29.8008 170.115 29.6274 170.115 29.4599 170.152C28.4559 170.384 27.7679 172.104 27.6919 173.02C27.6919 173.08 27.6919 173.82 27.7239 174.152H27.6639C27.3048 173.291 27.0236 172.399 26.8239 171.488C26.7039 170.988 26.6199 170.504 26.5479 170.028C26.8679 169.952 28.3119 169.58 28.8759 169.14C29.4399 168.7 29.9879 168.032 29.9759 167.308C29.9819 167.136 29.9511 166.965 29.8855 166.807C29.8199 166.648 29.721 166.505 29.5955 166.388C29.47 166.271 29.3208 166.182 29.158 166.128C28.9952 166.073 28.8226 166.054 28.6519 166.072C27.6319 166.192 26.7559 167.828 26.5799 168.728C26.5799 168.776 26.5239 169.284 26.4999 169.656C26.4719 169.44 26.4359 169.22 26.4119 169.016C26.3239 168.244 26.2879 167.532 26.2599 166.9C26.2599 166.54 26.2599 166.216 26.2599 165.912C26.5319 165.672 27.6159 164.712 27.9079 164.06C28.1999 163.408 28.3839 162.564 28.0399 161.924C27.9635 161.771 27.8559 161.636 27.7239 161.527C27.5919 161.418 27.4385 161.338 27.2736 161.293C27.1088 161.247 26.9362 161.236 26.7671 161.262C26.598 161.287 26.436 161.348 26.2919 161.44C25.4439 162.016 25.4199 163.868 25.6799 164.752C25.6799 164.828 26.1839 165.98 26.1999 165.952C26.1999 166.244 26.1999 166.56 26.1999 166.9C26.1999 167.536 26.2319 168.248 26.3039 169.028C26.3742 169.866 26.4944 170.7 26.6639 171.524C26.8471 172.448 27.1148 173.353 27.4639 174.228V174.26C27.2719 174.028 26.7199 173.392 26.6639 173.348C25.9839 172.732 24.3119 171.936 23.4199 172.444C23.2719 172.531 23.1444 172.649 23.0458 172.789C22.9472 172.93 22.8799 173.09 22.8485 173.258C22.817 173.427 22.8221 173.6 22.8634 173.767C22.9047 173.934 22.9812 174.089 23.0879 174.224C23.4879 174.816 24.3759 175.024 25.0639 175.048C25.8359 175.068 27.3799 174.412 27.5039 174.36C27.8761 175.245 28.3091 176.103 28.7999 176.928C29.0799 177.412 29.3759 177.892 29.6799 178.364C29.5119 178.168 29.3559 177.996 29.3319 177.964C28.6519 177.348 26.9799 176.552 26.0879 177.06C25.9399 177.147 25.8124 177.265 25.7138 177.405C25.6152 177.546 25.5479 177.706 25.5165 177.874C25.485 178.043 25.4901 178.216 25.5314 178.383C25.5727 178.55 25.6492 178.705 25.7559 178.84C26.1559 179.432 27.0439 179.64 27.7319 179.664C28.4199 179.688 29.7319 179.152 30.1039 179.004C30.2239 179.184 30.3399 179.368 30.4559 179.548C31.0319 180.416 31.6039 181.28 32.1439 182.14C32.3319 182.444 32.5079 182.752 32.6879 183.06C32.5359 182.884 32.4039 182.74 32.3839 182.72C31.7039 182.1 30.0279 181.304 29.1359 181.816C28.987 181.902 28.8585 182.02 28.7591 182.161C28.6598 182.301 28.5918 182.462 28.56 182.631C28.5281 182.8 28.533 182.974 28.5744 183.142C28.6158 183.309 28.6927 183.465 28.7999 183.6C29.1999 184.188 30.0879 184.4 30.7759 184.42C31.4639 184.44 32.6759 183.964 33.0919 183.792Z" fill="#263238"/>
<path opacity="0.3" d="M23.8358 169.932C24.6038 170.164 26.3918 169.912 26.3918 169.908C26.3918 169.904 25.8678 168.784 25.8278 168.708C25.3358 167.932 23.9318 166.708 22.9358 166.98C22.7694 167.024 22.6144 167.103 22.4812 167.212C22.3481 167.321 22.2399 167.457 22.164 167.611C22.0882 167.766 22.0464 167.935 22.0415 168.107C22.0366 168.279 22.0688 168.45 22.1358 168.608C22.3998 169.296 23.1998 169.732 23.8358 169.932Z" fill="#263238"/>
<path opacity="0.3" d="M41.9998 168.168C41.9998 168.168 42.1838 166.94 42.1878 166.86C42.1878 165.944 41.6998 164.16 40.7278 163.824C40.5649 163.77 40.3925 163.752 40.222 163.771C40.0515 163.789 39.887 163.844 39.7396 163.932C39.5921 164.019 39.4651 164.138 39.3672 164.278C39.2693 164.419 39.2026 164.579 39.1718 164.748C39.0078 165.456 39.4158 166.248 39.8558 166.776C40.3718 167.396 41.9998 168.168 41.9998 168.168Z" fill="#263238"/>
<path opacity="0.3" d="M33.0919 183.792C33.2639 184.112 33.4359 184.432 33.5879 184.748C33.6879 184.964 33.7959 185.168 33.8839 185.396C33.9719 185.624 34.0639 185.836 34.1559 186.052C34.3119 186.476 34.4759 186.912 34.6159 187.328C34.7199 187.616 34.8119 187.896 34.9039 188.176C34.7159 187.868 34.3399 187.28 34.3039 187.236C33.7279 186.52 32.1919 185.48 31.2359 185.848C31.078 185.914 30.9357 186.012 30.8184 186.137C30.701 186.261 30.6111 186.409 30.5545 186.57C30.4979 186.732 30.4759 186.903 30.4899 187.074C30.5039 187.244 30.5537 187.41 30.6359 187.56C30.9639 188.208 31.7919 188.548 32.4639 188.672C33.2079 188.804 34.7719 188.416 34.9679 188.364C35.1199 188.828 35.2599 189.28 35.3679 189.708C35.5999 190.468 35.7919 191.168 35.9559 191.784H36.6399C36.4479 191.12 36.2399 190.364 35.9519 189.528C35.7999 189.056 35.6279 188.556 35.4439 188.044C35.9006 187.797 36.3415 187.522 36.7639 187.22C37.3519 187.724 38.7639 188.228 38.9559 188.292C38.8239 188.76 38.6959 189.216 38.5559 189.644C38.3199 190.444 38.0839 191.16 37.8719 191.784H38.5599C38.7439 191.196 38.9599 190.54 39.1439 189.816C39.2759 189.34 39.4079 188.828 39.5439 188.3C39.7399 188.3 41.3479 188.448 42.0599 188.196C42.7079 187.968 43.4679 187.496 43.6879 186.804C43.7494 186.642 43.7753 186.469 43.7638 186.297C43.7523 186.124 43.7036 185.957 43.6212 185.805C43.5388 185.653 43.4245 185.52 43.2862 185.417C43.1479 185.313 42.9888 185.24 42.8199 185.204C41.8159 184.992 40.4679 186.268 40.0199 187.064C39.9919 187.112 39.7599 187.656 39.6199 188C39.6719 187.784 39.7279 187.576 39.7799 187.352C39.8839 186.916 39.9719 186.472 40.0719 185.996C40.1119 185.768 40.1559 185.532 40.1959 185.3C40.2359 185.068 40.2599 184.816 40.2919 184.568C40.3599 184 40.3999 183.424 40.4239 182.84C40.8239 182.928 42.1799 183.24 42.8559 183.1C43.5319 182.96 44.3519 182.624 44.6759 181.972C44.7595 181.822 44.81 181.656 44.8239 181.484C44.8378 181.313 44.8147 181.141 44.7563 180.979C44.6979 180.818 44.6055 180.671 44.4854 180.548C44.3652 180.425 44.2201 180.33 44.0599 180.268C43.0959 179.908 41.5719 180.964 41.0039 181.684C40.9679 181.728 40.6039 182.292 40.4319 182.604C40.4319 182.252 40.4599 181.904 40.4599 181.548C40.4599 180.52 40.4599 179.48 40.4159 178.444V177.492C40.5519 177.524 42.1759 177.92 42.9319 177.772C43.6039 177.644 44.4279 177.296 44.7479 176.644C44.8316 176.494 44.8823 176.328 44.8964 176.157C44.9106 175.986 44.8879 175.814 44.8299 175.653C44.7719 175.491 44.6799 175.344 44.5602 175.221C44.4405 175.098 44.2958 175.002 44.1359 174.94C43.1719 174.58 41.6479 175.636 41.0799 176.356C41.0359 176.412 40.5319 177.22 40.4159 177.432C40.4159 176.736 40.4159 176.04 40.4159 175.352C40.4449 174.426 40.5345 173.502 40.6839 172.588C40.7479 172.588 42.4399 173.02 43.2159 172.872C43.8879 172.744 44.7119 172.396 45.0319 171.744C45.1156 171.594 45.1663 171.428 45.1804 171.257C45.1946 171.086 45.1719 170.914 45.1139 170.753C45.0559 170.591 44.9639 170.444 44.8442 170.321C44.7245 170.198 44.5798 170.102 44.4199 170.04C43.4559 169.68 41.9319 170.736 41.3599 171.456C41.3239 171.504 40.9599 172.12 40.7639 172.416L40.7079 172.396C40.8846 171.479 41.1416 170.58 41.4759 169.708C41.6559 169.228 41.8519 168.776 42.0519 168.344C42.3599 168.452 43.7679 168.94 44.4839 168.884C45.1999 168.828 46.0199 168.572 46.4119 167.964C46.5113 167.824 46.5796 167.665 46.6122 167.496C46.6447 167.328 46.6408 167.154 46.6006 166.987C46.5604 166.821 46.4849 166.664 46.3792 166.529C46.2735 166.394 46.1401 166.283 45.9879 166.204C45.0719 165.74 43.4399 166.604 42.7879 167.272C42.7519 167.308 42.4359 167.708 42.2079 168.004C42.3039 167.808 42.3959 167.604 42.4919 167.424C42.8399 166.728 43.2039 166.116 43.5319 165.576C43.7199 165.268 43.8959 164.996 44.0639 164.74C44.4199 164.692 45.8599 164.476 46.4639 164.104C47.0679 163.732 47.6879 163.12 47.7519 162.396C47.7761 162.225 47.763 162.051 47.7136 161.885C47.6643 161.719 47.5797 161.566 47.4658 161.437C47.3519 161.307 47.2112 161.203 47.0535 161.132C46.8957 161.062 46.7246 161.026 46.5519 161.028C45.5239 161.028 44.4839 162.576 44.2119 163.452C44.1879 163.528 43.9599 164.756 43.9759 164.752H43.9999C43.8319 164.996 43.6559 165.256 43.4719 165.552C43.1319 166.084 42.7519 166.692 42.3879 167.384C41.9831 168.121 41.6225 168.881 41.3079 169.66C40.9509 170.532 40.6725 171.434 40.4759 172.356C40.4759 172.356 40.4759 172.38 40.4759 172.388C40.4479 172.088 40.3359 171.256 40.3199 171.188C40.0959 170.296 39.1199 168.708 38.1119 168.644C37.9405 168.635 37.7692 168.662 37.6095 168.725C37.4497 168.788 37.3053 168.884 37.1859 169.007C37.0664 169.13 36.9748 169.278 36.9172 169.439C36.8596 169.601 36.8373 169.773 36.8519 169.944C36.8799 170.672 37.4839 171.328 38.0519 171.72C38.6839 172.164 40.3319 172.472 40.4519 172.496C40.276 173.438 40.1624 174.391 40.1119 175.348C40.0799 175.904 40.0639 176.468 40.0559 177.032C40.0199 176.772 39.9879 176.544 39.9799 176.512C39.7559 175.62 38.7799 174.032 37.7719 173.968C37.6005 173.959 37.4292 173.986 37.2695 174.049C37.1097 174.112 36.9653 174.208 36.8459 174.331C36.7264 174.454 36.6348 174.602 36.5772 174.763C36.5196 174.925 36.4973 175.097 36.5119 175.268C36.5399 175.996 37.1439 176.652 37.7119 177.044C38.2799 177.436 39.6799 177.732 40.0519 177.804C40.0519 178.02 40.0519 178.236 40.0519 178.452C40.0519 179.492 40.0519 180.528 40.0279 181.548C40.0279 181.904 39.9959 182.26 39.9759 182.612C39.9439 182.38 39.9159 182.188 39.9079 182.16C39.6839 181.268 38.7279 179.68 37.6999 179.616C37.5288 179.607 37.358 179.635 37.1987 179.698C37.0395 179.761 36.8955 179.857 36.7765 179.981C36.6576 180.104 36.5663 180.251 36.5089 180.412C36.4516 180.574 36.4294 180.745 36.4439 180.916C36.4719 181.644 37.0759 182.3 37.6439 182.692C38.2119 183.084 39.4759 183.352 39.9159 183.44C39.8839 183.8 39.8519 184.16 39.8039 184.508C39.7679 184.748 39.7479 184.976 39.6959 185.212C39.6439 185.448 39.6039 185.68 39.5559 185.912C39.4559 186.348 39.3519 186.804 39.2399 187.232C39.1639 187.528 39.0879 187.808 39.0079 188.092C39.0079 187.736 39.0359 187.04 39.0079 186.98C38.9035 186.179 38.5935 185.418 38.1079 184.772C38.0996 184.683 38.0836 184.594 38.0599 184.508C38.021 184.341 37.9467 184.184 37.842 184.048C37.7373 183.912 37.6047 183.8 37.453 183.719C37.3014 183.639 37.1342 183.592 36.9629 183.582C36.7916 183.572 36.62 183.598 36.4599 183.66C35.5079 184.04 35.0879 185.844 35.1479 186.76C35.1479 186.816 35.2559 187.396 35.3279 187.76C35.2519 187.552 35.1839 187.36 35.1039 187.136C34.9479 186.712 34.7799 186.292 34.6039 185.844L34.3519 185.2C34.2639 184.98 34.1399 184.76 34.0319 184.536C33.7759 184.028 33.4879 183.524 33.1879 183.02C33.5599 182.884 34.8679 182.38 35.3599 181.9C35.8519 181.42 36.3439 180.672 36.2559 179.952C36.2426 179.781 36.1929 179.615 36.1101 179.465C36.0273 179.314 35.9132 179.184 35.7756 179.082C35.638 178.979 35.4801 178.907 35.3125 178.871C35.1448 178.835 34.9714 178.835 34.8039 178.872C33.7999 179.104 33.1119 180.824 33.0359 181.74C33.0359 181.796 33.0359 182.46 33.0639 182.824C32.8799 182.524 32.6999 182.22 32.5039 181.924C31.9439 181.064 31.3479 180.212 30.7559 179.36L30.2199 178.56C30.3519 178.512 31.9239 177.948 32.4759 177.408C33.0279 176.868 33.4599 176.184 33.3679 175.464C33.3495 175.296 33.2963 175.133 33.2116 174.986C33.127 174.84 33.0127 174.712 32.8762 174.612C32.7396 174.512 32.5837 174.441 32.4183 174.405C32.253 174.368 32.0819 174.367 31.9159 174.4C30.9159 174.632 30.2239 176.356 30.1479 177.268C30.1479 177.336 30.1479 178.292 30.1879 178.532C29.7879 177.956 29.3879 177.376 29.0519 176.792C28.5636 176.003 28.128 175.182 27.7479 174.336C27.8119 174.312 29.4519 173.728 30.0199 173.18C30.5079 172.7 30.9999 171.952 30.9119 171.232C30.8986 171.061 30.8489 170.895 30.7661 170.745C30.6833 170.594 30.5692 170.464 30.4316 170.361C30.294 170.259 30.1361 170.187 29.9685 170.151C29.8008 170.115 29.6274 170.115 29.4599 170.152C28.4559 170.384 27.7679 172.104 27.6919 173.02C27.6919 173.08 27.6919 173.82 27.7239 174.152H27.6639C27.3048 173.291 27.0236 172.399 26.8239 171.488C26.7039 170.988 26.6199 170.504 26.5479 170.028C26.8679 169.952 28.3119 169.58 28.8759 169.14C29.4399 168.7 29.9879 168.032 29.9759 167.308C29.9819 167.136 29.9511 166.965 29.8855 166.807C29.8199 166.648 29.721 166.505 29.5955 166.388C29.47 166.271 29.3208 166.182 29.158 166.128C28.9952 166.073 28.8226 166.054 28.6519 166.072C27.6319 166.192 26.7559 167.828 26.5799 168.728C26.5799 168.776 26.5239 169.284 26.4999 169.656C26.4719 169.44 26.4359 169.22 26.4119 169.016C26.3239 168.244 26.2879 167.532 26.2599 166.9C26.2599 166.54 26.2599 166.216 26.2599 165.912C26.5319 165.672 27.6159 164.712 27.9079 164.06C28.1999 163.408 28.3839 162.564 28.0399 161.924C27.9635 161.771 27.8559 161.636 27.7239 161.527C27.5919 161.418 27.4385 161.338 27.2736 161.293C27.1088 161.247 26.9362 161.236 26.7671 161.262C26.598 161.287 26.436 161.348 26.2919 161.44C25.4439 162.016 25.4199 163.868 25.6799 164.752C25.6799 164.828 26.1839 165.98 26.1999 165.952C26.1999 166.244 26.1999 166.56 26.1999 166.9C26.1999 167.536 26.2319 168.248 26.3039 169.028C26.3742 169.866 26.4944 170.7 26.6639 171.524C26.8471 172.448 27.1148 173.353 27.4639 174.228V174.26C27.2719 174.028 26.7199 173.392 26.6639 173.348C25.9839 172.732 24.3119 171.936 23.4199 172.444C23.2719 172.531 23.1444 172.649 23.0458 172.789C22.9472 172.93 22.8799 173.09 22.8485 173.258C22.817 173.427 22.8221 173.6 22.8634 173.767C22.9047 173.934 22.9812 174.089 23.0879 174.224C23.4879 174.816 24.3759 175.024 25.0639 175.048C25.8359 175.068 27.3799 174.412 27.5039 174.36C27.8761 175.245 28.3091 176.103 28.7999 176.928C29.0799 177.412 29.3759 177.892 29.6799 178.364C29.5119 178.168 29.3559 177.996 29.3319 177.964C28.6519 177.348 26.9799 176.552 26.0879 177.06C25.9399 177.147 25.8124 177.265 25.7138 177.405C25.6152 177.546 25.5479 177.706 25.5165 177.874C25.485 178.043 25.4901 178.216 25.5314 178.383C25.5727 178.55 25.6492 178.705 25.7559 178.84C26.1559 179.432 27.0439 179.64 27.7319 179.664C28.4199 179.688 29.7319 179.152 30.1039 179.004C30.2239 179.184 30.3399 179.368 30.4559 179.548C31.0319 180.416 31.6039 181.28 32.1439 182.14C32.3319 182.444 32.5079 182.752 32.6879 183.06C32.5359 182.884 32.4039 182.74 32.3839 182.72C31.7039 182.1 30.0279 181.304 29.1359 181.816C28.987 181.902 28.8585 182.02 28.7591 182.161C28.6598 182.301 28.5918 182.462 28.56 182.631C28.5281 182.8 28.533 182.974 28.5744 183.142C28.6158 183.309 28.6927 183.465 28.7999 183.6C29.1999 184.188 30.0879 184.4 30.7759 184.42C31.4639 184.44 32.6759 183.964 33.0919 183.792Z" fill="#263238"/>
<g opacity="0.2">
<path d="M132.272 76.6329C132.356 76.6729 133.172 70.6329 133.18 70.2329C133.268 65.7569 130.812 57.0569 126.072 55.4329C122.66 54.2569 119.272 56.5609 118.472 59.9329C117.672 63.3809 119.672 67.2489 121.804 69.8209C124.316 72.8529 132.268 76.6289 132.272 76.6329Z" fill="black"/>
<path d="M43.6723 85.2C47.4323 86.336 56.1443 85.104 56.1523 85.1C56.2403 85.1 53.5923 79.604 53.3883 79.276C50.9883 75.496 44.1443 69.596 39.2883 70.848C35.7923 71.768 34.2403 75.56 35.4403 78.8C36.6643 82.128 40.4723 84.248 43.6723 85.2Z" fill="black"/>
<path d="M88.7999 152.8C89.6399 154.352 90.4799 155.908 91.2239 157.452C91.7039 158.52 92.2439 159.512 92.6679 160.612L93.9879 163.812C94.7519 165.88 95.5519 168.004 96.2439 170.04C96.7359 171.452 97.1799 172.804 97.6319 174.168C96.7279 172.68 94.8959 169.808 94.7159 169.584C91.9159 166.1 84.4199 161.028 79.7439 162.828C76.3759 164.128 75.2679 168.072 76.8319 171.164C78.4319 174.32 82.4599 175.992 85.7479 176.584C89.3719 177.236 96.9959 175.34 97.9439 175.096C98.6839 177.356 99.3799 179.556 100.004 181.644C101.124 185.356 102.068 188.756 102.864 191.772H106.192C105.272 188.536 104.164 184.836 102.84 180.76C102.1 178.464 101.24 176.028 100.376 173.532C102.595 172.327 104.742 170.991 106.804 169.532C109.68 171.988 116.592 174.444 117.484 174.752C116.856 177.044 116.224 179.264 115.592 181.352C114.428 185.232 113.292 188.732 112.252 191.784H115.612C116.508 188.916 117.468 185.712 118.444 182.184C119.092 179.86 119.74 177.364 120.38 174.796C121.34 174.88 129.18 175.528 132.66 174.296C135.812 173.18 139.516 170.88 140.584 167.496C141.628 164.192 139.9 160.48 136.364 159.74C131.46 158.716 124.892 164.94 122.68 168.824C122.548 169.052 121.408 171.7 120.72 173.384C120.976 172.332 121.236 171.316 121.484 170.228C121.992 168.088 122.44 165.936 122.924 163.62L123.52 160.208C123.74 159.076 123.832 157.848 123.996 156.656C124.316 153.884 124.508 151.056 124.636 148.212C126.512 148.656 133.2 150.124 136.5 149.496C139.8 148.868 143.792 147.16 145.36 143.988C146.896 140.88 145.76 136.948 142.368 135.68C137.672 133.928 130.24 139.076 127.464 142.584C127.288 142.804 125.58 145.548 124.664 147.072C124.728 145.36 124.804 143.648 124.812 141.916C124.836 136.904 124.708 131.836 124.6 126.776C124.564 125.228 124.552 123.684 124.532 122.136C125.196 122.3 133.108 124.22 136.804 123.516C140.088 122.892 144.096 121.18 145.664 118.008C147.196 114.9 146.064 110.968 142.668 109.704C137.972 107.948 130.544 113.096 127.764 116.608C127.556 116.872 125.1 120.82 124.524 121.856C124.48 118.452 124.468 115.056 124.592 111.712C124.735 107.193 125.172 102.687 125.9 98.2244C126.208 98.3044 134.456 100.344 138.24 99.6244C141.524 98.9964 145.536 97.2844 147.1 94.1124C148.636 91.0084 147.5 87.0724 144.108 85.8084C139.424 84.0564 132 89.2004 129.2 92.7164C129.016 92.9444 127.144 95.9524 126.288 97.4044L126.02 97.3044C126.871 92.8335 128.121 88.4479 129.756 84.2004C130.624 81.8524 131.584 79.6524 132.556 77.5364C134.052 78.0724 140.92 80.4564 144.396 80.1804C147.732 79.9204 151.904 78.6604 153.812 75.6804C155.676 72.7604 154.968 68.7244 151.744 67.0964C147.272 64.8364 139.32 69.1364 136.176 72.3204C136.004 72.4924 134.46 74.4484 133.352 75.8844C133.812 74.9364 134.268 73.9484 134.724 73.0484C136.436 69.6644 138.208 66.6724 139.8 64.0364C140.72 62.5444 141.576 61.2124 142.396 59.9724C144.14 59.7324 151.156 58.6844 154.064 56.8724C156.9 55.1044 160.024 52.0724 160.344 48.5364C160.652 45.0884 158.168 41.8324 154.556 41.8724C149.544 41.9284 144.468 49.4084 143.144 53.6844C143.028 54.0524 141.9 60.0364 141.992 60.0284H142.096C141.296 61.2044 140.432 62.4724 139.528 63.8764C137.872 66.4844 136.028 69.4484 134.24 72.8084C132.271 76.4065 130.515 80.1168 128.98 83.9204C127.238 88.1711 125.878 92.5685 124.916 97.0604C124.916 97.1124 124.916 97.1684 124.892 97.2244C124.744 95.7604 124.196 91.6924 124.116 91.3844C123.02 87.0444 118.352 79.3004 113.352 78.9844C109.752 78.7524 107.088 81.8724 107.216 85.3324C107.344 88.8684 110.3 92.0724 113.04 93.9924C116.128 96.1524 124.168 97.6484 124.808 97.7644C123.942 102.359 123.385 107.007 123.14 111.676C122.984 114.392 122.908 117.136 122.868 119.888C122.7 118.632 122.54 117.488 122.5 117.352C121.404 113.012 116.736 105.268 111.732 104.952C108.132 104.716 105.472 107.836 105.6 111.3C105.728 114.836 108.684 118.036 111.424 119.956C114.164 121.876 121.024 123.312 122.84 123.66C122.84 124.716 122.82 125.772 122.82 126.828C122.82 131.892 122.82 136.948 122.704 141.908C122.656 143.656 122.548 145.376 122.444 147.108C122.292 145.992 122.156 145.052 122.12 144.908C121.024 140.568 116.356 132.828 111.356 132.508C107.756 132.276 105.092 135.392 105.22 138.856C105.348 142.392 108.308 145.596 111.044 147.512C113.696 149.368 119.988 150.712 122.136 151.156C121.98 152.912 121.824 154.676 121.588 156.356C121.404 157.512 121.304 158.636 121.052 159.788C120.8 160.94 120.608 162.064 120.388 163.184C119.884 165.328 119.376 167.544 118.832 169.624C118.464 171.072 118.088 172.448 117.716 173.832C117.78 172.092 117.84 168.688 117.812 168.4C117.528 165.44 115.908 160.764 113.412 157.64C113.374 157.202 113.295 156.768 113.176 156.344C112.228 153.012 108.736 150.868 105.38 152.204C100.72 154.056 98.6759 162.864 98.9799 167.328C98.9799 167.592 99.5079 170.428 99.8599 172.216C99.4919 171.196 99.1479 170.216 98.7599 169.16C97.9999 167.096 97.1839 165.052 96.3159 162.856C95.8559 161.808 95.3959 160.752 94.9279 159.68C94.4599 158.608 93.8839 157.54 93.3639 156.456C92.1039 153.968 90.7079 151.508 89.2439 149.06C91.0519 148.392 97.4399 145.928 99.8439 143.584C102.248 141.24 104.644 137.612 104.196 134.1C103.764 130.664 100.636 128.016 97.1159 128.828C92.2319 129.952 88.8759 138.348 88.4959 142.808C88.4719 143.084 88.5559 146.316 88.6399 148.088C87.7479 146.624 86.8639 145.16 85.9159 143.708C83.1759 139.516 80.2679 135.36 77.3879 131.2C76.5079 129.924 75.6439 128.644 74.7719 127.368C75.4159 127.136 83.0759 124.372 85.7679 121.748C88.1679 119.412 90.5679 115.776 90.1199 112.264C89.6879 108.828 86.5599 106.18 83.0399 106.992C78.1559 108.116 74.7999 116.508 74.4199 120.968C74.3879 121.304 74.5199 125.956 74.6119 127.136C72.6959 124.336 70.8159 121.496 69.0719 118.64C66.699 114.791 64.5773 110.792 62.7199 106.668C63.0239 106.56 71.0279 103.712 73.7879 101.024C76.1879 98.6924 78.5879 95.0524 78.1359 91.5404C77.7039 88.1044 74.5759 85.4564 71.0599 86.2684C66.1719 87.3924 62.8159 95.7884 62.4359 100.244C62.4119 100.54 62.5079 104.084 62.5919 105.764L62.3159 105.828C60.5687 101.617 59.2045 97.2567 58.2399 92.8004C57.6679 90.3644 57.2559 88.0004 56.9079 85.6924C58.4559 85.3124 65.4999 83.5084 68.2479 81.3644C70.8839 79.3044 73.6679 75.9524 73.6159 72.4164C73.5599 68.9524 70.7439 65.9764 67.1559 66.3964C62.1799 66.9764 57.9199 74.9524 57.0519 79.3444C57.0039 79.5804 56.7919 82.0644 56.6519 83.8724C56.5119 82.8284 56.3479 81.7524 56.2519 80.7484C55.8119 76.9844 55.6399 73.5084 55.5119 70.4324C55.4559 68.6804 55.4359 67.0964 55.4359 65.6324C56.7599 64.4724 62.0319 59.7244 63.4599 56.6084C64.8479 53.5684 65.7759 49.3084 64.0959 46.2084C62.4519 43.1604 58.5839 41.8084 55.5919 43.8404C51.4439 46.6404 51.3399 55.6924 52.5919 59.9924C52.6999 60.3604 55.0599 65.9924 55.1319 65.9164L55.2119 65.8444C55.1839 67.2724 55.1679 68.8044 55.1879 70.4764C55.2479 73.5604 55.3439 77.0524 55.7039 80.8404C56.0483 84.9269 56.6306 88.9898 57.4479 93.0084C58.3392 97.515 59.6323 101.933 61.3119 106.208C61.3319 106.26 61.3599 106.308 61.3799 106.36C60.4479 105.224 57.7439 102.132 57.5119 101.916C54.2039 98.9004 46.0359 95.0204 41.6879 97.5164C38.5519 99.3124 38.0559 103.376 40.0879 106.196C42.1199 109.016 46.3799 110.116 49.7239 110.196C53.4919 110.296 61.0199 107.108 61.6159 106.852C63.4308 111.161 65.5314 115.344 67.9039 119.372C69.2719 121.728 70.7039 124.06 72.2039 126.376C71.3719 125.42 70.6039 124.568 70.4999 124.464C67.1919 121.444 59.0239 117.564 54.6759 120.064C51.5399 121.856 51.0439 125.924 53.0759 128.74C55.1359 131.62 59.3679 132.66 62.7119 132.74C66.0559 132.82 72.5759 130.24 74.2799 129.54C74.8559 130.424 75.4239 131.312 76.0079 132.192C78.8079 136.42 81.6079 140.628 84.2279 144.836C85.1559 146.32 86.0119 147.816 86.8759 149.308C86.1319 148.456 85.4999 147.748 85.3919 147.652C82.0839 144.636 73.9199 140.752 69.5719 143.252C66.4359 145.044 65.9399 149.112 67.9719 151.928C70.0319 154.808 74.2639 155.848 77.6039 155.928C80.7999 156 86.7999 153.64 88.7999 152.8Z" fill="black"/>
<path opacity="0.3" d="M43.6723 85.2C47.4323 86.336 56.1443 85.104 56.1523 85.1C56.2403 85.1 53.5923 79.604 53.3883 79.276C50.9883 75.496 44.1443 69.596 39.2883 70.848C35.7923 71.768 34.2403 75.56 35.4403 78.8C36.6643 82.128 40.4723 84.248 43.6723 85.2Z" fill="black"/>
<path opacity="0.3" d="M132.272 76.6329C132.356 76.6729 133.172 70.6329 133.18 70.2329C133.268 65.7569 130.812 57.0569 126.072 55.4329C122.66 54.2569 119.272 56.5609 118.472 59.9329C117.672 63.3809 119.672 67.2489 121.804 69.8209C124.316 72.8529 132.268 76.6289 132.272 76.6329Z" fill="black"/>
<path opacity="0.3" d="M88.7999 152.8C89.6399 154.352 90.4799 155.908 91.2239 157.452C91.7039 158.52 92.2439 159.512 92.6679 160.612L93.9879 163.812C94.7519 165.88 95.5519 168.004 96.2439 170.04C96.7359 171.452 97.1799 172.804 97.6319 174.168C96.7279 172.68 94.8959 169.808 94.7159 169.584C91.9159 166.1 84.4199 161.028 79.7439 162.828C76.3759 164.128 75.2679 168.072 76.8319 171.164C78.4319 174.32 82.4599 175.992 85.7479 176.584C89.3719 177.236 96.9959 175.34 97.9439 175.096C98.6839 177.356 99.3799 179.556 100.004 181.644C101.124 185.356 102.068 188.756 102.864 191.772H106.192C105.272 188.536 104.164 184.836 102.84 180.76C102.1 178.464 101.24 176.028 100.376 173.532C102.595 172.327 104.742 170.991 106.804 169.532C109.68 171.988 116.592 174.444 117.484 174.752C116.856 177.044 116.224 179.264 115.592 181.352C114.428 185.232 113.292 188.732 112.252 191.784H115.612C116.508 188.916 117.468 185.712 118.444 182.184C119.092 179.86 119.74 177.364 120.38 174.796C121.34 174.88 129.18 175.528 132.66 174.296C135.812 173.18 139.516 170.88 140.584 167.496C141.628 164.192 139.9 160.48 136.364 159.74C131.46 158.716 124.892 164.94 122.68 168.824C122.548 169.052 121.408 171.7 120.72 173.384C120.976 172.332 121.236 171.316 121.484 170.228C121.992 168.088 122.44 165.936 122.924 163.62L123.52 160.208C123.74 159.076 123.832 157.848 123.996 156.656C124.316 153.884 124.508 151.056 124.636 148.212C126.512 148.656 133.2 150.124 136.5 149.496C139.8 148.868 143.792 147.16 145.36 143.988C146.896 140.88 145.76 136.948 142.368 135.68C137.672 133.928 130.24 139.076 127.464 142.584C127.288 142.804 125.58 145.548 124.664 147.072C124.728 145.36 124.804 143.648 124.812 141.916C124.836 136.904 124.708 131.836 124.6 126.776C124.564 125.228 124.552 123.684 124.532 122.136C125.196 122.3 133.108 124.22 136.804 123.516C140.088 122.892 144.096 121.18 145.664 118.008C147.196 114.9 146.064 110.968 142.668 109.704C137.972 107.948 130.544 113.096 127.764 116.608C127.556 116.872 125.1 120.82 124.524 121.856C124.48 118.452 124.468 115.056 124.592 111.712C124.735 107.193 125.172 102.687 125.9 98.2244C126.208 98.3044 134.456 100.344 138.24 99.6244C141.524 98.9964 145.536 97.2844 147.1 94.1124C148.636 91.0084 147.5 87.0724 144.108 85.8084C139.424 84.0564 132 89.2004 129.2 92.7164C129.016 92.9444 127.144 95.9524 126.288 97.4044L126.02 97.3044C126.871 92.8335 128.121 88.4479 129.756 84.2004C130.624 81.8524 131.584 79.6524 132.556 77.5364C134.052 78.0724 140.92 80.4564 144.396 80.1804C147.732 79.9204 151.904 78.6604 153.812 75.6804C155.676 72.7604 154.968 68.7244 151.744 67.0964C147.272 64.8364 139.32 69.1364 136.176 72.3204C136.004 72.4924 134.46 74.4484 133.352 75.8844C133.812 74.9364 134.268 73.9484 134.724 73.0484C136.436 69.6644 138.208 66.6724 139.8 64.0364C140.72 62.5444 141.576 61.2124 142.396 59.9724C144.14 59.7324 151.156 58.6844 154.064 56.8724C156.9 55.1044 160.024 52.0724 160.344 48.5364C160.652 45.0884 158.168 41.8324 154.556 41.8724C149.544 41.9284 144.468 49.4084 143.144 53.6844C143.028 54.0524 141.9 60.0364 141.992 60.0284H142.096C141.296 61.2044 140.432 62.4724 139.528 63.8764C137.872 66.4844 136.028 69.4484 134.24 72.8084C132.271 76.4065 130.515 80.1168 128.98 83.9204C127.238 88.1711 125.878 92.5685 124.916 97.0604C124.916 97.1124 124.916 97.1684 124.892 97.2244C124.744 95.7604 124.196 91.6924 124.116 91.3844C123.02 87.0444 118.352 79.3004 113.352 78.9844C109.752 78.7524 107.088 81.8724 107.216 85.3324C107.344 88.8684 110.3 92.0724 113.04 93.9924C116.128 96.1524 124.168 97.6484 124.808 97.7644C123.942 102.359 123.385 107.007 123.14 111.676C122.984 114.392 122.908 117.136 122.868 119.888C122.7 118.632 122.54 117.488 122.5 117.352C121.404 113.012 116.736 105.268 111.732 104.952C108.132 104.716 105.472 107.836 105.6 111.3C105.728 114.836 108.684 118.036 111.424 119.956C114.164 121.876 121.024 123.312 122.84 123.66C122.84 124.716 122.82 125.772 122.82 126.828C122.82 131.892 122.82 136.948 122.704 141.908C122.656 143.656 122.548 145.376 122.444 147.108C122.292 145.992 122.156 145.052 122.12 144.908C121.024 140.568 116.356 132.828 111.356 132.508C107.756 132.276 105.092 135.392 105.22 138.856C105.348 142.392 108.308 145.596 111.044 147.512C113.696 149.368 119.988 150.712 122.136 151.156C121.98 152.912 121.824 154.676 121.588 156.356C121.404 157.512 121.304 158.636 121.052 159.788C120.8 160.94 120.608 162.064 120.388 163.184C119.884 165.328 119.376 167.544 118.832 169.624C118.464 171.072 118.088 172.448 117.716 173.832C117.78 172.092 117.84 168.688 117.812 168.4C117.528 165.44 115.908 160.764 113.412 157.64C113.374 157.202 113.295 156.768 113.176 156.344C112.228 153.012 108.736 150.868 105.38 152.204C100.72 154.056 98.6759 162.864 98.9799 167.328C98.9799 167.592 99.5079 170.428 99.8599 172.216C99.4919 171.196 99.1479 170.216 98.7599 169.16C97.9999 167.096 97.1839 165.052 96.3159 162.856C95.8559 161.808 95.3959 160.752 94.9279 159.68C94.4599 158.608 93.8839 157.54 93.3639 156.456C92.1039 153.968 90.7079 151.508 89.2439 149.06C91.0519 148.392 97.4399 145.928 99.8439 143.584C102.248 141.24 104.644 137.612 104.196 134.1C103.764 130.664 100.636 128.016 97.1159 128.828C92.2319 129.952 88.8759 138.348 88.4959 142.808C88.4719 143.084 88.5559 146.316 88.6399 148.088C87.7479 146.624 86.8639 145.16 85.9159 143.708C83.1759 139.516 80.2679 135.36 77.3879 131.2C76.5079 129.924 75.6439 128.644 74.7719 127.368C75.4159 127.136 83.0759 124.372 85.7679 121.748C88.1679 119.412 90.5679 115.776 90.1199 112.264C89.6879 108.828 86.5599 106.18 83.0399 106.992C78.1559 108.116 74.7999 116.508 74.4199 120.968C74.3879 121.304 74.5199 125.956 74.6119 127.136C72.6959 124.336 70.8159 121.496 69.0719 118.64C66.699 114.791 64.5773 110.792 62.7199 106.668C63.0239 106.56 71.0279 103.712 73.7879 101.024C76.1879 98.6924 78.5879 95.0524 78.1359 91.5404C77.7039 88.1044 74.5759 85.4564 71.0599 86.2684C66.1719 87.3924 62.8159 95.7884 62.4359 100.244C62.4119 100.54 62.5079 104.084 62.5919 105.764L62.3159 105.828C60.5687 101.617 59.2045 97.2567 58.2399 92.8004C57.6679 90.3644 57.2559 88.0004 56.9079 85.6924C58.4559 85.3124 65.4999 83.5084 68.2479 81.3644C70.8839 79.3044 73.6679 75.9524 73.6159 72.4164C73.5599 68.9524 70.7439 65.9764 67.1559 66.3964C62.1799 66.9764 57.9199 74.9524 57.0519 79.3444C57.0039 79.5804 56.7919 82.0644 56.6519 83.8724C56.5119 82.8284 56.3479 81.7524 56.2519 80.7484C55.8119 76.9844 55.6399 73.5084 55.5119 70.4324C55.4559 68.6804 55.4359 67.0964 55.4359 65.6324C56.7599 64.4724 62.0319 59.7244 63.4599 56.6084C64.8479 53.5684 65.7759 49.3084 64.0959 46.2084C62.4519 43.1604 58.5839 41.8084 55.5919 43.8404C51.4439 46.6404 51.3399 55.6924 52.5919 59.9924C52.6999 60.3604 55.0599 65.9924 55.1319 65.9164L55.2119 65.8444C55.1839 67.2724 55.1679 68.8044 55.1879 70.4764C55.2479 73.5604 55.3439 77.0524 55.7039 80.8404C56.0483 84.9269 56.6306 88.9898 57.4479 93.0084C58.3392 97.515 59.6323 101.933 61.3119 106.208C61.3319 106.26 61.3599 106.308 61.3799 106.36C60.4479 105.224 57.7439 102.132 57.5119 101.916C54.2039 98.9004 46.0359 95.0204 41.6879 97.5164C38.5519 99.3124 38.0559 103.376 40.0879 106.196C42.1199 109.016 46.3799 110.116 49.7239 110.196C53.4919 110.296 61.0199 107.108 61.6159 106.852C63.4308 111.161 65.5314 115.344 67.9039 119.372C69.2719 121.728 70.7039 124.06 72.2039 126.376C71.3719 125.42 70.6039 124.568 70.4999 124.464C67.1919 121.444 59.0239 117.564 54.6759 120.064C51.5399 121.856 51.0439 125.924 53.0759 128.74C55.1359 131.62 59.3679 132.66 62.7119 132.74C66.0559 132.82 72.5759 130.24 74.2799 129.54C74.8559 130.424 75.4239 131.312 76.0079 132.192C78.8079 136.42 81.6079 140.628 84.2279 144.836C85.1559 146.32 86.0119 147.816 86.8759 149.308C86.1319 148.456 85.4999 147.748 85.3919 147.652C82.0839 144.636 73.9199 140.752 69.5719 143.252C66.4359 145.044 65.9399 149.112 67.9719 151.928C70.0319 154.808 74.2639 155.848 77.6039 155.928C80.7999 156 86.7999 153.64 88.7999 152.8Z" fill="black"/>
</g>
<path d="M47.9235 20.1281C47.9235 20.1281 45.9555 15.0641 38.9275 14.5041C31.8995 13.9441 31.0555 21.5321 29.6515 22.6561C28.2475 23.7801 25.4315 20.6881 22.6195 21.8121C20.9133 22.5221 19.5173 23.8188 18.6835 25.4681C18.6835 25.4681 16.1555 24.3441 14.4675 24.6241C12.7795 24.9041 10.8115 27.4241 10.8115 27.4241H58.3275C58.3275 27.4241 58.3275 22.6241 54.9555 20.9561C51.5835 19.2881 50.1755 22.9281 49.3315 22.6441C48.4875 22.3601 47.9235 20.1281 47.9235 20.1281Z" stroke="#263238" stroke-miterlimit="10"/>
<path d="M184.203 57.4325C184.203 57.4325 182.531 53.1285 176.551 52.6325C170.571 52.1365 169.855 58.6285 168.659 59.6005C167.463 60.5725 165.059 57.9245 162.679 58.8805C161.227 59.485 160.04 60.5888 159.331 61.9925C159.331 61.9925 157.179 61.0365 155.731 61.2725C154.283 61.5085 152.623 63.6725 152.623 63.6725H193.023C193.023 63.6725 193.023 59.6085 190.155 58.1725C187.287 56.7365 186.087 59.8485 185.355 59.6085C184.623 59.3685 184.203 57.4325 184.203 57.4325Z" stroke="#263238" stroke-miterlimit="10"/>
<path d="M51.0675 136.432C51.0675 136.432 48.7115 130.368 40.2875 129.696C31.8635 129.024 30.8555 138.116 29.1715 139.464C27.4875 140.812 24.1195 137.108 20.7515 138.456C18.7068 139.304 17.0337 140.856 16.0355 142.832C16.0355 142.832 13.0035 141.488 10.9795 141.824C8.95552 142.16 6.60352 145.2 6.60352 145.2H63.5315C63.5315 145.2 63.5315 139.472 59.4915 137.452C55.4515 135.432 53.7635 139.808 52.7555 139.472C51.7475 139.136 51.0675 136.432 51.0675 136.432Z" stroke="#263238" stroke-miterlimit="10"/>
<path d="M173.324 118.42C183.764 118.42 192.228 109.957 192.228 99.5163C192.228 89.0759 183.764 80.6123 173.324 80.6123C162.884 80.6123 154.42 89.0759 154.42 99.5163C154.42 109.957 162.884 118.42 173.324 118.42Z" stroke="#263238" stroke-miterlimit="10"/>
<path d="M173.324 118.42C179.326 118.42 184.192 109.957 184.192 99.5163C184.192 89.0759 179.326 80.6123 173.324 80.6123C167.322 80.6123 162.456 89.0759 162.456 99.5163C162.456 109.957 167.322 118.42 173.324 118.42Z" stroke="#263238" stroke-miterlimit="10"/>
<path d="M173.324 80.6123V118.42" stroke="#263238" stroke-miterlimit="10"/>
<path d="M162.228 84.2881H184.304" stroke="#263238" stroke-miterlimit="10"/>
<path d="M162.228 114.969H184.304" stroke="#263238" stroke-miterlimit="10"/>
<path d="M155.868 91.832H190.664" stroke="#263238" stroke-miterlimit="10"/>
<path d="M155.868 106.924H190.664" stroke="#263238" stroke-miterlimit="10"/>
<path d="M154.496 99.3799H192.036" stroke="#263238" stroke-miterlimit="10"/>
<path d="M169.428 15.3965H125.148C123.609 15.3965 122.36 16.6447 122.36 18.1845V23.1045C122.36 24.6443 123.609 25.8925 125.148 25.8925H169.428C170.968 25.8925 172.216 24.6443 172.216 23.1045V18.1845C172.216 16.6447 170.968 15.3965 169.428 15.3965Z" stroke="#263238" stroke-miterlimit="10"/>
<path d="M160.061 15.3604V26.0963" stroke="#263238" stroke-miterlimit="10"/>
<path d="M171.06 23.6566L168.2 21.5086C168.593 20.7446 168.686 19.8612 168.46 19.0324C168.234 18.2037 167.705 17.4897 166.979 17.0312C166.252 16.5727 165.38 16.403 164.535 16.5556C163.689 16.7081 162.932 17.1718 162.411 17.8553C161.891 18.5388 161.645 19.3924 161.723 20.248C161.801 21.1035 162.196 21.8989 162.831 22.4774C163.467 23.0558 164.295 23.3753 165.154 23.373C166.014 23.3706 166.841 23.0465 167.472 22.4646L170.341 24.6166C170.445 24.694 170.571 24.736 170.7 24.7366C170.826 24.7366 170.949 24.697 171.051 24.6233C171.153 24.5497 171.23 24.4458 171.27 24.3263C171.31 24.2069 171.311 24.0779 171.273 23.9577C171.236 23.8375 171.161 23.7321 171.06 23.6566ZM165.165 22.1726C164.727 22.1734 164.299 22.0443 163.934 21.8017C163.57 21.5592 163.286 21.214 163.118 20.8099C162.95 20.4057 162.906 19.9609 162.991 19.5315C163.075 19.1022 163.286 18.7076 163.595 18.3979C163.904 18.0881 164.298 17.8771 164.727 17.7914C165.157 17.7057 165.602 17.7493 166.006 17.9166C166.41 18.0839 166.756 18.3674 166.999 18.7313C167.243 19.0951 167.372 19.5229 167.372 19.9606C167.371 20.5462 167.139 21.1076 166.725 21.5221C166.311 21.9366 165.75 22.1705 165.165 22.1726Z" stroke="#263238" stroke-miterlimit="10"/>
<path d="M42.8 64.3359L31.46 55.8439C33.0061 52.8281 33.3665 49.3426 32.4701 46.0742C31.5738 42.8059 29.4857 39.9918 26.6175 38.1867C23.7493 36.3815 20.3089 35.7161 16.9744 36.3218C13.6399 36.9274 10.6533 38.76 8.60297 41.4585C6.5527 44.157 5.58755 47.5256 5.89776 50.9004C6.20796 54.2752 7.77101 57.4114 10.2789 59.6909C12.7867 61.9704 16.0574 63.2279 19.4464 63.2155C22.8354 63.2031 26.0969 61.9217 28.588 59.6239L39.932 68.1319C40.1799 68.3346 40.4662 68.4851 40.7737 68.5743C41.0813 68.6636 41.4037 68.6897 41.7216 68.6512C42.0395 68.6127 42.3463 68.5103 42.6237 68.3502C42.901 68.1902 43.1431 67.9757 43.3355 67.7196C43.5278 67.4636 43.6664 67.1714 43.743 66.8604C43.8195 66.5495 43.8324 66.2263 43.7809 65.9102C43.7294 65.5942 43.6145 65.2918 43.4432 65.0213C43.2719 64.7507 43.0477 64.5176 42.784 64.3359H42.8ZM19.452 58.4679C17.7206 58.4687 16.028 57.956 14.5881 56.9946C13.1482 56.0332 12.0259 54.6664 11.3629 53.067C10.7 51.4676 10.5264 49.7076 10.8639 48.0095C11.2015 46.3114 12.0351 44.7515 13.2594 43.5273C14.4836 42.3031 16.0434 41.4695 17.7415 41.1319C19.4396 40.7943 21.1997 40.968 22.7991 41.6309C24.3984 42.2938 25.7653 43.4162 26.7267 44.8561C27.688 46.2959 28.2008 47.9886 28.2 49.7199C28.1968 52.0391 27.2741 54.2623 25.6342 55.9022C23.9944 57.5421 21.7711 58.4647 19.452 58.4679Z" stroke="#263238" stroke-miterlimit="10"/>
<path d="M98.7687 77.7002C77.1088 77.7002 58.7288 89.9682 52.2248 106.984C52.1666 107.14 52.1601 107.311 52.2061 107.47C52.2522 107.63 52.3485 107.771 52.4808 107.872L70.6928 121.872C70.8279 121.974 70.9918 122.03 71.1607 122.032H74.0808C74.1842 122.032 74.2865 122.01 74.3816 121.97C74.4766 121.929 74.5625 121.869 74.6342 121.795C74.7058 121.72 74.7617 121.632 74.7986 121.535C74.8354 121.439 74.8525 121.336 74.8488 121.232C74.8488 121.016 74.8488 120.8 74.8488 120.584C74.8488 109.032 85.5607 99.6642 98.7808 99.6642C112.001 99.6642 122.713 109.032 122.713 120.584C122.713 132.136 112.001 141.496 98.7687 141.496C96.7366 141.496 94.7108 141.269 92.7288 140.82C92.5466 140.777 92.36 140.756 92.1727 140.756C91.7577 140.757 91.3492 140.859 90.982 141.053C90.6149 141.246 90.2999 141.525 90.0641 141.867C89.8283 142.208 89.6787 142.602 89.6279 143.014C89.5772 143.426 89.6269 143.844 89.7727 144.232L92.4328 151.28V167.432H121.669V160.752C121.666 160.097 121.843 159.455 122.182 158.894C122.521 158.334 123.008 157.878 123.589 157.576C138.097 150.124 147.837 136.348 147.837 120.58C147.829 96.8962 125.865 77.7002 98.7687 77.7002Z" fill="#263238" stroke="#263238" stroke-miterlimit="10"/>
<path d="M121.661 170.596H92.4248V191.788H121.661V170.596Z" fill="#263238" stroke="#263238" stroke-miterlimit="10"/>
<path d="M143.828 120.58C143.828 96.8962 121.864 77.7002 94.7684 77.7002C73.1284 77.7002 54.7684 89.9402 48.2444 106.932C48.1863 107.1 48.1854 107.282 48.2419 107.449C48.2984 107.617 48.409 107.762 48.5564 107.86L69.6524 121.244C69.7694 121.322 69.9054 121.367 70.0458 121.373C70.1861 121.379 70.3256 121.347 70.4491 121.28C70.5725 121.213 70.6754 121.113 70.7464 120.992C70.8175 120.871 70.8542 120.733 70.8524 120.592C70.8524 109.04 81.5684 99.6722 94.7844 99.6722C108 99.6722 118.716 109.04 118.716 120.592C118.716 132.144 108 141.496 94.7684 141.496C93.6305 141.497 92.4936 141.426 91.3644 141.284C91.0018 141.236 90.633 141.265 90.2828 141.371C89.9326 141.477 89.6089 141.656 89.3336 141.897C89.0582 142.138 88.8375 142.435 88.6863 142.768C88.535 143.101 88.4566 143.462 88.4564 143.828V151.28H88.4244V167.432H117.66V160.752C117.658 160.098 117.836 159.455 118.175 158.895C118.514 158.335 119 157.879 119.58 157.576C134.088 150.124 143.828 136.348 143.828 120.58Z" fill="#3498DB" stroke="#263238" stroke-miterlimit="10"/>
<path d="M117.661 170.596H88.4248V191.788H117.661V170.596Z" fill="#3498DB" stroke="#263238" stroke-miterlimit="10"/>
<path d="M92.2005 36.3193C92.2005 36.3193 89.3125 37.5993 88.0005 38.1953C87.2568 38.551 86.4831 38.8402 85.6885 39.0593L87.8925 40.2153L94.1005 39.2393L92.2005 36.3193Z" fill="white" stroke="#263238" stroke-miterlimit="10"/>
<path d="M82.9963 37.6517C82.5958 37.268 82.2655 36.8172 82.0203 36.3197C81.7323 35.6317 81.1523 35.9557 81.1523 36.4637C81.1715 36.9575 81.3357 37.4347 81.6243 37.8357C81.7683 37.9077 83.2843 38.1597 83.2843 38.1597L82.9963 37.6517Z" stroke="#263238" stroke-miterlimit="10"/>
<path d="M93.3526 40.716L93.9646 44.18C93.9646 44.18 92.7646 51.056 92.5326 55.012C92.3006 58.968 92.1326 61.544 92.3606 62.576C92.5886 63.608 95.5606 73.636 95.5606 73.636C95.5606 73.636 95.0446 74.268 95.0446 74.436C95.0446 74.604 94.9886 75.236 94.9886 75.236C94.5374 75.6863 94.0577 76.1072 93.5526 76.496C92.9246 76.956 91.6046 77.356 91.8366 77.816C92.0686 78.276 93.6126 77.816 95.3326 77.816C97.0526 77.816 98.2526 78.044 98.8846 77.588C99.5166 77.132 98.9406 75.408 98.9406 75.408C98.9406 75.408 99.0006 74.208 99.0566 73.86C99.1126 73.512 98.3126 71.74 98.3686 71.224C98.4246 70.708 97.0006 60.4 97.0006 60.4L99.8646 49.8C99.8646 49.8 104.565 61.72 105.141 62.292C105.717 62.864 113.449 72.724 113.449 72.724C113.449 72.724 112.933 73.296 113.105 73.584C113.245 73.8027 113.398 74.0125 113.565 74.212C113.565 74.212 112.989 75.412 112.645 75.932C112.301 76.452 111.329 76.732 111.501 77.08C111.673 77.428 113.449 77.48 113.901 77.364C114.353 77.248 116.193 75.244 116.701 74.844C117.209 74.444 118.189 73.696 118.189 73.18C118.189 72.664 117.217 72.036 117.157 71.864C117.097 71.692 116.985 70.948 116.641 70.716C116.308 70.5062 115.963 70.3153 115.609 70.144C115.381 70.028 109.649 60.056 109.649 60.056C109.649 60.056 107.073 44.7 106.385 42.924C105.697 41.148 101.789 36.04 101.789 36.04L93.3526 40.716Z" fill="#263238" stroke="#263238" stroke-miterlimit="10"/>
<path d="M87.1121 31.1995C87.1121 31.1995 87.8681 34.6675 88.8241 35.5755C89.7801 36.4835 91.6921 36.7315 91.6921 36.7315L93.3521 40.7075C93.3521 40.7075 99.3881 38.8435 101.804 36.0275C101.804 36.0275 99.0041 31.5515 96.9241 28.6835C94.8441 25.8155 95.7161 25.3195 92.8001 23.5995C89.8841 21.8795 87.5161 24.2555 87.5161 24.2555C87.5161 24.2555 85.3041 24.3635 87.1121 31.1995Z" fill="#B5EB2E" stroke="#263238" stroke-miterlimit="10"/>
<path d="M83.5489 14.5081C83.5489 14.5081 82.9609 13.3081 79.1489 13.9161C77.8942 14.0646 76.724 14.6242 75.821 15.5078C74.9179 16.3913 74.3327 17.549 74.1569 18.8001C74.0049 20.0001 74.1569 19.9441 73.7889 20.2441C73.4209 20.5441 71.7889 20.3481 72.0769 22.1081C72.3649 23.8681 74.4449 22.8601 74.7449 23.4641C74.8797 23.7768 75.1029 24.0434 75.3872 24.231C75.6714 24.4186 76.0043 24.519 76.3449 24.5201C77.1969 24.5721 78.0049 23.5641 78.1049 23.1641C78.2049 22.7641 79.0609 22.4081 80.5689 23.3161C82.0769 24.2241 84.0889 25.8281 86.2049 24.0681C88.3209 22.3081 85.5609 16.0641 83.5489 14.5081Z" fill="#263238" stroke="#263238" stroke-miterlimit="10"/>
<path d="M75.6445 21.9993C75.8099 22.55 76.0227 23.0854 76.2805 23.5993C76.5965 24.1433 77.7725 24.6433 77.8205 25.4553C77.8685 26.2673 77.5925 26.8153 77.8205 26.9513C78.0485 27.0873 79.1325 26.7713 79.1325 26.7713C79.1325 26.7713 81.5325 28.3713 82.1205 28.1273C82.7085 27.8833 83.8405 26.3153 83.8405 26.3153L86.4005 28.1353L87.1125 31.1993L88.0205 29.7393C88.0205 29.7393 86.3085 27.6753 86.9125 25.9673L87.5165 24.2553C87.5165 24.2553 83.6605 23.7233 83.1605 23.0913C82.6605 22.4593 81.7565 20.8713 80.9445 20.6433C80.1325 20.4153 79.8125 21.5513 79.9005 21.8233C79.9885 22.0953 78.5445 22.0473 77.6365 21.6873L76.7325 21.3233C76.5045 21.2433 75.6445 21.5993 75.6445 21.9993Z" fill="white" stroke="#263238" stroke-miterlimit="10"/>
<path d="M77.3648 23.8679C77.3648 23.8679 77.3208 23.0679 78.0008 22.9639" stroke="#263238" stroke-miterlimit="10"/>
<path d="M78.6086 24.144C78.8326 24.328 78.9206 24.584 78.8086 24.72C78.6966 24.856 78.4086 24.816 78.2086 24.636C78.0086 24.456 77.8926 24.192 78.0046 24.06C78.1166 23.928 78.4006 23.96 78.6086 24.144Z" fill="#263238"/>
<path d="M80.3086 26.7995C80.3086 26.7995 80.5806 26.6195 80.3566 25.8955" stroke="#263238" stroke-miterlimit="10"/>
<path d="M82.2122 21.7393C82.2122 21.7393 82.8442 22.4193 82.6122 22.7793C82.4984 22.9771 82.3427 23.1477 82.1562 23.2793C82.1562 23.2793 82.7482 23.8673 82.7922 24.2313" fill="white"/>
<path d="M82.2122 21.7393C82.2122 21.7393 82.8442 22.4193 82.6122 22.7793C82.4984 22.9771 82.3427 23.1477 82.1562 23.2793C82.1562 23.2793 82.7482 23.8673 82.7922 24.2313" stroke="#263238" stroke-miterlimit="10"/>
<path d="M80.3001 19.9437C80.3001 19.9437 82.5321 21.3997 83.7121 23.2197C84.8921 25.0397 88.2521 24.9437 89.4401 23.9437C90.6281 22.9437 90.8481 21.9757 91.7641 22.2037C92.6801 22.4317 94.8801 23.1837 96.3121 22.1317C97.7441 21.0797 96.6721 18.9877 98.1281 19.3677C98.9074 19.5811 99.7343 19.541 100.489 19.2534C101.244 18.9658 101.888 18.4455 102.328 17.7677C103.312 16.2397 104.068 13.6317 101.312 10.2237C99.2001 7.59972 96.0361 8.28772 95.0881 8.41972C94.1401 8.55172 94.4521 7.51172 91.3561 7.51172C88.1561 7.51172 86.6481 10.2357 86.4401 10.9957C86.2321 11.7557 87.0961 12.2717 84.6201 11.4237C82.1441 10.5757 80.9361 11.5157 80.9801 12.7877C81.0241 14.0597 78.2281 14.4957 77.7041 14.6997" fill="#263238"/>
<path d="M80.3001 19.9437C80.3001 19.9437 82.5321 21.3997 83.7121 23.2197C84.8921 25.0397 88.2521 24.9437 89.4401 23.9437C90.6281 22.9437 90.8481 21.9757 91.7641 22.2037C92.6801 22.4317 94.8801 23.1837 96.3121 22.1317C97.7441 21.0797 96.6721 18.9877 98.1281 19.3677C98.9074 19.5811 99.7343 19.541 100.489 19.2534C101.244 18.9658 101.888 18.4455 102.328 17.7677C103.312 16.2397 104.068 13.6317 101.312 10.2237C99.2001 7.59972 96.0361 8.28772 95.0881 8.41972C94.1401 8.55172 94.4521 7.51172 91.3561 7.51172C88.1561 7.51172 86.6481 10.2357 86.4401 10.9957C86.2321 11.7557 87.0961 12.2717 84.6201 11.4237C82.1441 10.5757 80.9361 11.5157 80.9801 12.7877C81.0241 14.0597 78.2281 14.4957 77.7041 14.6997" stroke="#263238" stroke-miterlimit="10"/>
<path d="M108.86 46.156C108.743 46.1566 108.626 46.1431 108.512 46.116L77.4363 38.096C77.3066 38.0642 77.1844 38.0072 77.0767 37.9282C76.969 37.8492 76.8779 37.7497 76.8086 37.6355C76.7393 37.5213 76.6932 37.3946 76.6729 37.2625C76.6526 37.1305 76.6586 36.9958 76.6903 36.866C76.7221 36.7363 76.7791 36.6141 76.8582 36.5064C76.9372 36.3986 77.0366 36.3076 77.1508 36.2383C77.2651 36.169 77.3918 36.1229 77.5238 36.1026C77.6559 36.0823 77.7906 36.0882 77.9203 36.12L109.2 43.288C109.544 43.3744 109.844 43.5831 110.045 43.8749C110.246 44.1667 110.333 44.5218 110.291 44.8735C110.249 45.2252 110.08 45.5494 109.816 45.7855C109.552 46.0216 109.211 46.1533 108.856 46.156H108.86Z" fill="#8F8F8F" stroke="#263238" stroke-miterlimit="10"/>
<path d="M95.9165 40.7634L94.9605 41.4674C94.7441 41.8405 94.4746 42.18 94.1605 42.4754C93.8085 42.7274 93.6085 42.8754 93.9605 43.0274C94.3125 43.1794 95.1605 42.8274 95.1605 42.8274C95.1605 42.8274 94.8565 44.1354 95.1085 44.2354C95.3605 44.3354 95.9085 44.3874 96.0645 44.1874C96.1713 44.0553 96.3085 43.951 96.4645 43.8834C96.4645 43.8834 96.6125 44.0834 97.5205 43.8354C98.4285 43.5874 98.4765 42.0234 98.5765 41.3194C98.6765 40.6154 102.7 31.7594 102.952 30.6034C103.204 29.4474 102.952 28.7394 102.6 28.5394C102.248 28.3394 92.2005 25.2194 91.0005 25.1194C89.8005 25.0194 88.4845 26.7194 89.1885 28.3874C89.8925 30.0554 92.7085 30.6034 93.4645 30.7034C94.2205 30.8034 98.6645 31.3554 98.6645 31.3554C98.6645 31.3554 97.7605 35.9354 97.5605 37.5954C97.4533 38.8274 96.8621 39.9666 95.9165 40.7634Z" fill="white" stroke="#263238" stroke-miterlimit="10"/>
<path d="M81.4442 38.3996C81.3636 38.8887 81.3275 39.384 81.3362 39.8796C81.4082 40.0596 81.9842 40.3836 82.1362 39.8436C82.2882 39.3036 82.3162 38.3996 82.0642 38.2436C81.8122 38.0876 81.6602 38.0516 81.4442 38.3996Z" fill="white" stroke="#263238" stroke-miterlimit="10"/>
<path d="M82.4004 38.9642C82.4213 39.4595 82.4856 39.9521 82.5924 40.4362C82.7004 40.5962 83.3284 40.8002 83.3604 40.2402C83.3924 39.6802 83.2484 38.7882 82.9604 38.7002C82.6724 38.6122 82.5244 38.5682 82.4004 38.9642Z" fill="white" stroke="#263238" stroke-miterlimit="10"/>
<path d="M83.3203 39.1077C83.3433 39.6029 83.4075 40.0953 83.5123 40.5797C83.6203 40.7397 84.2523 40.9437 84.2843 40.3837C84.3163 39.8237 84.1683 38.9317 83.8843 38.8437C83.6003 38.7557 83.4603 38.7117 83.3203 39.1077Z" fill="white" stroke="#263238" stroke-miterlimit="10"/>
<path d="M84.3525 39.3041C84.3706 39.7254 84.4255 40.1444 84.5165 40.5561C84.6085 40.6921 85.1445 40.8641 85.1725 40.3881C85.2005 39.9121 85.0725 39.1561 84.8405 39.0761C84.6085 38.9961 84.4725 38.9641 84.3525 39.3041Z" fill="white" stroke="#263238" stroke-miterlimit="10"/>
<path d="M78.5563 38.4998L78.6443 36.7798L77.4443 35.0038C76.6443 32.8238 71.5843 30.9718 67.9723 30.0838C64.3603 29.1958 60.0963 29.7958 58.2163 30.7478C56.3363 31.6998 55.9083 32.2758 55.9083 32.2758L55.7923 34.5598C55.2803 37.1478 59.9523 40.2558 66.2323 41.4998C72.5123 42.7438 78.0163 41.6518 78.5283 39.0598C78.5639 38.8754 78.5733 38.6869 78.5563 38.4998ZM73.1243 38.7998C69.4443 39.3478 66.0803 38.9438 63.1523 37.6638C61.2928 36.7987 59.5375 35.7251 57.9203 34.4638C58.7203 32.6598 63.0163 31.9798 67.9203 32.9518C72.5683 33.8718 76.1563 35.9598 76.5523 37.8478C75.4682 38.3473 74.3107 38.6687 73.1243 38.7998Z" fill="#8F8F8F" stroke="#263238" stroke-miterlimit="10"/>
<path d="M68.2045 29.8401C61.9285 28.5961 56.4205 29.6881 55.9085 32.2761C55.3965 34.8641 60.0685 37.9761 66.3485 39.2161C72.6285 40.4561 78.1325 39.3681 78.6445 36.7801C79.1565 34.1921 74.4845 31.0841 68.2045 29.8401ZM76.6925 36.1961C76.2925 38.2281 71.7645 39.0441 66.5845 38.0201C61.4045 36.9961 57.5325 34.5161 57.9365 32.4841C58.3405 30.4521 62.8645 29.6361 68.0445 30.6601C73.2245 31.6841 77.0925 34.1641 76.6925 36.1961Z" fill="white" stroke="#263238" stroke-miterlimit="10"/>
<path d="M154.972 191.784H195.924" stroke="#263238" stroke-miterlimit="10"/>
<path d="M6.51562 191.784H151.68" stroke="#263238" stroke-miterlimit="10"/>
</svg>
