<svg width="200" height="200" viewBox="0 0 200 200" fill="none" xmlns="http://www.w3.org/2000/svg">
<path d="M24.572 82.5436C24.572 82.5436 8.4 106.964 19.892 143.796C31.384 180.628 64.868 190.024 84.724 179.796C104.58 169.568 107.476 156.256 123.524 146.596C139.572 136.936 172.664 137.276 185.408 110.7C198.152 84.1236 171.724 46.8756 141.808 25.4236C111.892 3.97158 46.86 29.3436 24.572 82.5436Z" fill="#3498DB"/>
<path opacity="0.7" d="M24.572 82.5436C24.572 82.5436 8.4 106.964 19.892 143.796C31.384 180.628 64.868 190.024 84.724 179.796C104.58 169.568 107.476 156.256 123.524 146.596C139.572 136.936 172.664 137.276 185.408 110.7C198.152 84.1236 171.724 46.8756 141.808 25.4236C111.892 3.97158 46.86 29.3436 24.572 82.5436Z" fill="white"/>
<path d="M127.512 135.241C128.944 135.865 132.436 135.785 132.44 135.785C132.444 135.785 131.688 133.497 131.62 133.357C130.856 131.757 128.42 129.105 126.46 129.357C126.134 129.41 125.822 129.531 125.546 129.713C125.269 129.894 125.034 130.132 124.856 130.411C124.677 130.689 124.559 131.002 124.51 131.329C124.46 131.656 124.48 131.99 124.568 132.309C124.896 133.693 126.296 134.709 127.512 135.241Z" fill="#263238"/>
<path d="M128.72 145.36C130.2 145.576 133.32 144.672 133.568 144.6C134.082 146.384 134.714 148.132 135.46 149.832C135.888 150.824 136.352 151.812 136.828 152.796C136.544 152.396 136.284 151.996 136.244 151.96C135.08 150.616 132.044 148.7 130.212 149.48C129.911 149.618 129.643 149.817 129.424 150.066C129.205 150.314 129.041 150.605 128.943 150.921C128.845 151.237 128.814 151.57 128.852 151.899C128.891 152.227 128.999 152.544 129.168 152.828C129.844 154.06 131.464 154.668 132.768 154.86C134.072 155.052 136.768 154.336 137.48 154.136C137.664 154.512 137.848 154.888 138.036 155.264C138.94 157.06 139.848 158.864 140.684 160.636C140.98 161.264 141.248 161.892 141.52 162.52C141.268 162.152 141.052 161.844 141.012 161.8C139.848 160.456 136.812 158.54 134.98 159.32C134.679 159.457 134.411 159.657 134.192 159.904C133.974 160.152 133.81 160.444 133.711 160.759C133.613 161.075 133.582 161.407 133.621 161.736C133.659 162.064 133.767 162.38 133.936 162.664C134.612 163.896 136.232 164.508 137.536 164.696C138.84 164.884 141.28 164.244 142.12 164.008C142.376 164.664 142.636 165.316 142.856 165.96C142.996 166.404 143.164 166.82 143.28 167.272C143.396 167.724 143.528 168.16 143.648 168.596C143.852 169.448 144.068 170.324 144.248 171.156C144.376 171.736 144.488 172.292 144.6 172.852C144.316 172.224 143.728 171.004 143.664 170.908C142.72 169.4 140.008 167.048 138.064 167.54C137.746 167.631 137.45 167.787 137.196 167.999C136.942 168.212 136.736 168.475 136.59 168.773C136.445 169.07 136.364 169.395 136.353 169.725C136.341 170.056 136.4 170.386 136.524 170.692C137.008 172.012 138.524 172.86 139.784 173.248C141.184 173.672 144.276 173.284 144.664 173.248C144.848 174.172 145.02 175.076 145.168 175.928C145.248 176.38 145.32 176.804 145.388 177.228H146.62C146.528 176.74 146.432 176.236 146.328 175.712C146.144 174.772 145.928 173.772 145.696 172.744C146.629 172.372 147.538 171.945 148.42 171.464C149.44 172.568 152.048 173.864 152.388 174.024C152.032 174.896 151.676 175.744 151.332 176.536C151.228 176.776 151.124 177 151.024 177.228H152.32L152.416 176.996C152.784 176.112 153.152 175.156 153.528 174.172C153.9 174.252 156.964 174.876 158.392 174.552C159.688 174.26 161.256 173.528 161.836 172.248C161.983 171.952 162.065 171.628 162.078 171.297C162.091 170.967 162.035 170.637 161.912 170.33C161.79 170.023 161.604 169.745 161.367 169.515C161.129 169.284 160.846 169.106 160.536 168.992C158.648 168.356 155.768 170.5 154.712 171.932C154.652 172.016 154.076 173.004 153.728 173.636C153.876 173.236 154.028 172.836 154.176 172.436C154.476 171.636 154.752 170.788 155.056 169.9C155.184 169.464 155.316 169.024 155.456 168.58C155.596 168.136 155.692 167.664 155.812 167.204C156.068 166.124 156.276 165.02 156.46 163.904C157.18 164.164 159.748 165.06 161.076 164.964C162.404 164.868 164.064 164.384 164.832 163.208C165.021 162.937 165.151 162.628 165.213 162.304C165.275 161.979 165.268 161.644 165.193 161.322C165.117 161 164.975 160.697 164.775 160.434C164.575 160.17 164.322 159.952 164.032 159.792C162.26 158.88 159.088 160.56 157.828 161.816C157.752 161.892 156.948 162.896 156.516 163.452C156.624 162.78 156.732 162.112 156.816 161.428C157.06 159.452 157.248 157.448 157.444 155.448C157.504 154.836 157.568 154.224 157.632 153.616C157.888 153.712 160.92 154.84 162.408 154.736C163.732 154.64 165.396 154.156 166.16 152.976C166.35 152.705 166.48 152.397 166.542 152.072C166.605 151.747 166.598 151.412 166.523 151.09C166.447 150.767 166.305 150.465 166.104 150.201C165.904 149.938 165.65 149.719 165.36 149.56C163.592 148.648 160.42 150.332 159.16 151.584C159.064 151.68 157.912 153.124 157.636 153.504C157.78 152.16 157.932 150.82 158.14 149.504C158.407 147.728 158.791 145.971 159.288 144.244C159.404 144.292 162.56 145.48 164.088 145.376C165.412 145.28 167.072 144.796 167.84 143.616C168.03 143.345 168.16 143.037 168.222 142.712C168.285 142.387 168.278 142.052 168.203 141.73C168.127 141.407 167.985 141.105 167.784 140.841C167.584 140.578 167.33 140.359 167.04 140.2C165.272 139.288 162.1 140.972 160.84 142.224C160.74 142.324 159.5 143.876 159.296 144.176C159.324 144.076 159.344 143.968 159.376 143.868C159.922 142.151 160.619 140.486 161.46 138.892C161.912 138.008 162.392 137.188 162.88 136.396C163.448 136.68 166.044 137.94 167.428 137.996C168.812 138.052 170.46 137.748 171.352 136.664C171.571 136.416 171.735 136.125 171.834 135.81C171.933 135.494 171.965 135.162 171.927 134.833C171.89 134.505 171.783 134.188 171.615 133.903C171.447 133.618 171.221 133.372 170.952 133.18C169.292 132.08 165.956 133.404 164.552 134.512C164.476 134.572 163.776 135.268 163.276 135.784C163.5 135.432 163.724 135.064 163.948 134.728C164.78 133.476 165.62 132.38 166.372 131.412C166.804 130.868 167.204 130.384 167.572 129.932C168.272 129.932 171.088 129.836 172.32 129.256C173.552 128.676 174.896 127.656 175.188 126.264C175.267 125.943 175.277 125.609 175.218 125.284C175.16 124.958 175.033 124.649 174.847 124.375C174.661 124.102 174.42 123.871 174.139 123.696C173.858 123.522 173.544 123.409 173.216 123.364C171.24 123.152 168.888 125.864 168.164 127.488C168.1 127.628 167.364 129.936 167.412 129.936H167.456C167.08 130.36 166.684 130.82 166.256 131.332C165.48 132.284 164.616 133.364 163.752 134.604C162.808 135.932 161.941 137.313 161.156 138.74C160.271 140.335 159.529 142.006 158.94 143.732C158.94 143.752 158.94 143.776 158.94 143.796C158.94 143.212 158.94 141.58 158.908 141.456C158.68 139.692 157.204 136.42 155.244 136.06C154.917 136.009 154.584 136.028 154.264 136.114C153.945 136.201 153.648 136.354 153.392 136.563C153.136 136.772 152.926 137.032 152.778 137.328C152.629 137.623 152.544 137.946 152.528 138.276C152.416 139.676 153.428 141.076 154.42 141.964C155.536 142.96 158.636 143.924 158.884 144C158.328 145.772 157.89 147.579 157.572 149.408C157.384 150.476 157.224 151.552 157.08 152.636C157.08 152.132 157.08 151.68 157.056 151.62C156.824 149.856 155.348 146.584 153.392 146.22C153.065 146.169 152.731 146.187 152.411 146.273C152.092 146.359 151.794 146.512 151.537 146.721C151.281 146.93 151.071 147.191 150.922 147.486C150.773 147.782 150.688 148.106 150.672 148.436C150.56 149.836 151.576 151.236 152.564 152.124C153.552 153.012 156.196 153.9 156.892 154.124C156.844 154.524 156.788 154.956 156.736 155.372C156.496 157.372 156.268 159.372 155.984 161.316C155.884 162 155.76 162.676 155.636 163.348C155.636 162.9 155.636 162.524 155.612 162.464C155.384 160.704 153.908 157.432 151.952 157.068C151.625 157.017 151.291 157.035 150.971 157.121C150.652 157.207 150.354 157.36 150.097 157.569C149.841 157.778 149.631 158.039 149.482 158.334C149.333 158.63 149.248 158.954 149.232 159.284C149.12 160.684 150.132 162.084 151.124 162.972C152.116 163.86 154.5 164.66 155.328 164.928C155.184 165.612 155.04 166.3 154.868 166.96C154.74 167.408 154.648 167.844 154.496 168.288C154.344 168.732 154.212 169.164 154.072 169.596C153.772 170.42 153.468 171.268 153.156 172.064C152.944 172.616 152.732 173.14 152.52 173.664C152.628 172.984 152.808 171.64 152.812 171.528C152.791 169.965 152.368 168.433 151.584 167.08C151.591 166.905 151.581 166.729 151.552 166.556C151.511 166.228 151.402 165.912 151.231 165.628C151.06 165.345 150.831 165.101 150.559 164.912C150.287 164.723 149.979 164.594 149.654 164.533C149.328 164.472 148.994 164.479 148.672 164.556C146.748 165.068 145.528 168.444 145.436 170.22C145.436 170.324 145.5 171.468 145.556 172.188C145.46 171.768 145.368 171.36 145.264 170.932C145.064 170.08 144.836 169.236 144.596 168.328C144.464 167.896 144.332 167.456 144.196 167.012C144.06 166.568 143.884 166.12 143.728 165.668C143.348 164.628 142.928 163.592 142.452 162.556C143.196 162.38 145.832 161.708 146.888 160.896C147.944 160.084 149.06 158.764 149.048 157.36C149.056 157.031 148.994 156.703 148.867 156.398C148.74 156.094 148.551 155.82 148.311 155.594C148.071 155.367 147.786 155.194 147.475 155.085C147.163 154.976 146.833 154.933 146.504 154.96C144.524 155.176 142.808 158.328 142.448 160.068C142.428 160.176 142.308 161.456 142.256 162.16C141.976 161.54 141.696 160.92 141.388 160.304C140.504 158.52 139.556 156.748 138.612 154.972C138.324 154.428 138.044 153.88 137.76 153.336C138.028 153.276 141.176 152.536 142.36 151.636C143.416 150.836 144.532 149.504 144.52 148.1C144.528 147.771 144.466 147.443 144.339 147.138C144.212 146.834 144.023 146.56 143.783 146.334C143.543 146.107 143.258 145.934 142.947 145.825C142.635 145.716 142.305 145.673 141.976 145.7C140 145.916 138.28 149.068 137.92 150.808C137.896 150.94 137.728 152.78 137.708 153.248C137.084 152.048 136.476 150.848 135.924 149.648C135.166 148.02 134.516 146.343 133.98 144.628C134.104 144.6 137.392 143.852 138.608 142.924C139.66 142.124 140.78 140.792 140.768 139.388C140.775 139.059 140.713 138.731 140.586 138.427C140.459 138.123 140.269 137.849 140.029 137.623C139.79 137.397 139.505 137.223 139.194 137.114C138.883 137.005 138.553 136.962 138.224 136.988C136.244 137.2 134.528 140.356 134.168 142.096C134.14 142.232 133.964 144.212 133.956 144.572C133.924 144.472 133.884 144.372 133.852 144.272C133.361 142.54 133.024 140.768 132.844 138.976C132.736 137.988 132.684 137.036 132.656 136.108C133.284 136.032 136.144 135.652 137.328 134.932C138.512 134.212 139.728 133.056 139.864 131.656C139.91 131.329 139.886 130.995 139.794 130.677C139.702 130.36 139.544 130.065 139.33 129.812C139.116 129.56 138.852 129.355 138.554 129.212C138.256 129.068 137.931 128.989 137.6 128.98C135.6 128.98 133.556 131.92 133.008 133.612C132.98 133.704 132.78 134.672 132.644 135.38C132.644 134.96 132.624 134.528 132.624 134.128C132.624 132.624 132.724 131.244 132.816 130.024C132.876 129.332 132.944 128.704 133.012 128.12C133.588 127.72 135.892 126.12 136.612 124.94C137.332 123.76 137.868 122.168 137.352 120.86C137.241 120.549 137.066 120.264 136.838 120.024C136.609 119.785 136.333 119.596 136.027 119.471C135.721 119.345 135.392 119.285 135.061 119.295C134.731 119.305 134.406 119.384 134.108 119.528C132.34 120.444 131.876 124.004 132.168 125.756C132.192 125.908 132.86 128.232 132.892 128.212L132.924 128.188C132.848 128.748 132.772 129.352 132.7 130.012C132.58 131.232 132.452 132.612 132.42 134.124C132.363 135.752 132.402 137.381 132.536 139.004C132.676 140.824 132.978 142.627 133.44 144.392C133.445 144.414 133.452 144.435 133.46 144.456C133.144 143.964 132.224 142.616 132.14 142.52C130.98 141.176 127.94 139.264 126.108 140.04C125.807 140.178 125.539 140.377 125.32 140.626C125.101 140.874 124.937 141.165 124.839 141.481C124.741 141.797 124.71 142.13 124.748 142.459C124.787 142.787 124.895 143.104 125.064 143.388C125.788 144.56 127.408 145.168 128.72 145.36Z" fill="#263238"/>
<path d="M162.856 136C162.888 136.02 163.492 133.676 163.512 133.524C163.76 131.764 163.196 128.216 161.404 127.352C161.103 127.218 160.776 127.148 160.446 127.147C160.116 127.147 159.79 127.216 159.488 127.35C159.186 127.484 158.916 127.68 158.695 127.925C158.474 128.17 158.306 128.458 158.204 128.772C157.724 130.092 158.332 131.712 159.052 132.828C159.896 134.144 162.856 136 162.856 136Z" fill="#263238"/>
<path d="M77.528 109.064H24.52V40.4004H77.528V109.064ZM24.92 108.664H77.128V40.8004H24.92V108.664Z" fill="#263238"/>
<path d="M76.032 107.128H26V42.3281H76.032V107.128ZM26.432 106.728H75.632V42.7281H26.4L26.432 106.728Z" fill="#263238"/>
<path d="M63.6 90.9844H38.452V58.4844H63.6V90.9844ZM38.86 90.5844H63.2V58.8844H38.852L38.86 90.5844Z" fill="#263238"/>
<path d="M134.712 79.9996L126.076 78.7796L127.276 70.2036L135.916 71.4036L134.712 79.9996ZM126.528 78.4396L134.372 79.5476L135.472 71.7636L127.624 70.6556L126.528 78.4396ZM136.088 67.1436L128.188 66.0276L129.332 57.9236L129.408 57.8756C131.501 56.5929 133.49 55.1499 135.36 53.5596C137.109 52.0858 138.631 50.3619 139.876 48.4436C141.054 46.6152 141.82 44.5531 142.124 42.3996C142.36 40.7316 142.168 39.3676 141.552 38.3356C140.936 37.3036 139.92 36.7076 138.516 36.5076C137.981 36.402 137.43 36.4034 136.895 36.5119C136.36 36.6204 135.852 36.8337 135.4 37.1396C134.978 37.4665 134.628 37.8773 134.373 38.3461C134.117 38.815 133.962 39.3317 133.916 39.8636C133.837 40.3853 133.824 40.9146 133.876 41.4396C133.928 41.9556 133.996 42.5116 134.08 43.0916L134.108 43.3036L125.856 43.9156L125.824 43.7436C125.653 42.9026 125.55 42.0492 125.516 41.1916C125.485 40.3575 125.528 39.5222 125.644 38.6956C126.136 35.2116 127.62 32.5436 130.044 30.7636C132.468 28.9836 135.724 28.3636 139.696 28.9316C143.752 29.5036 146.784 31.0716 148.716 33.5876C150.648 36.1036 151.34 39.4396 150.768 43.4956C150.438 46.0118 149.611 48.4373 148.336 50.6316C147.047 52.7839 145.418 54.7129 143.512 56.3436C141.465 58.0978 139.266 59.6654 136.94 61.0276L136.088 67.1436ZM128.64 65.6876L135.748 66.6916L136.584 60.7636L136.668 60.7156C139.003 59.354 141.209 57.7836 143.26 56.0236C145.133 54.4167 146.733 52.5175 148 50.3996C149.255 48.2552 150.071 45.8825 150.4 43.4196C150.956 39.4756 150.292 36.2436 148.428 33.8196C146.564 31.3956 143.628 29.8756 139.668 29.3156C135.804 28.7716 132.652 29.3636 130.308 31.0756C127.964 32.7876 126.516 35.3596 126.04 38.7316C125.927 39.5343 125.886 40.3455 125.916 41.1556C125.947 41.9331 126.035 42.7072 126.18 43.4716L133.652 42.9156C133.584 42.4076 133.524 41.9196 133.476 41.4596C133.421 40.9026 133.436 40.341 133.52 39.7876C133.572 39.2029 133.746 38.6355 134.029 38.1212C134.312 37.6069 134.698 37.1569 135.164 36.7996C135.657 36.4616 136.212 36.225 136.797 36.1034C137.382 35.9819 137.985 35.9778 138.572 36.0916C140.104 36.3076 141.22 36.9876 141.892 38.0916C142.564 39.1956 142.768 40.6556 142.52 42.4156C142.211 44.6319 141.424 46.7545 140.212 48.6356C138.945 50.5853 137.398 52.3375 135.62 53.8356C133.758 55.4174 131.779 56.8561 129.7 58.1396L128.64 65.6876Z" fill="#263238"/>
<path d="M84.364 99.6005C84.364 99.6005 58.688 99.9405 57.888 101.769C57.088 103.597 53.436 125.737 53.208 133.369C52.98 141.001 52.868 146.037 53.664 146.949C54.46 147.861 66.904 155.053 66.904 155.053C66.904 155.053 61.084 175.481 62.904 176.169C64.724 176.857 75.916 179.705 83.104 179.821C90.292 179.937 97.372 179.933 97.944 179.933C98.516 179.933 116.888 180.617 123.28 179.133C129.672 177.649 131.608 177.533 131.608 175.025C131.608 172.517 130.008 169.425 129.896 168.865C129.784 168.305 134.236 125.037 131.724 114.425C129.212 103.813 125.904 99.7005 123.392 99.0165C120.88 98.3325 102.964 98.7885 102.964 98.7885L84.364 99.6005Z" fill="#91BC25"/>
<path d="M107.796 180.312C104.996 180.312 101.872 180.268 98.504 180.172H97.948C96.668 180.172 89.948 180.172 83.108 180.06C75.8 179.944 64.616 177.06 62.84 176.392C62.44 176.248 61.532 175.904 64.04 165.348C65.136 160.7 66.44 156.072 66.68 155.188C65.26 154.368 54.3 148.008 53.528 147.12C52.684 146.156 52.78 141.52 53.02 133.404C53.252 125.672 56.964 103.44 57.716 101.716C58.516 99.864 80.056 99.4841 84.372 99.4281L102.972 98.6281C103.708 98.6081 120.972 98.18 123.46 98.864C125.004 99.264 128.912 101.64 131.936 114.416C134.004 123.16 131.404 153.512 130.424 164.936C130.236 167.132 130.1 168.72 130.112 168.876C130.202 169.155 130.306 169.428 130.424 169.696C130.912 170.896 131.824 173.152 131.824 175.064C131.824 177.464 130.196 177.816 125.356 178.908L123.356 179.368C120.596 180 115.2 180.312 107.796 180.312ZM114.336 98.864C108.9 98.864 103.076 99.008 102.972 99.012L84.372 99.812C74.492 99.944 58.62 100.612 58.076 101.86C57.328 103.568 53.644 125.696 53.412 133.4C53.212 140.132 53.036 145.948 53.812 146.844C54.448 147.572 63.548 152.908 67.012 154.904C67.0505 154.926 67.0805 154.961 67.0972 155.002C67.1138 155.044 67.1162 155.089 67.104 155.132C64.26 165.088 61.944 175.6 62.98 176C64.744 176.66 75.852 179.524 83.112 179.64C89.956 179.748 96.668 179.752 97.948 179.752H98.516C110.72 180.096 119.5 179.812 123.236 178.952C123.968 178.78 124.64 178.632 125.256 178.492C129.984 177.424 131.412 177.1 131.412 175.036C131.412 173.204 130.52 171 130.04 169.816C129.909 169.522 129.797 169.22 129.704 168.912C129.684 168.796 129.74 168.092 130.016 164.872C130.992 153.464 133.588 123.164 131.532 114.472C128.56 101.904 124.816 99.616 123.344 99.212C122.292 98.948 118.424 98.864 114.336 98.864Z" fill="#263238"/>
<path d="M95.372 110.336C95.3328 110.337 95.2944 110.326 95.2616 110.305C95.2288 110.283 95.2032 110.253 95.188 110.216C95.1774 110.192 95.1717 110.166 95.1712 110.14C95.1707 110.114 95.1754 110.087 95.1851 110.063C95.1947 110.038 95.2092 110.016 95.2275 109.997C95.2459 109.978 95.2678 109.963 95.292 109.952C96.2015 109.564 97.0859 109.119 97.94 108.62C97.9628 108.607 97.988 108.599 98.0142 108.595C98.0403 108.592 98.0669 108.594 98.0923 108.601C98.1178 108.608 98.1416 108.619 98.1625 108.635C98.1834 108.652 98.2009 108.672 98.214 108.694C98.2271 108.717 98.2356 108.743 98.239 108.769C98.2424 108.795 98.2406 108.821 98.2337 108.847C98.2269 108.872 98.215 108.896 98.199 108.917C98.1829 108.938 98.1628 108.955 98.14 108.968C97.2716 109.475 96.3725 109.926 95.448 110.32C95.4242 110.331 95.3982 110.337 95.372 110.336Z" fill="#263238"/>
<path d="M99.248 108.248C99.215 108.248 99.1826 108.24 99.1534 108.224C99.1242 108.209 99.099 108.187 99.08 108.16C99.0514 108.115 99.0417 108.061 99.053 108.01C99.0642 107.958 99.0955 107.913 99.14 107.884C102.32 105.766 105.111 103.117 107.392 100.052C107.407 100.03 107.426 100.012 107.449 99.9978C107.471 99.9837 107.496 99.9741 107.522 99.9697C107.548 99.9652 107.575 99.9659 107.6 99.9718C107.626 99.9777 107.651 99.9887 107.672 100.004C107.694 100.019 107.712 100.038 107.726 100.06C107.74 100.082 107.75 100.106 107.754 100.132C107.759 100.158 107.758 100.184 107.752 100.209C107.746 100.235 107.735 100.259 107.72 100.28C105.408 103.385 102.581 106.069 99.36 108.216C99.3269 108.238 99.2878 108.249 99.248 108.248Z" fill="#263238"/>
<path d="M101.6 109.369C101.564 109.368 101.529 109.358 101.498 109.34C101.467 109.322 101.442 109.296 101.424 109.265C101.411 109.241 101.403 109.216 101.401 109.19C101.398 109.164 101.4 109.137 101.407 109.112C101.415 109.087 101.427 109.063 101.444 109.043C101.46 109.022 101.481 109.005 101.504 108.993C103.504 107.921 105.844 104.653 105.868 104.621C105.882 104.597 105.901 104.576 105.924 104.56C105.946 104.544 105.972 104.532 105.999 104.527C106.026 104.521 106.054 104.521 106.081 104.527C106.108 104.532 106.134 104.544 106.157 104.56C106.179 104.576 106.198 104.597 106.212 104.62C106.226 104.644 106.235 104.671 106.239 104.698C106.242 104.726 106.24 104.754 106.232 104.78C106.223 104.807 106.21 104.831 106.192 104.853C106.096 104.989 103.792 108.229 101.692 109.345C101.664 109.36 101.632 109.369 101.6 109.369Z" fill="#263238"/>
<path d="M89.716 141.504C89.6739 141.504 89.6331 141.49 89.5994 141.465C89.5656 141.44 89.5406 141.405 89.528 141.364L88.856 139.276C88.8473 139.252 88.8438 139.225 88.8455 139.199C88.8473 139.172 88.8544 139.147 88.8663 139.123C88.8783 139.1 88.8949 139.079 88.9151 139.062C88.9353 139.045 88.9588 139.032 88.984 139.024C89.0344 139.008 89.0892 139.012 89.1365 139.036C89.1837 139.06 89.2195 139.102 89.236 139.152L89.908 141.24C89.9244 141.291 89.9201 141.346 89.8961 141.393C89.8721 141.44 89.8304 141.476 89.78 141.492C89.7596 141.5 89.7379 141.504 89.716 141.504Z" fill="#263238"/>
<path d="M93.38 152.881C93.3378 152.881 93.2966 152.867 93.2628 152.842C93.2289 152.817 93.2041 152.781 93.192 152.741L90.216 143.505C90.1995 143.452 90.2049 143.394 90.2307 143.345C90.2566 143.296 90.301 143.259 90.354 143.243C90.407 143.226 90.4644 143.232 90.5136 143.258C90.5627 143.283 90.5995 143.328 90.616 143.381L93.592 152.621C93.6073 152.671 93.6026 152.726 93.5787 152.773C93.5548 152.82 93.5137 152.855 93.464 152.873L93.38 152.881Z" fill="#263238"/>
<path d="M94.296 153.108C94.2574 153.11 94.2194 153.099 94.188 153.076C94.1656 153.062 94.1462 153.044 94.1309 153.023C94.1156 153.002 94.1047 152.977 94.0987 152.952C94.0928 152.926 94.0919 152.899 94.0963 152.873C94.1006 152.848 94.11 152.823 94.124 152.8L97.092 148.124C97.1055 148.102 97.1235 148.082 97.1449 148.066C97.1662 148.051 97.1905 148.039 97.2163 148.033C97.2421 148.027 97.2689 148.027 97.2949 148.031C97.321 148.036 97.3459 148.046 97.368 148.06C97.4123 148.089 97.4438 148.134 97.4557 148.185C97.4677 148.237 97.4592 148.291 97.432 148.336L94.464 153.016C94.4457 153.044 94.4208 153.067 94.3915 153.083C94.3622 153.099 94.3294 153.108 94.296 153.108Z" fill="#263238"/>
<path d="M101.028 150.368C100.989 150.37 100.95 150.359 100.917 150.339C100.884 150.318 100.858 150.288 100.842 150.252C100.826 150.217 100.821 150.177 100.828 150.139C100.835 150.1 100.853 150.064 100.88 150.036L108.08 141.932C108.116 141.893 108.165 141.869 108.219 141.866C108.272 141.863 108.324 141.881 108.364 141.916C108.404 141.952 108.428 142.002 108.431 142.055C108.434 142.108 108.416 142.161 108.38 142.2L101.18 150.304C101.161 150.325 101.137 150.342 101.111 150.353C101.085 150.364 101.056 150.369 101.028 150.368Z" fill="#263238"/>
<path d="M97.948 180.156H97.892L82.4 175.64C82.3748 175.633 82.3513 175.62 82.3308 175.604C82.3103 175.588 82.2933 175.567 82.2807 175.544C82.268 175.521 82.2601 175.496 82.2572 175.47C82.2543 175.444 82.2567 175.417 82.264 175.392C82.2709 175.367 82.2828 175.343 82.2992 175.322C82.3155 175.301 82.3359 175.284 82.359 175.271C82.3822 175.259 82.4077 175.251 82.434 175.248C82.4603 175.245 82.4868 175.248 82.512 175.256L98 179.764C98.0531 179.772 98.101 179.8 98.1332 179.842C98.1655 179.885 98.1794 179.939 98.172 179.992C98.1646 180.045 98.1364 180.093 98.0936 180.125C98.0509 180.158 97.9971 180.172 97.944 180.164L97.948 180.156Z" fill="#263238"/>
<path d="M80.632 175.112H80.576L77.92 174.336C77.867 174.322 77.822 174.286 77.795 174.238C77.768 174.19 77.7612 174.133 77.776 174.08C77.7909 174.027 77.8262 173.982 77.8742 173.955C77.9222 173.928 77.979 173.922 78.032 173.936L80.688 174.712C80.7132 174.72 80.7367 174.732 80.7572 174.748C80.7777 174.765 80.7947 174.785 80.8074 174.808C80.82 174.831 80.828 174.857 80.8308 174.883C80.8337 174.909 80.8314 174.935 80.824 174.96C80.8134 175.003 80.7887 175.042 80.754 175.069C80.7192 175.097 80.6763 175.112 80.632 175.112Z" fill="#263238"/>
<path d="M84.204 48.8526C84.204 48.8526 76.144 47.0006 74.604 49.0726C73.064 51.1446 76.132 53.1046 75.696 53.5406C75.26 53.9766 65.888 58.7686 66.648 63.4566C67.408 68.1446 73.732 72.9366 73.952 74.2566C74.172 75.5766 66.648 76.0006 65.668 77.9606C64.688 79.9206 63.268 89.1846 71.444 92.2366C79.62 95.2886 89.844 90.1646 92.692 90.1646C95.54 90.1646 98.36 95.7246 101.628 95.3966C103.619 95.1688 105.45 94.1955 106.752 92.6726C106.752 92.6726 110.128 97.3606 115.032 95.3966C119.936 93.4326 125.604 86.5686 123.208 84.5006C120.812 82.4326 118.084 81.7766 119.828 79.9246C121.572 78.0726 125.168 73.1686 124.628 68.9166C124.088 64.6646 119.068 64.3406 117.108 63.0326C115.148 61.7246 119.288 59.5446 119.18 55.9486C119.072 52.3526 116.452 46.3486 103.16 42.3486C89.868 38.3486 83.328 40.2766 82.672 43.6566C82.467 44.5815 82.5 45.5434 82.7679 46.4521C83.0359 47.3609 83.53 48.1868 84.204 48.8526Z" fill="#263238"/>
<path d="M112.664 96.0604C109.548 96.0604 107.348 93.6884 106.76 92.9764C105.437 94.4444 103.623 95.3777 101.66 95.6004C99.84 95.7844 98.192 94.2684 96.604 92.8004C95.244 91.5444 93.956 90.3604 92.704 90.3604C91.94 90.3604 90.568 90.7603 88.832 91.2724C84.252 92.6124 77.328 94.6364 71.388 92.4204C68.548 91.3604 66.588 89.4764 65.532 86.8204C64.132 83.2524 64.82 79.2204 65.5 77.8684C66.06 76.7524 68.444 76.1284 70.548 75.5804C72.016 75.1804 73.84 74.7204 73.748 74.2844C73.656 73.8484 72.844 72.9844 71.872 71.9364C69.916 69.8204 66.956 66.6244 66.448 63.4964C65.78 59.3964 72.348 55.3804 74.824 53.8684C75.168 53.6564 75.496 53.4684 75.548 53.4044C75.4181 53.185 75.2709 52.9764 75.108 52.7804C74.444 51.9164 73.332 50.4644 74.44 48.9604C75.784 47.1364 81.64 48.1604 83.608 48.5324C83.0644 47.8463 82.6813 47.0472 82.4869 46.1938C82.2924 45.3404 82.2914 44.4542 82.484 43.6004C82.6037 43.0857 82.8319 42.6024 83.1533 42.183C83.4748 41.7636 83.8821 41.4177 84.348 41.1684C87.68 39.1683 94.564 39.5124 103.224 42.1404C117.048 46.3324 119.284 52.5884 119.388 55.9484C119.44 57.7564 118.472 59.2004 117.692 60.3484C117.16 61.1484 116.704 61.8204 116.8 62.3124C116.831 62.4273 116.884 62.5349 116.958 62.6284C117.032 62.7219 117.123 62.7995 117.228 62.8564C117.896 63.242 118.602 63.5558 119.336 63.7924C121.604 64.6324 124.424 65.6804 124.832 68.8844C125.368 73.0644 122.032 77.8724 119.984 80.0524C119.833 80.1775 119.711 80.3338 119.626 80.5105C119.541 80.6873 119.495 80.8803 119.492 81.0764C119.556 81.6604 120.344 82.1924 121.344 82.8604C122.04 83.3133 122.708 83.8075 123.344 84.3404C123.615 84.5979 123.813 84.923 123.917 85.2822C124.021 85.6414 124.028 86.0218 123.936 86.3844C123.432 89.3924 118.98 94.0284 115.116 95.5844C114.336 95.8973 113.504 96.0588 112.664 96.0604ZM106.764 92.4604C106.795 92.4608 106.825 92.4687 106.852 92.4833C106.879 92.4979 106.903 92.5189 106.92 92.5444C106.956 92.5884 110.268 97.0804 114.968 95.2004C118.728 93.6964 123.056 89.2004 123.54 86.3164C123.664 85.5724 123.512 85.0084 123.084 84.6404C122.459 84.1216 121.803 83.6407 121.12 83.2004C120.036 82.4724 119.18 81.8964 119.092 81.1324C119.088 80.8772 119.14 80.6242 119.244 80.3912C119.349 80.1583 119.503 79.9512 119.696 79.7844C121.56 77.7844 124.956 72.9844 124.436 68.9404C124.056 65.9804 121.36 64.9804 119.196 64.1764C118.433 63.9294 117.698 63.6022 117.004 63.2004C116.856 63.114 116.727 62.9987 116.624 62.8612C116.522 62.7237 116.448 62.567 116.408 62.4004C116.28 61.7484 116.756 61.0364 117.36 60.1364C118.108 59.0244 119.036 57.6404 118.988 55.9604C118.888 52.7083 116.696 46.6444 103.108 42.5243C94.556 39.9283 87.792 39.5604 84.556 41.5124C84.1383 41.733 83.7724 42.0401 83.4827 42.4132C83.193 42.7864 82.9862 43.217 82.876 43.6764C82.675 44.5714 82.7035 45.5027 82.9587 46.3839C83.214 47.265 83.6877 48.0673 84.336 48.7164C84.3692 48.7464 84.3918 48.7864 84.4005 48.8304C84.4091 48.8744 84.4034 48.9199 84.384 48.9604C84.3637 49.0003 84.3306 49.0322 84.29 49.0511C84.2494 49.0699 84.2036 49.0746 84.16 49.0644C81.952 48.5564 75.964 47.5964 74.776 49.2044C73.848 50.4684 74.776 51.6684 75.44 52.5484C75.84 53.0563 76.116 53.4284 75.84 53.6964C75.5867 53.8906 75.3193 54.0657 75.04 54.2204C72.86 55.5524 66.24 59.6044 66.852 63.4404C67.34 66.4484 70.248 69.5924 72.176 71.6723C73.316 72.9044 74.068 73.7164 74.152 74.2284C74.284 75.0284 72.756 75.4284 70.644 75.9764C68.72 76.4764 66.328 77.1004 65.844 78.0564C65.212 79.3204 64.548 83.2764 65.888 86.6804C66.3763 87.9321 67.1328 89.0618 68.1044 89.9899C69.076 90.918 70.2392 91.6219 71.512 92.0524C77.328 94.2244 84.172 92.2204 88.712 90.8964C90.48 90.3804 91.872 89.9684 92.712 89.9684C94.12 89.9684 95.464 91.2044 96.884 92.5124C98.408 93.9164 99.984 95.3644 101.628 95.2004C103.562 94.9734 105.341 94.0284 106.612 92.5524C106.629 92.5266 106.651 92.5049 106.677 92.4889C106.704 92.473 106.733 92.4632 106.764 92.4604Z" fill="#263238"/>
<path d="M85.656 83.816C85.656 83.816 82.932 100.816 82.824 101.36C82.716 101.904 87.624 106.808 94.264 105.936C98.1535 105.468 101.728 103.566 104.288 100.6L102.22 83.708C102.22 83.708 96.552 86.432 93.064 86.324C89.576 86.216 85.656 83.816 85.656 83.816Z" fill="#FCECC2"/>
<path d="M92.696 106.241C89.1273 106.182 85.7186 104.75 83.18 102.241C82.568 101.589 82.612 101.381 82.628 101.301C82.732 100.769 85.428 83.9367 85.456 83.7647C85.4618 83.7324 85.4753 83.7019 85.4954 83.6759C85.5155 83.6499 85.5416 83.6292 85.5715 83.6154C85.6013 83.6017 85.6341 83.5953 85.6669 83.597C85.6997 83.5986 85.7316 83.6081 85.76 83.6247C85.8 83.6487 89.68 85.9967 93.072 86.1047C96.464 86.2127 102.076 83.5367 102.132 83.5087C102.16 83.494 102.192 83.4863 102.224 83.4863C102.256 83.4863 102.288 83.494 102.316 83.5087C102.343 83.5246 102.367 83.5466 102.384 83.573C102.401 83.5994 102.412 83.6294 102.416 83.6607L104.488 100.549C104.491 100.575 104.49 100.601 104.483 100.627C104.476 100.652 104.464 100.676 104.448 100.697C101.847 103.693 98.2295 105.622 94.292 106.113C93.7634 106.19 93.2302 106.233 92.696 106.241ZM85.808 84.1367C85.436 86.4527 83.12 100.893 83.008 101.401C83.092 101.897 87.74 106.601 94.208 105.741C98.0109 105.261 101.509 103.412 104.048 100.541L102.056 84.0007C100.904 84.5327 96.18 86.6167 93.06 86.5207C90.032 86.4287 86.74 84.6727 85.808 84.1367Z" fill="#263238"/>
<path d="M84.536 92.9364L96.012 90.7164L85.656 83.8164L84.536 92.9364Z" fill="#263238"/>
<path d="M84.536 93.1363C84.4861 93.1349 84.4381 93.1166 84.4 93.0843C84.3776 93.0621 84.3606 93.035 84.3502 93.0052C84.3398 92.9754 84.3363 92.9437 84.34 92.9123L85.456 83.7923C85.4601 83.7585 85.473 83.7263 85.4933 83.6989C85.5136 83.6716 85.5408 83.65 85.572 83.6363C85.6023 83.6205 85.6359 83.6123 85.67 83.6123C85.7041 83.6123 85.7377 83.6205 85.768 83.6363L96.12 90.5403C96.1536 90.5614 96.18 90.5922 96.1957 90.6286C96.2114 90.6651 96.2157 90.7054 96.208 90.7443C96.1999 90.7833 96.1803 90.819 96.1518 90.8467C96.1233 90.8745 96.0872 90.8932 96.048 90.9003L84.576 93.1203L84.536 93.1363ZM85.816 84.1643L84.768 92.6883L95.492 90.6123L85.816 84.1643Z" fill="#263238"/>
<path d="M79.6 68.8286C79.6 68.8286 77.68 66.3966 76.8 69.4686C75.92 72.5406 79.744 76.2686 79.744 76.2686L79.6 68.8286Z" fill="#FCECC2"/>
<path d="M79.728 76.4526C79.6807 76.4503 79.6355 76.432 79.6 76.4006C79.44 76.2446 75.684 72.5686 76.604 69.4166C76.896 68.4166 77.336 67.8526 77.912 67.7406C78.848 67.5606 79.732 68.6606 79.768 68.7086C79.7959 68.7424 79.8115 68.7847 79.812 68.8286L79.94 76.2526C79.9399 76.2921 79.9286 76.3307 79.9073 76.364C79.8861 76.3973 79.8558 76.4239 79.82 76.4406C79.7901 76.4491 79.7591 76.4531 79.728 76.4526ZM78.128 68.1166C78.0828 68.1125 78.0372 68.1125 77.992 68.1166C77.592 68.1966 77.236 68.6806 76.992 69.5126C76.3 71.8886 78.624 74.7366 79.536 75.7326L79.416 68.8886C79.172 68.6326 78.62 68.1166 78.112 68.1166H78.128Z" fill="#263238"/>
<path d="M107.108 68.8286C107.108 68.8286 109.028 66.3966 109.908 69.4686C110.788 72.5406 106.964 76.2686 106.964 76.2686L107.108 68.8286Z" fill="#FCECC2"/>
<path d="M106.98 76.4521C106.954 76.4562 106.927 76.4562 106.9 76.4521C106.863 76.4367 106.832 76.4104 106.811 76.3768C106.789 76.3433 106.779 76.3039 106.78 76.2641L106.908 68.8401C106.909 68.797 106.923 68.7552 106.948 68.7201C106.988 68.6721 107.876 67.5681 108.804 67.7521C109.384 67.8641 109.824 68.4281 110.116 69.4281C111.032 72.5801 107.276 76.2561 107.116 76.4121C107.077 76.4419 107.029 76.4562 106.98 76.4521ZM107.304 68.9001L107.2 75.7441C108.108 74.7481 110.436 71.9001 109.744 69.5241C109.5 68.6921 109.152 68.2081 108.74 68.1281C108.188 68.0241 107.556 68.6081 107.304 68.9001Z" fill="#263238"/>
<path d="M85.632 53.4605C85.632 53.4605 80.136 58.8005 79.34 60.4005C78.544 62.0005 78.864 80.2325 79.74 82.0005C80.616 83.7685 89.376 90.6045 90.808 91.1605C92.24 91.7165 95.508 92.2765 98.056 91.0005C100.604 89.7245 106.736 83.1965 107.376 81.5245C108.016 79.8525 107.216 60.7245 106.816 58.9045C106.416 57.0845 96.8 50.5125 92.72 50.1965C88.64 49.8805 85.632 53.4605 85.632 53.4605Z" fill="#FCECC2"/>
<path d="M94.4 91.9447C93.1478 91.9514 91.9039 91.7403 90.724 91.3207C89.184 90.7207 80.436 83.8367 79.548 82.0647C78.66 80.2927 78.316 61.9647 79.148 60.3007C79.948 58.7007 85.148 53.6247 85.472 53.3247C85.672 53.0887 88.672 49.6767 92.724 49.9967C96.68 50.3087 106.552 56.7647 107 58.8327C107.372 60.5527 108.2 79.8527 107.548 81.5687C106.864 83.3687 100.656 89.8927 98.132 91.1687C96.9639 91.71 95.687 91.9755 94.4 91.9447ZM92.2 50.3767C88.536 50.3767 85.8 53.5567 85.772 53.5767C85.716 53.6287 80.292 58.9087 79.52 60.4527C78.748 61.9967 79.088 80.1967 79.92 81.8567C80.752 83.5167 89.424 90.3487 90.884 90.9167C92.42 91.5127 95.572 91.9647 97.972 90.7647C100.544 89.4807 106.604 82.9407 107.192 81.3967C107.836 79.7087 106.996 60.5967 106.624 58.8927C106.252 57.1887 96.72 50.7087 92.704 50.4007C92.54 50.4007 92.376 50.3767 92.212 50.3767H92.2Z" fill="#263238"/>
<path d="M89.952 50.1961C89.952 50.1961 98.184 57.7081 104.104 57.9961L110.028 58.2841C110.028 58.2841 97.028 56.5521 92.984 47.7441C92.984 47.7441 88.508 44.0001 89.952 50.1961Z" fill="#263238"/>
<path d="M110.028 58.4847L104.108 58.1967C98.184 57.9087 90.168 50.6567 89.828 50.3447C89.799 50.3176 89.7782 50.2829 89.768 50.2447C89.292 48.1967 89.396 46.9967 90.088 46.5727C91.112 45.9447 92.924 47.4207 93.124 47.5887C93.1481 47.6079 93.1672 47.6326 93.18 47.6607C97.132 56.2687 109.936 58.0607 110.064 58.0887C110.116 58.0947 110.163 58.1206 110.196 58.161C110.229 58.2013 110.245 58.2528 110.24 58.3047C110.234 58.3559 110.209 58.403 110.169 58.4364C110.13 58.4698 110.08 58.487 110.028 58.4847ZM90.132 50.0847C90.804 50.6847 98.56 57.5167 104.132 57.7887L107.476 57.9527C103.476 56.9447 95.792 54.2367 92.84 47.8607C92.32 47.4327 90.948 46.5087 90.3 46.9047C89.932 47.1287 89.624 47.8567 90.132 50.0927V50.0847Z" fill="#263238"/>
<path d="M95.2 73.3323C95.1496 73.3325 95.101 73.3136 95.064 73.2795C95.0269 73.2454 95.004 73.1986 95 73.1483L94.364 65.1043C94.3619 65.0781 94.365 65.0516 94.3731 65.0266C94.3812 65.0015 94.3942 64.9783 94.4113 64.9582C94.4284 64.9382 94.4492 64.9217 94.4727 64.9097C94.4962 64.8977 94.5217 64.8904 94.548 64.8883C94.5743 64.8862 94.6007 64.8893 94.6258 64.8974C94.6508 64.9055 94.6741 64.9185 94.6941 64.9356C94.7142 64.9527 94.7307 64.9736 94.7427 64.997C94.7547 65.0205 94.7619 65.0461 94.764 65.0723L95.4 73.1163C95.4022 73.1426 95.3992 73.1691 95.3911 73.1942C95.383 73.2193 95.37 73.2425 95.3529 73.2626C95.3358 73.2827 95.3149 73.2992 95.2914 73.3112C95.2679 73.3231 95.2423 73.3303 95.216 73.3323H95.2Z" fill="#263238"/>
<path d="M93.356 77.1568C92.244 77.1568 91.18 75.9568 91.136 75.8928C91.1173 75.8734 91.1027 75.8503 91.0932 75.825C91.0836 75.7998 91.0793 75.7729 91.0804 75.7459C91.0815 75.7189 91.0881 75.6925 91.0998 75.6681C91.1114 75.6437 91.1278 75.622 91.1481 75.6041C91.1684 75.5863 91.192 75.5728 91.2177 75.5643C91.2433 75.5559 91.2704 75.5527 91.2973 75.555C91.3242 75.5573 91.3504 75.5651 91.3742 75.5777C91.398 75.5904 91.4191 75.6078 91.436 75.6288C91.436 75.6288 92.428 76.7568 93.356 76.7568C94.12 76.7568 95.276 75.2688 95.66 74.6968C95.6741 74.6747 95.6926 74.6556 95.7143 74.6408C95.7359 74.6259 95.7604 74.6156 95.7861 74.6104C95.8119 74.6051 95.8384 74.6051 95.8642 74.6104C95.8899 74.6156 95.9143 74.626 95.936 74.6408C95.9798 74.6702 96.0103 74.7156 96.0208 74.7673C96.0313 74.819 96.0209 74.8727 95.992 74.9168C95.84 75.1448 94.468 77.1568 93.356 77.1568Z" fill="#263238"/>
<path d="M92.092 80.8444C91.848 80.8444 91.6 80.8444 91.352 80.8204C88.888 80.6564 87.052 77.6644 86.972 77.5364C86.9583 77.5139 86.9493 77.4888 86.9453 77.4627C86.9413 77.4366 86.9425 77.41 86.9488 77.3844C86.9551 77.3587 86.9664 77.3346 86.9821 77.3133C86.9977 77.2921 87.0174 77.2741 87.04 77.2604C87.0626 77.2468 87.0876 77.2377 87.1137 77.2337C87.1398 77.2298 87.1664 77.231 87.1921 77.2373C87.2177 77.2436 87.2418 77.2549 87.2631 77.2705C87.2844 77.2862 87.3023 77.3059 87.316 77.3284C87.316 77.3604 89.124 80.2684 91.38 80.4204C93.0209 80.4761 94.6612 80.2901 96.248 79.8684C96.301 79.8536 96.3578 79.8604 96.4058 79.8874C96.4538 79.9144 96.4891 79.9594 96.504 80.0124C96.5188 80.0655 96.512 80.1223 96.485 80.1703C96.458 80.2183 96.413 80.2536 96.36 80.2684C94.9657 80.6315 93.5327 80.8249 92.092 80.8444Z" fill="#263238"/>
<path d="M95.508 63.816C95.508 63.816 98.308 61.744 99.408 61.016C100.508 60.288 104.108 61.6521 104.108 61.6521C104.108 61.6521 101.4 60.1401 99.968 59.9001C98.536 59.6601 95.588 61.7321 95.348 62.7001C95.108 63.6681 94.4 63.416 95.508 63.816Z" fill="#263238"/>
<path d="M95.508 64.0002C95.4855 64.004 95.4625 64.004 95.44 64.0002C94.912 63.8122 94.756 63.7562 94.708 63.6002C94.6992 63.5379 94.7063 63.4744 94.7287 63.4157C94.7511 63.3569 94.788 63.3048 94.836 63.2642C94.9926 63.0967 95.1029 62.8913 95.156 62.6682C95.416 61.6242 98.436 59.4682 100 59.7322C101.452 59.9722 104.096 61.4442 104.208 61.5042C104.252 61.5294 104.284 61.57 104.3 61.618C104.315 61.6661 104.313 61.7181 104.292 61.7642C104.271 61.8102 104.233 61.8465 104.186 61.8658C104.14 61.8851 104.087 61.8859 104.04 61.8682C103.068 61.5002 100.364 60.6682 99.52 61.2122C98.42 61.9162 95.656 63.9722 95.628 63.9922C95.5894 64.0055 95.548 64.0083 95.508 64.0002ZM95.168 63.4602L95.476 63.5762C95.952 63.2202 98.304 61.4842 99.3 60.8442C99.872 60.4762 100.964 60.5842 101.972 60.8042C101.323 60.4887 100.64 60.2498 99.936 60.0922C98.612 59.8762 95.756 61.8842 95.536 62.7322C95.4792 63.0076 95.3524 63.2638 95.168 63.4762V63.4602Z" fill="#263238"/>
<path d="M89.772 64.1961C89.6257 63.8492 89.3828 63.5516 89.0722 63.3389C88.7616 63.1261 88.3963 63.0071 88.02 62.9961C86.668 62.9161 80.692 64.5121 81.728 64.5121C82.764 64.5121 87.064 64.4321 88.18 64.4321C88.7213 64.4657 89.2637 64.3853 89.772 64.1961Z" fill="#263238"/>
<path d="M81.728 64.7165C81.6723 64.7243 81.6154 64.7165 81.5639 64.6939C81.5123 64.6713 81.4681 64.6348 81.436 64.5886C81.4174 64.5549 81.4077 64.517 81.4077 64.4786C81.4077 64.4401 81.4174 64.4022 81.436 64.3685C81.68 63.9685 86.916 62.7326 88.024 62.8006C88.4394 62.8117 88.8426 62.9431 89.1848 63.1788C89.527 63.4145 89.7935 63.7444 89.952 64.1286C89.9683 64.1745 89.9676 64.2248 89.95 64.2703C89.9324 64.3158 89.899 64.3535 89.856 64.3766C89.3186 64.5784 88.7453 64.6669 88.172 64.6365C87.604 64.6365 86.212 64.6366 84.844 64.6766C83.476 64.7166 82.236 64.7165 81.728 64.7165ZM87.904 63.2006C86.896 63.2006 84.088 63.8766 82.636 64.3086L84.848 64.2766C86.216 64.2566 87.612 64.2365 88.18 64.2365C88.6236 64.2463 89.0664 64.1952 89.496 64.0846C89.3439 63.8209 89.1262 63.6009 88.8641 63.4461C88.602 63.2912 88.3044 63.2066 88 63.2006H87.904Z" fill="#263238"/>
<path d="M103.472 68.752C102.27 69.0246 101.041 69.1588 99.808 69.152C98.208 69.072 96.78 68.592 97.408 69.308C98.036 70.024 99.32 70.664 101.308 70.264C103.296 69.864 104.028 69.468 103.472 68.752Z" fill="#263238"/>
<path d="M89.056 68.752C87.8539 69.0246 86.6246 69.1588 85.392 69.152C83.792 69.072 82.368 68.592 82.992 69.308C83.616 70.024 84.904 70.664 86.896 70.264C88.888 69.864 89.6 69.468 89.056 68.752Z" fill="#263238"/>
<path d="M62.552 114.657C62.552 114.657 64.952 101.457 66.04 100.165C67.128 98.8727 79.008 89.1567 79.66 88.5047C80.312 87.8527 85 80.7647 85.22 81.6367C85.44 82.5087 84.676 86.3247 83.256 88.3927C81.836 90.4607 79.88 92.9727 79.88 92.9727C79.88 92.9727 87.2 94.8247 87.6 95.2607C88 95.6967 90.52 101.121 90.652 101.797C90.884 102.965 90.548 104.217 89.564 104.305C88.668 104.381 82.808 101.361 82.808 101.361L78.136 102.001C78.136 102.001 74.76 106.141 72.468 106.905C71.4401 107.281 70.3833 107.572 69.308 107.777L69.42 115.841L62.552 114.657Z" fill="#FCECC2"/>
<path d="M69.42 116.056H69.384L62.52 114.856C62.4668 114.847 62.4194 114.817 62.388 114.772C62.3591 114.729 62.3477 114.676 62.356 114.624C62.456 114.084 64.776 101.372 65.888 100.04C66.616 99.1645 71.92 94.7405 75.792 91.5125C77.752 89.8765 79.304 88.5845 79.52 88.3645C79.736 88.1445 80.348 87.2885 81.08 86.2685C83.928 82.3005 84.772 81.2925 85.192 81.3725C85.2461 81.3838 85.2957 81.4106 85.3348 81.4497C85.3739 81.4888 85.4007 81.5384 85.412 81.5925C85.648 82.5365 84.86 86.4125 83.412 88.5125C82.26 90.1885 80.74 92.1765 80.212 92.8565C81.916 93.2925 87.324 94.7005 87.748 95.1205C88.172 95.5405 90.712 101.052 90.852 101.764C90.9458 102.139 90.964 102.528 90.9056 102.909C90.8473 103.29 90.7134 103.656 90.512 103.984C90.4033 104.133 90.2644 104.256 90.1044 104.346C89.9444 104.437 89.767 104.492 89.584 104.508C88.672 104.588 83.584 101.996 82.784 101.572L78.24 102.2C77.796 102.74 74.724 106.38 72.532 107.108C71.5448 107.458 70.536 107.742 69.512 107.96L69.62 115.852C69.6196 115.882 69.6129 115.911 69.6005 115.938C69.5881 115.965 69.5702 115.989 69.548 116.008C69.5115 116.038 69.4667 116.054 69.42 116.056ZM62.8 114.492L69.2 115.6L69.092 107.776C69.0925 107.728 69.1106 107.68 69.1429 107.644C69.1752 107.607 69.2196 107.583 69.268 107.576C70.331 107.374 71.3758 107.085 72.392 106.712C74.596 105.976 77.932 101.912 77.964 101.872C77.9965 101.834 78.042 101.808 78.092 101.8L82.8 101.164C82.8398 101.157 82.881 101.164 82.916 101.184C85.164 102.34 88.964 104.164 89.564 104.104C89.6915 104.093 89.8151 104.054 89.9263 103.991C90.0374 103.927 90.1335 103.841 90.208 103.736C90.3758 103.453 90.4859 103.139 90.5319 102.813C90.5779 102.487 90.5589 102.155 90.476 101.836C90.332 101.116 87.84 95.7605 87.48 95.4005C87.14 95.1005 82.608 93.8685 79.836 93.1645C79.804 93.1562 79.7745 93.1401 79.7502 93.1176C79.7259 93.0951 79.7076 93.0669 79.6969 93.0356C79.6862 93.0042 79.6835 92.9708 79.6889 92.9381C79.6943 92.9055 79.7078 92.8747 79.728 92.8485C79.728 92.8205 81.7 90.3205 83.096 88.2805C84.492 86.2405 85.148 82.8125 85.052 81.8205C84.444 82.2685 82.492 84.9925 81.408 86.5005C80.636 87.5765 80.028 88.4245 79.808 88.6445C79.588 88.8645 78.096 90.1085 76.052 91.8165C72.408 94.8525 66.904 99.4445 66.196 100.292C65.344 101.312 63.48 110.7 62.8 114.492Z" fill="#263238"/>
<path d="M90.668 102.001C90.6354 102.002 90.6031 101.994 90.5744 101.978C90.5456 101.963 90.5214 101.94 90.504 101.913C89.236 100.045 87.124 96.9967 86.856 96.7847C86.588 96.5727 83.208 96.0647 80.204 95.6607C80.151 95.6533 80.103 95.6251 80.0708 95.5824C80.0385 95.5396 80.0246 95.4858 80.032 95.4327C80.0394 95.3797 80.0676 95.3318 80.1104 95.2995C80.1531 95.2673 80.207 95.2533 80.26 95.2607C81.764 95.4647 86.708 96.1487 87.108 96.4607C87.508 96.7727 90.496 101.177 90.832 101.661C90.8472 101.682 90.8578 101.707 90.8634 101.733C90.869 101.759 90.8694 101.786 90.8646 101.812C90.8597 101.838 90.8498 101.862 90.8352 101.885C90.8207 101.907 90.802 101.926 90.78 101.941C90.7491 101.971 90.7103 101.992 90.668 102.001Z" fill="#263238"/>
<path d="M90.4 103.652C90.3709 103.652 90.3422 103.646 90.3159 103.633C90.2896 103.621 90.2664 103.603 90.248 103.58C89.392 102.592 87.68 100.644 87.324 100.344C87.036 100.112 83.66 99.2483 80.624 98.5523C80.5726 98.54 80.5282 98.5078 80.5005 98.4628C80.4728 98.4179 80.464 98.3637 80.476 98.3123C80.4816 98.2866 80.4924 98.2623 80.5076 98.2408C80.5228 98.2194 80.5422 98.2012 80.5646 98.1874C80.587 98.1736 80.6119 98.1644 80.6379 98.1604C80.664 98.1565 80.6905 98.1578 80.716 98.1643C81.776 98.4043 87.116 99.6403 87.58 100.04C88.044 100.44 90.448 103.2 90.552 103.32C90.5694 103.34 90.5827 103.363 90.5911 103.387C90.5995 103.412 90.6029 103.438 90.601 103.465C90.5992 103.491 90.5921 103.516 90.5802 103.539C90.5684 103.563 90.552 103.583 90.532 103.6C90.4962 103.634 90.449 103.652 90.4 103.652Z" fill="#263238"/>
<path d="M90.528 153.936C90.528 153.936 81.968 152.336 81.628 152.224C81.288 152.112 75.228 150.284 74.428 149.94C73.628 149.596 63.928 147.888 63.472 148.572C63.016 149.256 62.56 153.252 62.444 153.592C62.328 153.932 61.416 155.532 61.644 156.448C61.7671 157.28 61.7671 158.125 61.644 158.956C61.644 158.956 61.528 164.32 62.896 164.436C64.264 164.552 65.524 159.412 65.524 159.412C65.524 159.412 67.464 160.556 71.456 160.784C75.448 161.012 79.332 159.072 79.332 159.072L89.956 161.6L90.528 153.936Z" fill="#FCECC2"/>
<path d="M62.952 164.636H62.892C61.412 164.512 61.436 159.88 61.452 158.952C61.573 158.138 61.573 157.311 61.452 156.496C61.252 155.696 61.808 154.496 62.108 153.868C62.176 153.716 62.232 153.596 62.256 153.532C62.28 153.468 62.356 152.976 62.428 152.48C62.708 150.636 62.984 148.94 63.304 148.46C63.904 147.564 73.92 149.504 74.504 149.756C75.088 150.008 78.844 151.164 80.64 151.716L81.676 152.032C81.936 152.116 87.128 153.1 90.552 153.74C90.6007 153.749 90.6445 153.776 90.6748 153.815C90.7051 153.854 90.7197 153.903 90.716 153.952L90.156 161.6C90.1545 161.629 90.1465 161.658 90.1327 161.683C90.1188 161.709 90.0995 161.731 90.076 161.748C90.053 161.766 90.0262 161.778 89.9977 161.784C89.9693 161.789 89.9399 161.788 89.912 161.78L79.368 159.288C78.832 159.54 75.176 161.2 71.456 160.988C68.192 160.8 66.296 160.02 65.668 159.712C65.348 160.948 64.284 164.636 62.952 164.636ZM64.296 148.604C64.0718 148.581 63.8452 148.612 63.636 148.696C63.348 149.128 63.012 151.348 62.836 152.54C62.736 153.216 62.684 153.544 62.648 153.656C62.612 153.768 62.56 153.864 62.48 154.036C62.224 154.588 61.68 155.744 61.852 156.4C61.9816 157.257 61.9816 158.128 61.852 158.984C61.808 161.112 62.112 164.184 62.928 164.236C63.808 164.292 64.872 161.288 65.328 159.368C65.336 159.338 65.3505 159.31 65.3705 159.286C65.3906 159.261 65.4156 159.242 65.444 159.228C65.472 159.215 65.5028 159.207 65.534 159.207C65.5652 159.207 65.596 159.215 65.624 159.228C65.624 159.228 67.58 160.348 71.468 160.572C75.356 160.796 79.204 158.9 79.244 158.88C79.2869 158.866 79.3331 158.866 79.376 158.88L89.776 161.336L90.316 154.104C88.876 153.836 81.892 152.528 81.564 152.416L80.536 152.1C78.592 151.504 74.98 150.396 74.356 150.128C73.576 149.788 66.552 148.604 64.296 148.604Z" fill="#263238"/>
<path d="M60.924 112.328L72.4 114.428L71.972 121.6C71.972 121.6 74.512 122.8 75.284 129.884C76.056 136.968 78.268 153.376 77.716 154.592C77.164 155.808 73.74 161.112 65.784 161.444C57.828 161.776 53.52 154.484 52.748 152.16C51.976 149.836 56.064 134.636 56.284 133.312C56.504 131.988 57.608 122.912 58.604 121.38C59.2179 120.433 59.9611 119.577 60.812 118.836L60.924 112.328Z" fill="#91BC25"/>
<path d="M65.256 161.66C57.34 161.66 53.256 154.264 52.56 152.232C51.936 150.364 54.248 140.904 55.488 135.832C55.808 134.52 56.04 133.572 56.088 133.292C56.136 133.012 56.192 132.592 56.28 131.968C56.704 128.928 57.592 122.6 58.436 121.288C59.0431 120.35 59.7767 119.499 60.616 118.76L60.724 112.332C60.724 112.303 60.7304 112.274 60.7429 112.248C60.7553 112.222 60.7735 112.199 60.796 112.18C60.8189 112.162 60.8454 112.149 60.8737 112.143C60.902 112.136 60.9314 112.135 60.96 112.14L72.448 114.236C72.4967 114.245 72.5405 114.272 72.5708 114.311C72.6011 114.35 72.6158 114.399 72.612 114.448L72.18 121.504C72.712 121.848 74.796 123.572 75.484 129.88C75.676 131.648 75.964 134.032 76.284 136.556C77.456 146.284 78.32 153.8 77.916 154.692C77.884 154.756 74.816 161.284 65.808 161.656L65.256 161.66ZM61.12 112.568L61.012 118.848C61.012 118.877 61.0056 118.906 60.9931 118.932C60.9807 118.959 60.9625 118.982 60.94 119C60.1056 119.728 59.376 120.568 58.772 121.496C57.972 122.732 57.064 129.24 56.676 132.016C56.588 132.644 56.52 133.116 56.48 133.352C56.432 133.648 56.2 134.6 55.876 135.916C54.732 140.6 52.352 150.344 52.94 152.108C53.612 154.108 57.76 161.588 65.776 161.248C73.048 160.948 76.728 156.288 77.536 154.516C77.936 153.656 76.736 143.796 75.872 136.596C75.568 134.068 75.28 131.684 75.072 129.916C74.32 123.036 71.892 121.8 71.872 121.788C71.8368 121.771 71.8074 121.743 71.7876 121.709C71.7677 121.675 71.7581 121.636 71.76 121.596L72.192 114.592L61.12 112.568Z" fill="#263238"/>
<path d="M70 120.924C69.3501 120.922 68.701 120.88 68.056 120.8C68.0036 120.794 67.9557 120.768 67.9227 120.727C67.8897 120.686 67.8744 120.633 67.88 120.58C67.887 120.528 67.9143 120.48 67.9562 120.447C67.998 120.414 68.0511 120.399 68.104 120.404C68.7331 120.481 69.3662 120.521 70 120.524C70.053 120.524 70.1039 120.546 70.1414 120.583C70.1789 120.621 70.2 120.671 70.2 120.724C70.2 120.778 70.1789 120.828 70.1414 120.866C70.1039 120.903 70.053 120.924 70 120.924Z" fill="#263238"/>
<path d="M65.38 120.34H65.336C63.7812 119.996 62.2479 119.56 60.744 119.036C60.6956 119.017 60.6565 118.98 60.635 118.933C60.6136 118.885 60.6115 118.831 60.6292 118.782C60.6469 118.733 60.683 118.693 60.7299 118.671C60.7767 118.648 60.8305 118.644 60.88 118.66C62.3667 119.179 63.8826 119.609 65.42 119.948C65.4458 119.954 65.4702 119.965 65.4918 119.98C65.5135 119.995 65.5319 120.014 65.546 120.037C65.5601 120.059 65.5697 120.084 65.5742 120.11C65.5786 120.136 65.5779 120.163 65.572 120.188C65.562 120.232 65.5375 120.271 65.5027 120.298C65.4678 120.326 65.4245 120.341 65.38 120.34Z" fill="#263238"/>
<path d="M124.08 115.932L122.94 145.376C122.94 145.376 121.684 145.492 121.228 146.06C120.924 146.454 120.656 146.874 120.428 147.316C120.428 147.316 108.904 147.772 103.424 149.372C100.279 150.267 97.223 151.45 94.296 152.908L89.272 152.8L88.244 166.036L94.98 166.264C94.98 166.264 98.288 168.204 113.352 169.576C128.416 170.948 135.38 171.288 136.976 169.46C138.572 167.632 139.26 164.78 139.488 163.3C139.716 161.82 142.456 152.684 142.456 139.444C142.456 126.204 130.016 107.044 127.276 102.696C124.536 98.3482 121.676 98.6962 119.744 99.1602" fill="#91BC25"/>
<path d="M130.588 170.908C126.768 170.908 121.176 170.484 113.336 169.772C99.152 168.48 95.384 166.704 94.936 166.46L88.252 166.232C88.2246 166.232 88.1975 166.227 88.1725 166.216C88.1475 166.204 88.1252 166.188 88.107 166.168C88.0888 166.147 88.0752 166.123 88.0671 166.097C88.059 166.071 88.0566 166.043 88.06 166.016L89.072 152.8C89.0751 152.749 89.0982 152.701 89.1364 152.666C89.1745 152.632 89.2247 152.614 89.276 152.616L94.248 152.728C97.1754 151.28 100.228 150.099 103.368 149.2C108.512 147.7 119.08 147.2 120.304 147.14C120.524 146.718 120.781 146.317 121.072 145.94C121.472 145.44 122.368 145.26 122.748 145.204L123.88 115.928C123.88 115.901 123.885 115.875 123.896 115.851C123.907 115.826 123.922 115.804 123.942 115.786C123.961 115.768 123.984 115.755 124.01 115.746C124.035 115.737 124.061 115.734 124.088 115.736C124.114 115.737 124.14 115.743 124.164 115.754C124.188 115.765 124.209 115.781 124.227 115.8C124.245 115.82 124.259 115.842 124.268 115.867C124.277 115.892 124.281 115.918 124.28 115.944L123.14 145.388C123.138 145.436 123.119 145.483 123.086 145.518C123.053 145.553 123.008 145.575 122.96 145.58C122.632 145.608 121.716 145.776 121.384 146.188C121.091 146.572 120.831 146.98 120.608 147.408C120.592 147.441 120.568 147.469 120.538 147.488C120.507 147.508 120.472 147.519 120.436 147.52C120.324 147.52 108.872 147.992 103.48 149.568C100.349 150.464 97.3059 151.642 94.388 153.088C94.3569 153.104 94.3227 153.112 94.288 153.112L89.456 153.004L88.46 165.844L94.984 166.064C95.0176 166.067 95.0503 166.076 95.08 166.092C95.112 166.092 98.576 168.032 113.372 169.376C128.372 170.74 135.316 171.056 136.828 169.328C138.552 167.36 139.148 164.192 139.292 163.268C139.328 163.016 139.432 162.584 139.584 161.924C141.355 154.562 142.252 147.016 142.256 139.444C142.256 130.988 137.26 118.82 127.412 103.28L127.108 102.804C124.264 98.3001 121.24 99.0121 119.792 99.3521C119.74 99.3642 119.685 99.3555 119.64 99.3279C119.594 99.3002 119.561 99.2558 119.548 99.2041C119.542 99.1784 119.541 99.1517 119.546 99.1257C119.55 99.0996 119.56 99.0747 119.574 99.0524C119.588 99.0301 119.607 99.0108 119.628 98.9957C119.65 98.9805 119.674 98.9698 119.7 98.9641C122.048 98.4121 124.808 98.4121 127.448 102.588L127.748 103.068C137.64 118.668 142.656 130.912 142.656 139.444C142.651 147.047 141.752 154.623 139.976 162.016C139.828 162.64 139.724 163.092 139.688 163.328C139.54 164.28 138.924 167.54 137.128 169.592C136.324 170.508 134.288 170.908 130.588 170.908Z" fill="#263238"/>
<path d="M122.94 145.577C122.905 145.577 122.87 145.568 122.84 145.551C122.81 145.533 122.785 145.507 122.768 145.477C122.745 145.437 122.736 145.391 122.742 145.346C122.749 145.301 122.771 145.26 122.804 145.229L129.424 139.069C129.442 139.05 129.464 139.035 129.488 139.025C129.512 139.015 129.538 139.01 129.564 139.01C129.59 139.01 129.616 139.015 129.64 139.025C129.664 139.035 129.686 139.05 129.704 139.069C129.723 139.087 129.738 139.109 129.748 139.134C129.758 139.158 129.763 139.184 129.763 139.211C129.763 139.237 129.758 139.263 129.748 139.288C129.738 139.312 129.723 139.334 129.704 139.353L123.704 144.953L129.9 143.153C129.953 143.138 130.01 143.145 130.058 143.172C130.106 143.199 130.141 143.244 130.156 143.297C130.171 143.35 130.164 143.406 130.137 143.454C130.11 143.502 130.065 143.538 130.012 143.553L123.008 145.585L122.94 145.577Z" fill="#263238"/>
<path d="M132.136 142.908C132.083 142.915 132.029 142.901 131.987 142.868C131.945 142.836 131.917 142.787 131.91 142.734C131.903 142.681 131.918 142.628 131.95 142.585C131.983 142.543 132.031 142.515 132.084 142.508L134.296 141.868C134.321 141.86 134.348 141.858 134.374 141.86C134.4 141.863 134.426 141.871 134.449 141.884C134.472 141.896 134.493 141.913 134.509 141.934C134.525 141.955 134.537 141.979 134.544 142.004C134.559 142.055 134.553 142.11 134.527 142.157C134.502 142.203 134.459 142.238 134.408 142.252L132.192 142.892C132.175 142.902 132.156 142.907 132.136 142.908Z" fill="#263238"/>
<path d="M130.7 149.229H130.628C127.724 148.109 120.488 147.533 120.412 147.529C120.386 147.526 120.36 147.519 120.337 147.507C120.313 147.495 120.292 147.479 120.275 147.459C120.258 147.439 120.245 147.415 120.237 147.39C120.229 147.365 120.226 147.339 120.228 147.313C120.23 147.286 120.237 147.261 120.249 147.237C120.261 147.214 120.278 147.193 120.298 147.176C120.318 147.159 120.341 147.146 120.366 147.138C120.391 147.13 120.418 147.126 120.444 147.129C120.744 147.153 127.812 147.717 130.772 148.853C130.798 148.857 130.823 148.867 130.846 148.882C130.868 148.896 130.888 148.915 130.903 148.937C130.918 148.959 130.929 148.983 130.935 149.009C130.94 149.035 130.941 149.062 130.936 149.089C130.931 149.115 130.921 149.14 130.907 149.162C130.893 149.185 130.874 149.204 130.852 149.219C130.83 149.235 130.805 149.245 130.779 149.251C130.753 149.257 130.726 149.257 130.7 149.253V149.229Z" fill="#263238"/>
<path d="M132.756 155.164C132.725 155.164 132.694 155.157 132.667 155.143C132.639 155.129 132.615 155.109 132.596 155.084C132.296 154.684 131.968 154.32 131.62 153.956C131.588 153.917 131.572 153.868 131.575 153.817C131.578 153.767 131.599 153.719 131.636 153.685C131.672 153.65 131.721 153.63 131.771 153.629C131.822 153.628 131.87 153.646 131.908 153.68C132.262 154.05 132.597 154.437 132.912 154.84C132.945 154.882 132.96 154.934 132.954 154.987C132.948 155.039 132.921 155.087 132.88 155.12C132.844 155.148 132.801 155.163 132.756 155.164Z" fill="#263238"/>
<path d="M130.368 152.728C130.322 152.727 130.277 152.712 130.24 152.684C128.209 151.04 125.866 149.823 123.352 149.108C123.326 149.102 123.301 149.091 123.279 149.076C123.257 149.06 123.238 149.04 123.224 149.017C123.21 148.994 123.2 148.969 123.196 148.942C123.191 148.916 123.192 148.889 123.198 148.862C123.204 148.836 123.215 148.811 123.231 148.789C123.246 148.767 123.266 148.749 123.289 148.734C123.312 148.72 123.337 148.71 123.364 148.706C123.391 148.701 123.418 148.702 123.444 148.708C126.018 149.435 128.417 150.678 130.496 152.36C130.529 152.386 130.552 152.422 130.563 152.462C130.575 152.502 130.573 152.545 130.559 152.584C130.545 152.623 130.519 152.657 130.485 152.681C130.45 152.705 130.41 152.717 130.368 152.716V152.728Z" fill="#263238"/>
<path d="M94.296 165.436C94.243 165.436 94.1921 165.415 94.1546 165.377C94.1171 165.34 94.096 165.289 94.096 165.236L94 154.168C93.9995 154.142 94.0041 154.115 94.0137 154.091C94.0233 154.067 94.0375 154.044 94.0557 154.025C94.0739 154.006 94.0957 153.991 94.1198 153.981C94.1438 153.97 94.1697 153.964 94.196 153.964C94.2491 153.964 94.2999 153.985 94.3374 154.022C94.3749 154.06 94.396 154.111 94.396 154.164L94.512 165.232C94.512 165.285 94.4911 165.337 94.4537 165.375C94.4163 165.413 94.3654 165.435 94.312 165.436H94.296Z" fill="#263238"/>
<path d="M93.496 162.696H88.696C88.643 162.696 88.5921 162.675 88.5546 162.637C88.5171 162.6 88.496 162.549 88.496 162.496C88.496 162.443 88.5171 162.392 88.5546 162.354C88.5921 162.317 88.643 162.296 88.696 162.296H93.496C93.549 162.296 93.5999 162.317 93.6374 162.354C93.6749 162.392 93.696 162.443 93.696 162.496C93.695 162.549 93.6736 162.599 93.6363 162.636C93.599 162.673 93.5487 162.695 93.496 162.696Z" fill="#263238"/>
<path d="M89.844 156.188C89.793 156.188 89.7438 156.169 89.7067 156.134C89.6695 156.099 89.6471 156.051 89.644 156C89.6424 155.974 89.646 155.948 89.6546 155.923C89.6632 155.899 89.6767 155.876 89.6942 155.857C89.7117 155.837 89.7329 155.822 89.7566 155.81C89.7803 155.799 89.8059 155.793 89.832 155.792L91.772 155.676C91.7983 155.675 91.8246 155.678 91.8495 155.687C91.8744 155.695 91.8973 155.709 91.917 155.726C91.9367 155.744 91.9528 155.765 91.9643 155.788C91.9758 155.812 91.9825 155.838 91.984 155.864C91.9862 155.917 91.9679 155.969 91.9328 156.008C91.8977 156.048 91.8487 156.072 91.796 156.076L89.856 156.188H89.844Z" fill="#263238"/>
</svg>
